<svg width="65" height="30" viewBox="0 0 65 30" fill="none" xmlns="http://www.w3.org/2000/svg">
<g filter="url(#filter0_i_215_654)">
<path d="M55.003 28.25L62.6745 1.75H14.3055C10.303 2.52292 1.70347 5.46 1.9703 15C2.23713 24.54 10.5311 28.1396 14.6448 28.25H55.003Z" fill="#1C416D" stroke="#0D2B59" stroke-opacity="0.3" stroke-width="2"/>
<path d="M14.3733 18.1576C13.86 18.1576 13.4067 18.0709 13.0133 17.8976C12.62 17.7176 12.31 17.4643 12.0833 17.1376C11.8567 16.8043 11.74 16.4009 11.7333 15.9276H13.0833C13.0967 16.2543 13.2133 16.5309 13.4333 16.7576C13.66 16.9776 13.97 17.0876 14.3633 17.0876C14.7033 17.0876 14.9733 17.0076 15.1733 16.8476C15.3733 16.6809 15.4733 16.4609 15.4733 16.1876C15.4733 15.9009 15.3833 15.6776 15.2033 15.5176C15.03 15.3576 14.7967 15.2276 14.5033 15.1276C14.21 15.0276 13.8967 14.9209 13.5633 14.8076C13.0233 14.6209 12.61 14.3809 12.3233 14.0876C12.0433 13.7943 11.9033 13.4043 11.9033 12.9176C11.8967 12.5043 11.9933 12.1509 12.1933 11.8576C12.4 11.5576 12.68 11.3276 13.0333 11.1676C13.3867 11.0009 13.7933 10.9176 14.2533 10.9176C14.72 10.9176 15.13 11.0009 15.4833 11.1676C15.8433 11.3343 16.1233 11.5676 16.3233 11.8676C16.53 12.1676 16.64 12.5243 16.6533 12.9376H15.2833C15.2767 12.6909 15.18 12.4743 14.9933 12.2876C14.8133 12.0943 14.56 11.9976 14.2333 11.9976C13.9533 11.9909 13.7167 12.0609 13.5233 12.2076C13.3367 12.3476 13.2433 12.5543 13.2433 12.8276C13.2433 13.0609 13.3167 13.2476 13.4633 13.3876C13.61 13.5209 13.81 13.6343 14.0633 13.7276C14.3167 13.8209 14.6067 13.9209 14.9333 14.0276C15.28 14.1476 15.5967 14.2876 15.8833 14.4476C16.17 14.6076 16.4 14.8209 16.5733 15.0876C16.7467 15.3476 16.8333 15.6843 16.8333 16.0976C16.8333 16.4643 16.74 16.8043 16.5533 17.1176C16.3667 17.4309 16.09 17.6843 15.7233 17.8776C15.3567 18.0643 14.9067 18.1576 14.3733 18.1576ZM20.3301 18.1576C19.8301 18.1576 19.3868 18.0509 19.0001 17.8376C18.6135 17.6243 18.3101 17.3243 18.0901 16.9376C17.8701 16.5509 17.7601 16.1043 17.7601 15.5976C17.7601 15.0843 17.8668 14.6276 18.0801 14.2276C18.3001 13.8276 18.6001 13.5176 18.9801 13.2976C19.3668 13.0709 19.8201 12.9576 20.3401 12.9576C20.8268 12.9576 21.2568 13.0643 21.6301 13.2776C22.0035 13.4909 22.2935 13.7843 22.5001 14.1576C22.7135 14.5243 22.8201 14.9343 22.8201 15.3876C22.8201 15.4609 22.8168 15.5376 22.8101 15.6176C22.8101 15.6976 22.8068 15.7809 22.8001 15.8676H19.0301C19.0568 16.2543 19.1901 16.5576 19.4301 16.7776C19.6768 16.9976 19.9735 17.1076 20.3201 17.1076C20.5801 17.1076 20.7968 17.0509 20.9701 16.9376C21.1501 16.8176 21.2835 16.6643 21.3701 16.4776H22.6701C22.5768 16.7909 22.4201 17.0776 22.2001 17.3376C21.9868 17.5909 21.7201 17.7909 21.4001 17.9376C21.0868 18.0843 20.7301 18.1576 20.3301 18.1576ZM20.3401 13.9976C20.0268 13.9976 19.7501 14.0876 19.5101 14.2676C19.2701 14.4409 19.1168 14.7076 19.0501 15.0676H21.5201C21.5001 14.7409 21.3801 14.4809 21.1601 14.2876C20.9401 14.0943 20.6668 13.9976 20.3401 13.9976ZM23.8967 18.0376V13.0776H25.0267L25.1267 13.9176C25.28 13.6243 25.5 13.3909 25.7867 13.2176C26.08 13.0443 26.4234 12.9576 26.8167 12.9576C27.43 12.9576 27.9067 13.1509 28.2467 13.5376C28.5867 13.9243 28.7567 14.4909 28.7567 15.2376V18.0376H27.4767V15.3576C27.4767 14.9309 27.39 14.6043 27.2167 14.3776C27.0434 14.1509 26.7734 14.0376 26.4067 14.0376C26.0467 14.0376 25.75 14.1643 25.5167 14.4176C25.29 14.6709 25.1767 15.0243 25.1767 15.4776V18.0376H23.8967ZM32.2607 18.1576C31.794 18.1576 31.3774 18.0443 31.0107 17.8176C30.644 17.5909 30.354 17.2809 30.1407 16.8876C29.9274 16.4943 29.8207 16.0476 29.8207 15.5476C29.8207 15.0476 29.9274 14.6043 30.1407 14.2176C30.354 13.8243 30.644 13.5176 31.0107 13.2976C31.3774 13.0709 31.794 12.9576 32.2607 12.9576C32.634 12.9576 32.9607 13.0276 33.2407 13.1676C33.5207 13.3076 33.7474 13.5043 33.9207 13.7576V10.8376H35.2007V18.0376H34.0607L33.9207 17.3276C33.7607 17.5476 33.5474 17.7409 33.2807 17.9076C33.0207 18.0743 32.6807 18.1576 32.2607 18.1576ZM32.5307 17.0376C32.944 17.0376 33.2807 16.9009 33.5407 16.6276C33.8074 16.3476 33.9407 15.9909 33.9407 15.5576C33.9407 15.1243 33.8074 14.7709 33.5407 14.4976C33.2807 14.2176 32.944 14.0776 32.5307 14.0776C32.124 14.0776 31.7874 14.2143 31.5207 14.4876C31.254 14.7609 31.1207 15.1143 31.1207 15.5476C31.1207 15.9809 31.254 16.3376 31.5207 16.6176C31.7874 16.8976 32.124 17.0376 32.5307 17.0376Z" fill="white"/>
<path d="M47.4906 15.2877C47.6679 15.2877 47.838 15.3575 47.9634 15.4818C48.0887 15.606 48.1592 15.7745 48.1592 15.9502V20.5877C48.1592 20.7635 48.0887 20.932 47.9634 21.0562C47.838 21.1804 47.6679 21.2502 47.4906 21.2502C47.3133 21.2502 47.1432 21.1804 47.0179 21.0562C46.8925 20.932 46.822 20.7635 46.822 20.5877V15.9502C46.822 15.7745 46.8925 15.606 47.0179 15.4818C47.1432 15.3575 47.3133 15.2877 47.4906 15.2877Z" fill="white"/>
<path d="M47.4908 13.9629C47.5788 13.9624 47.666 13.9791 47.7474 14.0121C47.8289 14.0451 47.903 14.0937 47.9655 14.1551L49.3026 15.4801C49.4121 15.6068 49.4694 15.7698 49.4629 15.9366C49.4564 16.1033 49.3866 16.2615 49.2676 16.3794C49.1485 16.4974 48.9889 16.5666 48.8206 16.573C48.6523 16.5794 48.4878 16.5227 48.3599 16.4142L47.4908 15.5596L46.6283 16.4142C46.5004 16.5227 46.3359 16.5794 46.1676 16.573C45.9994 16.5666 45.8398 16.4974 45.7207 16.3794C45.6016 16.2615 45.5319 16.1033 45.5254 15.9366C45.5189 15.7698 45.5761 15.6068 45.6856 15.4801L47.0228 14.1551C47.1473 14.0327 47.3154 13.9637 47.4908 13.9629Z" fill="white"/>
<path d="M47.3717 8.00029C48.8635 7.98608 50.3155 8.4981 51.4888 9.45207C52.6621 10.406 53.4867 11.7451 53.8269 13.2489C54.1672 14.7527 54.0027 16.3316 53.3606 17.7257C52.7186 19.1199 51.6372 20.2462 50.2944 20.9193C50.2169 20.9623 50.1318 20.9888 50.0442 20.9971C49.9566 21.0055 49.8683 20.9955 49.7845 20.9679C49.7007 20.9402 49.6231 20.8954 49.5564 20.8362C49.4896 20.7769 49.435 20.7043 49.3959 20.6228C49.3567 20.5412 49.3338 20.4524 49.3284 20.3615C49.3231 20.2706 49.3354 20.1795 49.3647 20.0937C49.3939 20.0078 49.4396 19.9289 49.4989 19.8617C49.5582 19.7944 49.6299 19.7402 49.7098 19.7022C50.7715 19.157 51.6239 18.2563 52.1287 17.1463C52.6335 16.0363 52.7611 14.7823 52.4906 13.5878C52.2202 12.3933 51.5676 11.3286 50.639 10.5665C49.7103 9.80434 48.56 9.38961 47.3749 9.38961C46.1899 9.38961 45.0396 9.80434 44.1109 10.5665C43.1822 11.3286 42.5297 12.3933 42.2592 13.5878C41.9888 14.7823 42.1163 16.0363 42.6212 17.1463C43.126 18.2563 43.9784 19.157 45.04 19.7022C45.12 19.7402 45.1917 19.7944 45.251 19.8617C45.3103 19.9289 45.3559 20.0078 45.3852 20.0937C45.4145 20.1795 45.4268 20.2706 45.4215 20.3615C45.4161 20.4524 45.3932 20.5412 45.354 20.6228C45.3148 20.7043 45.2603 20.7769 45.1935 20.8362C45.1267 20.8954 45.0492 20.9402 44.9654 20.9679C44.8816 20.9955 44.7933 21.0055 44.7057 20.9971C44.6181 20.9888 44.533 20.9623 44.4555 20.9193C43.1133 20.2464 42.0322 19.1207 41.39 17.7273C40.7479 16.3338 40.583 14.7557 40.9223 13.2523C41.2617 11.7489 42.0851 10.4098 43.2573 9.45532C44.4294 8.5008 45.8804 7.98766 47.3717 8.00029Z" fill="white"/>
</g>
<defs>
<filter id="filter0_i_215_654" x="0.964233" y="0.75" width="63.0406" height="32.5" filterUnits="userSpaceOnUse" color-interpolation-filters="sRGB">
<feFlood flood-opacity="0" result="BackgroundImageFix"/>
<feBlend mode="normal" in="SourceGraphic" in2="BackgroundImageFix" result="shape"/>
<feColorMatrix in="SourceAlpha" type="matrix" values="0 0 0 0 0 0 0 0 0 0 0 0 0 0 0 0 0 0 127 0" result="hardAlpha"/>
<feOffset dy="4"/>
<feGaussianBlur stdDeviation="2"/>
<feComposite in2="hardAlpha" operator="arithmetic" k2="-1" k3="1"/>
<feColorMatrix type="matrix" values="0 0 0 0 0 0 0 0 0 0 0 0 0 0 0 0 0 0 0.25 0"/>
<feBlend mode="normal" in2="shape" result="effect1_innerShadow_215_654"/>
</filter>
</defs>
</svg>
