<svg width="69" height="30" viewBox="0 0 69 30" fill="none" xmlns="http://www.w3.org/2000/svg">
<g filter="url(#filter0_i_514_383)">
<path d="M60.0439 30L68.7286 0H13.9713C9.44016 0.875 -0.295202 4.2 0.00687094 15C0.308944 25.8 9.69839 29.875 14.3554 30H60.0439Z" fill="#DD3263"/>
<path d="M14.068 1H67.398L59.2924 29H14.3692C12.2611 28.9398 8.96737 27.9679 6.17442 25.7236C3.41104 23.5031 1.14847 20.0486 1.00648 14.972C0.865572 9.93418 3.04262 6.69223 5.78831 4.56922C8.53755 2.44347 11.8761 1.43322 14.068 1Z" stroke="#AF3E5F" stroke-opacity="0.65" stroke-width="2"/>
<path d="M16.2992 18.37C15.7858 18.37 15.3325 18.2833 14.9392 18.11C14.5458 17.93 14.2358 17.6767 14.0092 17.35C13.7825 17.0167 13.6658 16.6133 13.6592 16.14H15.0092C15.0225 16.4667 15.1392 16.7433 15.3592 16.97C15.5858 17.19 15.8959 17.3 16.2892 17.3C16.6292 17.3 16.8992 17.22 17.0992 17.06C17.2992 16.8933 17.3992 16.6733 17.3992 16.4C17.3992 16.1133 17.3092 15.89 17.1292 15.73C16.9559 15.57 16.7225 15.44 16.4292 15.34C16.1359 15.24 15.8225 15.1333 15.4892 15.02C14.9492 14.8333 14.5358 14.5933 14.2492 14.3C13.9692 14.0067 13.8292 13.6167 13.8292 13.13C13.8225 12.7167 13.9192 12.3633 14.1192 12.07C14.3258 11.77 14.6058 11.54 14.9592 11.38C15.3125 11.2133 15.7192 11.13 16.1792 11.13C16.6458 11.13 17.0558 11.2133 17.4092 11.38C17.7692 11.5467 18.0492 11.78 18.2492 12.08C18.4559 12.38 18.5659 12.7367 18.5792 13.15H17.2092C17.2025 12.9033 17.1059 12.6867 16.9192 12.5C16.7392 12.3067 16.4858 12.21 16.1592 12.21C15.8792 12.2033 15.6425 12.2733 15.4492 12.42C15.2625 12.56 15.1692 12.7667 15.1692 13.04C15.1692 13.2733 15.2425 13.46 15.3892 13.6C15.5358 13.7333 15.7358 13.8467 15.9892 13.94C16.2425 14.0333 16.5325 14.1333 16.8592 14.24C17.2059 14.36 17.5225 14.5 17.8092 14.66C18.0959 14.82 18.3259 15.0333 18.4992 15.3C18.6725 15.56 18.7592 15.8967 18.7592 16.31C18.7592 16.6767 18.6659 17.0167 18.4792 17.33C18.2925 17.6433 18.0159 17.8967 17.6492 18.09C17.2825 18.2767 16.8325 18.37 16.2992 18.37ZM22.256 18.37C21.756 18.37 21.3126 18.2633 20.926 18.05C20.5393 17.8367 20.236 17.5367 20.016 17.15C19.796 16.7633 19.686 16.3167 19.686 15.81C19.686 15.2967 19.7926 14.84 20.006 14.44C20.226 14.04 20.526 13.73 20.906 13.51C21.2926 13.2833 21.746 13.17 22.266 13.17C22.7526 13.17 23.1826 13.2767 23.556 13.49C23.9293 13.7033 24.2193 13.9967 24.426 14.37C24.6393 14.7367 24.746 15.1467 24.746 15.6C24.746 15.6733 24.7426 15.75 24.736 15.83C24.736 15.91 24.7326 15.9933 24.726 16.08H20.956C20.9826 16.4667 21.116 16.77 21.356 16.99C21.6026 17.21 21.8993 17.32 22.246 17.32C22.506 17.32 22.7226 17.2633 22.896 17.15C23.076 17.03 23.2093 16.8767 23.296 16.69H24.596C24.5026 17.0033 24.346 17.29 24.126 17.55C23.9126 17.8033 23.646 18.0033 23.326 18.15C23.0126 18.2967 22.656 18.37 22.256 18.37ZM22.266 14.21C21.9526 14.21 21.676 14.3 21.436 14.48C21.196 14.6533 21.0426 14.92 20.976 15.28H23.446C23.426 14.9533 23.306 14.6933 23.086 14.5C22.866 14.3067 22.5926 14.21 22.266 14.21ZM25.8225 18.25V13.29H26.9525L27.0525 14.13C27.2059 13.8367 27.4259 13.6033 27.7125 13.43C28.0059 13.2567 28.3492 13.17 28.7425 13.17C29.3559 13.17 29.8325 13.3633 30.1725 13.75C30.5125 14.1367 30.6825 14.7033 30.6825 15.45V18.25H29.4025V15.57C29.4025 15.1433 29.3159 14.8167 29.1425 14.59C28.9692 14.3633 28.6992 14.25 28.3325 14.25C27.9725 14.25 27.6759 14.3767 27.4425 14.63C27.2159 14.8833 27.1025 15.2367 27.1025 15.69V18.25H25.8225ZM34.1865 18.37C33.7199 18.37 33.3032 18.2567 32.9365 18.03C32.5699 17.8033 32.2799 17.4933 32.0665 17.1C31.8532 16.7067 31.7465 16.26 31.7465 15.76C31.7465 15.26 31.8532 14.8167 32.0665 14.43C32.2799 14.0367 32.5699 13.73 32.9365 13.51C33.3032 13.2833 33.7199 13.17 34.1865 13.17C34.5599 13.17 34.8865 13.24 35.1665 13.38C35.4465 13.52 35.6732 13.7167 35.8465 13.97V11.05H37.1265V18.25H35.9865L35.8465 17.54C35.6865 17.76 35.4732 17.9533 35.2065 18.12C34.9465 18.2867 34.6065 18.37 34.1865 18.37ZM34.4565 17.25C34.8699 17.25 35.2065 17.1133 35.4665 16.84C35.7332 16.56 35.8665 16.2033 35.8665 15.77C35.8665 15.3367 35.7332 14.9833 35.4665 14.71C35.2065 14.43 34.8699 14.29 34.4565 14.29C34.0499 14.29 33.7132 14.4267 33.4465 14.7C33.1799 14.9733 33.0465 15.3267 33.0465 15.76C33.0465 16.1933 33.1799 16.55 33.4465 16.83C33.7132 17.11 34.0499 17.25 34.4565 17.25Z" fill="white"/>
<path d="M49.096 15.0427C49.305 15.0427 49.5054 15.1217 49.6532 15.2624C49.801 15.4031 49.884 15.5938 49.884 15.7927V21.0427C49.884 21.2416 49.801 21.4324 49.6532 21.5731C49.5054 21.7137 49.305 21.7927 49.096 21.7927C48.887 21.7927 48.6866 21.7137 48.5388 21.5731C48.391 21.4324 48.308 21.2416 48.308 21.0427V15.7927C48.308 15.5938 48.391 15.4031 48.5388 15.2624C48.6866 15.1217 48.887 15.0427 49.096 15.0427Z" fill="white"/>
<path d="M49.0961 13.5429C49.1998 13.5424 49.3026 13.5613 49.3986 13.5986C49.4946 13.6359 49.582 13.6909 49.6556 13.7604L51.2317 15.2604C51.3608 15.4039 51.4282 15.5885 51.4206 15.7772C51.4129 15.966 51.3307 16.145 51.1903 16.2786C51.05 16.4122 50.8619 16.4904 50.6635 16.4977C50.4652 16.505 50.2713 16.4408 50.1205 16.3179L49.0961 15.3504L48.0795 16.3179C47.9288 16.4408 47.7349 16.505 47.5365 16.4977C47.3382 16.4904 47.1501 16.4122 47.0097 16.2786C46.8694 16.145 46.7872 15.966 46.7795 15.7772C46.7718 15.5885 46.8393 15.4039 46.9684 15.2604L48.5445 13.7604C48.6912 13.6219 48.8894 13.5438 49.0961 13.5429Z" fill="white"/>
<path d="M48.9557 6.79278C50.7141 6.7767 52.4256 7.35634 53.8085 8.43631C55.1914 9.51628 56.1634 11.0322 56.5644 12.7346C56.9654 14.437 56.7715 16.2245 56.0148 17.8027C55.258 19.381 53.9833 20.6561 52.4007 21.418C52.3093 21.4668 52.209 21.4967 52.1058 21.5062C52.0026 21.5156 51.8985 21.5044 51.7997 21.4731C51.7009 21.4418 51.6095 21.3911 51.5308 21.3239C51.4521 21.2568 51.3878 21.1747 51.3416 21.0824C51.2955 20.9901 51.2684 20.8895 51.2621 20.7866C51.2558 20.6837 51.2703 20.5806 51.3048 20.4834C51.3393 20.3862 51.3931 20.2969 51.463 20.2208C51.5329 20.1446 51.6175 20.0832 51.7117 20.0402C52.963 19.423 53.9677 18.4033 54.5627 17.1468C55.1578 15.8902 55.3081 14.4705 54.9893 13.1183C54.6706 11.766 53.9014 10.5607 52.8068 9.69788C51.7122 8.8351 50.3564 8.36559 48.9596 8.36559C47.5628 8.36559 46.207 8.8351 45.1124 9.69788C44.0178 10.5607 43.2486 11.766 42.9298 13.1183C42.6111 14.4705 42.7614 15.8902 43.3564 17.1468C43.9514 18.4033 44.9562 19.423 46.2075 20.0402C46.3017 20.0832 46.3863 20.1446 46.4562 20.2208C46.526 20.2969 46.5798 20.3862 46.6144 20.4834C46.6489 20.5806 46.6634 20.6837 46.6571 20.7866C46.6508 20.8895 46.6237 20.9901 46.5776 21.0824C46.5314 21.1747 46.4671 21.2568 46.3884 21.3239C46.3097 21.3911 46.2183 21.4418 46.1195 21.4731C46.0207 21.5044 45.9166 21.5156 45.8134 21.5062C45.7101 21.4967 45.6099 21.4668 45.5185 21.418C43.9365 20.6563 42.6622 19.3819 41.9053 17.8045C41.1485 16.227 40.9541 14.4404 41.354 12.7384C41.754 11.0365 42.7246 9.52058 44.1062 8.43999C45.4877 7.3594 47.198 6.77848 48.9557 6.79278Z" fill="white"/>
</g>
<defs>
<filter id="filter0_i_514_383" x="0" y="0" width="68.7286" height="34" filterUnits="userSpaceOnUse" color-interpolation-filters="sRGB">
<feFlood flood-opacity="0" result="BackgroundImageFix"/>
<feBlend mode="normal" in="SourceGraphic" in2="BackgroundImageFix" result="shape"/>
<feColorMatrix in="SourceAlpha" type="matrix" values="0 0 0 0 0 0 0 0 0 0 0 0 0 0 0 0 0 0 127 0" result="hardAlpha"/>
<feOffset dy="4"/>
<feGaussianBlur stdDeviation="2"/>
<feComposite in2="hardAlpha" operator="arithmetic" k2="-1" k3="1"/>
<feColorMatrix type="matrix" values="0 0 0 0 0 0 0 0 0 0 0 0 0 0 0 0 0 0 0.25 0"/>
<feBlend mode="normal" in2="shape" result="effect1_innerShadow_514_383"/>
</filter>
</defs>
</svg>
