<svg width="35" height="35" viewBox="0 0 35 35" fill="none" xmlns="http://www.w3.org/2000/svg">
<path d="M17.5 0C7.85021 0 0 7.85021 0 17.5C0 27.1498 7.85021 35 17.5 35C27.1498 35 35 27.1498 35 17.5C35 7.85021 27.1498 0 17.5 0Z" fill="white"/>
<path d="M23.1263 16.0417C22.4744 13.5333 20.211 11.6667 17.5 11.6667C14.2829 11.6667 11.6667 14.2829 11.6667 17.5C11.6667 20.7171 14.2829 23.3333 17.5 23.3333C20.211 23.3333 22.4744 21.4667 23.1263 18.9583H26.1187C25.4217 23.0898 21.8283 26.25 17.5 26.25C12.6744 26.25 8.75 22.3256 8.75 17.5C8.75 12.6744 12.6744 8.75 17.5 8.75C21.8269 8.75 25.4202 11.9102 26.1187 16.0417H23.1263Z" fill="#3897E3"/>
<path d="M17.5 18.9583H21.6067C21.3069 19.8089 20.7512 20.5458 20.0159 21.068C19.2807 21.5902 18.4018 21.8721 17.5 21.875C15.0879 21.875 13.125 19.9121 13.125 17.5C13.125 15.0879 15.0879 13.125 17.5 13.125C19.3988 13.125 21.0029 14.3485 21.6067 16.0417H17.5C17.1132 16.0417 16.7423 16.1953 16.4688 16.4688C16.1953 16.7423 16.0417 17.1132 16.0417 17.5C16.0417 17.8868 16.1953 18.2577 16.4688 18.5312C16.7423 18.8047 17.1132 18.9583 17.5 18.9583Z" fill="#003A4D"/>
<path d="M27.5916 16.0411H32.0832C32.8824 16.0411 33.5255 16.6842 33.5372 17.479H33.5401C33.5336 13.4863 32.0309 9.64106 29.3285 6.7019L25.2057 10.8246C26.4856 12.2981 27.3139 14.1092 27.5916 16.0411Z" fill="#3897E3"/>
<path d="M32.0833 18.9587H27.5916C26.8799 23.8981 22.6318 27.7087 17.4999 27.7087C11.8722 27.7087 7.29162 23.1296 7.29162 17.5004C7.29162 11.8712 11.8722 7.29207 17.4999 7.29207C20.052 7.29207 22.3824 8.23999 24.1747 9.79457L28.2974 5.67186C25.3536 2.96381 21.5 1.46016 17.4999 1.45874C8.65516 1.45874 1.45828 8.65561 1.45828 17.5004C1.45828 26.3452 8.65516 33.5421 17.4999 33.5421C26.3447 33.5421 33.5416 26.3452 33.5416 17.5004C33.5416 17.8872 33.388 18.2581 33.1145 18.5316C32.841 18.8051 32.4701 18.9587 32.0833 18.9587Z" fill="#0D2B59"/>
<path d="M17.5001 5.8334C17.7889 5.83369 18.0713 5.74828 18.3116 5.58799C18.5519 5.4277 18.7392 5.19972 18.8499 4.93292C18.9606 4.66612 18.9896 4.37248 18.9333 4.08918C18.877 3.80587 18.738 3.54563 18.5337 3.34138C18.3295 3.13714 18.0693 2.99808 17.7859 2.9418C17.5026 2.88552 17.209 2.91455 16.9422 3.02522C16.6754 3.13589 16.4474 3.32322 16.2871 3.5635C16.1268 3.80379 16.0414 4.08622 16.0417 4.37507C16.0417 5.17861 16.6951 5.8334 17.5001 5.8334ZM17.5001 4.37361C17.5001 4.37507 17.5001 4.37507 17.5001 4.37361V4.37361ZM17.5001 29.1667C17.1246 29.1835 16.77 29.3445 16.5102 29.6162C16.2505 29.8878 16.1055 30.2492 16.1055 30.6251C16.1055 31.0009 16.2505 31.3623 16.5102 31.634C16.77 31.9056 17.1246 32.0666 17.5001 32.0834C17.8755 32.0666 18.2301 31.9056 18.4899 31.634C18.7496 31.3623 18.8946 31.0009 18.8946 30.6251C18.8946 30.2492 18.7496 29.8878 18.4899 29.6162C18.2301 29.3445 17.8755 29.1835 17.5001 29.1667Z" fill="white"/>
<path d="M21.6067 18.9583H17.5C17.2969 18.9574 17.0964 18.9133 16.9116 18.8291C16.7268 18.7449 16.5621 18.6224 16.4281 18.4698L16.4062 18.4713L19.3754 21.4404C20.4158 20.9376 21.2171 20.0462 21.6067 18.9583ZM26.1188 18.9583H23.1263C22.7344 20.4487 21.7722 21.7252 20.4473 22.5123L22.54 24.605C24.3892 23.2867 25.725 21.2902 26.1188 18.9583ZM32.0833 18.9583H27.5917C27.2013 21.6346 25.7666 24.0472 23.6017 25.6681L27.755 29.8215C29.5658 28.3192 31.0232 26.4362 32.0234 24.3065C33.0236 22.1768 33.542 19.8529 33.5417 17.5C33.5417 17.8868 33.388 18.2577 33.1145 18.5312C32.841 18.8047 32.4701 18.9583 32.0833 18.9583Z" fill="url(#paint0_linear_398_1267)"/>
<path d="M8.2191 9.67736C8.50719 9.67702 8.78872 9.59135 9.02817 9.43117C9.26762 9.271 9.45427 9.04349 9.56456 8.77735C9.67485 8.51121 9.70385 8.21837 9.64789 7.93577C9.59194 7.65317 9.45353 7.39347 9.25014 7.18945C8.97404 6.93017 8.6079 6.78848 8.22919 6.79437C7.85049 6.80025 7.48892 6.95324 7.22101 7.22096C6.95309 7.48869 6.79985 7.85014 6.7937 8.22885C6.78755 8.60755 6.92898 8.97379 7.18806 9.25007C7.3233 9.38569 7.48401 9.49326 7.66095 9.56659C7.83789 9.63992 8.02757 9.67756 8.2191 9.67736ZM25.7497 25.7497C25.6137 25.8849 25.5059 26.0458 25.4326 26.2231C25.3592 26.4003 25.3218 26.5903 25.3224 26.7822C25.322 26.9736 25.3595 27.1633 25.4327 27.3403C25.5059 27.5172 25.6134 27.6779 25.7489 27.8132C25.8844 27.9485 26.0454 28.0556 26.2225 28.1284C26.3995 28.2012 26.5893 28.2383 26.7808 28.2376C26.9724 28.2383 27.1622 28.2012 27.3394 28.1283C27.5166 28.0554 27.6776 27.9481 27.8132 27.8127C27.9487 27.6773 28.0561 27.5164 28.1292 27.3392C28.2023 27.1621 28.2397 26.9723 28.2391 26.7807C28.2377 26.4929 28.1513 26.212 27.9908 25.9731C27.8303 25.7343 27.6029 25.5481 27.337 25.438C27.0711 25.3279 26.7787 25.2987 26.4963 25.3541C26.2139 25.4096 25.9542 25.5472 25.7497 25.7497ZM4.37493 16.0415C3.99944 16.0583 3.6449 16.2193 3.38513 16.491C3.12536 16.7626 2.98038 17.124 2.98038 17.4999C2.98038 17.8757 3.12536 18.2371 3.38513 18.5088C3.6449 18.7804 3.99944 18.9414 4.37493 18.9582C4.75042 18.9414 5.10497 18.7804 5.36474 18.5088C5.62451 18.2371 5.76949 17.8757 5.76949 17.4999C5.76949 17.124 5.62451 16.7626 5.36474 16.491C5.10497 16.2193 4.75042 16.0583 4.37493 16.0415ZM7.18806 25.7497C7.05207 25.8849 6.94427 26.0458 6.87093 26.2231C6.79758 26.4003 6.76014 26.5903 6.76077 26.7822C6.76038 26.9736 6.79786 27.1633 6.87105 27.3403C6.94423 27.5172 7.05169 27.6779 7.18722 27.8132C7.32275 27.9485 7.4837 28.0556 7.66079 28.1284C7.83788 28.2012 8.02762 28.2383 8.2191 28.2376C8.4107 28.2383 8.60057 28.2012 8.77775 28.1283C8.95494 28.0554 9.11595 27.9481 9.2515 27.8127C9.38705 27.6773 9.49447 27.5164 9.56757 27.3392C9.64068 27.1621 9.67801 26.9723 9.67743 26.7807C9.67599 26.4929 9.58962 26.212 9.42914 25.9731C9.26866 25.7343 9.04122 25.5481 8.77536 25.438C8.50949 25.3279 8.21702 25.2987 7.93464 25.3541C7.65227 25.4096 7.39255 25.5472 7.18806 25.7497ZM7.70285 26.2645L8.21764 26.7792L8.2191 26.7807L7.70285 26.2645Z" fill="white"/>
<path d="M17.5001 18.9579H32.0834C32.4702 18.9579 32.8411 18.8043 33.1146 18.5308C33.3881 18.2573 33.5417 17.8864 33.5417 17.4996C33.5417 17.1128 33.3881 16.7419 33.1146 16.4684C32.8411 16.1949 32.4702 16.0413 32.0834 16.0413H17.5001C17.1133 16.0413 16.7423 16.1949 16.4689 16.4684C16.1954 16.7419 16.0417 17.1128 16.0417 17.4996C16.0417 17.8864 16.1954 18.2573 16.4689 18.5308C16.7423 18.8043 17.1133 18.9579 17.5001 18.9579Z" fill="#FFB750"/>
<defs>
<linearGradient id="paint0_linear_398_1267" x1="20.9329" y1="13.946" x2="32.3298" y2="25.3415" gradientUnits="userSpaceOnUse">
<stop stop-opacity="0.23"/>
<stop offset="1" stop-opacity="0.08"/>
</linearGradient>
</defs>
</svg>
