<svg width="24" height="24" viewBox="0 0 24 24" fill="none" xmlns="http://www.w3.org/2000/svg">
<path opacity="0.5" d="M3 10C3 6.229 3 4.343 4.172 3.172C5.343 2 7.229 2 11 2L13 2C16.771 2 18.657 2 19.828 3.172C21 4.343 21 6.229 21 10V14C21 17.771 21 19.657 19.828 20.828C18.657 22 16.771 22 13 22H11C7.229 22 5.343 22 4.172 20.828C3 19.657 3 17.771 3 14V10Z" fill="white"/>
<path d="M16.5191 16.5012C16.6941 16.3652 16.8531 16.2062 17.1701 15.8892L21.1271 11.9312C21.2231 11.8362 21.1791 11.6712 21.0521 11.6262C20.4329 11.4104 19.8708 11.0568 19.4081 10.5922C18.9435 10.1295 18.5899 9.56738 18.3741 8.94818C18.3291 8.82118 18.1641 8.77718 18.0691 8.87318L14.1101 12.8302C13.7931 13.1472 13.6341 13.3062 13.4981 13.4812C13.3371 13.6882 13.1981 13.9112 13.0861 14.1472C12.9911 14.3472 12.9201 14.5612 12.7781 14.9872L12.5941 15.5372L12.3021 16.4122L12.0291 17.2322C11.9951 17.335 11.9903 17.4452 12.0153 17.5505C12.0402 17.6559 12.094 17.7522 12.1706 17.8288C12.2471 17.9053 12.3434 17.9591 12.4488 17.984C12.5541 18.009 12.6644 18.0042 12.7671 17.9702L13.5871 17.6972L14.4621 17.4052L15.0121 17.2212C15.4381 17.0792 15.6521 17.0092 15.8521 16.9132C16.0881 16.8002 16.3131 16.6632 16.5191 16.5012ZM22.3661 10.6922C22.5726 10.4927 22.7373 10.254 22.8507 9.99017C22.964 9.72632 23.0236 9.44255 23.0261 9.15541C23.0286 8.86827 22.9739 8.58351 22.8652 8.31773C22.7565 8.05196 22.5959 7.81049 22.3929 7.60741C22.1899 7.40433 21.9485 7.24371 21.6827 7.13491C21.417 7.02611 21.1323 6.97131 20.8451 6.97371C20.558 6.97611 20.2742 7.03566 20.0103 7.14888C19.7464 7.26211 19.5077 7.42674 19.3081 7.63318L19.1811 7.76118C19.1206 7.82087 19.0755 7.89439 19.0497 7.9754C19.0239 8.05642 19.0182 8.14248 19.0331 8.22618C19.0531 8.33318 19.0881 8.49118 19.1531 8.67818C19.2831 9.05318 19.5291 9.54518 19.9921 10.0082C20.3661 10.3851 20.8209 10.672 21.3221 10.8472C21.5101 10.9122 21.6671 10.9472 21.7741 10.9672C21.8578 10.982 21.9439 10.9763 22.0249 10.9505C22.1059 10.9247 22.1794 10.8797 22.2391 10.8192L22.3661 10.6922Z" fill="white"/>
<path fill-rule="evenodd" clip-rule="evenodd" d="M7.25 9C7.25 8.80109 7.32902 8.61032 7.46967 8.46967C7.61032 8.32902 7.80109 8.25 8 8.25H14.5C14.6989 8.25 14.8897 8.32902 15.0303 8.46967C15.171 8.61032 15.25 8.80109 15.25 9C15.25 9.19891 15.171 9.38968 15.0303 9.53033C14.8897 9.67098 14.6989 9.75 14.5 9.75H8C7.80109 9.75 7.61032 9.67098 7.46967 9.53033C7.32902 9.38968 7.25 9.19891 7.25 9ZM7.25 13C7.25 12.8011 7.32902 12.6103 7.46967 12.4697C7.61032 12.329 7.80109 12.25 8 12.25H11C11.1989 12.25 11.3897 12.329 11.5303 12.4697C11.671 12.6103 11.75 12.8011 11.75 13C11.75 13.1989 11.671 13.3897 11.5303 13.5303C11.3897 13.671 11.1989 13.75 11 13.75H8C7.80109 13.75 7.61032 13.671 7.46967 13.5303C7.32902 13.3897 7.25 13.1989 7.25 13ZM7.25 17C7.25 16.8011 7.32902 16.6103 7.46967 16.4697C7.61032 16.329 7.80109 16.25 8 16.25H9.5C9.69891 16.25 9.88968 16.329 10.0303 16.4697C10.171 16.6103 10.25 16.8011 10.25 17C10.25 17.1989 10.171 17.3897 10.0303 17.5303C9.88968 17.671 9.69891 17.75 9.5 17.75H8C7.80109 17.75 7.61032 17.671 7.46967 17.5303C7.32902 17.3897 7.25 17.1989 7.25 17Z" fill="white"/>
</svg>
