<svg width="129" height="31" viewBox="0 0 129 31" fill="none" xmlns="http://www.w3.org/2000/svg">
<g filter="url(#filter0_i_376_439)">
<g clip-path="url(#clip0_376_439)">
<path d="M0.0863647 15.5C0.0863647 7.21573 6.80209 0.5 15.0864 0.5H113.086C121.371 0.5 128.086 7.21573 128.086 15.5C128.086 23.7843 121.371 30.5 113.086 30.5H15.0864C6.80209 30.5 0.0863647 23.7843 0.0863647 15.5Z" fill="#161838"/>
<g filter="url(#filter1_d_376_439)">
<path fill-rule="evenodd" clip-rule="evenodd" d="M7.8881 13.2361C7.8406 13.4133 7.65576 13.5192 7.47527 13.4726C7.29479 13.426 7.18695 13.2444 7.23445 13.0672C7.49213 12.1093 7.90336 11.1857 8.46426 10.3353C9.00485 9.51551 9.68422 8.76451 10.4988 8.11703C12.5757 6.46614 15.1366 5.79803 17.5982 6.05247C20.0609 6.30699 22.4245 7.48381 24.1052 9.52244C24.7302 10.2806 25.2167 11.1042 25.5678 11.9638C25.8345 12.6164 26.0234 13.2895 26.1359 13.9701L26.4536 13.4092C26.5442 13.2491 26.7498 13.1916 26.9127 13.2805C27.0757 13.3695 27.1344 13.5714 27.0438 13.7314L26.2067 15.2096C26.1161 15.3696 25.9105 15.4272 25.7476 15.3382C25.7232 15.3249 25.7012 15.3091 25.6816 15.2912L25.6814 15.2915L24.4205 14.1392C24.2839 14.0143 24.2762 13.8043 24.4033 13.6702C24.5304 13.536 24.7444 13.5284 24.881 13.6533L25.4889 14.2088C25.3876 13.5297 25.2055 12.8587 24.9407 12.2107C24.614 11.4108 24.1618 10.645 23.5813 9.94085C22.0175 8.04409 19.8193 6.94924 17.5295 6.71256C15.2384 6.47576 12.8559 7.09674 10.9249 8.63159C10.1662 9.23472 9.53364 9.9338 9.03066 10.6965C8.51004 11.4858 8.12794 12.3444 7.8881 13.2361ZM6.71916 17.5909C6.62855 17.7509 6.42296 17.8085 6.25999 17.7195C6.09702 17.6305 6.03836 17.4286 6.12897 17.2687L6.96602 15.7905C7.05663 15.6304 7.26222 15.5728 7.42519 15.6618C7.44956 15.6751 7.47158 15.691 7.49115 15.7088L7.49135 15.7086L8.75226 16.8609C8.88889 16.9857 8.8966 17.1957 8.76944 17.3299C8.64228 17.4641 8.42841 17.4717 8.29177 17.3468L7.68411 16.7915C7.78678 17.4798 7.97276 18.1601 8.24374 18.8168C8.57005 19.6077 9.01839 20.3641 9.59148 21.0592C11.1552 22.956 13.3534 24.0508 15.6433 24.2875C17.9343 24.5243 20.3168 23.9034 22.2477 22.3685C23.0065 21.7653 23.6392 21.0662 24.1422 20.3034C24.6627 19.5141 25.0447 18.6556 25.2845 17.7639C25.332 17.5867 25.5168 17.4808 25.6973 17.5274C25.8778 17.574 25.9857 17.7555 25.9382 17.9328C25.6806 18.8906 25.2694 19.8141 24.7085 20.6646C24.1678 21.4844 23.4884 22.2355 22.6738 22.883C20.5969 24.5339 18.0359 25.202 15.5744 24.9475C13.1117 24.693 10.7481 23.5162 9.06741 21.4776C8.44888 20.7273 7.96628 19.9141 7.61646 19.0663C7.34348 18.4046 7.1506 17.7215 7.03637 17.0304L6.71916 17.5909Z" fill="#003A4D"/>
<path d="M16.5863 22.1523C20.3279 22.1523 23.3611 19.1739 23.3611 15.4999C23.3611 11.8258 20.3279 8.84741 16.5863 8.84741C12.8447 8.84741 9.81146 11.8258 9.81146 15.4999C9.81146 19.1739 12.8447 22.1523 16.5863 22.1523Z" fill="#FFB244"/>
<path fill-rule="evenodd" clip-rule="evenodd" d="M16.5864 8.84741C20.328 8.84741 23.3612 11.8258 23.3612 15.4999C23.3612 19.1739 20.328 22.1523 16.5864 22.1523V8.84741Z" fill="#EA9E32"/>
<path d="M20.3295 19.1756C22.3968 17.1456 22.3967 13.8544 20.3294 11.8245C18.2621 9.79461 14.9103 9.79467 12.8431 11.8246C10.7758 13.8546 10.7759 17.1458 12.8432 19.1757C14.9105 21.2056 18.2623 21.2056 20.3295 19.1756Z" fill="white"/>
<path fill-rule="evenodd" clip-rule="evenodd" d="M16.5863 10.3022C16.7002 10.3022 16.8131 10.3062 16.9251 10.3131V10.8011C16.9251 10.9848 16.7734 11.1337 16.5863 11.1337C16.3993 11.1337 16.2476 10.9848 16.2476 10.8011V10.3131C16.3596 10.3062 16.4725 10.3022 16.5863 10.3022ZM18.9361 10.8415C19.1384 10.9401 19.3334 11.0509 19.52 11.1731L19.2716 11.5957C19.1788 11.7543 18.9726 11.809 18.8111 11.7178C18.6496 11.6267 18.5939 11.4242 18.6867 11.2657L18.9361 10.8415ZM20.993 12.6196C21.1175 12.8028 21.2304 12.9943 21.3308 13.193L20.8988 13.4378C20.7373 13.5289 20.5312 13.4743 20.4383 13.3157C20.3455 13.1571 20.4012 12.9546 20.5627 12.8635L20.993 12.6196ZM21.8689 15.1676C21.876 15.2776 21.88 15.3885 21.88 15.5002C21.88 15.612 21.8759 15.7228 21.8689 15.8329H21.3719C21.1848 15.8329 21.0332 15.6839 21.0332 15.5002C21.0332 15.3165 21.1849 15.1676 21.3719 15.1676H21.8689ZM21.3308 17.8075C21.2303 18.0061 21.1175 18.1977 20.993 18.3809L20.5627 18.1369C20.4012 18.0458 20.3455 17.8433 20.4383 17.6847C20.5311 17.5262 20.7373 17.4715 20.8988 17.5626L21.3308 17.8075ZM19.52 19.8273C19.3334 19.9495 19.1384 20.0604 18.9361 20.1589L18.6867 19.7348C18.5939 19.5762 18.6496 19.3738 18.8111 19.2826C18.9726 19.1915 19.1788 19.2462 19.2716 19.4048L19.52 19.8273ZM16.9251 20.6874C16.8131 20.6943 16.7002 20.6982 16.5863 20.6982C16.4725 20.6982 16.3597 20.6943 16.2476 20.6874V20.1993C16.2476 20.0156 16.3993 19.8667 16.5863 19.8667C16.7734 19.8667 16.9251 20.0156 16.9251 20.1993V20.6874ZM14.2366 20.1589C14.0343 20.0603 13.8393 19.9496 13.6527 19.8273L13.9011 19.4048C13.9939 19.2462 14.2001 19.1915 14.3616 19.2826C14.5231 19.3738 14.5788 19.5762 14.486 19.7348L14.2366 20.1589ZM12.1797 18.3809C12.0552 18.1977 11.9423 18.0062 11.8419 17.8076L12.2739 17.5627C12.4354 17.4716 12.6415 17.5263 12.7344 17.6848C12.8271 17.8434 12.7715 18.0458 12.61 18.137L12.1797 18.3809ZM11.3038 15.8329C11.2967 15.7229 11.2927 15.612 11.2927 15.5002C11.2927 15.3885 11.2967 15.2776 11.3038 15.1676H11.8008C11.9879 15.1676 12.1395 15.3165 12.1395 15.5002C12.1395 15.6839 11.9879 15.8329 11.8008 15.8329H11.3038ZM11.8419 13.193C11.9424 12.9943 12.0552 12.8028 12.1797 12.6196L12.61 12.8635C12.7715 12.9546 12.8272 13.1571 12.7344 13.3157C12.6415 13.4743 12.4354 13.5289 12.2739 13.4378L11.8419 13.193ZM13.6527 11.1731C13.8393 11.0509 14.0343 10.9401 14.2366 10.8415L14.4859 11.2657C14.5788 11.4242 14.5231 11.6267 14.3616 11.7178C14.2001 11.809 13.9939 11.7543 13.9011 11.5957L13.6527 11.1731Z" fill="#003A4D"/>
<path fill-rule="evenodd" clip-rule="evenodd" d="M16.5864 10.3022C16.7002 10.3022 16.8131 10.3062 16.9251 10.3131V10.8011C16.9251 10.9848 16.7735 11.1337 16.5864 11.1337V10.3022ZM16.5864 20.6982V19.8667C16.7735 19.8667 16.9251 20.0156 16.9251 20.1993V20.6874C16.8131 20.6943 16.7002 20.6982 16.5864 20.6982ZM18.9361 10.8415C19.1384 10.9401 19.3334 11.0509 19.52 11.1731L19.2716 11.5957C19.1788 11.7543 18.9726 11.809 18.8111 11.7178C18.6496 11.6267 18.5939 11.4242 18.6867 11.2657L18.9361 10.8415ZM20.9931 12.6196C21.1176 12.8028 21.2304 12.9943 21.3308 13.193L20.8988 13.4378C20.7373 13.5289 20.5312 13.4743 20.4384 13.3157C20.3455 13.1571 20.4012 12.9546 20.5627 12.8635L20.9931 12.6196ZM21.8689 15.1676C21.876 15.2776 21.88 15.3885 21.88 15.5002C21.88 15.612 21.876 15.7228 21.8689 15.8329H21.372C21.1849 15.8329 21.0332 15.6839 21.0332 15.5002C21.0332 15.3165 21.1849 15.1676 21.372 15.1676H21.8689ZM21.3308 17.8075C21.2304 18.0061 21.1176 18.1977 20.9931 18.3809L20.5627 18.1369C20.4012 18.0458 20.3455 17.8433 20.4384 17.6847C20.5311 17.5262 20.7373 17.4715 20.8988 17.5626L21.3308 17.8075ZM19.52 19.8273C19.3334 19.9495 19.1384 20.0604 18.9361 20.1589L18.6867 19.7348C18.5939 19.5762 18.6496 19.3738 18.8111 19.2826C18.9726 19.1915 19.1788 19.2462 19.2716 19.4048L19.52 19.8273Z" fill="black"/>
<path fill-rule="evenodd" clip-rule="evenodd" d="M16.2491 12.1939C16.2491 12.0109 16.4002 11.8625 16.5865 11.8625C16.7729 11.8625 16.9239 12.0109 16.9239 12.1939V15.3087L18.9428 16.4533C19.1043 16.5444 19.16 16.7469 19.0672 16.9054C18.9744 17.064 18.7682 17.1187 18.6067 17.0276L16.4275 15.7922C16.3214 15.7363 16.2491 15.6264 16.2491 15.4999V12.1939Z" fill="#003A4D"/>
<path fill-rule="evenodd" clip-rule="evenodd" d="M16.5864 11.8625C16.7727 11.8625 16.9238 12.0109 16.9238 12.1939V15.3087L18.9427 16.4533C19.1041 16.5444 19.1599 16.7469 19.067 16.9054C18.9742 17.064 18.768 17.1187 18.6065 17.0276L16.5864 15.8823V11.8625Z" fill="black"/>
<path fill-rule="evenodd" clip-rule="evenodd" d="M16.5863 16.2178C16.989 16.2178 17.3175 15.8952 17.3175 15.4997C17.3175 15.1043 16.989 14.7817 16.5863 14.7817C16.1836 14.7817 15.8551 15.1043 15.8551 15.4997C15.8551 15.8952 16.1836 16.2178 16.5863 16.2178Z" fill="black"/>
<path fill-rule="evenodd" clip-rule="evenodd" d="M16.5864 14.7817C16.9902 14.7817 17.3176 15.1032 17.3176 15.4997C17.3176 15.8963 16.9902 16.2178 16.5864 16.2178V14.7817Z" fill="#0D2B59"/>
</g>
<path d="M36.0489 19.12C35.5356 19.12 35.0823 19.0333 34.6889 18.86C34.2956 18.68 33.9856 18.4267 33.7589 18.1C33.5323 17.7667 33.4156 17.3633 33.4089 16.89H34.7589C34.7723 17.2167 34.8889 17.4933 35.1089 17.72C35.3356 17.94 35.6456 18.05 36.0389 18.05C36.3789 18.05 36.6489 17.97 36.8489 17.81C37.0489 17.6433 37.1489 17.4233 37.1489 17.15C37.1489 16.8633 37.0589 16.64 36.8789 16.48C36.7056 16.32 36.4723 16.19 36.1789 16.09C35.8856 15.99 35.5723 15.8833 35.2389 15.77C34.6989 15.5833 34.2856 15.3433 33.9989 15.05C33.7189 14.7567 33.5789 14.3667 33.5789 13.88C33.5723 13.4667 33.6689 13.1133 33.8689 12.82C34.0756 12.52 34.3556 12.29 34.7089 12.13C35.0623 11.9633 35.4689 11.88 35.9289 11.88C36.3956 11.88 36.8056 11.9633 37.1589 12.13C37.5189 12.2967 37.7989 12.53 37.9989 12.83C38.2056 13.13 38.3156 13.4867 38.3289 13.9H36.9589C36.9523 13.6533 36.8556 13.4367 36.6689 13.25C36.4889 13.0567 36.2356 12.96 35.9089 12.96C35.6289 12.9533 35.3923 13.0233 35.1989 13.17C35.0123 13.31 34.9189 13.5167 34.9189 13.79C34.9189 14.0233 34.9923 14.21 35.1389 14.35C35.2856 14.4833 35.4856 14.5967 35.7389 14.69C35.9923 14.7833 36.2823 14.8833 36.6089 14.99C36.9556 15.11 37.2723 15.25 37.5589 15.41C37.8456 15.57 38.0756 15.7833 38.2489 16.05C38.4223 16.31 38.5089 16.6467 38.5089 17.06C38.5089 17.4267 38.4156 17.7667 38.2289 18.08C38.0423 18.3933 37.7656 18.6467 37.3989 18.84C37.0323 19.0267 36.5823 19.12 36.0489 19.12ZM42.0057 19.12C41.5057 19.12 41.0624 19.0133 40.6757 18.8C40.2891 18.5867 39.9857 18.2867 39.7657 17.9C39.5457 17.5133 39.4357 17.0667 39.4357 16.56C39.4357 16.0467 39.5424 15.59 39.7557 15.19C39.9757 14.79 40.2757 14.48 40.6557 14.26C41.0424 14.0333 41.4957 13.92 42.0157 13.92C42.5024 13.92 42.9324 14.0267 43.3057 14.24C43.6791 14.4533 43.9691 14.7467 44.1757 15.12C44.3891 15.4867 44.4957 15.8967 44.4957 16.35C44.4957 16.4233 44.4924 16.5 44.4857 16.58C44.4857 16.66 44.4824 16.7433 44.4757 16.83H40.7057C40.7324 17.2167 40.8657 17.52 41.1057 17.74C41.3524 17.96 41.6491 18.07 41.9957 18.07C42.2557 18.07 42.4724 18.0133 42.6457 17.9C42.8257 17.78 42.9591 17.6267 43.0457 17.44H44.3457C44.2524 17.7533 44.0957 18.04 43.8757 18.3C43.6624 18.5533 43.3957 18.7533 43.0757 18.9C42.7624 19.0467 42.4057 19.12 42.0057 19.12ZM42.0157 14.96C41.7024 14.96 41.4257 15.05 41.1857 15.23C40.9457 15.4033 40.7924 15.67 40.7257 16.03H43.1957C43.1757 15.7033 43.0557 15.4433 42.8357 15.25C42.6157 15.0567 42.3424 14.96 42.0157 14.96ZM47.6944 19C47.1744 19 46.7577 18.8733 46.4444 18.62C46.1311 18.3667 45.9744 17.9167 45.9744 17.27V15.11H45.1244V14.04H45.9744L46.1244 12.71H47.2544V14.04H48.5944V15.11H47.2544V17.28C47.2544 17.52 47.3044 17.6867 47.4044 17.78C47.5111 17.8667 47.6911 17.91 47.9444 17.91H48.5644V19H47.6944ZM49.5834 16.64V15.57H53.7734V16.64H49.5834ZM56.8268 19.12C56.2068 19.12 55.7268 18.9267 55.3868 18.54C55.0535 18.1533 54.8868 17.5867 54.8868 16.84V14.04H56.1568V16.72C56.1568 17.1467 56.2435 17.4733 56.4168 17.7C56.5902 17.9267 56.8635 18.04 57.2368 18.04C57.5902 18.04 57.8802 17.9133 58.1068 17.66C58.3402 17.4067 58.4568 17.0533 58.4568 16.6V14.04H59.7368V19H58.6068L58.5068 18.16C58.3535 18.4533 58.1302 18.6867 57.8368 18.86C57.5502 19.0333 57.2135 19.12 56.8268 19.12ZM61.0508 21.2V14.04H62.1908L62.3308 14.75C62.4908 14.53 62.7008 14.3367 62.9608 14.17C63.2275 14.0033 63.5708 13.92 63.9908 13.92C64.4575 13.92 64.8742 14.0333 65.2408 14.26C65.6075 14.4867 65.8975 14.7967 66.1108 15.19C66.3242 15.5833 66.4308 16.03 66.4308 16.53C66.4308 17.03 66.3242 17.4767 66.1108 17.87C65.8975 18.2567 65.6075 18.5633 65.2408 18.79C64.8742 19.01 64.4575 19.12 63.9908 19.12C63.6175 19.12 63.2908 19.05 63.0108 18.91C62.7308 18.77 62.5042 18.5733 62.3308 18.32V21.2H61.0508ZM63.7208 18C64.1275 18 64.4642 17.8633 64.7308 17.59C64.9975 17.3167 65.1308 16.9633 65.1308 16.53C65.1308 16.0967 64.9975 15.74 64.7308 15.46C64.4642 15.18 64.1275 15.04 63.7208 15.04C63.3075 15.04 62.9675 15.18 62.7008 15.46C62.4408 15.7333 62.3108 16.0867 62.3108 16.52C62.3108 16.9533 62.4408 17.31 62.7008 17.59C62.9675 17.8633 63.3075 18 63.7208 18ZM69.5371 19L72.0971 12H73.5371L76.0971 19H74.7371L74.1771 17.38H71.4471L70.8771 19H69.5371ZM71.7971 16.38H73.8271L72.8071 13.47L71.7971 16.38ZM78.7311 19.12C78.1111 19.12 77.6311 18.9267 77.2911 18.54C76.9578 18.1533 76.7911 17.5867 76.7911 16.84V14.04H78.0611V16.72C78.0611 17.1467 78.1478 17.4733 78.3211 17.7C78.4945 17.9267 78.7678 18.04 79.1411 18.04C79.4945 18.04 79.7845 17.9133 80.0111 17.66C80.2445 17.4067 80.3611 17.0533 80.3611 16.6V14.04H81.6411V19H80.5111L80.4111 18.16C80.2578 18.4533 80.0345 18.6867 79.7411 18.86C79.4545 19.0333 79.1178 19.12 78.7311 19.12ZM85.1651 19C84.6451 19 84.2284 18.8733 83.9151 18.62C83.6018 18.3667 83.4451 17.9167 83.4451 17.27V15.11H82.5951V14.04H83.4451L83.5951 12.71H84.7251V14.04H86.0651V15.11H84.7251V17.28C84.7251 17.52 84.7751 17.6867 84.8751 17.78C84.9818 17.8667 85.1618 17.91 85.4151 17.91H86.0351V19H85.1651ZM89.4171 19.12C88.9371 19.12 88.5038 19.01 88.1171 18.79C87.7371 18.57 87.4338 18.2667 87.2071 17.88C86.9871 17.4867 86.8771 17.0333 86.8771 16.52C86.8771 16.0067 86.9905 15.5567 87.2171 15.17C87.4438 14.7767 87.7471 14.47 88.1271 14.25C88.5138 14.03 88.9471 13.92 89.4271 13.92C89.9005 13.92 90.3271 14.03 90.7071 14.25C91.0938 14.47 91.3971 14.7767 91.6171 15.17C91.8438 15.5567 91.9571 16.0067 91.9571 16.52C91.9571 17.0333 91.8438 17.4867 91.6171 17.88C91.3971 18.2667 91.0938 18.57 90.7071 18.79C90.3205 19.01 89.8905 19.12 89.4171 19.12ZM89.4171 18.01C89.7505 18.01 90.0405 17.8867 90.2871 17.64C90.5338 17.3867 90.6571 17.0133 90.6571 16.52C90.6571 16.0267 90.5338 15.6567 90.2871 15.41C90.0405 15.1567 89.7538 15.03 89.4271 15.03C89.0871 15.03 88.7938 15.1567 88.5471 15.41C88.3071 15.6567 88.1871 16.0267 88.1871 16.52C88.1871 17.0133 88.3071 17.3867 88.5471 17.64C88.7938 17.8867 89.0838 18.01 89.4171 18.01ZM95.5144 19V12H98.3244C99.0511 12 99.6044 12.17 99.9844 12.51C100.371 12.8433 100.564 13.2733 100.564 13.8C100.564 14.24 100.444 14.5933 100.204 14.86C99.9711 15.12 99.6844 15.2967 99.3444 15.39C99.7444 15.47 100.074 15.67 100.334 15.99C100.594 16.3033 100.724 16.67 100.724 17.09C100.724 17.6433 100.524 18.1 100.124 18.46C99.7244 18.82 99.1577 19 98.4244 19H95.5144ZM96.7944 14.94H98.1344C98.4944 14.94 98.7711 14.8567 98.9644 14.69C99.1577 14.5233 99.2544 14.2867 99.2544 13.98C99.2544 13.6867 99.1577 13.4567 98.9644 13.29C98.7777 13.1167 98.4944 13.03 98.1144 13.03H96.7944V14.94ZM96.7944 17.96H98.2244C98.6044 17.96 98.8977 17.8733 99.1044 17.7C99.3177 17.52 99.4244 17.27 99.4244 16.95C99.4244 16.6233 99.3144 16.3667 99.0944 16.18C98.8744 15.9933 98.5777 15.9 98.2044 15.9H96.7944V17.96ZM103.653 19.12C103.033 19.12 102.553 18.9267 102.213 18.54C101.88 18.1533 101.713 17.5867 101.713 16.84V14.04H102.983V16.72C102.983 17.1467 103.07 17.4733 103.243 17.7C103.416 17.9267 103.69 18.04 104.063 18.04C104.416 18.04 104.706 17.9133 104.933 17.66C105.166 17.4067 105.283 17.0533 105.283 16.6V14.04H106.563V19H105.433L105.333 18.16C105.18 18.4533 104.956 18.6867 104.663 18.86C104.376 19.0333 104.04 19.12 103.653 19.12ZM108.497 21.2L109.647 18.67H109.347L107.417 14.04H108.807L110.197 17.53L111.647 14.04H113.007L109.857 21.2H108.497Z" fill="white"/>
</g>
</g>
<defs>
<filter id="filter0_i_376_439" x="0.0863647" y="0.5" width="128" height="34" filterUnits="userSpaceOnUse" color-interpolation-filters="sRGB">
<feFlood flood-opacity="0" result="BackgroundImageFix"/>
<feBlend mode="normal" in="SourceGraphic" in2="BackgroundImageFix" result="shape"/>
<feColorMatrix in="SourceAlpha" type="matrix" values="0 0 0 0 0 0 0 0 0 0 0 0 0 0 0 0 0 0 127 0" result="hardAlpha"/>
<feOffset dy="4"/>
<feGaussianBlur stdDeviation="2"/>
<feComposite in2="hardAlpha" operator="arithmetic" k2="-1" k3="1"/>
<feColorMatrix type="matrix" values="0 0 0 0 0 0 0 0 0 0 0 0 0 0 0 0 0 0 0.25 0"/>
<feBlend mode="normal" in2="shape" result="effect1_innerShadow_376_439"/>
</filter>
<filter id="filter1_d_376_439" x="2.08636" y="6" width="29" height="27" filterUnits="userSpaceOnUse" color-interpolation-filters="sRGB">
<feFlood flood-opacity="0" result="BackgroundImageFix"/>
<feColorMatrix in="SourceAlpha" type="matrix" values="0 0 0 0 0 0 0 0 0 0 0 0 0 0 0 0 0 0 127 0" result="hardAlpha"/>
<feOffset dy="4"/>
<feGaussianBlur stdDeviation="2"/>
<feComposite in2="hardAlpha" operator="out"/>
<feColorMatrix type="matrix" values="0 0 0 0 0 0 0 0 0 0 0 0 0 0 0 0 0 0 0.25 0"/>
<feBlend mode="normal" in2="BackgroundImageFix" result="effect1_dropShadow_376_439"/>
<feBlend mode="normal" in="SourceGraphic" in2="effect1_dropShadow_376_439" result="shape"/>
</filter>
<clipPath id="clip0_376_439">
<path d="M0.0863647 15.5C0.0863647 7.21573 6.80209 0.5 15.0864 0.5H113.086C121.371 0.5 128.086 7.21573 128.086 15.5C128.086 23.7843 121.371 30.5 113.086 30.5H15.0864C6.80209 30.5 0.0863647 23.7843 0.0863647 15.5Z" fill="white"/>
</clipPath>
</defs>
</svg>
