<svg width="22" height="22" viewBox="0 0 22 22" fill="none" xmlns="http://www.w3.org/2000/svg">
<path d="M14.7221 2.24951C14.9799 2.50736 15.1247 2.85703 15.1247 3.22163C15.1247 3.58623 14.9799 3.9359 14.7221 4.19376L7.91588 11L14.7221 17.8063C14.9726 18.0656 15.1112 18.4129 15.1081 18.7734C15.1049 19.134 14.9603 19.4788 14.7054 19.7338C14.4504 19.9887 14.1056 20.1333 13.7451 20.1364C13.3845 20.1396 13.0372 20.001 12.7779 19.7505L4.99951 11.9721C4.74173 11.7143 4.59692 11.3646 4.59692 11C4.59692 10.6354 4.74173 10.2857 4.99951 10.0279L12.7779 2.24951C13.0357 1.99173 13.3854 1.84692 13.75 1.84692C14.1146 1.84692 14.4643 1.99173 14.7221 2.24951Z" fill="black"/>
</svg>
