<svg width="32" height="33" viewBox="0 0 32 33" fill="none" xmlns="http://www.w3.org/2000/svg">
<g clip-path="url(#clip0_1802_5598)">
<path d="M16 0.5C7.17733 0.5 0 7.67733 0 16.5C0 25.3227 7.17733 32.5 16 32.5C24.8227 32.5 32 25.3227 32 16.5C32 7.67733 24.8227 0.5 16 0.5Z" fill="#F9C20A"/>
<path opacity="0.1" d="M16 32.1668C7.23333 32.1668 0.0986667 25.0788 0.008 16.3335C0.008 16.3895 0 16.4442 0 16.5002C0 25.3228 7.17733 32.5002 16 32.5002C24.8227 32.5002 32 25.3228 32 16.5002C32 16.4442 31.992 16.3895 31.992 16.3335C31.9013 25.0788 24.7667 32.1668 16 32.1668Z" fill="black"/>
<path opacity="0.2" d="M15.9999 0.833333C23.0945 0.833333 29.1225 5.43333 31.2932 11.8027C29.2825 5.26667 23.1892 0.5 15.9999 0.5C8.81054 0.5 2.71721 5.26667 0.706543 11.8027C2.87721 5.43333 8.90521 0.833333 15.9999 0.833333Z" fill="white"/>
<path d="M16 4.5C9.38267 4.5 4 9.884 4 16.5C4 23.116 9.38267 28.5 16 28.5C22.6173 28.5 28 23.116 28 16.5C28 9.884 22.6173 4.5 16 4.5Z" fill="#FFDA02"/>
<path d="M19.9998 18.8333C19.9998 17.7267 19.3972 16.7573 18.5025 16.2373C18.8047 15.9209 19.0339 15.5421 19.1741 15.1277C19.3144 14.7133 19.3622 14.2731 19.3143 13.8382C19.2664 13.4033 19.124 12.9842 18.8969 12.6102C18.6698 12.2362 18.3636 11.9164 17.9998 11.6733V10.5H16.6665V11.2C16.5558 11.1867 16.4478 11.1667 16.3332 11.1667H15.3332V10.5H13.9998V11.1667H12.6665V12.5H13.3332V20.5H12.6665V21.8333H13.9998V22.5H15.3332V21.8333H16.6665V22.5H17.9998V21.6493C19.1598 21.236 19.9998 20.1347 19.9998 18.8333ZM16.3332 12.5C16.7637 12.5172 17.1708 12.7004 17.4693 13.011C17.7678 13.3217 17.9345 13.7358 17.9345 14.1667C17.9345 14.5975 17.7678 15.0116 17.4693 15.3223C17.1708 15.633 16.7637 15.8161 16.3332 15.8333H14.6665V12.5H16.3332ZM16.9998 20.5H14.6665V17.1667H16.9998C17.4303 17.1839 17.8375 17.367 18.136 17.6777C18.4345 17.9884 18.6012 18.4025 18.6012 18.8333C18.6012 19.2642 18.4345 19.6783 18.136 19.989C17.8375 20.2996 17.4303 20.4828 16.9998 20.5Z" fill="#B57916"/>
<path d="M17.9998 14.1667C17.9998 13.2467 17.2532 12.5 16.3332 12.5H14.6665V15.8333H16.3332C17.2532 15.8333 17.9998 15.0867 17.9998 14.1667ZM15.3332 10.5V11.1667H15.9998L15.3332 10.5ZM18.6665 18.8333C18.6665 17.9133 17.9198 17.1667 16.9998 17.1667H14.6665V20.5H16.9998C17.9198 20.5 18.6665 19.7533 18.6665 18.8333ZM13.3332 12.5H12.6665L13.3332 13.1667V12.5ZM17.9998 10.5V11.6747C18.3634 11.9178 18.6694 12.2375 18.8963 12.6114C19.1232 12.9852 19.2657 13.4042 19.3136 13.839C19.3614 14.2737 19.3137 14.7136 19.1736 15.1279C19.0335 15.5422 18.8044 15.9209 18.5025 16.2373C18.9576 16.501 19.3354 16.8796 19.5982 17.3352C19.861 17.7908 19.9995 18.3074 19.9998 18.8333C19.9998 20.1347 19.1598 21.2347 17.9998 21.6493V22.5H16.6665V21.8333H15.3332V22.5H13.9998V21.8333H12.6665L18.9505 28.1173C20.9509 27.6068 22.7863 26.5902 24.2802 25.1654C25.7742 23.7405 26.8765 21.9553 27.4812 19.9813L17.9998 10.5Z" fill="url(#paint0_linear_1802_5598)"/>
<path d="M16 0.5C7.17733 0.5 0 7.67733 0 16.5C0 25.3227 7.17733 32.5 16 32.5C24.8227 32.5 32 25.3227 32 16.5C32 7.67733 24.8227 0.5 16 0.5Z" fill="url(#paint1_linear_1802_5598)"/>
</g>
<defs>
<linearGradient id="paint0_linear_1802_5598" x1="12.8078" y1="13.6413" x2="22.4203" y2="23.2538" gradientUnits="userSpaceOnUse">
<stop stop-color="#3E2723" stop-opacity="0.2"/>
<stop offset="1" stop-color="#3E2723" stop-opacity="0.02"/>
</linearGradient>
<linearGradient id="paint1_linear_1802_5598" x1="1.4998" y1="9.73845" x2="30.5002" y2="23.2616" gradientUnits="userSpaceOnUse">
<stop stop-color="white" stop-opacity="0.2"/>
<stop offset="1" stop-color="white" stop-opacity="0"/>
</linearGradient>
<clipPath id="clip0_1802_5598">
<rect width="32" height="32" fill="white" transform="translate(0 0.5)"/>
</clipPath>
</defs>
</svg>
