<svg width="35" height="35" viewBox="0 0 35 35" fill="none" xmlns="http://www.w3.org/2000/svg">
<g filter="url(#filter0_i_376_448)">
<rect width="35" height="35" rx="5" fill="#161838"/>
</g>
<path d="M31.9442 26.7288V29.6111H14.6108V26.7288H29.0553H31.9442Z" fill="#EA9E32"/>
<path d="M30.5003 20.9648V23.8472H29.0559H13.167V23.7175V20.9648H18.1648H30.5003Z" fill="#EA9E32"/>
<path d="M29.056 23.8472V26.7295H14.6115H11.7227V23.8472H13.1671H29.056Z" fill="#3897E3"/>
<path d="M20.3885 15.2018C20.3933 17.3328 19.6 19.3888 18.1641 20.9665H13.1663V23.7191C12.6898 23.8064 12.2063 23.8498 11.7218 23.8488C10.0077 23.8488 8.33213 23.3417 6.90691 22.3915C5.48168 21.4414 4.37085 20.0909 3.71489 18.5108C3.05893 16.9308 2.8873 15.1922 3.22171 13.5148C3.55611 11.8374 4.38153 10.2967 5.59359 9.08736C6.80564 7.87804 8.3499 7.05449 10.0311 6.72084C11.7122 6.38719 13.4548 6.55843 15.0384 7.21291C16.6221 7.86739 17.9756 8.9757 18.9279 10.3977C19.8802 11.8197 20.3885 13.4915 20.3885 15.2018Z" fill="#3897E3"/>
<path d="M30.4987 24.5684H29.0542C28.8627 24.5684 28.679 24.4925 28.5435 24.3573C28.4081 24.2222 28.332 24.0389 28.332 23.8478C28.332 23.6567 28.4081 23.4734 28.5435 23.3383C28.679 23.2031 28.8627 23.1272 29.0542 23.1272H29.7765V21.686H13.8876V23.7181C13.8918 23.9174 13.8193 24.1107 13.6849 24.2581C13.5505 24.4056 13.3646 24.496 13.1653 24.5108C13.0734 24.5188 12.9807 24.5076 12.8933 24.4778C12.8059 24.4481 12.7256 24.4006 12.6577 24.3382C12.5897 24.2758 12.5356 24.2 12.4986 24.1156C12.4617 24.0311 12.4428 23.9399 12.4431 23.8478V20.9655C12.4431 20.7743 12.5192 20.5911 12.6547 20.4559C12.7901 20.3208 12.9738 20.2449 13.1653 20.2449H30.4987C30.6902 20.2449 30.8739 20.3208 31.0094 20.4559C31.1448 20.5911 31.2209 20.7743 31.2209 20.9655V23.8478C31.2209 24.0389 31.1448 24.2222 31.0094 24.3573C30.8739 24.4925 30.6902 24.5684 30.4987 24.5684Z" fill="#003A4D"/>
<path d="M29.0556 27.4515C28.864 27.4515 28.6803 27.3755 28.5449 27.2404C28.4094 27.1053 28.3333 26.922 28.3333 26.7309V24.5691H12.4444V26.0103H14.6111C14.8027 26.0103 14.9864 26.0862 15.1218 26.2213C15.2572 26.3565 15.3333 26.5398 15.3333 26.7309C15.3333 26.922 15.2572 27.1053 15.1218 27.2404C14.9864 27.3755 14.8027 27.4515 14.6111 27.4515H11.7222C11.5307 27.4515 11.347 27.3755 11.2115 27.2404C11.0761 27.1053 11 26.922 11 26.7309V23.8485C11 23.6574 11.0761 23.4741 11.2115 23.339C11.347 23.2038 11.5307 23.1279 11.7222 23.1279H29.0556C29.2471 23.1279 29.4308 23.2038 29.5662 23.339C29.7017 23.4741 29.7778 23.6574 29.7778 23.8485V26.7309C29.7778 26.922 29.7017 27.1053 29.5662 27.2404C29.4308 27.3755 29.2471 27.4515 29.0556 27.4515Z" fill="#003A4D"/>
<path d="M31.9444 30.3333H14.611C14.4195 30.3333 14.2358 30.2573 14.1003 30.1222C13.9649 29.9871 13.8888 29.8038 13.8888 29.6127V26.7303C13.8888 26.5392 13.9649 26.3559 14.1003 26.2208C14.2358 26.0856 14.4195 26.0097 14.611 26.0097H31.9444C32.1359 26.0097 32.3196 26.0856 32.4551 26.2208C32.5905 26.3559 32.6666 26.5392 32.6666 26.7303V29.6127C32.6666 29.8038 32.5905 29.9871 32.4551 30.1222C32.3196 30.2573 32.1359 30.3333 31.9444 30.3333ZM15.3333 28.8921H31.2221V27.4509H15.3333V28.8921ZM11.7221 24.5685C9.8652 24.5685 8.04995 24.0191 6.50596 22.9898C4.96196 21.9605 3.75857 20.4975 3.04794 18.7857C2.33732 17.074 2.15139 15.1905 2.51366 13.3734C2.87593 11.5562 3.77014 9.88706 5.0832 8.57698C6.39626 7.26689 8.0692 6.37471 9.89046 6.01325C11.7117 5.6518 13.5995 5.83731 15.3151 6.54633C17.0307 7.25534 18.4971 8.45602 19.5287 9.99652C20.5604 11.537 21.111 13.3482 21.111 15.2009C21.1158 17.5128 20.2556 19.7432 18.6988 21.4556C18.5686 21.597 18.3873 21.681 18.195 21.6891C18.0027 21.6973 17.815 21.6288 17.6733 21.4988C17.5315 21.3689 17.4473 21.1881 17.4392 20.9962C17.4311 20.8043 17.4997 20.617 17.6299 20.4756C18.945 19.0327 19.6715 17.1512 19.6666 15.2009C19.6666 13.6332 19.2007 12.1007 18.3277 10.7972C17.4548 9.49369 16.214 8.47773 14.7624 7.8778C13.3107 7.27786 11.7133 7.12089 10.1723 7.42674C8.63119 7.73258 7.21562 8.48751 6.10457 9.59604C4.99352 10.7046 4.23689 12.1169 3.93035 13.6545C3.62381 15.1921 3.78114 16.7859 4.38244 18.2342C4.98373 19.6826 6.00199 20.9205 7.30845 21.7915C8.6149 22.6625 10.1509 23.1274 11.7221 23.1274C12.1628 23.1261 12.6025 23.0875 13.0366 23.0121C13.2242 22.9784 13.4176 23.0201 13.5745 23.1281C13.7315 23.2361 13.8392 23.4016 13.8744 23.5885C13.9081 23.7758 13.8663 23.9687 13.7581 24.1253C13.6499 24.2819 13.484 24.3894 13.2966 24.4244C12.7779 24.5244 12.2504 24.5727 11.7221 24.5685Z" fill="#003A4D"/>
<path d="M11.7222 13.0386C11.5307 13.0386 11.347 12.9627 11.2115 12.8275C11.0761 12.6924 11 12.5091 11 12.318V10.8768C11 10.6857 11.0761 10.5024 11.2115 10.3673C11.347 10.2322 11.5307 10.1562 11.7222 10.1562C11.9138 10.1562 12.0975 10.2322 12.2329 10.3673C12.3684 10.5024 12.4444 10.6857 12.4444 10.8768V12.318C12.4444 12.5091 12.3684 12.6924 12.2329 12.8275C12.0975 12.9627 11.9138 13.0386 11.7222 13.0386ZM11.7222 20.2445C11.5307 20.2445 11.347 20.1686 11.2115 20.0334C11.0761 19.8983 11 19.715 11 19.5239V18.0827C11 17.8916 11.0761 17.7083 11.2115 17.5732C11.347 17.438 11.5307 17.3621 11.7222 17.3621C11.9138 17.3621 12.0975 17.438 12.2329 17.5732C12.3684 17.7083 12.4444 17.8916 12.4444 18.0827V19.5239C12.4444 19.715 12.3684 19.8983 12.2329 20.0334C12.0975 20.1686 11.9138 20.2445 11.7222 20.2445Z" fill="#003A4D"/>
<path d="M12.4451 18.8031H10.2784C10.0869 18.8031 9.90318 18.7271 9.76774 18.592C9.6323 18.4569 9.55621 18.2736 9.55621 18.0825C9.55621 17.8913 9.6323 17.7081 9.76774 17.5729C9.90318 17.4378 10.0869 17.3619 10.2784 17.3619H12.4451C12.6366 17.3619 12.8203 17.286 12.9558 17.1508C13.0912 17.0157 13.1673 16.8324 13.1673 16.6413C13.1673 16.4502 13.0912 16.2669 12.9558 16.1318C12.8203 15.9966 12.6366 15.9207 12.4451 15.9207H11.0007C10.426 15.9207 9.87491 15.6929 9.46859 15.2875C9.06226 14.8821 8.83398 14.3323 8.83398 13.7589C8.83398 13.1856 9.06226 12.6357 9.46859 12.2303C9.87491 11.8249 10.426 11.5972 11.0007 11.5972H13.1095C13.3011 11.5972 13.4848 11.6731 13.6202 11.8082C13.7557 11.9434 13.8318 12.1266 13.8318 12.3178C13.8318 12.5089 13.7557 12.6922 13.6202 12.8273C13.4848 12.9624 13.3011 13.0383 13.1095 13.0383H11.0007C10.8091 13.0383 10.6254 13.1143 10.49 13.2494C10.3545 13.3845 10.2784 13.5678 10.2784 13.7589C10.2784 13.95 10.3545 14.1333 10.49 14.2685C10.6254 14.4036 10.8091 14.4795 11.0007 14.4795H12.4451C13.0197 14.4795 13.5708 14.7073 13.9772 15.1127C14.3835 15.5181 14.6118 16.0679 14.6118 16.6413C14.6118 17.2146 14.3835 17.7645 13.9772 18.1699C13.5708 18.5753 13.0197 18.8031 12.4451 18.8031Z" fill="#003A4D"/>
<path d="M22.332 20V16.5H23.737C24.1004 16.5 24.377 16.585 24.567 16.755C24.7604 16.9217 24.857 17.1367 24.857 17.4C24.857 17.62 24.797 17.7967 24.677 17.93C24.5604 18.06 24.417 18.1483 24.247 18.195C24.447 18.235 24.612 18.335 24.742 18.495C24.872 18.6517 24.937 18.835 24.937 19.045C24.937 19.3217 24.837 19.55 24.637 19.73C24.437 19.91 24.1537 20 23.787 20H22.332ZM22.972 17.97H23.642C23.822 17.97 23.9604 17.9283 24.057 17.845C24.1537 17.7617 24.202 17.6433 24.202 17.49C24.202 17.3433 24.1537 17.2283 24.057 17.145C23.9637 17.0583 23.822 17.015 23.632 17.015H22.972V17.97ZM22.972 19.48H23.687C23.877 19.48 24.0237 19.4367 24.127 19.35C24.2337 19.26 24.287 19.135 24.287 18.975C24.287 18.8117 24.232 18.6833 24.122 18.59C24.012 18.4967 23.8637 18.45 23.677 18.45H22.972V19.48ZM26.8363 20.06C26.5797 20.06 26.348 20.01 26.1413 19.91C25.9347 19.8067 25.7697 19.6517 25.6463 19.445C25.5263 19.2383 25.4663 18.9767 25.4663 18.66V16.5H26.1063V18.665C26.1063 18.9383 26.1713 19.1417 26.3013 19.275C26.4347 19.4083 26.618 19.475 26.8513 19.475C27.0813 19.475 27.263 19.4083 27.3963 19.275C27.5297 19.1417 27.5963 18.9383 27.5963 18.665V16.5H28.2363V18.66C28.2363 18.9767 28.173 19.2383 28.0463 19.445C27.9197 19.6517 27.7497 19.8067 27.5363 19.91C27.3263 20.01 27.093 20.06 26.8363 20.06ZM29.7946 20V18.755L28.6196 16.5H29.3446L30.1196 18.115L30.8896 16.5H31.6046L30.4346 18.755V20H29.7946Z" fill="#EA8C00"/>
<defs>
<filter id="filter0_i_376_448" x="0" y="0" width="35" height="39" filterUnits="userSpaceOnUse" color-interpolation-filters="sRGB">
<feFlood flood-opacity="0" result="BackgroundImageFix"/>
<feBlend mode="normal" in="SourceGraphic" in2="BackgroundImageFix" result="shape"/>
<feColorMatrix in="SourceAlpha" type="matrix" values="0 0 0 0 0 0 0 0 0 0 0 0 0 0 0 0 0 0 127 0" result="hardAlpha"/>
<feOffset dy="4"/>
<feGaussianBlur stdDeviation="2"/>
<feComposite in2="hardAlpha" operator="arithmetic" k2="-1" k3="1"/>
<feColorMatrix type="matrix" values="0 0 0 0 0 0 0 0 0 0 0 0 0 0 0 0 0 0 0.25 0"/>
<feBlend mode="normal" in2="shape" result="effect1_innerShadow_376_448"/>
</filter>
</defs>
</svg>
