<svg width="11" height="11" viewBox="0 0 11 11" fill="none" xmlns="http://www.w3.org/2000/svg">
<g clip-path="url(#clip0_588_2271)">
<path d="M0.6875 10.3125V0H0V11H11V10.3125H0.6875Z" fill="#F8F8F8"/>
<path d="M8.25 3.4375C7.77563 4.125 7.28063 4.8125 6.875 4.8125L6.81519 4.81319C6.402 4.81319 6.01494 4.70319 5.68081 4.51069C5.21775 4.25527 4.69715 4.12228 4.16831 4.12431H4.12225C3.06217 4.19923 2.07523 4.69208 1.37844 5.4945L1.37431 7.10806C1.90369 6.33806 2.96931 5.15556 4.12431 5.15556H4.15731C4.55538 5.15556 4.928 5.26281 5.24838 5.44981C5.72561 5.71049 6.2611 5.84602 6.80488 5.84375L6.87775 5.84306C7.83681 5.84306 8.48306 4.93556 9.10869 4.05556C9.73431 3.17556 10.3118 2.40556 10.9993 2.40556V1.37431C9.75494 1.37431 8.93681 2.48119 8.24931 3.43681L8.25 3.4375Z" fill="#F8F8F8"/>
</g>
<defs>
<clipPath id="clip0_588_2271">
<rect width="11" height="11" fill="white"/>
</clipPath>
</defs>
</svg>
