<svg width="13" height="8" viewBox="0 0 13 8" fill="none" xmlns="http://www.w3.org/2000/svg">
<path d="M0.533749 0.962173C0.709557 0.786419 0.94797 0.687685 1.19656 0.687685C1.44515 0.687685 1.68357 0.786419 1.85937 0.962173L6.5 5.6028L11.1406 0.962173C11.3174 0.7914 11.5543 0.696905 11.8001 0.699041C12.0459 0.701177 12.281 0.799773 12.4548 0.973593C12.6287 1.14741 12.7272 1.38255 12.7294 1.62836C12.7315 1.87417 12.637 2.11098 12.4663 2.2878L7.16281 7.59124C6.987 7.76699 6.74859 7.86572 6.5 7.86572C6.25141 7.86572 6.01299 7.76699 5.83719 7.59124L0.533749 2.2878C0.357995 2.11199 0.259262 1.87358 0.259262 1.62499C0.259262 1.37639 0.357995 1.13798 0.533749 0.962173Z" fill="#F8F8F8"/>
</svg>
