<svg width="64" height="29" viewBox="0 0 64 29" fill="none" xmlns="http://www.w3.org/2000/svg">
<g filter="url(#filter0_i_371_334)">
<path d="M54.0388 27.5L61.7102 1H13.3413C9.33881 1.77292 0.739238 4.71 1.00607 14.25C1.2729 23.79 9.56691 27.3896 13.6806 27.5H54.0388Z" fill="#2E2F31" stroke="#1A355E" stroke-opacity="0.3" stroke-width="2"/>
<path d="M21.85 17.12C21.1433 17.12 20.5367 16.97 20.03 16.67C19.5233 16.3633 19.1333 15.94 18.86 15.4C18.5867 14.8533 18.45 14.2233 18.45 13.51C18.45 12.7967 18.5867 12.1667 18.86 11.62C19.1333 11.0733 19.5233 10.6467 20.03 10.34C20.5367 10.0333 21.1433 9.88 21.85 9.88C22.69 9.88 23.3767 10.09 23.91 10.51C24.45 10.9233 24.7867 11.5067 24.92 12.26H23.51C23.4233 11.88 23.2367 11.5833 22.95 11.37C22.67 11.15 22.2967 11.04 21.83 11.04C21.1833 11.04 20.6767 11.26 20.31 11.7C19.9433 12.14 19.76 12.7433 19.76 13.51C19.76 14.2767 19.9433 14.88 20.31 15.32C20.6767 15.7533 21.1833 15.97 21.83 15.97C22.2967 15.97 22.67 15.87 22.95 15.67C23.2367 15.4633 23.4233 15.18 23.51 14.82H24.92C24.7867 15.54 24.45 16.1033 23.91 16.51C23.3767 16.9167 22.69 17.12 21.85 17.12ZM28.403 17.12C27.923 17.12 27.4897 17.01 27.103 16.79C26.723 16.57 26.4197 16.2667 26.193 15.88C25.973 15.4867 25.863 15.0333 25.863 14.52C25.863 14.0067 25.9764 13.5567 26.203 13.17C26.4297 12.7767 26.733 12.47 27.113 12.25C27.4997 12.03 27.933 11.92 28.413 11.92C28.8864 11.92 29.313 12.03 29.693 12.25C30.0797 12.47 30.383 12.7767 30.603 13.17C30.8297 13.5567 30.943 14.0067 30.943 14.52C30.943 15.0333 30.8297 15.4867 30.603 15.88C30.383 16.2667 30.0797 16.57 29.693 16.79C29.3064 17.01 28.8764 17.12 28.403 17.12ZM28.403 16.01C28.7364 16.01 29.0264 15.8867 29.273 15.64C29.5197 15.3867 29.643 15.0133 29.643 14.52C29.643 14.0267 29.5197 13.6567 29.273 13.41C29.0264 13.1567 28.7397 13.03 28.413 13.03C28.073 13.03 27.7797 13.1567 27.533 13.41C27.293 13.6567 27.173 14.0267 27.173 14.52C27.173 15.0133 27.293 15.3867 27.533 15.64C27.7797 15.8867 28.0697 16.01 28.403 16.01ZM32.7775 11.27C32.5442 11.27 32.3508 11.2 32.1975 11.06C32.0508 10.92 31.9775 10.7433 31.9775 10.53C31.9775 10.3167 32.0508 10.1433 32.1975 10.01C32.3508 9.87 32.5442 9.8 32.7775 9.8C33.0108 9.8 33.2008 9.87 33.3475 10.01C33.5008 10.1433 33.5775 10.3167 33.5775 10.53C33.5775 10.7433 33.5008 10.92 33.3475 11.06C33.2008 11.2 33.0108 11.27 32.7775 11.27ZM32.1375 17V12.04H33.4175V17H32.1375ZM34.7535 17V12.04H35.8835L35.9835 12.88C36.1368 12.5867 36.3568 12.3533 36.6435 12.18C36.9368 12.0067 37.2802 11.92 37.6735 11.92C38.2868 11.92 38.7635 12.1133 39.1035 12.5C39.4435 12.8867 39.6135 13.4533 39.6135 14.2V17H38.3335V14.32C38.3335 13.8933 38.2468 13.5667 38.0735 13.34C37.9002 13.1133 37.6302 13 37.2635 13C36.9035 13 36.6068 13.1267 36.3735 13.38C36.1468 13.6333 36.0335 13.9867 36.0335 14.44V17H34.7535Z" fill="#676767"/>
</g>
<defs>
<filter id="filter0_i_371_334" x="0" y="0" width="63.0408" height="32.5" filterUnits="userSpaceOnUse" color-interpolation-filters="sRGB">
<feFlood flood-opacity="0" result="BackgroundImageFix"/>
<feBlend mode="normal" in="SourceGraphic" in2="BackgroundImageFix" result="shape"/>
<feColorMatrix in="SourceAlpha" type="matrix" values="0 0 0 0 0 0 0 0 0 0 0 0 0 0 0 0 0 0 127 0" result="hardAlpha"/>
<feOffset dy="4"/>
<feGaussianBlur stdDeviation="2"/>
<feComposite in2="hardAlpha" operator="arithmetic" k2="-1" k3="1"/>
<feColorMatrix type="matrix" values="0 0 0 0 0 0 0 0 0 0 0 0 0 0 0 0 0 0 0.25 0"/>
<feBlend mode="normal" in2="shape" result="effect1_innerShadow_371_334"/>
</filter>
</defs>
</svg>
