<svg width="25" height="24" viewBox="0 0 25 24" fill="none" xmlns="http://www.w3.org/2000/svg">
<path opacity="0.5" d="M2.5 12C2.5 7.286 2.5 4.929 3.964 3.464C5.43 2 7.786 2 12.5 2C17.214 2 19.571 2 21.035 3.464C22.5 4.93 22.5 7.286 22.5 12C22.5 16.714 22.5 19.071 21.035 20.535C19.572 22 17.214 22 12.5 22C7.786 22 5.429 22 3.964 20.535C2.5 19.072 2.5 16.714 2.5 12Z" fill="white"/>
<path fill-rule="evenodd" clip-rule="evenodd" d="M6.96983 17.5302C6.82938 17.3895 6.75049 17.1989 6.75049 17.0002C6.75049 16.8014 6.82938 16.6108 6.96983 16.4702L9.18983 14.2502H7.99983C7.80092 14.2502 7.61015 14.1711 7.4695 14.0305C7.32885 13.8898 7.24983 13.6991 7.24983 13.5002C7.24983 13.3012 7.32885 13.1105 7.4695 12.9698C7.61015 12.8292 7.80092 12.7502 7.99983 12.7502H10.9998C11.1987 12.7502 11.3895 12.8292 11.5302 12.9698C11.6708 13.1105 11.7498 13.3012 11.7498 13.5002V16.5002C11.7498 16.6991 11.6708 16.8898 11.5302 17.0305C11.3895 17.1711 11.1987 17.2502 10.9998 17.2502C10.8009 17.2502 10.6102 17.1711 10.4695 17.0305C10.3288 16.8898 10.2498 16.6991 10.2498 16.5002V15.3102L8.02983 17.5302C7.8892 17.6706 7.69858 17.7495 7.49983 17.7495C7.30108 17.7495 7.11045 17.6706 6.96983 17.5302ZM17.7498 10.5002C17.7498 10.6991 17.6708 10.8898 17.5302 11.0305C17.3895 11.1711 17.1987 11.2502 16.9998 11.2502H13.9998C13.8009 11.2502 13.6102 11.1711 13.4695 11.0305C13.3288 10.8898 13.2498 10.6991 13.2498 10.5002V7.50015C13.2498 7.30124 13.3288 7.11048 13.4695 6.96982C13.6102 6.82917 13.8009 6.75015 13.9998 6.75015C14.1987 6.75015 14.3895 6.82917 14.5302 6.96982C14.6708 7.11048 14.7498 7.30124 14.7498 7.50015V8.69015L16.9698 6.47015C17.0385 6.39647 17.1213 6.33736 17.2133 6.29637C17.3053 6.25538 17.4046 6.23334 17.5053 6.23156C17.606 6.22979 17.706 6.24831 17.7994 6.28603C17.8928 6.32375 17.9776 6.3799 18.0489 6.45112C18.1201 6.52233 18.1762 6.60717 18.214 6.70056C18.2517 6.79394 18.2702 6.89397 18.2684 6.99468C18.2666 7.09538 18.2446 7.19469 18.2036 7.28669C18.1626 7.37869 18.1035 7.46149 18.0298 7.53015L15.8098 9.75015H16.9998C17.1987 9.75015 17.3895 9.82917 17.5302 9.96982C17.6708 10.1105 17.7498 10.3012 17.7498 10.5002Z" fill="white"/>
</svg>
