<svg width="21" height="22" viewBox="0 0 21 22" fill="#fff" xmlns="http://www.w3.org/2000/svg">
<path d="M17.6667 3.49095C17.6669 3.86278 17.5841 4.22996 17.4244 4.56575C17.2647 4.90154 17.0321 5.19747 16.7435 5.43198C16.455 5.6665 16.1177 5.8337 15.7564 5.9214C15.395 6.0091 15.0187 6.0151 14.6547 5.93895L13.3747 8.05595C13.7898 8.43678 14.1195 8.90118 14.3422 9.41859C14.5649 9.93601 14.6755 10.4947 14.6667 11.0579L15.9627 11.3179C16.2448 10.7915 16.706 10.3834 17.2629 10.1676C17.8198 9.95178 18.4355 9.94243 18.9987 10.1413C19.5618 10.3401 20.0352 10.734 20.3331 11.2516C20.631 11.7693 20.7338 12.3765 20.6228 12.9633C20.5118 13.5501 20.1944 14.0778 19.728 14.4509C19.2616 14.824 18.6771 15.0178 18.0802 14.9972C17.4833 14.9766 16.9135 14.743 16.4739 14.3387C16.0343 13.9344 15.754 13.386 15.6837 12.7929L14.3647 12.5269C14.02 13.3586 13.4058 14.0503 12.6207 14.4909L13.1157 16.0019H13.1667C13.7618 16.0017 14.3375 16.2138 14.7903 16.6C15.243 16.9863 15.5431 17.5214 15.6366 18.1091C15.7301 18.6968 15.6109 19.2986 15.3004 19.8063C14.99 20.314 14.5085 20.6943 13.9427 20.8788C13.3769 21.0633 12.7639 21.0399 12.2138 20.8128C11.6637 20.5857 11.2127 20.1699 10.9418 19.64C10.6708 19.1101 10.5978 18.501 10.7359 17.9221C10.8739 17.3432 11.2139 16.8326 11.6947 16.4819L11.1977 14.9649C10.4869 15.0608 9.76342 14.9634 9.10322 14.6831C8.44301 14.4028 7.87047 13.9499 7.44573 13.3719L5.65173 14.2199C5.71867 14.8134 5.57091 15.4113 5.23521 15.9053C4.89951 16.3993 4.39805 16.7568 3.82159 16.913C3.24513 17.0693 2.63178 17.014 2.09254 16.7572C1.55331 16.5004 1.12384 16.059 0.881855 15.513C0.639875 14.9669 0.601381 14.3523 0.773341 13.7803C0.945301 13.2084 1.31635 12.7169 1.81933 12.3948C2.32231 12.0727 2.92397 11.9413 3.51542 12.0245C4.10687 12.1076 4.64902 12.3997 5.04373 12.8479L6.79773 12.0189C6.63652 11.4049 6.62354 10.7614 6.75985 10.1414C6.89616 9.52143 7.17786 8.94271 7.58173 8.45295L6.59073 7.32295C6.03577 7.54366 5.42013 7.55841 4.85524 7.36453C4.29035 7.17064 3.81353 6.78093 3.51109 6.26594C3.20865 5.75094 3.10056 5.14468 3.2064 4.5569C3.31224 3.96911 3.62501 3.43863 4.08809 3.06148C4.55118 2.68433 5.13399 2.48542 5.73103 2.50075C6.32807 2.51609 6.8999 2.74466 7.34301 3.14509C7.78612 3.54552 8.07124 4.09136 8.14676 4.6838C8.22229 5.27625 8.08322 5.87616 7.75473 6.37495L8.73673 7.49495C9.32772 7.16906 9.99185 6.99873 10.6667 6.99995C11.1717 6.99995 11.6557 7.09295 12.1007 7.26495L13.3457 5.20495C13.0663 4.90787 12.8638 4.54694 12.7559 4.15364C12.6479 3.76033 12.6379 3.34659 12.7265 2.9485C12.8152 2.55041 12.9999 2.18006 13.2646 1.86975C13.5293 1.55944 13.8658 1.31859 14.2449 1.16821C14.624 1.01783 15.0342 0.962487 15.4396 1.007C15.845 1.05152 16.2334 1.19454 16.5708 1.4236C16.9083 1.65266 17.1845 1.9608 17.3756 2.32115C17.5666 2.68149 17.6666 3.0831 17.6667 3.49095V3.49095ZM16.1667 3.49095C16.1667 3.22573 16.0614 2.97138 15.8738 2.78384C15.6863 2.5963 15.4319 2.49095 15.1667 2.49095C14.9015 2.49095 14.6472 2.5963 14.4596 2.78384C14.2721 2.97138 14.1667 3.22573 14.1667 3.49095C14.1667 3.75616 14.2721 4.01052 14.4596 4.19805C14.6472 4.38559 14.9015 4.49095 15.1667 4.49095C15.4319 4.49095 15.6863 4.38559 15.8738 4.19805C16.0614 4.01052 16.1667 3.75616 16.1667 3.49095ZM5.66673 5.99995C5.93195 5.99995 6.1863 5.89459 6.37384 5.70705C6.56138 5.51952 6.66673 5.26516 6.66673 4.99995C6.66673 4.73473 6.56138 4.48038 6.37384 4.29284C6.1863 4.1053 5.93195 3.99995 5.66673 3.99995C5.40152 3.99995 5.14716 4.1053 4.95963 4.29284C4.77209 4.48038 4.66673 4.73473 4.66673 4.99995C4.66673 5.26516 4.77209 5.51952 4.95963 5.70705C5.14716 5.89459 5.40152 5.99995 5.66673 5.99995ZM10.6667 13.4999C11.3298 13.4999 11.9657 13.2366 12.4345 12.7677C12.9033 12.2989 13.1667 11.663 13.1667 10.9999C13.1667 10.3369 12.9033 9.70102 12.4345 9.23218C11.9657 8.76334 11.3298 8.49995 10.6667 8.49995C10.0037 8.49995 9.36781 8.76334 8.89897 9.23218C8.43012 9.70102 8.16673 10.3369 8.16673 10.9999C8.16673 11.663 8.43012 12.2989 8.89897 12.7677C9.36781 13.2366 10.0037 13.4999 10.6667 13.4999ZM4.16673 14.4999C4.16673 14.2347 4.06138 13.9804 3.87384 13.7928C3.6863 13.6053 3.43195 13.4999 3.16673 13.4999C2.90152 13.4999 2.64716 13.6053 2.45963 13.7928C2.27209 13.9804 2.16673 14.2347 2.16673 14.4999C2.16673 14.7652 2.27209 15.0195 2.45963 15.2071C2.64716 15.3946 2.90152 15.4999 3.16673 15.4999C3.43195 15.4999 3.6863 15.3946 3.87384 15.2071C4.06138 15.0195 4.16673 14.7652 4.16673 14.4999ZM14.1667 18.5019C14.1667 18.2367 14.0614 17.9824 13.8738 17.7948C13.6863 17.6073 13.4319 17.5019 13.1667 17.5019C12.9015 17.5019 12.6472 17.6073 12.4596 17.7948C12.2721 17.9824 12.1667 18.2367 12.1667 18.5019C12.1667 18.7672 12.2721 19.0215 12.4596 19.2091C12.6472 19.3966 12.9015 19.5019 13.1667 19.5019C13.4319 19.5019 13.6863 19.3966 13.8738 19.2091C14.0614 19.0215 14.1667 18.7672 14.1667 18.5019ZM18.1667 13.4999C18.4319 13.4999 18.6863 13.3946 18.8738 13.2071C19.0614 13.0195 19.1667 12.7652 19.1667 12.4999C19.1667 12.2347 19.0614 11.9804 18.8738 11.7928C18.6863 11.6053 18.4319 11.4999 18.1667 11.4999C17.9015 11.4999 17.6472 11.6053 17.4596 11.7928C17.2721 11.9804 17.1667 12.2347 17.1667 12.4999C17.1667 12.7652 17.2721 13.0195 17.4596 13.2071C17.6472 13.3946 17.9015 13.4999 18.1667 13.4999Z" fill="#FEB544"/>
</svg>
