<svg width="24" height="25" viewBox="0 0 24 25" fill="none" xmlns="http://www.w3.org/2000/svg">
<path d="M6.6001 11.5638C6.6001 8.83776 6.6001 7.47476 7.4431 6.62776C8.2871 5.78076 9.6441 5.78076 12.3601 5.78076L15.2401 5.78076C17.9551 5.78076 19.3121 5.78076 20.1561 6.62776C21.0001 7.47476 21.0001 8.83776 21.0001 11.5638V16.3838C21.0001 19.1098 21.0001 20.4728 20.1561 21.3198C19.3131 22.1668 17.9551 22.1668 15.2401 22.1668H12.3601C9.6441 22.1668 8.2871 22.1668 7.4431 21.3198C6.6001 20.4728 6.6001 19.1098 6.6001 16.3838L6.6001 11.5638Z" fill="black"/>
<path opacity="0.5" d="M4.172 3.33875C3 4.50975 3 6.39575 3 10.1667V12.1667C3 15.9377 3 17.8237 4.172 18.9947C4.789 19.6127 5.605 19.9047 6.792 20.0427C6.6 19.2027 6.6 18.0467 6.6 16.3827L6.6 11.5637C6.6 8.83775 6.6 7.47475 7.443 6.62775C8.287 5.78075 9.644 5.78075 12.36 5.78075H15.24C16.892 5.78075 18.04 5.78075 18.878 5.97075C18.74 4.77775 18.448 3.95875 17.828 3.33875C16.657 2.16675 14.771 2.16675 11 2.16675C7.229 2.16675 5.343 2.16675 4.172 3.33875Z" fill="black"/>
</svg>
