<svg width="25" height="24" viewBox="0 0 25 24" fill="none" xmlns="http://www.w3.org/2000/svg">
<path d="M12.552 1.25H12.448C11.549 1.25 10.8 1.25 10.206 1.33C9.578 1.414 9.011 1.6 8.556 2.055C8.1 2.511 7.914 3.078 7.83 3.705C7.75 4.3 7.75 5.05 7.75 5.948V6.026C8.207 6.011 8.705 6.005 9.25 6.002V6C9.25 5.036 9.252 4.388 9.317 3.905C9.379 3.444 9.486 3.246 9.617 3.116C9.747 2.986 9.944 2.879 10.405 2.816C10.888 2.752 11.536 2.75 12.5 2.75C13.464 2.75 14.112 2.752 14.595 2.817C15.056 2.879 15.254 2.986 15.384 3.117C15.514 3.247 15.621 3.444 15.684 3.905C15.748 4.388 15.75 5.036 15.75 6V6.002C16.2501 6.00312 16.7501 6.01112 17.25 6.026V5.948C17.25 5.05 17.25 4.3 17.17 3.706C17.086 3.078 16.9 2.511 16.444 2.056C15.989 1.6 15.422 1.414 14.794 1.33C14.2 1.25 13.45 1.25 12.552 1.25Z" fill="white"/>
<path opacity="0.5" fill-rule="evenodd" clip-rule="evenodd" d="M2.5 14C2.5 10.229 2.5 8.343 3.672 7.172C4.843 6 6.729 6 10.5 6L14.5 6C18.271 6 20.157 6 21.328 7.172C22.5 8.343 22.5 10.229 22.5 14C22.5 17.771 22.5 19.657 21.328 20.828C20.157 22 18.271 22 14.5 22H10.5C6.729 22 4.843 22 3.672 20.828C2.5 19.657 2.5 17.771 2.5 14ZM13.25 12.5C13.25 12.3011 13.171 12.1103 13.0303 11.9697C12.8897 11.829 12.6989 11.75 12.5 11.75C12.3011 11.75 12.1103 11.829 11.9697 11.9697C11.829 12.1103 11.75 12.3011 11.75 12.5V13.25H11C10.8011 13.25 10.6103 13.329 10.4697 13.4697C10.329 13.6103 10.25 13.8011 10.25 14C10.25 14.1989 10.329 14.3897 10.4697 14.5303C10.6103 14.671 10.8011 14.75 11 14.75H11.75V15.5C11.75 15.6989 11.829 15.8897 11.9697 16.0303C12.1103 16.171 12.3011 16.25 12.5 16.25C12.6989 16.25 12.8897 16.171 13.0303 16.0303C13.171 15.8897 13.25 15.6989 13.25 15.5V14.75H14C14.1989 14.75 14.3897 14.671 14.5303 14.5303C14.671 14.3897 14.75 14.1989 14.75 14C14.75 13.8011 14.671 13.6103 14.5303 13.4697C14.3897 13.329 14.1989 13.25 14 13.25H13.25V12.5Z" fill="white"/>
<path fill-rule="evenodd" clip-rule="evenodd" d="M12.5 18C13.5609 18 14.5783 17.5786 15.3284 16.8284C16.0786 16.0783 16.5 15.0609 16.5 14C16.5 12.9391 16.0786 11.9217 15.3284 11.1716C14.5783 10.4214 13.5609 10 12.5 10C11.4391 10 10.4217 10.4214 9.67157 11.1716C8.92143 11.9217 8.5 12.9391 8.5 14C8.5 15.0609 8.92143 16.0783 9.67157 16.8284C10.4217 17.5786 11.4391 18 12.5 18ZM13.25 12.5C13.25 12.3011 13.171 12.1103 13.0303 11.9697C12.8897 11.829 12.6989 11.75 12.5 11.75C12.3011 11.75 12.1103 11.829 11.9697 11.9697C11.829 12.1103 11.75 12.3011 11.75 12.5V13.25H11C10.8011 13.25 10.6103 13.329 10.4697 13.4697C10.329 13.6103 10.25 13.8011 10.25 14C10.25 14.1989 10.329 14.3897 10.4697 14.5303C10.6103 14.671 10.8011 14.75 11 14.75H11.75V15.5C11.75 15.6989 11.829 15.8897 11.9697 16.0303C12.1103 16.171 12.3011 16.25 12.5 16.25C12.6989 16.25 12.8897 16.171 13.0303 16.0303C13.171 15.8897 13.25 15.6989 13.25 15.5V14.75H14C14.1989 14.75 14.3897 14.671 14.5303 14.5303C14.671 14.3897 14.75 14.1989 14.75 14C14.75 13.8011 14.671 13.6103 14.5303 13.4697C14.3897 13.329 14.1989 13.25 14 13.25H13.25V12.5Z" fill="white"/>
</svg>
