<svg xmlns="http://www.w3.org/2000/svg" viewBox="0 0 64 64" id="delete"><path fill="#ffffff" d="M45.59,61H18.41A6.4,6.4,0,0,1,12,54.61V14.2a2,2,0,0,1,2-2H50a2,2,0,0,1,2,2V54.61A6.4,6.4,0,0,1,45.59,61ZM16,16.2V54.61A2.4,2.4,0,0,0,18.41,57H45.59A2.4,2.4,0,0,0,48,54.61V16.2Z" class="color222222 svgShape"></path><path fill="#ffffff" d="M54.16,16.2H9.84a2,2,0,0,1,0-4H54.16a2,2,0,0,1,0,4Z" class="color222222 svgShape"></path><path fill="#ffffff" d="M24.33,16.2a2,2,0,0,1-2-2V8.29A5.3,5.3,0,0,1,27.62,3H32a2,2,0,0,1,0,4H27.62a1.29,1.29,0,0,0-1.29,1.29V14.2A2,2,0,0,1,24.33,16.2Z" class="color222222 svgShape"></path><path fill="#ffffff" d="M39.67 16.2a2 2 0 0 1-2-2V8.29A1.29 1.29 0 0 0 36.38 7H32a2 2 0 0 1 0-4h4.38a5.3 5.3 0 0 1 5.29 5.29V14.2A2 2 0 0 1 39.67 16.2zM38.28 44.88a2 2 0 0 1-1.41-.58L24.3 31.73a2 2 0 1 1 2.83-2.83L39.7 41.47a2 2 0 0 1-1.42 3.41z" class="color222222 svgShape"></path><path fill="#ffffff" d="M25.72,44.88a2,2,0,0,1-1.42-3.41L36.87,28.9a2,2,0,0,1,2.83,2.83L27.13,44.3A2,2,0,0,1,25.72,44.88Z" class="color222222 svgShape"></path></svg>