<svg width="24" height="25" viewBox="0 0 24 25" fill="none" xmlns="http://www.w3.org/2000/svg">
<path opacity="0.5" d="M12 22.5C7.286 22.5 4.929 22.5 3.464 21.035C2 19.572 2 17.214 2 12.5C2 7.786 2 5.429 3.464 3.964C4.93 2.5 7.286 2.5 12 2.5C16.714 2.5 19.071 2.5 20.535 3.964C22 5.43 22 7.786 22 12.5C22 17.214 22 19.571 20.535 21.035C19.072 22.5 16.714 22.5 12 22.5Z" fill="white"/>
<path d="M18.75 8.5C18.75 8.69891 18.671 8.88968 18.5303 9.03033C18.3897 9.17098 18.1989 9.25 18 9.25H6C5.80109 9.25 5.61032 9.17098 5.46967 9.03033C5.32902 8.88968 5.25 8.69891 5.25 8.5C5.25 8.30109 5.32902 8.11032 5.46967 7.96967C5.61032 7.82902 5.80109 7.75 6 7.75H18C18.1989 7.75 18.3897 7.82902 18.5303 7.96967C18.671 8.11032 18.75 8.30109 18.75 8.5ZM18.75 12.5C18.75 12.6989 18.671 12.8897 18.5303 13.0303C18.3897 13.171 18.1989 13.25 18 13.25H6C5.80109 13.25 5.61032 13.171 5.46967 13.0303C5.32902 12.8897 5.25 12.6989 5.25 12.5C5.25 12.3011 5.32902 12.1103 5.46967 11.9697C5.61032 11.829 5.80109 11.75 6 11.75H18C18.1989 11.75 18.3897 11.829 18.5303 11.9697C18.671 12.1103 18.75 12.3011 18.75 12.5ZM18.75 16.5C18.75 16.6989 18.671 16.8897 18.5303 17.0303C18.3897 17.171 18.1989 17.25 18 17.25H6C5.80109 17.25 5.61032 17.171 5.46967 17.0303C5.32902 16.8897 5.25 16.6989 5.25 16.5C5.25 16.3011 5.32902 16.1103 5.46967 15.9697C5.61032 15.829 5.80109 15.75 6 15.75H18C18.1989 15.75 18.3897 15.829 18.5303 15.9697C18.671 16.1103 18.75 16.3011 18.75 16.5Z" fill="white"/>
</svg>
