<svg width="54" height="54" viewBox="0 0 54 54" fill="none" xmlns="http://www.w3.org/2000/svg">
<path d="M36 54H18C13.2261 54 8.64773 52.1036 5.27208 48.7279C1.89642 45.3523 0 40.7739 0 36V18C0 13.2261 1.89642 8.64773 5.27208 5.27208C8.64773 1.89642 13.2261 0 18 0H36C40.7739 0 45.3523 1.89642 48.7279 5.27208C52.1036 8.64773 54 13.2261 54 18V36C54 40.7739 52.1036 45.3523 48.7279 48.7279C45.3523 52.1036 40.7739 54 36 54ZM18 4C14.287 4 10.726 5.475 8.1005 8.1005C5.475 10.726 4 14.287 4 18V36C4 39.713 5.475 43.274 8.1005 45.8995C10.726 48.525 14.287 50 18 50H36C39.713 50 43.274 48.525 45.8995 45.8995C48.525 43.274 50 39.713 50 36V18C50 14.287 48.525 10.726 45.8995 8.1005C43.274 5.475 39.713 4 36 4H18Z" fill="#FF0000"/>
<path d="M35.73 37.73C35.4661 37.7302 35.2048 37.6782 34.9611 37.577C34.7174 37.4757 34.4961 37.3272 34.31 37.14L16.86 19.69C16.4848 19.3148 16.2739 18.8058 16.2739 18.275C16.2739 18.0122 16.3257 17.752 16.4263 17.5092C16.5268 17.2665 16.6742 17.0459 16.86 16.86C17.0459 16.6742 17.2665 16.5268 17.5092 16.4263C17.752 16.3257 18.0122 16.2739 18.275 16.2739C18.8058 16.2739 19.3148 16.4848 19.69 16.86L37.14 34.31C37.4215 34.5892 37.6136 34.9457 37.6921 35.3342C37.7705 35.7228 37.7317 36.1259 37.5807 36.4924C37.4296 36.8588 37.173 37.1721 36.8435 37.3925C36.514 37.6129 36.1264 37.7304 35.73 37.73Z" fill="#FF0000"/>
<path d="M18.2702 37.73C17.8738 37.7304 17.4862 37.6129 17.1567 37.3925C16.8272 37.1721 16.5706 36.8588 16.4195 36.4924C16.2684 36.1259 16.2297 35.7228 16.3081 35.3342C16.3866 34.9457 16.5787 34.5892 16.8602 34.31L34.3102 16.86C34.496 16.6742 34.7166 16.5268 34.9594 16.4263C35.2021 16.3257 35.4624 16.2739 35.7252 16.2739C35.9879 16.2739 36.2482 16.3257 36.4909 16.4263C36.7337 16.5268 36.9543 16.6742 37.1402 16.86C37.326 17.0459 37.4734 17.2665 37.5739 17.5092C37.6745 17.752 37.7263 18.0122 37.7263 18.275C37.7263 18.5378 37.6745 18.798 37.5739 19.0408C37.4734 19.2836 37.326 19.5042 37.1402 19.69L19.6902 37.14C19.5041 37.3272 19.2828 37.4757 19.0391 37.577C18.7954 37.6782 18.5341 37.7302 18.2702 37.73Z" fill="#FF0000"/>
</svg>
