<svg width="50" height="50" viewBox="0 0 50 50" fill="none" xmlns="http://www.w3.org/2000/svg">
<circle cx="25" cy="25" r="24.5" stroke="#484747"/>
<path d="M33.4817 17.2183C31.9301 16.495 30.2501 15.97 28.5001 15.6667C28.4847 15.6662 28.4694 15.6691 28.4553 15.6751C28.4412 15.6812 28.4286 15.6902 28.4184 15.7017C28.2084 16.0867 27.9634 16.5883 27.8001 16.9733C25.9439 16.6933 24.0562 16.6933 22.2001 16.9733C22.0367 16.5767 21.7917 16.0867 21.5701 15.7017C21.5584 15.6783 21.5234 15.6667 21.4884 15.6667C19.7384 15.97 18.0701 16.495 16.5067 17.2183C16.4951 17.2183 16.4834 17.23 16.4717 17.2417C13.2984 21.99 12.4234 26.61 12.8551 31.1833C12.8551 31.2067 12.8667 31.23 12.8901 31.2417C14.9901 32.7817 17.0084 33.715 19.0034 34.3333C19.0384 34.345 19.0734 34.3333 19.0851 34.31C19.5517 33.6683 19.9717 32.9917 20.3334 32.28C20.3567 32.2333 20.3334 32.1867 20.2867 32.175C19.6217 31.9183 18.9917 31.615 18.3734 31.265C18.3267 31.2417 18.3267 31.1717 18.3617 31.1367C18.4901 31.0433 18.6184 30.9383 18.7467 30.845C18.7701 30.8217 18.8051 30.8217 18.8284 30.8333C22.8417 32.665 27.1701 32.665 31.1367 30.8333C31.1601 30.8217 31.1951 30.8217 31.2184 30.845C31.3467 30.95 31.4751 31.0433 31.6034 31.1483C31.6501 31.1833 31.6501 31.2533 31.5917 31.2767C30.9851 31.6383 30.3434 31.93 29.6784 32.1867C29.6317 32.1983 29.6201 32.2567 29.6317 32.2917C30.0051 33.0033 30.4251 33.68 30.8801 34.3217C30.9151 34.3333 30.9501 34.345 30.9851 34.3333C32.9917 33.715 35.0101 32.7817 37.1101 31.2417C37.1334 31.23 37.1451 31.2067 37.1451 31.1833C37.6584 25.8983 36.2934 21.3133 33.5284 17.2417C33.5167 17.23 33.5051 17.2183 33.4817 17.2183ZM20.9401 28.395C19.7384 28.395 18.7351 27.2867 18.7351 25.9217C18.7351 24.5567 19.7151 23.4483 20.9401 23.4483C22.1767 23.4483 23.1567 24.5683 23.1451 25.9217C23.1451 27.2867 22.1651 28.395 20.9401 28.395ZM29.0717 28.395C27.8701 28.395 26.8667 27.2867 26.8667 25.9217C26.8667 24.5567 27.8467 23.4483 29.0717 23.4483C30.3084 23.4483 31.2884 24.5683 31.2767 25.9217C31.2767 27.2867 30.3084 28.395 29.0717 28.395Z" fill="#828282"/>
</svg>
