<svg width="40" height="40" viewBox="0 0 40 40" fill="none" xmlns="http://www.w3.org/2000/svg">
<rect width="40" height="40" rx="15" fill="#3897E3"/>
<path d="M14.7204 7C13.7043 7 10.6407 8.4552 10.0911 8.74602C9.54144 9.03684 8.93137 9.94468 8.23914 11.443C7.54596 12.9413 6.98972 14.6929 6.08595 17.2693C5.18312 19.8458 4.97252 24.8129 5.00274 26.329C5.03296 27.845 5.18123 29.0293 6.50809 29.926C7.834 30.8217 9.00692 31.7594 10.2412 32.3234C11.4765 32.8873 12.3189 33.2931 12.8912 32.7292C13.4635 32.1652 13.8403 31.1778 13.8403 31.1778C13.8403 31.1778 14.3823 30.2965 13.3586 29.7679C12.3349 29.2383 11.8231 28.8678 11.8675 28.3216C11.9128 27.7753 11.9874 27.4756 12.2433 27.5464C12.4992 27.6172 13.1027 28.8855 15.4212 29.4671C17.7396 30.0488 19.9995 29.9614 19.9995 29.9614C19.9995 29.9614 22.2604 30.0499 24.5788 29.4671C26.8973 28.8855 27.4998 27.6172 27.7557 27.5464C28.0117 27.4756 28.0863 27.7753 28.1316 28.3205C28.1769 28.8678 27.6651 29.2383 26.6414 29.7679C25.6177 30.2965 26.1597 31.1778 26.1597 31.1778C26.1597 31.1778 26.5365 32.1641 27.1088 32.7292C27.6802 33.2931 28.5235 32.8873 29.7578 32.3234C30.9921 31.7594 32.166 30.8228 33.4919 29.926C34.8188 29.0293 34.967 27.845 34.9973 26.329C35.0275 24.814 34.8169 19.8458 33.9131 17.2693C33.0103 14.6929 32.4531 12.9413 31.7599 11.443C31.0686 9.94468 30.4576 9.03684 29.9089 8.74491C29.3593 8.4552 26.2948 7 25.2786 7C24.2625 7 23.9622 7.82933 23.9622 7.82933L23.608 8.74602C23.608 8.74602 21.2282 8.21635 20.0156 8.21525C18.803 8.21525 16.392 8.74602 16.392 8.74602L16.0378 7.82823C16.0378 7.82823 15.7375 7 14.7204 7ZM14.8309 18.0003H14.8687C16.3504 18.0003 17.5507 19.5185 17.5507 21.3906C17.5507 23.2637 16.3504 24.7809 14.8687 24.7809C13.387 24.7809 12.1867 23.2637 12.1867 21.3906C12.1857 19.5362 13.3643 18.0257 14.8309 18.0003ZM25.1313 18.0003H25.1691C26.6357 18.0257 27.8133 19.5373 27.8133 21.3906C27.8133 23.2637 26.613 24.7809 25.1313 24.7809C23.6486 24.7809 22.4493 23.2637 22.4493 21.3906C22.4493 19.5185 23.6486 18.0003 25.1313 18.0003Z" fill="white"/>
<path d="M19.9629 14.0011C14.9036 14.0069 10.0266 15.2945 6.27214 17.6158L6.0861 18.121C5.18327 20.558 4.97173 25.2563 5.00289 26.6903C5.03311 28.1243 5.18138 29.2434 6.50729 30.0917C7.83415 30.9399 9.00707 31.8269 10.2423 32.3603C11.4766 32.8937 12.32 33.2776 12.8913 32.7431C13.4636 32.2097 13.8404 31.2757 13.8404 31.2757C13.8404 31.2757 14.3825 30.442 13.3588 29.9421C12.3351 29.4421 11.8232 29.0918 11.8676 28.5751C11.9129 28.0573 11.9875 27.7749 12.2435 27.8408C12.4994 27.9078 13.1029 29.1085 15.4204 29.6586C17.7388 30.2088 20.0006 30.1262 20.0006 30.1262C20.0006 30.1262 22.2605 30.2088 24.579 29.6586C26.8974 29.1085 27.5 27.9078 27.7559 27.8408C28.0118 27.7749 28.0864 28.0573 28.1318 28.5751C28.1771 29.0918 27.6652 29.4421 26.6415 29.9421C25.6178 30.442 26.1599 31.2757 26.1599 31.2757C26.1599 31.2757 26.5357 32.2097 27.108 32.7431C27.6803 33.2765 28.5227 32.8937 29.758 32.3603C30.9923 31.8269 32.1662 30.9399 33.4921 30.0917C34.8189 29.2445 34.9672 28.1253 34.9974 26.6903C35.0267 25.2574 34.8161 20.558 33.9133 18.121L33.7272 17.6158C29.9636 15.2883 25.0719 13.9999 19.9997 14C19.9874 14 19.9751 14 19.9629 14V14.0011ZM14.8311 18.8134H14.8689C16.3506 18.8134 17.5509 20.2494 17.5509 22.0202C17.5509 23.791 16.3506 25.227 14.8689 25.227C13.3871 25.227 12.1859 23.791 12.1859 22.0202C12.1859 20.2662 13.3645 18.8374 14.8311 18.8134ZM25.1305 18.8134H25.1683C26.6359 18.8374 27.8135 20.2662 27.8126 22.0202C27.8126 23.791 26.6132 25.227 25.1305 25.227C23.6488 25.227 22.4485 23.791 22.4485 22.0202C22.4485 20.2494 23.6488 18.8134 25.1305 18.8134Z" fill="#0D2B59"/>
</svg>
