<svg width="17" height="17" viewBox="0 0 17 17" fill="none" xmlns="http://www.w3.org/2000/svg">
<path d="M9.20834 1.45208V3.59833C11.6096 3.94541 13.4583 5.99958 13.4583 8.5C13.4583 9.1375 13.3308 9.73958 13.1042 10.2992L14.96 11.3829C15.3567 10.5046 15.5833 9.52708 15.5833 8.5C15.5833 4.83083 12.7854 1.80625 9.20834 1.45208ZM8.50001 13.4583C7.18497 13.4583 5.9238 12.9359 4.99393 12.0061C4.06407 11.0762 3.54167 9.81503 3.54167 8.5C3.54167 5.99958 5.39042 3.94541 7.79167 3.59833V1.45208C4.20751 1.80625 1.41667 4.82375 1.41667 8.5C1.41667 10.3786 2.16295 12.1803 3.49133 13.5087C4.14908 14.1664 4.92994 14.6882 5.78933 15.0441C6.64872 15.4001 7.56981 15.5833 8.50001 15.5833C10.8375 15.5833 12.9129 14.4429 14.2021 12.6862L12.3604 11.6025C11.9004 12.185 11.3136 12.655 10.6447 12.9766C9.97573 13.2981 9.24223 13.4629 8.50001 13.4583Z" fill="#F8F8F8"/>
</svg>
