<svg width="29" height="27" viewBox="0 0 29 27" fill="none" xmlns="http://www.w3.org/2000/svg">
<path d="M26.7 7.56274H6.36004C5.22004 7.56274 4.26004 8.52274 4.26004 9.66274V24.3027C4.26004 25.5027 3.24004 26.4627 2.04004 26.4027H26.7C27.9 26.4027 28.8 25.4427 28.8 24.3027V9.66274C28.8 8.52274 27.84 7.56274 26.7 7.56274Z" fill="#3897E3"/>
<path d="M4.26 24.3027V9.66267C4.26 8.52267 5.22 7.56267 6.36 7.56267H26.16V6.60267C26.16 5.40267 25.2 4.50267 24.06 4.50267H16.98C15.78 4.50267 14.88 3.54267 14.88 2.40267V2.10267C14.88 0.902667 13.92 0.00266725 12.78 0.00266725H2.1C0.96 -0.0573328 0 0.902667 0 2.10267V24.2427C0 25.3827 0.84 26.4027 1.98 26.4627C3.24 26.5227 4.26 25.5627 4.26 24.3027Z" fill="white"/>
<path d="M20.972 20.1409H12.0794V18.4227H11V20.5909C11 20.8364 11.257 21 11.514 21H21.486C21.7944 21 22 20.7955 22 20.5909V18.4227H20.9206V20.1409H20.972ZM16.5514 17.6045C16.7056 17.6045 16.8084 17.5636 16.9112 17.4818L19.7383 15.2318L18.9673 14.6182L17.0654 16.1318V12H15.986V16.1318L14.0841 14.6182L13.3131 15.2318L16.1402 17.4818C16.243 17.5636 16.3972 17.6045 16.5514 17.6045Z" fill="white"/>
</svg>
