<svg width="24" height="24" viewBox="0 0 24 24" fill="none" xmlns="http://www.w3.org/2000/svg">
<path opacity="0.5" d="M2 12C2 17.523 6.477 22 12 22C17.523 22 22 17.523 22 12C22 6.477 17.523 2 12 2C6.477 2 2 6.477 2 12Z" fill="white"/>
<path d="M15.5298 11.0302C15.6035 10.9615 15.6626 10.8787 15.7036 10.7867C15.7446 10.6947 15.7667 10.5954 15.7684 10.4947C15.7702 10.394 15.7517 10.2939 15.714 10.2006C15.6762 10.1072 15.6201 10.0223 15.5489 9.95112C15.4777 9.8799 15.3928 9.82375 15.2994 9.78603C15.2061 9.74831 15.106 9.72979 15.0053 9.73156C14.9046 9.73334 14.8053 9.75538 14.7133 9.79637C14.6213 9.83736 14.5385 9.89647 14.4698 9.97015L11.9998 12.4402L9.52985 9.97015C9.38767 9.83767 9.19963 9.76555 9.00532 9.76898C8.81102 9.77241 8.62564 9.85112 8.48823 9.98853C8.35081 10.1259 8.2721 10.3113 8.26867 10.5056C8.26524 10.6999 8.33737 10.888 8.46985 11.0302L11.4698 14.0302C11.6105 14.1706 11.8011 14.2495 11.9998 14.2495C12.1986 14.2495 12.3892 14.1706 12.5298 14.0302L15.5298 11.0302Z" fill="white"/>
</svg>
