<svg width="28" height="28" viewBox="0 0 28 28" fill="none" xmlns="http://www.w3.org/2000/svg">
<path d="M7.37085 28H1.64274C1.28469 28 0.941311 27.8525 0.688135 27.5899C0.434958 27.3274 0.292725 26.9713 0.292725 26.6V20.6597C0.292801 20.2884 0.435084 19.9324 0.688279 19.6699L19.2645 0.409905C19.5176 0.147443 19.861 0 20.2189 0C20.5769 0 20.9202 0.147443 21.1734 0.409905L26.8975 6.34597C27.1505 6.60851 27.2927 6.96455 27.2927 7.33578C27.2927 7.70701 27.1505 8.06305 26.8975 8.32559L8.32531 27.5898C8.07219 27.8524 7.72887 27.9999 7.37085 28Z" fill="#CA7E0D"/>
<path d="M26.8914 6.21402L21.08 0.401382C20.823 0.144377 20.4744 0 20.111 0C19.7476 0 19.399 0.144377 19.142 0.401382L14.2927 5.25027L22.0436 13L26.8914 8.15248C27.1484 7.8954 27.2927 7.54676 27.2927 7.18325C27.2927 6.81974 27.1484 6.4711 26.8914 6.21402Z" fill="#3897E3"/>
</svg>
