<svg width="16" height="16" viewBox="0 0 16 16" fill="none" xmlns="http://www.w3.org/2000/svg">
<g clip-path="url(#clip0_1810_5896)">
<path d="M4.02674 5.1815C2.38674 5.55283 1.56674 5.73816 1.37141 6.3655C1.17674 6.99216 1.73541 7.64616 2.85341 8.9535L3.14274 9.2915C3.46008 9.66283 3.61941 9.84883 3.69074 10.0782C3.76208 10.3082 3.73808 10.5562 3.69008 11.0515L3.64608 11.5028C3.47741 13.2475 3.39274 14.1195 3.90341 14.5068C4.41408 14.8948 5.18207 14.5408 6.71674 13.8342L7.11474 13.6515C7.55074 13.4502 7.76874 13.3502 8.00008 13.3502C8.23141 13.3502 8.44941 13.4502 8.88608 13.6515L9.28274 13.8342C10.8181 14.5408 11.5861 14.8942 12.0961 14.5075C12.6074 14.1195 12.5227 13.2475 12.3541 11.5028M13.1467 8.9535C14.2647 7.64683 14.8234 6.99283 14.6287 6.3655C14.4334 5.73816 13.6134 5.55216 11.9734 5.1815L11.5494 5.0855C11.0834 4.98016 10.8507 4.9275 10.6634 4.7855C10.4767 4.6435 10.3567 4.42816 10.1167 3.9975L9.89808 3.6055C9.05341 2.09083 8.63141 1.3335 8.00008 1.3335C7.36874 1.3335 6.94674 2.09083 6.10208 3.6055" stroke="white" stroke-width="1.5" stroke-linecap="round"/>
</g>
<defs>
<clipPath id="clip0_1810_5896">
<rect width="16" height="16" fill="white"/>
</clipPath>
</defs>
</svg>
