<svg width="32" height="33" viewBox="0 0 32 33" fill="none" xmlns="http://www.w3.org/2000/svg">
<g clip-path="url(#clip0_1802_5614)">
<path d="M16 32.0312C24.5777 32.0312 31.5312 25.0777 31.5312 16.5C31.5312 7.92233 24.5777 0.96875 16 0.96875C7.42233 0.96875 0.46875 7.92233 0.46875 16.5C0.46875 25.0777 7.42233 32.0312 16 32.0312Z" fill="#4956FC"/>
<path d="M16 28.9062C22.8518 28.9062 28.4062 23.3518 28.4062 16.5C28.4062 9.64822 22.8518 4.09375 16 4.09375C9.14822 4.09375 3.59375 9.64822 3.59375 16.5C3.59375 23.3518 9.14822 28.9062 16 28.9062Z" fill="#5E8DF7"/>
<path d="M21.8376 15.7574L20.8663 16.3087L15.9282 18.1724L10.1626 15.7574L15.9282 5.87744L21.8376 15.7574Z" fill="#FEFEFE"/>
<path d="M21.8376 15.7573L15.9282 19.1098L10.1626 15.7573L15.9282 13.0654L21.8376 15.7573Z" fill="#C0CBF8"/>
<path d="M21.8376 18.1152L15.9282 27.1227L10.1626 18.1152L15.9282 21.4671L21.8376 18.1152Z" fill="#FEFEFE"/>
<path d="M21.8376 18.1149L15.9282 27.1224V21.4668L21.8376 18.1149ZM21.8376 15.7574L20.8663 16.3087L15.9282 13.4849V5.87744L21.8376 15.7574Z" fill="#C0CBF8"/>
<path d="M21.8376 15.7573L15.9282 19.1098V13.0654L21.8376 15.7573Z" fill="#8095F0"/>
</g>
<defs>
<clipPath id="clip0_1802_5614">
<rect width="32" height="32" fill="white" transform="translate(0 0.5)"/>
</clipPath>
</defs>
</svg>
