<svg width="36" height="32" viewBox="0 0 36 32" fill="none" xmlns="http://www.w3.org/2000/svg">
<path d="M18.2086 10.3608L18.1177 17.0517H17.0631L16.9722 10.3608H18.2086ZM17.5904 19.7426C17.3662 19.7426 17.1737 19.6623 17.0131 19.5017C16.8525 19.3411 16.7722 19.1487 16.7722 18.9245C16.7722 18.7002 16.8525 18.5078 17.0131 18.3472C17.1737 18.1866 17.3662 18.1063 17.5904 18.1063C17.8147 18.1063 18.0071 18.1866 18.1677 18.3472C18.3283 18.5078 18.4086 18.7002 18.4086 18.9245C18.4086 19.073 18.3707 19.2093 18.295 19.3336C18.2222 19.4578 18.1237 19.5578 17.9995 19.6336C17.8783 19.7063 17.7419 19.7426 17.5904 19.7426Z" fill="white"/>
<rect x="0.5" y="0.5" width="35" height="31" rx="7.5" stroke="#CFD6E4"/>
</svg>
