<svg width="16" height="16" viewBox="0 0 16 16" fill="none" xmlns="http://www.w3.org/2000/svg">
<path opacity="0.5" d="M13.542 7.43784C13.5504 8.24484 13.3988 9.04551 13.0958 9.79352C12.7928 10.5415 12.3445 11.222 11.7768 11.7957C11.2091 12.3693 10.5334 12.8247 9.78856 13.1355C9.04375 13.4463 8.24472 13.6063 7.43767 13.6063C6.63063 13.6063 5.83159 13.4463 5.08679 13.1355C4.34199 12.8247 3.6662 12.3693 3.09853 11.7957C2.53085 11.222 2.08255 10.5415 1.77956 9.79352C1.47657 9.04551 1.32491 8.24484 1.33334 7.43784C1.35014 5.82992 2.00068 4.29357 3.14364 3.16249C4.2866 2.03142 5.82967 1.39697 7.43767 1.39697C9.04568 1.39697 10.5888 2.03142 11.7317 3.16249C12.8747 4.29357 13.5252 5.82992 13.542 7.43784Z" fill="white"/>
<path fill-rule="evenodd" clip-rule="evenodd" d="M12.5593 12.559C12.6497 12.4687 12.7722 12.418 12.9 12.418C13.0277 12.418 13.1502 12.4687 13.2406 12.559L14.526 13.8437C14.6164 13.9341 14.6672 14.0568 14.6672 14.1847C14.6672 14.3126 14.6164 14.4352 14.526 14.5257C14.4355 14.6161 14.3129 14.6669 14.185 14.6669C14.0571 14.6669 13.9344 14.6161 13.844 14.5257L12.56 13.2397C12.4697 13.1493 12.4189 13.0267 12.4189 12.899C12.4189 12.7712 12.4697 12.6487 12.56 12.5583L12.5593 12.559Z" fill="white"/>
</svg>
