<svg width="34" height="29" viewBox="0 0 34 29" fill="none" xmlns="http://www.w3.org/2000/svg">
<path d="M17.0661 16.6465H17.0668H22.4562H24.6729L25.6329 15.5647L26.5214 16.6465L27.3747 15.5647L28.0554 16.6465H29.7466L30.3484 15.5647L31.1937 16.6465L31.8818 15.5647H33.0286L33.7302 12.3709H28.6133H25.3442H17.0668H17.0661C16.45 13.7961 16.45 15.2213 17.0661 16.6465Z" fill="#003A4D"/>
<path d="M12.3986 7.00206C14.6747 8.02183 16.4084 9.98304 17.0662 12.3699C17.2544 13.0515 17.3549 13.7684 17.3549 14.5074C17.3549 15.2471 17.2544 15.964 17.0662 16.6455C16.4084 19.0318 14.6747 20.993 12.3986 22.0128C11.3085 22.5018 10.0935 22.7747 8.81242 22.7747C7.53135 22.7747 6.31639 22.5018 5.22623 22.0128C2.29981 20.7012 0.269928 17.8338 0.269928 14.5074C0.269928 11.1811 2.29981 8.31367 5.22623 7.00206C6.31639 6.51306 7.53135 6.24016 8.81242 6.24016C10.0935 6.24016 11.3085 6.51306 12.3986 7.00206Z" fill="#AD916A"/>
<path d="M1.8768 14.5086C1.8768 18.2156 4.982 21.2207 8.81239 21.2207C11.2416 21.2207 13.3795 20.0122 14.618 18.1816L14.5937 10.8401L14.6133 10.8277C13.3734 9.00231 11.2383 7.79646 8.81239 7.79646C4.982 7.79646 1.8768 10.8016 1.8768 14.5086Z" fill="#0D2B59"/>
<path d="M26.4196 1.30113C26.4196 0.726382 25.9381 0.260458 25.3442 0.260458C24.7504 0.260458 24.2689 0.726382 24.2689 1.30113C24.2689 1.87587 24.7504 2.3418 25.3442 2.3418C25.9381 2.3418 26.4196 1.87587 26.4196 1.30113Z" fill="#3897E3"/>
<path d="M23.5315 26.8038C23.5315 26.2291 23.05 25.7631 22.4561 25.7631C21.8623 25.7631 21.3808 26.2291 21.3808 26.8038C21.3808 27.3786 21.8623 27.8445 22.4561 27.8445C23.05 27.8445 23.5315 27.3786 23.5315 26.8038Z" fill="#3897E3"/>
<path d="M14.7928 1.31895C14.7928 0.744429 15.2744 0.278282 15.8681 0.278282C16.4617 0.278282 16.9434 0.744429 16.9434 1.31895C16.9434 1.89347 16.4617 2.35962 15.8681 2.35962C15.5112 2.35962 15.1955 2.19118 14.9992 1.93199C14.869 1.76029 14.7928 1.54811 14.7928 1.31895Z" fill="#3897E3"/>
<path d="M9.88776 27.5294C9.88776 26.9547 9.40632 26.4887 8.81244 26.4887C8.21856 26.4887 7.73712 26.9547 7.73712 27.5294C7.73712 28.1041 8.21856 28.5701 8.81244 28.5701C9.40632 28.5701 9.88776 28.1041 9.88776 27.5294Z" fill="#3897E3"/>
<path d="M0.681427 1.31895C0.681427 0.744429 1.16309 0.278282 1.75674 0.278282C2.35107 0.278282 2.83206 0.744429 2.83206 1.31895C2.83206 1.54811 2.75583 1.76029 2.62563 1.93199C2.43 2.19118 2.11361 2.35962 1.75674 2.35962C1.16309 2.35962 0.681427 1.89347 0.681427 1.31895Z" fill="#3897E3"/>
<path d="M29.6887 6.61485C29.6887 6.0401 29.2072 5.57418 28.6133 5.57418C28.0195 5.57418 27.538 6.0401 27.538 6.61485C27.538 7.18959 28.0195 7.65552 28.6133 7.65552C29.2072 7.65552 29.6887 7.18959 29.6887 6.61485Z" fill="#6FA4CE"/>
<path d="M14.9992 27.086C15.1948 26.8268 15.5112 26.6584 15.8681 26.6584C16.4618 26.6584 16.9434 27.1239 16.9434 27.6991C16.9434 28.2736 16.4618 28.7397 15.8681 28.7397C15.2744 28.7397 14.7928 28.2736 14.7928 27.6991C14.7928 27.4699 14.869 27.2577 14.9992 27.086ZM0.681427 27.6991C0.681427 27.1239 1.16309 26.6584 1.75674 26.6584C2.11428 26.6584 2.43067 26.8268 2.62563 27.086C2.75583 27.2577 2.83206 27.4699 2.83206 27.6991C2.83206 28.2736 2.35107 28.7397 1.75674 28.7397C1.16309 28.7397 0.681427 28.2736 0.681427 27.6991Z" fill="#6FA4CE"/>
<path d="M9.88776 1.48863C9.88776 0.913882 9.40632 0.447958 8.81244 0.447958C8.21856 0.447958 7.73712 0.913882 7.73712 1.48863C7.73712 2.06337 8.21856 2.5293 8.81244 2.5293C9.40632 2.5293 9.88776 2.06337 9.88776 1.48863Z" fill="#6FA4CE"/>
<path d="M14.5937 10.8384C11.7091 11.3934 10.9414 13.0693 10.6595 13.9559H9.79259H9.79191C9.29885 14.3026 9.30775 14.6701 9.79191 15.0573H9.79259L10.6595 15.0579C10.9421 15.9471 11.7139 17.6302 14.618 18.1799C14.6612 18.1166 14.703 18.0526 14.7442 17.9873C15.037 17.5205 15.2731 17.0165 15.4417 16.4844C15.6407 15.859 15.748 15.195 15.748 14.5069C15.748 13.8181 15.6407 13.1542 15.4417 12.5287C15.3027 12.0906 15.1186 11.6715 14.8939 11.2772C14.8062 11.1231 14.7125 10.9729 14.6133 10.826L14.5937 10.8384Z" fill="#555960"/>
<path d="M6.4149 12.2267C6.63077 12.2267 6.84192 12.2372 7.0416 12.2535C7.79109 12.3155 8.40565 12.4729 8.74903 12.6726C9.11399 12.8842 9.59161 13.3686 9.79196 13.9575C9.852 14.1331 9.88708 14.3185 9.88708 14.5085C9.88708 14.6985 9.852 14.8832 9.79196 15.0589C9.59228 15.6478 9.11399 16.1322 8.74903 16.3444C8.40565 16.5435 7.76478 16.6949 7.0416 16.7628C5.55343 16.8869 3.43719 16.6551 3.43719 14.5085C3.43719 12.6498 5.02319 12.2267 6.4149 12.2267Z" fill="#5F6368"/>
<path d="M13.7747 12.0896C14.168 12.0167 15.0383 11.8046 14.9445 11.37C15.1469 11.7369 15.3136 12.1254 15.4417 12.5295H13.8172C13.6905 12.5295 13.5879 12.4302 13.5879 12.3076C13.5879 12.201 13.6664 12.1098 13.7747 12.0896ZM13.823 16.4852H15.4417C15.3338 16.826 15.1975 17.1557 15.037 17.4717C14.8741 17.0315 14.1816 16.9512 13.8161 16.9401C13.6888 16.9363 13.5879 16.8359 13.5879 16.7127C13.5879 16.5871 13.6932 16.4852 13.823 16.4852Z" fill="#494E56"/>
<path d="M17.355 14.5083C17.355 15.248 17.2545 15.9649 17.0663 16.6465H17.0669H18.0883C18.0883 16.6465 18.7743 15.8422 18.7939 14.5083C18.8034 13.8979 18.6732 13.1765 18.2731 12.3709H17.0669H17.0663C17.2545 13.0525 17.355 13.7693 17.355 14.5083Z" fill="#0D0700"/>
<path d="M23.9993 1.30175C23.9993 1.93013 24.4617 2.45595 25.0745 2.57719V12.1094H17.2696C16.5673 9.79378 14.8751 7.88388 12.6684 6.84034V3.89787L14.9636 2.27948C15.2027 2.49049 15.5195 2.62041 15.8679 2.62041C16.6097 2.62041 17.213 2.03642 17.213 1.31866C17.213 0.600897 16.6097 0.0169086 15.8679 0.0169086C15.1262 0.0169086 14.5229 0.600897 14.5229 1.31866C14.5229 1.51112 14.5674 1.69334 14.6452 1.85786L12.2397 3.55408C12.17 3.60324 12.1288 3.68171 12.1288 3.76515V6.60688C11.1834 6.23389 10.1568 6.01525 9.08232 5.98378L9.08232 2.76319C9.69513 2.64195 10.1576 2.11613 10.1576 1.48775C10.1576 0.769924 9.5542 0.186001 8.81248 0.186001C8.07075 0.186001 7.46739 0.769989 7.46739 1.48775C7.46739 2.11613 7.92983 2.64195 8.54264 2.76319L8.54264 5.98378C7.46806 6.01525 6.44138 6.23389 5.49599 6.60694V3.76515C5.49599 3.68171 5.45477 3.60324 5.38502 3.55408L2.97965 1.85786C3.05744 1.69334 3.10196 1.51112 3.10196 1.31872C3.10196 0.600897 2.4986 0.0169735 1.75687 0.0169735C1.01514 0.0169735 0.411778 0.600964 0.411778 1.31872C0.411778 2.03649 1.01514 2.62047 1.75687 2.62047C2.10523 2.62047 2.4221 2.49055 2.66124 2.27955L4.95638 3.898V6.84041C2.02442 8.22709 0 11.1428 0 14.5079C0 17.8729 2.02442 20.7886 4.95631 22.1753V25.1189L2.66124 26.7374C2.4221 26.5264 2.10523 26.3964 1.75687 26.3964C1.01514 26.3964 0.411778 26.9804 0.411778 27.6982C0.41171 28.416 1.01508 29 1.7568 29C2.49853 29 3.10189 28.416 3.10189 27.6982C3.10189 27.5058 3.05737 27.3236 2.97959 27.1591L5.38495 25.4629C5.45464 25.4137 5.49592 25.3353 5.49592 25.2518V22.4089C6.44131 22.782 7.46799 23.0006 8.54257 23.0321V26.2537C7.92976 26.375 7.46732 26.9008 7.46732 27.5292C7.46732 28.247 8.07068 28.831 8.81241 28.831C9.55414 28.831 10.1575 28.247 10.1575 27.5292C10.1575 26.9008 9.69506 26.375 9.08225 26.2537V23.032C10.1568 23.0005 11.1834 22.7819 12.1287 22.4089V25.2518C12.1287 25.3352 12.1699 25.4137 12.2397 25.4628L14.645 27.159C14.5672 27.3236 14.5227 27.5058 14.5227 27.6982C14.5228 28.416 15.1262 29 15.8679 29C16.6097 29 17.213 28.416 17.213 27.6982C17.213 26.9804 16.6097 26.3964 15.8679 26.3964C15.5196 26.3964 15.2027 26.5264 14.9636 26.7374L12.6684 25.1189V22.1754C14.8747 21.132 16.5667 19.2226 17.2693 16.9074H22.1861V25.5292C21.5733 25.6505 21.1108 26.1763 21.1108 26.8047C21.1108 27.5225 21.7142 28.1064 22.4559 28.1064C23.1976 28.1064 23.801 27.5224 23.801 26.8047C23.801 26.1763 23.3386 25.6505 22.7258 25.5292V16.9074H24.6726C24.7513 16.9074 24.8261 16.8742 24.8773 16.8164L25.6248 15.9739L26.3102 16.8088C26.362 16.8718 26.4409 16.9082 26.5241 16.9075C26.6073 16.9067 26.6855 16.8688 26.736 16.8048L27.3498 16.0264L27.8245 16.7821C27.8735 16.8599 27.9609 16.9075 28.0551 16.9075H29.7464C29.8457 16.9075 29.9369 16.8547 29.984 16.7701L30.3866 16.0461L30.9787 16.8039C31.0324 16.8727 31.1178 16.9113 31.2068 16.9072C31.2959 16.9031 31.377 16.8567 31.4238 16.7832L32.0327 15.8252H33.0286C33.156 15.8252 33.266 15.7389 33.2925 15.6183L33.9941 12.425C33.9981 12.407 34 12.3888 34 12.3707C34 12.3114 33.9791 12.2533 33.9398 12.2064C33.8886 12.1451 33.8116 12.1096 33.7302 12.1096H28.8833V7.89041C29.4961 7.76917 29.9585 7.24336 29.9585 6.61497C29.9585 5.89715 29.3552 5.31322 28.6134 5.31322C27.8717 5.31322 27.2683 5.89721 27.2683 6.61497C27.2683 7.24336 27.7308 7.76911 28.3436 7.89041V12.1096H25.6142V2.57719C26.2271 2.45595 26.6895 1.93013 26.6895 1.30175C26.6895 0.583921 26.0861 -1.90735e-06 25.3444 -1.90735e-06C24.6026 -1.90735e-06 23.9993 0.583988 23.9993 1.30175ZM15.0625 1.31859C15.0625 0.888813 15.4238 0.539135 15.8679 0.539135C16.312 0.539135 16.6733 0.888813 16.6733 1.31859C16.6733 1.74838 16.312 2.09805 15.8679 2.09805C15.4238 2.09805 15.0625 1.74844 15.0625 1.31859ZM8.007 1.48769C8.007 1.05791 8.36832 0.708229 8.81241 0.708229C9.2565 0.708229 9.61782 1.05791 9.61782 1.48769C9.61782 1.91747 9.2565 2.26721 8.81241 2.26721C8.36832 2.26721 8.007 1.91747 8.007 1.48769ZM0.951393 1.31859C0.951393 0.888813 1.31271 0.539135 1.7568 0.539135C2.20089 0.539135 2.56221 0.888813 2.56221 1.31859C2.56221 1.74838 2.20089 2.09805 1.7568 2.09805C1.31271 2.09805 0.951393 1.74844 0.951393 1.31859ZM2.56221 27.6982C2.56221 28.128 2.20089 28.4777 1.7568 28.4777C1.31271 28.4777 0.951393 28.128 0.951393 27.6982C0.951393 27.2685 1.31271 26.9187 1.7568 26.9187C2.20089 26.9187 2.56221 27.2684 2.56221 27.6982ZM9.61789 27.5292C9.61789 27.9589 9.25657 28.3087 8.81248 28.3087C8.36839 28.3087 8.00707 27.959 8.00707 27.5292C8.00707 27.0993 8.36839 26.7497 8.81248 26.7497C9.25657 26.7497 9.61789 27.0993 9.61789 27.5292ZM16.6734 27.6982C16.6734 28.128 16.312 28.4777 15.8679 28.4777C15.4239 28.4777 15.0625 28.128 15.0625 27.6982C15.0625 27.2685 15.4239 26.9187 15.8679 26.9187C16.312 26.9187 16.6734 27.2684 16.6734 27.6982ZM23.2613 26.8047C23.2613 27.2345 22.9 27.5841 22.4559 27.5841C22.0118 27.5841 21.6505 27.2345 21.6505 26.8047C21.6505 26.3749 22.0118 26.0252 22.4559 26.0252C22.9 26.0252 23.2613 26.3748 23.2613 26.8047ZM27.808 6.61484C27.808 6.18506 28.1693 5.83538 28.6134 5.83538C29.0575 5.83538 29.4188 6.18506 29.4188 6.61484C29.4188 7.04462 29.0575 7.3943 28.6134 7.3943C28.1693 7.3943 27.808 7.04469 27.808 6.61484ZM33.3969 12.6317L32.8101 15.3027H31.882C31.7882 15.3027 31.7012 15.3498 31.6521 15.427L31.1711 16.1838L30.5636 15.4063C30.5082 15.3354 30.4192 15.2967 30.3277 15.3034C30.2361 15.3102 30.1543 15.3618 30.1107 15.4401L29.5852 16.3851H28.2068L27.6056 15.4281C27.5592 15.3544 27.4782 15.3076 27.3892 15.3031C27.3002 15.2986 27.2146 15.3369 27.1605 15.4054L26.5172 16.2212L25.8441 15.4014C25.7941 15.3404 25.7184 15.3042 25.638 15.3027C25.5575 15.3013 25.4805 15.3347 25.4281 15.3937L24.5486 16.3851H17.4093C17.5317 15.8602 17.6039 15.3173 17.6207 14.7611L31.6573 14.7689C32.017 14.7691 32.0173 14.2469 31.6576 14.2467L17.6201 14.2388C17.6024 13.6885 17.5306 13.1512 17.4096 12.6317L33.3969 12.6317ZM17.0853 14.5079C17.0853 18.9225 13.3741 22.5141 8.81248 22.5141C4.25088 22.5141 0.539683 18.9225 0.539683 14.5079C0.539683 10.0932 4.25088 6.50163 8.81248 6.50163C13.3741 6.50163 17.0853 10.0932 17.0853 14.5079ZM26.1499 1.30175C26.1499 1.73153 25.7886 2.08127 25.3444 2.08127C24.9003 2.08127 24.539 1.7316 24.539 1.30175C24.539 0.871902 24.9003 0.522291 25.3444 0.522291C25.7885 0.522291 26.1499 0.871967 26.1499 1.30175ZM1.60717 14.5079C1.60717 18.3529 4.83947 21.481 8.81248 21.481C11.3511 21.481 13.6546 20.226 14.9744 18.1239C15.657 17.0369 16.0178 15.7864 16.0178 14.5079C16.0178 13.3345 15.7108 12.1742 15.1301 11.1523C13.8622 8.9209 11.4413 7.53473 8.81254 7.53473C4.83947 7.53473 1.60717 10.6629 1.60717 14.5079ZM14.6572 11.4039C14.8152 11.682 14.9506 11.9714 15.064 12.2687H13.5877C13.4386 12.2687 13.3178 12.3857 13.3178 12.5299C13.3178 12.6741 13.4386 12.791 13.5877 12.791H15.2373C15.3957 13.3479 15.478 13.926 15.478 14.5078C15.478 15.0914 15.3964 15.6685 15.2383 16.2242H13.5876C13.4386 16.2242 13.3177 16.3411 13.3177 16.4853C13.3177 16.6296 13.4386 16.7465 13.5876 16.7465H15.0641C14.9176 17.13 14.734 17.5007 14.5131 17.8526C14.5056 17.8646 14.4976 17.8763 14.4899 17.8882C12.6043 17.4868 11.4028 16.5097 10.9173 14.9818C10.8825 14.8722 10.7779 14.7974 10.6595 14.7973L10.1333 14.7972C10.1484 14.7025 10.1568 14.6058 10.1568 14.5075C10.1568 14.4093 10.1484 14.3127 10.1334 14.2181H10.6594C10.7779 14.2181 10.8826 14.1432 10.9173 14.0336C11.4027 12.5059 12.6044 11.5288 14.4897 11.1275C14.5475 11.2183 14.6038 11.3101 14.6572 11.4039ZM8.6101 16.1197C8.31118 16.2932 7.71503 16.4363 7.01533 16.5024C6.29816 16.5617 4.99051 16.5641 4.26531 15.92C3.89482 15.5908 3.70694 15.1156 3.70694 14.5076C3.70694 13.8996 3.89482 13.4245 4.26531 13.0953C4.99159 12.4502 6.30194 12.4536 7.0185 12.5131C7.69999 12.5696 8.29492 12.7127 8.6101 12.8956C9.02828 13.1385 9.61735 13.7991 9.61735 14.5076C9.61735 15.2161 9.02828 15.8768 8.6101 16.1197ZM14.1665 10.6642C12.2698 11.118 11.0261 12.1361 10.4641 13.696H9.97711C9.71773 13.1069 9.23208 12.6477 8.88769 12.4477C8.4998 12.2225 7.83531 12.0567 7.06465 11.9927C6.08168 11.9111 4.73477 11.9695 3.90042 12.7106C3.41396 13.1427 3.16733 13.7473 3.16733 14.5077C3.16733 15.268 3.41396 15.8726 3.90042 16.3048C4.7347 17.0459 6.08168 17.1042 7.06465 17.0226C7.85171 16.9482 8.51821 16.7821 8.88769 16.5675C9.23194 16.3676 9.71759 15.9085 9.97698 15.3196L10.4641 15.3197C11.0261 16.8798 12.2699 17.8979 14.1667 18.3516C12.9117 19.9942 10.9525 20.9586 8.81254 20.9586C5.13717 20.9586 2.14692 18.0648 2.14692 14.5078C2.14692 10.9508 5.1371 8.05696 8.81254 8.05696C10.939 8.05702 12.9184 9.03769 14.1665 10.6642Z" fill="#A6A6A6"/>
</svg>
