<svg width="16" height="16" viewBox="0 0 16 16" fill="none" xmlns="http://www.w3.org/2000/svg">
<path fill-rule="evenodd" clip-rule="evenodd" d="M13.3466 3.35343C13.5417 3.1581 13.5416 2.84151 13.3463 2.64632C13.151 2.45113 12.8344 2.45124 12.6392 2.64657L11.1406 4.14621C10.2089 3.50379 9.09148 3 7.86833 3C6.43155 3 5.13859 3.69528 4.11801 4.49845C3.0922 5.30574 2.28856 6.26357 1.8194 6.88381C1.61198 7.15497 1.5 7.48739 1.5 7.82878C1.5 8.17022 1.61202 8.50269 1.8195 8.77387C2.28922 9.39429 3.09589 10.3562 4.12657 11.1653L2.64632 12.6466C2.45113 12.8419 2.45124 13.1585 2.64657 13.3537C2.8419 13.5489 3.15849 13.5488 3.35368 13.3534L6.96586 9.73867C6.98948 9.72189 7.01197 9.70282 7.03301 9.68146C7.05227 9.6619 7.06959 9.64116 7.08497 9.61948L9.61376 7.08888C9.63598 7.07327 9.65723 7.05563 9.67723 7.03596C9.69946 7.01411 9.71922 6.9907 9.73649 6.96606L13.3466 3.35343ZM4.83908 10.4523L6.00124 9.28926C5.92453 9.17128 5.85828 9.04642 5.80341 8.91608C5.6818 8.62718 5.61855 8.31706 5.61731 8.00359C5.61608 7.69013 5.67687 7.37951 5.79619 7.08966C5.91552 6.7998 6.09102 6.53643 6.3126 6.31475C6.53417 6.09307 6.79743 5.91747 7.08721 5.79808C7.37698 5.6787 7.68752 5.61791 8.00091 5.61922C8.31429 5.62054 8.62431 5.68393 8.91307 5.80574C9.04296 5.86053 9.16739 5.92665 9.28499 6.00317L10.4204 4.86695C9.62638 4.34747 8.75976 4 7.86833 4C6.75216 4 5.6753 4.54544 4.73645 5.28429C3.80349 6.0185 3.05846 6.90325 2.61608 7.48821L2.61407 7.49087L2.61406 7.49086C2.54051 7.58678 2.5 7.70566 2.5 7.82878C2.5 7.9519 2.54051 8.07078 2.61406 8.16669L2.61595 8.16916L2.61595 8.16917C3.07645 8.77754 3.86011 9.70518 4.83908 10.4523ZM8.52441 6.72712L8.55032 6.73836L6.7362 8.55378L6.72508 8.52811C6.65466 8.36081 6.61802 8.1812 6.61731 7.99964C6.61659 7.81808 6.6518 7.63819 6.7209 7.47033C6.79 7.30248 6.89162 7.15001 7.01987 7.02169C7.14813 6.89338 7.30048 6.79176 7.46813 6.72269C7.63578 6.65362 7.81543 6.61845 7.99671 6.61921C8.17799 6.61997 8.35734 6.65664 8.52441 6.72712ZM13.0845 5.77822C12.893 5.57929 12.5765 5.57328 12.3775 5.7648C12.1786 5.95632 12.1726 6.27285 12.3641 6.47178C12.7248 6.84643 13.0641 7.24115 13.3804 7.65405L13.3804 7.65406L13.3824 7.65672C13.4586 7.75471 13.4999 7.87531 13.5 7.99951C13.5001 8.12371 13.4588 8.24435 13.3828 8.34241L13.3809 8.34483C12.9282 8.93623 12.1655 9.83111 11.2101 10.5739C10.2493 11.3209 9.14478 11.8746 7.99765 11.875C7.62255 11.8732 7.2496 11.8179 6.89007 11.7108C6.62542 11.632 6.34697 11.7826 6.26814 12.0473C6.1893 12.3119 6.33994 12.5904 6.60459 12.6692C7.05564 12.8036 7.52354 12.8729 7.99416 12.875L7.99644 12.875C9.46077 12.875 10.7803 12.1748 11.8239 11.3634C12.8725 10.5481 13.6943 9.58047 14.1742 8.95371C14.3856 8.68041 14.5002 8.34458 14.5 7.99903C14.4998 7.65353 14.3849 7.31787 14.1734 7.04479C13.8345 6.60247 13.4709 6.17961 13.0845 5.77822Z" fill="#FEFDFD" fill-opacity="0.6"/>
</svg>
