<svg width="16" height="16" viewBox="0 0 16 16" fill="none" xmlns="http://www.w3.org/2000/svg">
<g clip-path="url(#clip0_21_30)">
<path d="M8 12.3538C6.20078 12.3538 4.26437 11.6502 2.40014 10.3189C1.00653 9.3237 0.146376 8.33776 0.110433 8.29621C-0.0368111 8.1262 -0.0368111 7.87384 0.110433 7.70379C0.146376 7.66231 1.0065 6.6763 2.40014 5.68113C4.26441 4.34996 6.20081 3.64624 8 3.64624C9.79922 3.64624 11.7357 4.34992 13.5999 5.68113C14.9935 6.6763 15.8536 7.66228 15.8896 7.70379C16.0368 7.8738 16.0368 8.12616 15.8896 8.29621C15.8536 8.33769 14.9935 9.3237 13.5999 10.3189C11.7357 11.6501 9.79926 12.3538 8 12.3538ZM1.07277 8.00005C1.42061 8.35474 2.0771 8.97843 2.94388 9.59524C4.13219 10.4408 5.97398 11.4489 8 11.4489C10.026 11.4489 11.8678 10.4408 13.0561 9.59524C13.9228 8.97854 14.5793 8.35477 14.9272 8.00005C14.5794 7.64537 13.9229 7.02168 13.0561 6.40487C11.8678 5.55926 10.026 4.55121 8 4.55121C5.97398 4.55121 4.13219 5.55926 2.94388 6.40487C2.07721 7.02157 1.42069 7.64526 1.07277 8.00005Z" fill="#FEFDFD" fill-opacity="0.6"/>
<path d="M8 10.8052C6.45321 10.8052 5.19482 9.54676 5.19482 8C5.19482 6.45324 6.45321 5.19482 8 5.19482C8.68026 5.19482 9.33649 5.44146 9.84772 5.88935C10.0357 6.054 10.0546 6.33984 9.88993 6.52781C9.72527 6.71577 9.4394 6.73463 9.25147 6.57001C8.90529 6.26673 8.46081 6.09972 7.99996 6.09972C6.95213 6.09972 6.09968 6.9522 6.09968 8C6.09968 9.0478 6.95213 9.90028 7.99996 9.90028C9.04783 9.90028 9.90025 9.0478 9.90025 8C9.90025 7.75014 10.1028 7.54755 10.3527 7.54755C10.6026 7.54755 10.8051 7.75014 10.8051 8C10.8052 9.54676 9.54679 10.8052 8 10.8052Z" fill="#FEFDFD" fill-opacity="0.6"/>
<path d="M8 8.90501C7.50104 8.90501 7.09511 8.49907 7.09511 8.00011C7.09511 7.50115 7.50104 7.09521 8 7.09521C8.499 7.09521 8.9049 7.50115 8.9049 8.00011C8.9049 8.49907 8.499 8.90501 8 8.90501Z" fill="#FEFDFD" fill-opacity="0.6"/>
</g>
<defs>
<clipPath id="clip0_21_30">
<rect width="16" height="16" fill="white"/>
</clipPath>
</defs>
</svg>
