<svg width="25" height="25" viewBox="0 0 25 25" fill="none" xmlns="http://www.w3.org/2000/svg">
<g clip-path="url(#clip0_1600_5699)">
<path d="M24.186 12.1713C24.186 5.54395 18.8134 0.171326 12.186 0.171326C5.55866 0.171326 0.186035 5.54386 0.186035 12.1713C0.186035 18.1608 4.57429 23.1254 10.311 24.0255V15.6401H7.26416V12.1713H10.311V9.52758C10.311 6.52008 12.1026 4.85883 14.8436 4.85883C16.1565 4.85883 17.5298 5.0932 17.5298 5.0932V8.04633H16.0167C14.5258 8.04633 14.061 8.97136 14.061 9.92039V12.1713H17.3892L16.8571 15.6401H14.061V24.0255C19.7978 23.1254 24.186 18.1609 24.186 12.1713Z" fill="#1877F2"/>
<path d="M16.8571 15.6401L17.3892 12.1713H14.061V9.92039C14.061 8.97126 14.5259 8.04633 16.0167 8.04633H17.5298V5.0932C17.5298 5.0932 16.1565 4.85883 14.8436 4.85883C12.1026 4.85883 10.311 6.52008 10.311 9.52758V12.1713H7.26416V15.6401H10.311V24.0255C10.9313 24.1227 11.5582 24.1715 12.186 24.1713C12.8139 24.1715 13.4408 24.1228 14.061 24.0255V15.6401H16.8571Z" fill="white"/>
</g>
<defs>
<clipPath id="clip0_1600_5699">
<rect width="24" height="24" fill="white" transform="translate(0.186035 0.171326)"/>
</clipPath>
</defs>
</svg>
