<svg width="28" height="28" viewBox="0 0 28 28" fill="none" xmlns="http://www.w3.org/2000/svg">
<rect width="28" height="28" rx="10" fill="#1F1F2D"/>
<path fill-rule="evenodd" clip-rule="evenodd" d="M14.3571 9.00715L15.5151 11.7249C15.5731 11.862 15.6851 11.9577 15.8151 11.9798L18.4076 12.4167C18.5126 12.4331 18.6071 12.4972 18.6716 12.5952C18.7926 12.779 18.7741 13.0392 18.6291 13.1972L16.7501 15.3171C16.6546 15.4221 16.6121 15.5761 16.6371 15.726L17.0871 18.7173C17.1186 18.9652 16.9736 19.1974 16.7611 19.2377C16.6731 19.2534 16.5831 19.2371 16.5031 19.191L14.1941 17.7787C14.0781 17.7052 13.9391 17.7052 13.8231 17.7787L11.4971 19.1986C11.3026 19.3141 11.0646 19.2283 10.9586 19.0061C10.9181 18.9162 10.9041 18.8142 10.9181 18.7144L11.3681 15.7231C11.3906 15.5737 11.3481 15.4203 11.2551 15.3147L9.36606 13.1955C9.21206 13.017 9.21106 12.7265 9.36456 12.5468C9.36506 12.5462 9.36556 12.5451 9.36606 12.5445C9.42956 12.4774 9.50756 12.4325 9.59206 12.415L12.1851 11.9781C12.3146 11.9542 12.4261 11.8597 12.4851 11.7226L13.6421 9.00715C13.6886 8.8969 13.7711 8.81232 13.8711 8.77382C13.9716 8.73473 14.0816 8.74407 14.1761 8.79948C14.2536 8.8444 14.3171 8.91732 14.3571 9.00715Z" stroke="white" stroke-width="1.5" stroke-linecap="round" stroke-linejoin="round"/>
</svg>
