<svg width="14" height="14" viewBox="0 0 14 14" fill="none" xmlns="http://www.w3.org/2000/svg">
<g clip-path="url(#clip0_637_3870)">
<path fill-rule="evenodd" clip-rule="evenodd" d="M1.75 2.625C1.75 2.39294 1.84219 2.17038 2.00628 2.00628C2.17038 1.84219 2.39294 1.75 2.625 1.75H11.375C11.6071 1.75 11.8296 1.84219 11.9937 2.00628C12.1578 2.17038 12.25 2.39294 12.25 2.625V3.84183C12.2499 4.15123 12.127 4.44793 11.9082 4.66667L8.75 7.82483V12.1555C8.75002 12.2649 8.72207 12.3725 8.66881 12.468C8.61555 12.5636 8.53875 12.6439 8.4457 12.7014C8.35265 12.7589 8.24644 12.7917 8.13717 12.7966C8.02789 12.8015 7.91917 12.7784 7.82133 12.7295L5.65308 11.6457C5.53197 11.5851 5.4301 11.492 5.35891 11.3768C5.28772 11.2616 5.25 11.1289 5.25 10.9935V7.82483L2.09183 4.66667C1.87303 4.44793 1.75007 4.15123 1.75 3.84183V2.625ZM2.91667 2.91667V3.84183L6.16 7.08517C6.24134 7.16641 6.30588 7.26289 6.34992 7.36908C6.39396 7.47528 6.41664 7.58912 6.41667 7.70408V10.7228L7.58333 11.3062V7.70408C7.58333 7.47192 7.6755 7.24908 7.84 7.08575L11.0833 3.84125V2.91667H2.91667Z" fill="#F8F8F8"/>
</g>
<defs>
<clipPath id="clip0_637_3870">
<rect width="14" height="14" fill="white"/>
</clipPath>
</defs>
</svg>
