<svg width="16" height="16" viewBox="0 0 16 16" fill="none" xmlns="http://www.w3.org/2000/svg">
<path opacity="0.5" d="M5.90267 14.3802C7.26329 14.8358 8.73524 14.836 10.096 14.3809C10.0464 14.3968 9.99371 14.4008 9.94228 14.3924C9.89086 14.384 9.84217 14.3635 9.80023 14.3325C9.75829 14.3016 9.72431 14.2611 9.70109 14.2145C9.67787 14.1678 9.66607 14.1163 9.66667 14.0642C9.66667 13.8389 9.67534 13.1222 9.67534 12.2309C9.69321 12.0051 9.66228 11.778 9.58463 11.5652C9.50698 11.3524 9.38445 11.1588 9.22534 10.9976C10.7087 10.8309 12.2667 10.2642 12.2667 7.70555C12.2775 7.04283 12.0328 6.40139 11.5833 5.91422C11.7871 5.33836 11.7633 4.70641 11.5167 4.14755C11.5167 4.14755 10.958 3.96422 9.68334 4.83088C8.59248 4.53085 7.44086 4.53085 6.35001 4.83088C5.07467 3.97222 4.51667 4.14688 4.51667 4.14688C4.26999 4.70573 4.24615 5.33771 4.45001 5.91355C4.00189 6.40152 3.7574 7.04243 3.76667 7.70489C3.76667 10.2549 5.31667 10.8302 6.80001 10.9969C6.55496 11.2327 6.40383 11.5494 6.37467 11.8882C6.21142 11.9798 6.03171 12.0383 5.84584 12.0603C5.65996 12.0824 5.47156 12.0677 5.29139 12.0169C5.11123 11.9661 4.94284 11.8803 4.79583 11.7645C4.64883 11.6486 4.52611 11.5049 4.43467 11.3416L4.43334 11.3382C4.32996 11.1503 4.18279 10.99 4.0043 10.8711C3.82581 10.7521 3.62126 10.678 3.40801 10.6549C2.85001 10.6636 3.18334 10.9716 3.41667 11.0969C3.71734 11.3502 3.95201 11.6736 4.10001 12.0382C4.23334 12.4136 4.66667 13.1302 6.34134 12.8216C6.34134 13.3802 6.35001 13.9049 6.35001 14.0635C6.35001 14.2362 6.22601 14.4309 5.90267 14.3802Z" fill="white"/>
<path d="M7.99992 1.38867C4.31792 1.38867 1.33325 4.37334 1.33325 8.05534C1.33325 11.004 3.24992 13.5013 5.90325 14.3807C6.22658 14.4307 6.34992 14.2367 6.34992 14.064C6.34992 13.9053 6.34192 13.3807 6.34192 12.822C4.66658 13.1307 4.23325 12.414 4.09992 12.0387C3.9519 11.6741 3.71737 11.351 3.41659 11.0973C3.18325 10.972 2.84992 10.664 3.40792 10.6553C3.62119 10.6784 3.82576 10.7525 4.00426 10.8715C4.18275 10.9904 4.32992 11.1507 4.43325 11.3387L4.43525 11.3427C4.52669 11.506 4.64941 11.6497 4.79641 11.7656C4.94341 11.8815 5.11181 11.9672 5.29197 12.018C5.47214 12.0688 5.66054 12.0835 5.84642 12.0615C6.03229 12.0394 6.21199 11.9809 6.37525 11.8893C6.40392 11.5493 6.55525 11.2333 6.79992 10.9973C5.31659 10.8307 3.76659 10.2553 3.76659 7.70534C3.75731 7.04288 4.0018 6.40198 4.44992 5.91401C4.24612 5.33815 4.26997 4.7062 4.51659 4.14734C4.51659 4.14734 5.07458 3.97201 6.34992 4.83067C7.44077 4.53064 8.59239 4.53064 9.68325 4.83067C10.9579 3.96401 11.5166 4.14734 11.5166 4.14734C11.7633 4.70601 11.7873 5.33801 11.5833 5.91401C12.0327 6.40117 12.2774 7.04262 12.2666 7.70534C12.2666 10.264 10.7079 10.8307 9.22525 10.9973C9.54659 11.324 9.71125 11.7733 9.67525 12.2307C9.67525 13.122 9.66658 13.8387 9.66658 14.064C9.66591 14.1161 9.67763 14.1676 9.70076 14.2143C9.7239 14.2609 9.7578 14.3014 9.79967 14.3324C9.84154 14.3634 9.89017 14.384 9.94156 14.3925C9.99296 14.401 10.0456 14.3972 10.0953 14.3813C12.7493 13.502 14.6666 11.0047 14.6666 8.05534C14.6666 4.37334 11.6819 1.38867 7.99992 1.38867Z" fill="white"/>
</svg>
