<svg width="40" height="38" viewBox="0 0 40 38" fill="none" xmlns="http://www.w3.org/2000/svg">
<path d="M36.6667 0H3.33333C1.495 0 0 1.87778 0 4.1868V33.4944C0 35.8034 1.495 37.6812 3.33333 37.6812H36.6667C38.505 37.6812 40 35.8034 40 33.4944V4.1868C40 1.87778 38.505 0 36.6667 0Z" fill="#3897E3"/>
<path d="M31.004 7.76074L20.177 15.772L9.35004 7.76074H31.004Z" fill="#0D2B59"/>
<path d="M5.25076 28.201V9.12343C5.25076 8.37259 5.85867 7.76074 6.6077 7.76074H7.06363L19.774 17.166C19.891 17.2519 20.0321 17.2982 20.177 17.2982C20.3219 17.2982 20.4631 17.2519 20.58 17.166L33.2904 7.76074H33.7464C34.4954 7.76074 35.1033 8.37259 35.1033 9.12343V10.1427L20.177 21.2213L9.0461 12.9594C8.94538 12.8834 8.82552 12.8373 8.70005 12.8261C8.57458 12.8149 8.4485 12.8392 8.33604 12.8962C8.22357 12.9531 8.1292 13.0405 8.06358 13.1485C7.99795 13.2565 7.96368 13.3807 7.96463 13.5072V29.5637H6.6077C5.85867 29.5637 5.25076 28.9519 5.25076 28.201Z" fill="#D5D1D1"/>
<path d="M31.0325 14.8577V29.5638H9.32159V14.8577L19.774 22.6154C19.8906 22.7024 20.0319 22.7493 20.1771 22.7493C20.3222 22.7493 20.4635 22.7024 20.5801 22.6154L31.0325 14.8577Z" fill="#0D2B59"/>
<path d="M33.7465 29.5655H32.3896V13.8524L35.1035 11.8384V28.2029C35.1035 28.9537 34.4955 29.5655 33.7465 29.5655Z" fill="#DFDFDF"/>
<path d="M19.1303 22.5216L26.4553 29.5642H31.0517V14.6558L19.9838 22.5216C19.8604 22.6098 19.7108 22.6574 19.557 22.6574C19.4033 22.6574 19.2537 22.6098 19.1303 22.5216Z" fill="url(#paint0_linear_398_1202)"/>
<defs>
<linearGradient id="paint0_linear_398_1202" x1="26.03" y1="15.888" x2="36.9404" y2="27.236" gradientUnits="userSpaceOnUse">
<stop stop-color="#0D2B59"/>
<stop offset="1" stop-opacity="0"/>
</linearGradient>
</defs>
</svg>
