<svg width="50" height="50" viewBox="0 0 50 50" fill="none" xmlns="http://www.w3.org/2000/svg">
<circle cx="25" cy="25" r="24.5" stroke="#484747"/>
<path d="M14.5746 19.7617C15.5453 17.8288 17.0344 16.2039 18.8754 15.0687C20.7165 13.9335 22.837 13.3327 24.9999 13.3333C28.1441 13.3333 30.7854 14.4895 32.8049 16.3725L29.4601 19.7185C28.2503 18.5623 26.7126 17.9732 24.9999 17.9732C21.9608 17.9732 19.3883 20.0265 18.4724 22.7833C18.2391 23.4833 18.1061 24.23 18.1061 25C18.1061 25.77 18.2391 26.5167 18.4724 27.2167C19.3894 29.9747 21.9608 32.0268 24.9999 32.0268C26.5691 32.0268 27.9049 31.6127 28.9503 30.9127C29.5563 30.5137 30.0751 29.9959 30.4753 29.3908C30.8756 28.7856 31.1489 28.1055 31.2789 27.3917H24.9999V22.879H35.9876C36.1252 23.642 36.1999 24.4377 36.1999 25.2648C36.1999 28.8185 34.9283 31.8098 32.7209 33.8398C30.7913 35.6225 28.1499 36.6667 24.9999 36.6667C23.4677 36.6673 21.9503 36.3659 20.5346 35.7799C19.1188 35.1938 17.8324 34.3344 16.749 33.251C15.6655 32.1675 14.8062 30.8811 14.2201 29.4654C13.634 28.0496 13.3326 26.5323 13.3333 25C13.3333 23.117 13.7836 21.3367 14.5746 19.7617Z" fill="#828282"/>
</svg>
