<svg width="35" height="35" viewBox="0 0 35 35" fill="none" xmlns="http://www.w3.org/2000/svg">
<g filter="url(#filter0_i_376_474)">
<rect width="35" height="35" rx="5" fill="#161838"/>
</g>
<path d="M17.3164 8.01074C15.3667 8.01581 13.4773 8.60424 11.8787 9.68059C11.3083 10.0646 10.4453 9.6874 10.4453 8.99975C10.4453 8.73745 10.3419 8.48589 10.1578 8.30042C9.97375 8.11494 9.72408 8.01074 9.46375 8.01074C9.20342 8.01074 8.95376 8.11494 8.76967 8.30042C8.58559 8.48589 8.48218 8.73745 8.48218 8.99975V13.4503C8.48214 13.5802 8.50751 13.7088 8.55683 13.8288C8.60614 13.9488 8.67845 14.0579 8.7696 14.1497C8.86075 14.2416 8.96898 14.3144 9.08808 14.3641C9.20719 14.4138 9.33484 14.4393 9.46375 14.4393H13.8808C14.1412 14.4393 14.3908 14.3351 14.5749 14.1496C14.759 13.9642 14.8624 13.7126 14.8624 13.4503C14.8624 13.188 14.759 12.9364 14.5749 12.751C14.3908 12.5655 14.1412 12.4613 13.8808 12.4613C13.034 12.4613 12.6573 11.4997 13.3885 11.0724C13.8609 10.7963 14.3624 10.5696 14.8854 10.3972C16.1196 9.99032 17.4348 9.89856 18.7129 10.1301C19.9911 10.3617 21.1921 10.9094 22.2084 11.724C23.2246 12.5387 24.0242 13.5948 24.5355 14.7976C25.0467 16.0004 25.2536 17.3123 25.1376 18.6155C25.0215 19.9187 24.5861 21.1725 23.8705 22.2644C23.155 23.3563 22.1815 24.2521 21.0376 24.8715C19.8936 25.4908 18.615 25.8143 17.3164 25.8129C17.056 25.8129 16.8064 25.9171 16.6223 26.1026C16.4382 26.2881 16.3348 26.5396 16.3348 26.802C16.3348 27.0643 16.4382 27.3158 16.6223 27.5013C16.8064 27.6868 17.056 27.791 17.3164 27.791C19.9196 27.791 22.4163 26.749 24.2571 24.8942C26.0979 23.0395 27.1321 20.5239 27.1321 17.9009C27.1321 15.2778 26.0979 12.7622 24.2571 10.9075C22.4163 9.05273 19.9196 8.01074 17.3164 8.01074Z" fill="#3897E3"/>
<path d="M17.3164 7.51074L17.3151 7.51074C15.2653 7.51607 13.2794 8.13471 11.5994 9.26584C11.4784 9.34733 11.3083 9.3575 11.1573 9.28795C11.0106 9.22032 10.9453 9.11077 10.9453 8.99975C10.9453 8.60606 10.7901 8.22773 10.5127 7.9482C10.2352 7.66854 9.85791 7.51074 9.46375 7.51074C9.06959 7.51074 8.69234 7.66854 8.41479 7.9482C8.13736 8.22773 7.98218 8.60606 7.98218 8.99975L7.98218 13.4502C7.98218 13.4502 7.98218 13.4503 7.98218 13.4503C7.98214 13.6453 8.02023 13.8385 8.09436 14.0189C8.1685 14.1993 8.2773 14.3635 8.41471 14.5019L8.76891 14.1504L8.41472 14.5019C8.55214 14.6404 8.7155 14.7504 8.89556 14.8256C9.07559 14.9007 9.26868 14.9393 9.46375 14.9393C9.4638 14.9393 9.46384 14.9393 9.46388 14.9393H13.8808C14.275 14.9393 14.6522 14.7815 14.9298 14.5019C15.2072 14.2223 15.3624 13.844 15.3624 13.4503C15.3624 13.0566 15.2072 12.6783 14.9298 12.3987C14.6522 12.1191 14.275 11.9613 13.8808 11.9613C13.656 11.9613 13.5443 11.8414 13.5119 11.7537C13.4954 11.709 13.4969 11.6706 13.5081 11.6396C13.5184 11.6111 13.5477 11.5584 13.6408 11.5041C14.083 11.2456 14.5525 11.0334 15.0419 10.8721C16.197 10.4913 17.4278 10.4054 18.6238 10.6221C19.8199 10.8388 20.9441 11.3514 21.8957 12.1142C22.8472 12.8769 23.5963 13.8661 24.0753 14.9932C24.5544 16.1202 24.7483 17.3497 24.6395 18.5711C24.5308 19.7926 24.1227 20.9675 23.4524 21.9904C22.782 23.0132 21.8704 23.852 20.7995 24.4318C19.7287 25.0115 18.5321 25.3142 17.3169 25.3129H17.3164C16.9222 25.3129 16.5449 25.4707 16.2674 25.7504C15.99 26.0299 15.8348 26.4083 15.8348 26.802C15.8348 27.1956 15.99 27.574 16.2674 27.8535C16.5449 28.1332 16.9222 28.291 17.3164 28.291C20.0535 28.291 22.6777 27.1954 24.612 25.2464C26.5462 23.2976 27.6321 20.6553 27.6321 17.9009C27.6321 15.1464 26.5462 12.5041 24.612 10.5553C22.6777 8.60634 20.0535 7.51074 17.3164 7.51074Z" stroke="white" stroke-opacity="0.3"/>
<path d="M19.2198 19.3141H16.9592C16.8107 19.3142 16.6637 19.2879 16.5266 19.2368C16.3894 19.1857 16.2648 19.1107 16.1598 19.0163C16.0549 18.9218 15.9716 18.8096 15.9148 18.6862C15.858 18.5628 15.8288 18.4305 15.8289 18.2969V15.2451C15.8289 14.9753 15.9479 14.7165 16.1599 14.5257C16.3719 14.335 16.6594 14.2278 16.9592 14.2278C17.2589 14.2278 17.5464 14.335 17.7584 14.5257C17.9704 14.7165 18.0895 14.9753 18.0895 15.2451V16.1493C18.0895 16.7735 18.5955 17.2796 19.2198 17.2796C19.5195 17.2796 19.807 17.3868 20.019 17.5775C20.231 17.7683 20.3501 18.0271 20.3501 18.2969C20.3501 18.5667 20.231 18.8254 20.019 19.0162C19.807 19.2069 19.5195 19.3141 19.2198 19.3141Z" fill="#ED8E00"/>
<path d="M16.9593 19.8141H19.2198C19.6361 19.8141 20.0447 19.6657 20.3535 19.3878C20.664 19.1083 20.8501 18.7173 20.8501 18.2969C20.8501 17.8764 20.664 17.4854 20.3535 17.2059C20.0447 16.928 19.6361 16.7796 19.2198 16.7796C18.8716 16.7796 18.5895 16.4974 18.5895 16.1493V15.2451C18.5895 14.8246 18.4034 14.4336 18.0929 14.1541C17.7841 13.8762 17.3755 13.7278 16.9592 13.7278C16.5428 13.7278 16.1342 13.8762 15.8254 14.1541C15.5149 14.4336 15.3289 14.8246 15.3289 15.2451L15.3289 18.2967C15.3289 18.2968 15.3289 18.2968 15.3289 18.2968C15.3289 18.2968 15.3289 18.2968 15.3289 18.2969C15.3288 18.5039 15.3742 18.7073 15.4606 18.8952C15.5469 19.0828 15.6718 19.2497 15.8253 19.3879C15.9787 19.526 16.1581 19.633 16.352 19.7053C16.5458 19.7775 16.752 19.8142 16.9592 19.8141C16.9592 19.8141 16.9592 19.8141 16.9593 19.8141Z" stroke="white" stroke-opacity="0.3"/>
<path d="M17.3987 9.70654C16.3109 9.71081 15.2354 9.9356 14.2369 10.3673C13.9426 10.4946 13.6567 10.6391 13.3808 10.7998C12.6328 11.2355 13.0166 12.2183 13.8822 12.2183C14.1487 12.2183 14.4042 12.3242 14.5926 12.5126C14.781 12.701 14.8869 12.9566 14.8869 13.223C14.8869 13.4895 14.781 13.745 14.5926 13.9335C14.4042 14.1219 14.1487 14.2277 13.8822 14.2277H9.361C9.11764 14.226 8.88337 14.135 8.70265 13.972C8.54635 13.831 8.16457 13.8072 8.08551 14.0023C7.53786 15.3536 7.29048 16.811 7.36433 18.273C7.45033 19.9759 7.96929 21.6286 8.8721 23.075C9.77492 24.5214 11.0318 25.7136 12.5238 26.5389C14.0158 27.3642 15.6936 27.7952 17.3987 27.7913C17.1322 27.7913 16.8767 27.6854 16.6882 27.497C16.4998 27.3086 16.394 27.053 16.394 26.7866C16.394 26.5201 16.4998 26.2646 16.6882 26.0761C16.8767 25.8877 17.1322 25.7819 17.3987 25.7819C19.5304 25.7819 21.5748 24.9351 23.0822 23.4277C24.5895 21.9203 25.4363 19.8759 25.4363 17.7442C25.4363 15.6125 24.5895 13.5681 23.0822 12.0607C21.5748 10.5534 19.5304 9.70654 17.3987 9.70654ZM19.4081 18.7489H17.3987C17.2667 18.749 17.1361 18.723 17.0141 18.6725C16.8922 18.622 16.7815 18.548 16.6882 18.4547C16.5949 18.3614 16.5208 18.2506 16.4704 18.1287C16.4199 18.0068 16.3939 17.8762 16.394 17.7442V14.7301C16.394 14.4636 16.4998 14.2081 16.6882 14.0196C16.8767 13.8312 17.1322 13.7254 17.3987 13.7254C17.6651 13.7254 17.9207 13.8312 18.1091 14.0196C18.2975 14.2081 18.4034 14.4636 18.4034 14.7301V15.7348C18.4034 16.2897 18.8532 16.7395 19.4081 16.7395C19.6746 16.7395 19.9301 16.8454 20.1185 17.0338C20.3069 17.2222 20.4128 17.4777 20.4128 17.7442C20.4128 18.0107 20.3069 18.2662 20.1185 18.4546C19.9301 18.6431 19.6746 18.7489 19.4081 18.7489Z" fill="#3F4040"/>
<defs>
<filter id="filter0_i_376_474" x="0" y="0" width="35" height="39" filterUnits="userSpaceOnUse" color-interpolation-filters="sRGB">
<feFlood flood-opacity="0" result="BackgroundImageFix"/>
<feBlend mode="normal" in="SourceGraphic" in2="BackgroundImageFix" result="shape"/>
<feColorMatrix in="SourceAlpha" type="matrix" values="0 0 0 0 0 0 0 0 0 0 0 0 0 0 0 0 0 0 127 0" result="hardAlpha"/>
<feOffset dy="4"/>
<feGaussianBlur stdDeviation="2"/>
<feComposite in2="hardAlpha" operator="arithmetic" k2="-1" k3="1"/>
<feColorMatrix type="matrix" values="0 0 0 0 0 0 0 0 0 0 0 0 0 0 0 0 0 0 0.25 0"/>
<feBlend mode="normal" in2="shape" result="effect1_innerShadow_376_474"/>
</filter>
</defs>
</svg>
