<svg width="19" height="19" viewBox="0 0 19 19" fill="none" xmlns="http://www.w3.org/2000/svg">
<g clip-path="url(#clip0_637_3874)">
<mask id="path-1-inside-1_637_3874" fill="white">
<path d="M5.73958 7.91668H0.59375C0.436278 7.91668 0.285255 7.85412 0.173905 7.74277C0.0625556 7.63142 0 7.4804 0 7.32293L0 2.17709C0 2.01962 0.0625556 1.8686 0.173905 1.75725C0.285255 1.6459 0.436278 1.58334 0.59375 1.58334C0.751222 1.58334 0.902245 1.6459 1.01359 1.75725C1.12494 1.8686 1.1875 2.01962 1.1875 2.17709V6.72918H5.73958C5.89706 6.72918 6.04808 6.79173 6.15943 6.90308C6.27078 7.01443 6.33333 7.16545 6.33333 7.32293C6.33333 7.4804 6.27078 7.63142 6.15943 7.74277C6.04808 7.85412 5.89706 7.91668 5.73958 7.91668ZM14.4479 10.0938H9.5C9.34253 10.0938 9.19151 10.0312 9.08016 9.91986C8.96881 9.80851 8.90625 9.65748 8.90625 9.50001V4.55209C8.90625 4.39462 8.96881 4.2436 9.08016 4.13225C9.19151 4.0209 9.34253 3.95834 9.5 3.95834C9.65747 3.95834 9.8085 4.0209 9.91985 4.13225C10.0312 4.2436 10.0938 4.39462 10.0938 4.55209V8.90626H14.4479C14.6054 8.90626 14.7564 8.96882 14.8678 9.08017C14.9791 9.19152 15.0417 9.34254 15.0417 9.50001C15.0417 9.65748 14.9791 9.80851 14.8678 9.91986C14.7564 10.0312 14.6054 10.0938 14.4479 10.0938Z"/>
</mask>
<path d="M5.73958 7.91668H0.59375C0.436278 7.91668 0.285255 7.85412 0.173905 7.74277C0.0625556 7.63142 0 7.4804 0 7.32293L0 2.17709C0 2.01962 0.0625556 1.8686 0.173905 1.75725C0.285255 1.6459 0.436278 1.58334 0.59375 1.58334C0.751222 1.58334 0.902245 1.6459 1.01359 1.75725C1.12494 1.8686 1.1875 2.01962 1.1875 2.17709V6.72918H5.73958C5.89706 6.72918 6.04808 6.79173 6.15943 6.90308C6.27078 7.01443 6.33333 7.16545 6.33333 7.32293C6.33333 7.4804 6.27078 7.63142 6.15943 7.74277C6.04808 7.85412 5.89706 7.91668 5.73958 7.91668ZM14.4479 10.0938H9.5C9.34253 10.0938 9.19151 10.0312 9.08016 9.91986C8.96881 9.80851 8.90625 9.65748 8.90625 9.50001V4.55209C8.90625 4.39462 8.96881 4.2436 9.08016 4.13225C9.19151 4.0209 9.34253 3.95834 9.5 3.95834C9.65747 3.95834 9.8085 4.0209 9.91985 4.13225C10.0312 4.2436 10.0938 4.39462 10.0938 4.55209V8.90626H14.4479C14.6054 8.90626 14.7564 8.96882 14.8678 9.08017C14.9791 9.19152 15.0417 9.34254 15.0417 9.50001C15.0417 9.65748 14.9791 9.80851 14.8678 9.91986C14.7564 10.0312 14.6054 10.0938 14.4479 10.0938Z" fill="white"/>
<path d="M0 7.32293H-2H0ZM0 2.17709H-2H0ZM0.59375 1.58334V-0.416656V1.58334ZM1.1875 2.17709H3.1875H1.1875ZM1.1875 6.72918H-0.8125V8.72918H1.1875V6.72918ZM6.33333 7.32293H8.33333H6.33333ZM9.5 3.95834V1.95834V3.95834ZM10.0938 8.90626H8.09375V10.9063H10.0938V8.90626ZM5.73958 5.91668H0.59375V9.91668H5.73958V5.91668ZM0.59375 5.91668C0.966713 5.91668 1.3244 6.06484 1.58812 6.32856L-1.24031 9.15698C-0.753887 9.64341 -0.0941578 9.91668 0.59375 9.91668V5.91668ZM1.58812 6.32856C1.85184 6.59228 2 6.94997 2 7.32293H-2C-2 8.01083 -1.72673 8.67056 -1.24031 9.15698L1.58812 6.32856ZM2 7.32293V2.17709H-2V7.32293H2ZM2 2.17709C2 2.55005 1.85184 2.90774 1.58812 3.17146L-1.24031 0.343035C-1.72673 0.829458 -2 1.48919 -2 2.17709H2ZM1.58812 3.17146C1.3244 3.43519 0.96671 3.58334 0.59375 3.58334V-0.416656C-0.0941545 -0.416656 -0.753885 -0.143388 -1.24031 0.343035L1.58812 3.17146ZM0.59375 3.58334C0.22079 3.58334 -0.136895 3.43519 -0.400619 3.17146L2.42781 0.343035C1.94139 -0.143388 1.28165 -0.416656 0.59375 -0.416656V3.58334ZM-0.400619 3.17146C-0.664342 2.90774 -0.8125 2.55005 -0.8125 2.17709H3.1875C3.1875 1.48919 2.91423 0.829458 2.42781 0.343035L-0.400619 3.17146ZM-0.8125 2.17709V6.72918H3.1875V2.17709H-0.8125ZM1.1875 8.72918H5.73958V4.72918H1.1875V8.72918ZM5.73958 8.72918C5.36662 8.72918 5.00894 8.58102 4.74521 8.3173L7.57364 5.48887C7.08722 5.00245 6.42749 4.72918 5.73958 4.72918V8.72918ZM4.74521 8.3173C4.48149 8.05357 4.33333 7.69589 4.33333 7.32293H8.33333C8.33333 6.63502 8.06006 5.97529 7.57364 5.48887L4.74521 8.3173ZM4.33333 7.32293C4.33333 6.94997 4.48149 6.59228 4.74521 6.32856L7.57364 9.15698C8.06006 8.67056 8.33333 8.01083 8.33333 7.32293H4.33333ZM4.74521 6.32856C5.00894 6.06484 5.36662 5.91668 5.73958 5.91668V9.91668C6.42749 9.91668 7.08722 9.64341 7.57364 9.15698L4.74521 6.32856ZM14.4479 8.09376H9.5V12.0938H14.4479V8.09376ZM9.5 8.09376C9.87296 8.09376 10.2306 8.24192 10.4944 8.50564L7.66594 11.3341C8.15236 11.8205 8.81209 12.0938 9.5 12.0938V8.09376ZM10.4944 8.50564C10.7581 8.76936 10.9063 9.12705 10.9063 9.50001H6.90625C6.90625 10.1879 7.17952 10.8476 7.66594 11.3341L10.4944 8.50564ZM10.9063 9.50001V4.55209H6.90625V9.50001H10.9063ZM10.9063 4.55209C10.9063 4.92506 10.7581 5.28274 10.4944 5.54646L7.66594 2.71804C7.17952 3.20446 6.90625 3.86419 6.90625 4.55209H10.9063ZM10.4944 5.54646C10.2306 5.81018 9.87296 5.95834 9.5 5.95834V1.95834C8.8121 1.95834 8.15237 2.23161 7.66594 2.71804L10.4944 5.54646ZM9.5 5.95834C9.12704 5.95834 8.76935 5.81018 8.50563 5.54646L11.3341 2.71804C10.8476 2.23161 10.1879 1.95834 9.5 1.95834V5.95834ZM8.50563 5.54646C8.24191 5.28274 8.09375 4.92506 8.09375 4.55209H12.0938C12.0938 3.86419 11.8205 3.20446 11.3341 2.71804L8.50563 5.54646ZM8.09375 4.55209V8.90626H12.0938V4.55209H8.09375ZM10.0938 10.9063H14.4479V6.90626H10.0938V10.9063ZM14.4479 10.9063C14.075 10.9063 13.7173 10.7581 13.4535 10.4944L16.282 7.66595C15.7956 7.17953 15.1358 6.90626 14.4479 6.90626V10.9063ZM13.4535 10.4944C13.1898 10.2307 13.0417 9.87297 13.0417 9.50001H17.0417C17.0417 8.81211 16.7684 8.15238 16.282 7.66595L13.4535 10.4944ZM13.0417 9.50001C13.0417 9.12705 13.1898 8.76937 13.4535 8.50564L16.282 11.3341C16.7684 10.8476 17.0417 10.1879 17.0417 9.50001H13.0417ZM13.4535 8.50564C13.7173 8.24192 14.075 8.09376 14.4479 8.09376V12.0938C15.1358 12.0938 15.7956 11.8205 16.282 11.3341L13.4535 8.50564Z" fill="white" mask="url(#path-1-inside-1_637_3874)"/>
<mask id="path-3-inside-2_637_3874" fill="white">
<path d="M9.5 19C6.95875 19 4.57345 18.0104 2.78587 16.2125C2.73082 16.1573 2.6872 16.0917 2.65748 16.0196C2.62777 15.9475 2.61256 15.8702 2.6127 15.7922C2.61285 15.7142 2.62836 15.637 2.65834 15.565C2.68833 15.493 2.7322 15.4276 2.78745 15.3726C2.84271 15.3175 2.90827 15.2739 2.98039 15.2442C3.0525 15.2145 3.12976 15.1993 3.20776 15.1994C3.28576 15.1996 3.36296 15.2151 3.43497 15.2451C3.50697 15.275 3.57236 15.3189 3.62741 15.3742C4.39541 16.1501 5.31022 16.7653 6.31848 17.1839C7.32675 17.6026 8.40828 17.8163 9.5 17.8125C14.0837 17.8125 17.8125 14.0838 17.8125 9.5C17.8125 4.91625 14.0837 1.1875 9.5 1.1875C5.59075 1.1875 2.08762 3.8285 1.17008 7.46858C1.1248 7.614 1.02552 7.73653 0.892652 7.81098C0.759783 7.88542 0.603437 7.90611 0.455779 7.86879C0.30812 7.83147 0.18038 7.73898 0.0988391 7.61034C0.0172981 7.48171 -0.0118422 7.32672 0.0174134 7.17725C1.06716 3.01863 5.05479 0 9.5 0C14.7385 0 19 4.26154 19 9.5C19 14.7385 14.7385 19 9.5 19Z"/>
</mask>
<path d="M9.5 19C6.95875 19 4.57345 18.0104 2.78587 16.2125C2.73082 16.1573 2.6872 16.0917 2.65748 16.0196C2.62777 15.9475 2.61256 15.8702 2.6127 15.7922C2.61285 15.7142 2.62836 15.637 2.65834 15.565C2.68833 15.493 2.7322 15.4276 2.78745 15.3726C2.84271 15.3175 2.90827 15.2739 2.98039 15.2442C3.0525 15.2145 3.12976 15.1993 3.20776 15.1994C3.28576 15.1996 3.36296 15.2151 3.43497 15.2451C3.50697 15.275 3.57236 15.3189 3.62741 15.3742C4.39541 16.1501 5.31022 16.7653 6.31848 17.1839C7.32675 17.6026 8.40828 17.8163 9.5 17.8125C14.0837 17.8125 17.8125 14.0838 17.8125 9.5C17.8125 4.91625 14.0837 1.1875 9.5 1.1875C5.59075 1.1875 2.08762 3.8285 1.17008 7.46858C1.1248 7.614 1.02552 7.73653 0.892652 7.81098C0.759783 7.88542 0.603437 7.90611 0.455779 7.86879C0.30812 7.83147 0.18038 7.73898 0.0988391 7.61034C0.0172981 7.48171 -0.0118422 7.32672 0.0174134 7.17725C1.06716 3.01863 5.05479 0 9.5 0C14.7385 0 19 4.26154 19 9.5C19 14.7385 14.7385 19 9.5 19Z" fill="white"/>
<path d="M2.78587 16.2125L4.20414 14.8024L4.20275 14.801L2.78587 16.2125ZM3.62741 15.3742L5.04887 13.9672L5.04429 13.9626L3.62741 15.3742ZM9.5 17.8125V15.8125L9.49312 15.8125L9.5 17.8125ZM1.17008 7.46858L3.07967 8.06313L3.09599 8.01068L3.10942 7.95743L1.17008 7.46858ZM0.0174134 7.17725L-1.92176 6.68775L-1.93497 6.74009L-1.94534 6.79307L0.0174134 7.17725ZM9.5 17C7.48917 17 5.61492 16.2213 4.20414 14.8024L1.3676 17.6227C3.53199 19.7995 6.42832 21 9.5 21V17ZM4.20275 14.801C4.33307 14.9318 4.43634 15.087 4.50668 15.2577L0.808286 16.7815C0.938051 17.0965 1.12858 17.3828 1.36899 17.6241L4.20275 14.801ZM4.50668 15.2577C4.57702 15.4285 4.61305 15.6114 4.6127 15.796L0.612706 15.7885C0.612063 16.1291 0.678523 16.4665 0.808286 16.7815L4.50668 15.2577ZM4.6127 15.796C4.61235 15.9807 4.57564 16.1634 4.50465 16.3339L0.812028 14.7962C0.681078 15.1106 0.613348 15.4478 0.612706 15.7885L4.6127 15.796ZM4.50465 16.3339C4.43367 16.5043 4.32981 16.6591 4.199 16.7895L1.37591 13.9557C1.13458 14.1961 0.942977 14.4817 0.812028 14.7962L4.50465 16.3339ZM4.199 16.7895C4.06818 16.9198 3.91299 17.0231 3.74227 17.0934L2.2185 13.395C1.90355 13.5248 1.61724 13.7153 1.37591 13.9557L4.199 16.7895ZM3.74227 17.0934C3.57155 17.1637 3.38865 17.1998 3.20399 17.1994L3.21153 13.1994C2.87088 13.1988 2.53345 13.2652 2.2185 13.395L3.74227 17.0934ZM3.20399 17.1994C3.01932 17.1991 2.83656 17.1623 2.66612 17.0914L4.20382 13.3987C3.88937 13.2678 3.5522 13.2001 3.21153 13.1994L3.20399 17.1994ZM2.66612 17.0914C2.49567 17.0204 2.34086 16.9165 2.21054 16.7857L5.04429 13.9626C4.80387 13.7213 4.51828 13.5297 4.20382 13.3987L2.66612 17.0914ZM2.20596 16.7811C3.16075 17.7457 4.29806 18.5106 5.55155 19.031L7.08541 15.3368C6.32238 15.02 5.63007 14.5544 5.04886 13.9672L2.20596 16.7811ZM5.55155 19.031C6.80504 19.5515 8.14963 19.8172 9.50687 19.8125L9.49312 15.8125C8.66693 15.8154 7.84845 15.6536 7.08541 15.3368L5.55155 19.031ZM9.5 19.8125C15.1883 19.8125 19.8125 15.1883 19.8125 9.5H15.8125C15.8125 12.9792 12.9792 15.8125 9.5 15.8125V19.8125ZM19.8125 9.5C19.8125 3.81168 15.1883 -0.8125 9.5 -0.8125V3.1875C12.9792 3.1875 15.8125 6.02082 15.8125 9.5H19.8125ZM9.5 -0.8125C4.7287 -0.8125 0.385232 2.39963 -0.769258 6.97974L3.10942 7.95743C3.79001 5.25737 6.45279 3.1875 9.5 3.1875V-0.8125ZM-0.739506 6.87404C-0.63268 6.53093 -0.39842 6.24182 -0.0849241 6.06617L1.87023 9.55578C2.44946 9.23125 2.88229 8.69707 3.07967 8.06313L-0.739506 6.87404ZM-0.0849241 6.06617C0.228574 5.89053 0.597467 5.84171 0.945862 5.92977L-0.0343047 9.80782C0.609407 9.97051 1.29099 9.88032 1.87023 9.55578L-0.0849241 6.06617ZM0.945862 5.92977C1.29426 6.01782 1.59565 6.23605 1.78805 6.53956L-1.59037 8.68113C-1.23489 9.24191 -0.678016 9.64512 -0.0343047 9.80782L0.945862 5.92977ZM1.78805 6.53956C1.98044 6.84307 2.0492 7.20877 1.98017 7.56143L-1.94534 6.79307C-2.07288 7.44466 -1.94584 8.12035 -1.59037 8.68113L1.78805 6.53956ZM1.95659 7.66675C2.77078 4.44129 5.92358 2 9.5 2V-2C4.18599 -2 -0.636453 1.59596 -1.92176 6.68775L1.95659 7.66675ZM9.5 2C13.6339 2 17 5.36611 17 9.5H21C21 3.15697 15.843 -2 9.5 -2V2ZM17 9.5C17 13.6339 13.6339 17 9.5 17V21C15.843 21 21 15.843 21 9.5H17Z" fill="white" mask="url(#path-3-inside-2_637_3874)"/>
</g>
<defs>
<clipPath id="clip0_637_3874">
<rect width="19" height="19" fill="white"/>
</clipPath>
</defs>
</svg>
