<svg width="24" height="25" viewBox="0 0 24 25" fill="none" xmlns="http://www.w3.org/2000/svg">
<g clip-path="url(#clip0_1600_5706)">
<path d="M18.375 0.171326H5.625C2.5184 0.171326 0 2.68972 0 5.79633V18.5463C0 21.6529 2.5184 24.1713 5.625 24.1713H18.375C21.4816 24.1713 24 21.6529 24 18.5463V5.79633C24 2.68972 21.4816 0.171326 18.375 0.171326Z" fill="url(#paint0_radial_1600_5706)"/>
<path d="M18.375 0.171326H5.625C2.5184 0.171326 0 2.68972 0 5.79633V18.5463C0 21.6529 2.5184 24.1713 5.625 24.1713H18.375C21.4816 24.1713 24 21.6529 24 18.5463V5.79633C24 2.68972 21.4816 0.171326 18.375 0.171326Z" fill="url(#paint1_radial_1600_5706)"/>
<path d="M12.0008 2.79633C9.45478 2.79633 9.13519 2.80748 8.13525 2.85295C7.13719 2.8987 6.45591 3.05667 5.85984 3.28851C5.24316 3.52795 4.72013 3.84829 4.19906 4.36954C3.67753 4.8907 3.35719 5.41373 3.117 6.03014C2.8845 6.62639 2.72634 7.30795 2.68144 8.30554C2.63672 9.30558 2.625 9.62526 2.625 12.1714C2.625 14.7176 2.63625 15.0361 2.68163 16.0361C2.72756 17.0341 2.88553 17.7154 3.11719 18.3115C3.35681 18.9282 3.67716 19.4512 4.19841 19.9723C4.71938 20.4938 5.24241 20.8149 5.85862 21.0543C6.45516 21.2862 7.13653 21.4441 8.13441 21.4899C9.13444 21.5354 9.45375 21.5465 11.9997 21.5465C14.5461 21.5465 14.8646 21.5354 15.8646 21.4899C16.8626 21.4441 17.5447 21.2862 18.1412 21.0543C18.7576 20.8149 19.2799 20.4938 19.8007 19.9723C20.3223 19.4512 20.6425 18.9282 20.8828 18.3118C21.1133 17.7154 21.2715 17.034 21.3184 16.0363C21.3633 15.0363 21.375 14.7176 21.375 12.1714C21.375 9.62526 21.3633 9.30576 21.3184 8.30573C21.2715 7.30767 21.1133 6.62648 20.8828 6.03042C20.6425 5.41373 20.3223 4.8907 19.8007 4.36954C19.2793 3.84811 18.7578 3.52776 18.1406 3.28861C17.543 3.05667 16.8613 2.89861 15.8632 2.85295C14.8632 2.80748 14.5448 2.79633 11.9979 2.79633H12.0008ZM11.1598 4.48579C11.4095 4.48542 11.688 4.48579 12.0008 4.48579C14.5041 4.48579 14.8007 4.49479 15.7892 4.5397C16.7032 4.58151 17.1994 4.73423 17.5298 4.86258C17.9674 5.03245 18.2793 5.23561 18.6072 5.56383C18.9353 5.89195 19.1384 6.20442 19.3088 6.64195C19.4371 6.97195 19.59 7.46808 19.6316 8.38214C19.6765 9.37045 19.6863 9.66726 19.6863 12.1693C19.6863 14.6713 19.6765 14.9682 19.6316 15.9564C19.5898 16.8705 19.4371 17.3666 19.3088 17.6967C19.1389 18.1342 18.9353 18.4457 18.6072 18.7737C18.2791 19.1018 17.9676 19.3049 17.5298 19.4748C17.1997 19.6037 16.7032 19.7561 15.7892 19.7979C14.8009 19.8428 14.5041 19.8525 12.0008 19.8525C9.49753 19.8525 9.20081 19.8428 8.21259 19.7979C7.29853 19.7557 6.80241 19.603 6.47166 19.4746C6.03422 19.3047 5.72166 19.1016 5.39353 18.7735C5.06541 18.4454 4.86234 18.1336 4.692 17.6959C4.56366 17.3658 4.41075 16.8697 4.36913 15.9556C4.32422 14.9673 4.31522 14.6705 4.31522 12.1669C4.31522 9.66342 4.32422 9.36811 4.36913 8.37979C4.41094 7.46573 4.56366 6.96961 4.692 6.63914C4.86197 6.20161 5.06541 5.88914 5.39363 5.56101C5.72175 5.23289 6.03422 5.02973 6.47175 4.85948C6.80222 4.73058 7.29853 4.57823 8.21259 4.53623C9.07744 4.49714 9.41259 4.48542 11.1598 4.48345V4.48579ZM17.0052 6.04242C16.3841 6.04242 15.8802 6.54586 15.8802 7.16704C15.8802 7.78814 16.3841 8.29204 17.0052 8.29204C17.6263 8.29204 18.1302 7.78814 18.1302 7.16704C18.1302 6.54595 17.6263 6.04204 17.0052 6.04204V6.04242ZM12.0008 7.35689C9.34209 7.35689 7.18641 9.51258 7.18641 12.1714C7.18641 14.8303 9.34209 16.9849 12.0008 16.9849C14.6597 16.9849 16.8146 14.8303 16.8146 12.1714C16.8146 9.51267 14.6595 7.35689 12.0007 7.35689H12.0008ZM12.0008 9.04636C13.7267 9.04636 15.1259 10.4454 15.1259 12.1714C15.1259 13.8973 13.7267 15.2965 12.0008 15.2965C10.2749 15.2965 8.87588 13.8973 8.87588 12.1714C8.87588 10.4454 10.2749 9.04636 12.0008 9.04636Z" fill="white"/>
</g>
<defs>
<radialGradient id="paint0_radial_1600_5706" cx="0" cy="0" r="1" gradientUnits="userSpaceOnUse" gradientTransform="translate(6.375 26.0198) rotate(-90) scale(23.7858 22.1227)">
<stop stop-color="#FFDD55"/>
<stop offset="0.1" stop-color="#FFDD55"/>
<stop offset="0.5" stop-color="#FF543E"/>
<stop offset="1" stop-color="#C837AB"/>
</radialGradient>
<radialGradient id="paint1_radial_1600_5706" cx="0" cy="0" r="1" gradientUnits="userSpaceOnUse" gradientTransform="translate(-4.02009 1.90017) rotate(78.681) scale(10.6324 43.827)">
<stop stop-color="#3771C8"/>
<stop offset="0.128" stop-color="#3771C8"/>
<stop offset="1" stop-color="#6600FF" stop-opacity="0"/>
</radialGradient>
<clipPath id="clip0_1600_5706">
<rect width="24" height="24" fill="white" transform="translate(0 0.171326)"/>
</clipPath>
</defs>
</svg>
