<svg width="45" height="45" viewBox="0 0 45 45" fill="none" xmlns="http://www.w3.org/2000/svg">
<rect width="45" height="45" rx="17.5" fill="url(#paint0_linear_341_493)"/>
<rect x="1" y="1" width="43" height="43" rx="16.5" stroke="url(#paint1_linear_341_493)" stroke-opacity="0.26" stroke-width="2"/>
<path d="M13.2929 23.7071C12.9024 23.3166 12.9024 22.6834 13.2929 22.2929L19.6569 15.9289C20.0474 15.5384 20.6805 15.5384 21.0711 15.9289C21.4616 16.3195 21.4616 16.9526 21.0711 17.3431L15.4142 23L21.0711 28.6569C21.4616 29.0474 21.4616 29.6805 21.0711 30.0711C20.6805 30.4616 20.0474 30.4616 19.6569 30.0711L13.2929 23.7071ZM31 24L14 24V22L31 22V24Z" fill="white"/>
<defs>
<linearGradient id="paint0_linear_341_493" x1="2.38411" y1="7.71428" x2="46.6548" y2="9.79527" gradientUnits="userSpaceOnUse">
<stop stop-color="#EC8D00"/>
<stop offset="1" stop-color="#B37314"/>
</linearGradient>
<linearGradient id="paint1_linear_341_493" x1="22.5" y1="0" x2="22.5" y2="45" gradientUnits="userSpaceOnUse">
<stop/>
<stop offset="1" stop-color="#CFCFCF" stop-opacity="0.66"/>
</linearGradient>
</defs>
</svg>
