<svg width="112" height="59" viewBox="0 0 112 59" fill="none" xmlns="http://www.w3.org/2000/svg">
<g filter="url(#filter0_d_1189_7465)">
<path d="M25.3698 19.5496C25.3698 17.338 23.7244 15.437 21.3855 14.623C21.0395 14.5031 20.6555 14.7087 20.6555 15.0172V24.0831C20.6555 24.3916 21.0395 24.5972 21.3855 24.4773C23.7244 23.6633 25.3698 21.7623 25.3698 19.5507V19.5496Z" fill="#E14726"/>
<path d="M22.3845 0.429125V13.1976C22.3845 13.3871 22.536 13.5521 22.7567 13.6067C25.87 14.3767 28.1435 16.749 28.1435 19.5496C28.1435 22.3503 25.87 24.7226 22.7567 25.4926C22.536 25.5472 22.3845 25.7132 22.3845 25.9017V37.0958C22.3845 37.4749 22.9408 37.6677 23.2725 37.4021L36.6946 26.6471C36.7952 26.5668 36.8513 26.4565 36.8513 26.3408V11.9595C36.8513 11.8492 36.7991 11.7432 36.7064 11.6639L23.2843 0.13353C22.9591 -0.146 22.3845 0.0424953 22.3845 0.429125Z" fill="#533483"/>
<path d="M12.952 19.5455C12.952 16.7405 15.2334 14.3651 18.3545 13.5994C18.5752 13.5447 18.728 13.3787 18.728 13.1891V0.429279C18.728 0.0426496 18.1521 -0.146917 17.8269 0.134755L4.40483 11.7315C4.31211 11.8108 4.26118 11.9168 4.26118 12.026V37.9377C4.26118 38.0481 4.31342 38.1541 4.40614 38.2333L17.8282 49.7594C18.1534 50.0389 18.728 49.8504 18.728 49.4638V25.9019C18.728 25.7123 18.5765 25.5463 18.3545 25.4917C15.2334 24.7259 12.952 22.3504 12.952 19.5455Z" fill="#E14726"/>
<path d="M22.1233 0.536225V13.3046C22.1233 13.4942 22.2748 13.6591 22.4955 13.7138C25.6088 14.4838 27.8824 16.8561 27.8824 19.6567C27.8824 22.4574 25.6088 24.8296 22.4955 25.5997C22.2748 25.6543 22.1233 25.8203 22.1233 26.0088V37.2029C22.1233 37.582 22.6797 37.7748 23.0113 37.5092L36.4334 26.7542C36.534 26.6739 36.5901 26.5636 36.5901 26.4479V12.0666C36.5901 11.9563 36.5379 11.8502 36.4452 11.771L23.0231 0.240629C22.6979 -0.0389005 22.1233 0.149595 22.1233 0.536225Z" fill="#533483"/>
<path d="M14.9052 19.6567C14.9052 17.4451 16.5506 15.544 18.8895 14.7301C19.2355 14.6101 19.6195 14.8158 19.6195 15.1242V24.1902C19.6195 24.4987 19.2355 24.7043 18.8895 24.5844C16.5506 23.7704 14.9052 21.8694 14.9052 19.6577V19.6567Z" fill="#533483"/>
<path d="M12.6908 19.6526C12.6908 16.8477 14.9722 14.4722 18.0933 13.7064C18.314 13.6518 18.4668 13.4858 18.4668 13.2963V0.536379C18.4668 0.149749 17.8909 -0.0398172 17.5657 0.241855L4.14365 11.8386C4.05093 11.9179 4 12.0239 4 12.1332V38.0448C4 38.1551 4.05224 38.2612 4.14496 38.3404L17.567 49.8665C17.8922 50.146 18.4668 49.9575 18.4668 49.5709V26.009C18.4668 25.8194 18.3153 25.6534 18.0933 25.5988C14.9722 24.833 12.6908 22.4576 12.6908 19.6526Z" fill="#E14726"/>
<path d="M47.5136 21.1957C48.4681 21.1957 49.2831 20.8772 49.9585 20.2403C50.6339 19.6034 50.9716 18.8349 50.9716 17.9348C50.9716 17.0347 50.6339 16.2661 49.9585 15.6292C49.2831 14.9924 48.4681 14.6739 47.5136 14.6739C46.559 14.6739 45.744 14.9924 45.0686 15.6292C44.3932 16.2661 44.0555 17.0347 44.0555 17.9348C44.0555 18.8349 44.3932 19.6034 45.0686 20.2403C45.744 20.8772 46.559 21.1957 47.5136 21.1957ZM40.5975 17.9348C40.5975 17.0686 40.7731 16.2364 41.1243 15.4382C41.4755 14.6399 41.9753 13.9351 42.6237 13.3237C43.2721 12.7123 44.0195 12.241 44.866 11.9098C45.7125 11.5786 46.595 11.413 47.5136 11.413C48.4321 11.413 49.3146 11.5786 50.1611 11.9098C51.0076 12.241 51.7551 12.7123 52.4035 13.3237C53.0518 13.9351 53.5516 14.6399 53.9028 15.4382C54.254 16.2364 54.4296 17.0686 54.4296 17.9348C54.4296 18.801 54.254 19.6332 53.9028 20.4314C53.5516 21.2296 53.0518 21.9344 52.4035 22.5459C51.7551 23.1573 51.0076 23.6286 50.1611 23.9598C49.3146 24.2909 48.4321 24.4565 47.5136 24.4565C46.595 24.4565 45.7125 24.2909 44.866 23.9598C44.5869 23.8494 44.3167 23.722 44.0555 23.5776V27.7174H40.5975V17.9348Z" fill="url(#paint0_linear_1189_7465)"/>
<path d="M62.6592 24.4565C61.7407 24.4565 60.8582 24.2909 60.0117 23.9598C59.1652 23.6286 58.4177 23.1573 57.7693 22.5459C57.121 21.9344 56.6212 21.2296 56.27 20.4314C55.9188 19.6332 55.7432 18.801 55.7432 17.9348C55.7432 17.0686 55.9188 16.2364 56.27 15.4382C56.6212 14.6399 57.121 13.9351 57.7693 13.3237C58.4177 12.7123 59.1652 12.241 60.0117 11.9098C60.8582 11.5786 61.7407 11.413 62.6592 11.413C63.5778 11.413 64.4603 11.5786 65.3068 11.9098C66.1533 12.241 66.9007 12.7123 67.5491 13.3237C68.1975 13.9351 68.6973 14.6399 69.0485 15.4382C69.3997 16.2364 69.5753 17.0686 69.5753 17.9348C69.5753 18.801 69.3997 19.6332 69.0485 20.4314C68.6973 21.2296 68.1975 21.9344 67.5491 22.5459C66.9007 23.1573 66.1533 23.6286 65.3068 23.9598C64.4603 24.2909 63.5778 24.4565 62.6592 24.4565ZM62.6592 21.1957C63.6138 21.1957 64.4288 20.8772 65.1042 20.2403C65.7796 19.6034 66.1173 18.8349 66.1173 17.9348C66.1173 17.0347 65.7796 16.2661 65.1042 15.6292C64.4288 14.9924 63.6138 14.6739 62.6592 14.6739C61.7047 14.6739 60.8897 14.9924 60.2143 15.6292C59.5389 16.2661 59.2012 17.0347 59.2012 17.9348C59.2012 18.8349 59.5389 19.6034 60.2143 20.2403C60.8897 20.8772 61.7047 21.1957 62.6592 21.1957Z" fill="url(#paint1_linear_1189_7465)"/>
<path d="M74.9007 17.9348V24.4565H71.4426V17.9348C71.4426 17.0686 71.6182 16.2364 71.9694 15.4382C72.3206 14.6399 72.8204 13.9351 73.4688 13.3237C74.1172 12.7123 74.8646 12.241 75.7111 11.9098C76.5576 11.5786 77.4401 11.413 78.3587 11.413V14.6739C77.4041 14.6739 76.5891 14.9924 75.9137 15.6292C75.2384 16.2661 74.9007 17.0347 74.9007 17.9348Z" fill="url(#paint2_linear_1189_7465)"/>
<path d="M85.2748 19.5652V24.4565H81.8167V19.5652H80.0877V16.3044H81.8167V14.6739C81.8167 13.8077 81.9923 12.9755 82.3435 12.1773C82.6947 11.3791 83.1945 10.6743 83.8429 10.0628C84.4913 9.45143 85.2387 8.98013 86.0852 8.64895C86.9317 8.31777 87.8143 8.15218 88.7328 8.15218V11.413C87.7782 11.413 86.9633 11.7315 86.2879 12.3684C85.6125 13.0053 85.2748 13.7738 85.2748 14.6739V16.3044H88.7328V19.5652H85.2748Z" fill="url(#paint3_linear_1189_7465)"/>
<path d="M97.0839 24.4565C96.1654 24.4565 95.2829 24.2909 94.4364 23.9598C93.5899 23.6286 92.8424 23.1573 92.1941 22.5459C91.5457 21.9344 91.0459 21.2296 90.6947 20.4314C90.3435 19.6332 90.1679 18.801 90.1679 17.9348C90.1679 17.0686 90.3435 16.2364 90.6947 15.4382C91.0459 14.6399 91.5457 13.9351 92.1941 13.3237C92.8424 12.7123 93.5899 12.241 94.4364 11.9098C95.2829 11.5786 96.1654 11.413 97.0839 11.413C98.0025 11.413 98.885 11.5786 99.7315 11.9098C100.578 12.241 101.325 12.7123 101.974 13.3237C102.622 13.9351 103.122 14.6399 103.473 15.4382C103.824 16.2364 104 17.0686 104 17.9348C104 18.801 103.824 19.6332 103.473 20.4314C103.122 21.2296 102.622 21.9344 101.974 22.5459C101.325 23.1573 100.578 23.6286 99.7315 23.9598C98.885 24.2909 98.0025 24.4565 97.0839 24.4565ZM97.0839 21.1957C98.0385 21.1957 98.8535 20.8772 99.5289 20.2403C100.204 19.6034 100.542 18.8349 100.542 17.9348C100.542 17.0347 100.204 16.2661 99.5289 15.6292C98.8535 14.9924 98.0385 14.6739 97.0839 14.6739C96.1294 14.6739 95.3144 14.9924 94.639 15.6292C93.9636 16.2661 93.6259 17.0347 93.6259 17.9348C93.6259 18.8349 93.9636 19.6034 94.639 20.2403C95.3144 20.8772 96.1294 21.1957 97.0839 21.1957Z" fill="url(#paint4_linear_1189_7465)"/>
</g>
<defs>
<filter id="filter0_d_1189_7465" x="-4" y="-7" width="116" height="66" filterUnits="userSpaceOnUse" color-interpolation-filters="sRGB">
<feFlood flood-opacity="0" result="BackgroundImageFix"/>
<feColorMatrix in="SourceAlpha" type="matrix" values="0 0 0 0 0 0 0 0 0 0 0 0 0 0 0 0 0 0 127 0" result="hardAlpha"/>
<feOffset dy="1"/>
<feGaussianBlur stdDeviation="4"/>
<feComposite in2="hardAlpha" operator="out"/>
<feColorMatrix type="matrix" values="0 0 0 0 1 0 0 0 0 1 0 0 0 0 1 0 0 0 0.14 0"/>
<feBlend mode="normal" in2="BackgroundImageFix" result="effect1_dropShadow_1189_7465"/>
<feBlend mode="normal" in="SourceGraphic" in2="effect1_dropShadow_1189_7465" result="shape"/>
</filter>
<linearGradient id="paint0_linear_1189_7465" x1="32.2406" y1="3.53261" x2="64.6605" y2="33.0337" gradientUnits="userSpaceOnUse">
<stop stop-color="#FF4D00"/>
<stop offset="0.961458" stop-color="#533483"/>
</linearGradient>
<linearGradient id="paint1_linear_1189_7465" x1="32.2406" y1="3.53261" x2="64.6605" y2="33.0337" gradientUnits="userSpaceOnUse">
<stop stop-color="#FF4D00"/>
<stop offset="0.961458" stop-color="#533483"/>
</linearGradient>
<linearGradient id="paint2_linear_1189_7465" x1="32.2406" y1="3.53261" x2="64.6605" y2="33.0337" gradientUnits="userSpaceOnUse">
<stop stop-color="#FF4D00"/>
<stop offset="0.961458" stop-color="#533483"/>
</linearGradient>
<linearGradient id="paint3_linear_1189_7465" x1="32.2406" y1="3.53261" x2="64.6605" y2="33.0337" gradientUnits="userSpaceOnUse">
<stop stop-color="#FF4D00"/>
<stop offset="0.961458" stop-color="#533483"/>
</linearGradient>
<linearGradient id="paint4_linear_1189_7465" x1="32.2406" y1="3.53261" x2="64.6605" y2="33.0337" gradientUnits="userSpaceOnUse">
<stop stop-color="#FF4D00"/>
<stop offset="0.961458" stop-color="#533483"/>
</linearGradient>
</defs>
</svg>
