<svg width="91" height="40" viewBox="0 0 91 40" fill="none" xmlns="http://www.w3.org/2000/svg">
<path d="M11.25 25C12.6302 25 13.8086 24.5117 14.7852 23.5352C15.7617 22.5586 16.25 21.3802 16.25 20C16.25 18.6198 15.7617 17.4414 14.7852 16.4648C13.8086 15.4883 12.6302 15 11.25 15C9.86979 15 8.69141 15.4883 7.71484 16.4648C6.73828 17.4414 6.25 18.6198 6.25 20C6.25 21.3802 6.73828 22.5586 7.71484 23.5352C8.69141 24.5117 9.86979 25 11.25 25ZM1.25 20C1.25 18.6719 1.50391 17.3958 2.01172 16.1719C2.51953 14.9479 3.24219 13.8672 4.17969 12.9297C5.11719 11.9922 6.19792 11.2695 7.42188 10.7617C8.64583 10.2539 9.92188 10 11.25 10C12.5781 10 13.8542 10.2539 15.0781 10.7617C16.3021 11.2695 17.3828 11.9922 18.3203 12.9297C19.2578 13.8672 19.9805 14.9479 20.4883 16.1719C20.9961 17.3958 21.25 18.6719 21.25 20C21.25 21.3281 20.9961 22.6042 20.4883 23.8281C19.9805 25.0521 19.2578 26.1328 18.3203 27.0703C17.3828 28.0078 16.3021 28.7305 15.0781 29.2383C13.8542 29.7461 12.5781 30 11.25 30C9.92188 30 8.64583 29.7461 7.42188 29.2383C7.01823 29.069 6.6276 28.8737 6.25 28.6523V35H1.25V20ZM33.1492 30C31.8211 30 30.5451 29.7461 29.3211 29.2383C28.0971 28.7305 27.0164 28.0078 26.0789 27.0703C25.1414 26.1328 24.4188 25.0521 23.9109 23.8281C23.4031 22.6042 23.1492 21.3281 23.1492 20C23.1492 18.6719 23.4031 17.3958 23.9109 16.1719C24.4188 14.9479 25.1414 13.8672 26.0789 12.9297C27.0164 11.9922 28.0971 11.2695 29.3211 10.7617C30.5451 10.2539 31.8211 10 33.1492 10C34.4773 10 35.7534 10.2539 36.9773 10.7617C38.2013 11.2695 39.282 11.9922 40.2195 12.9297C41.157 13.8672 41.8797 14.9479 42.3875 16.1719C42.8953 17.3958 43.1492 18.6719 43.1492 20C43.1492 21.3281 42.8953 22.6042 42.3875 23.8281C41.8797 25.0521 41.157 26.1328 40.2195 27.0703C39.282 28.0078 38.2013 28.7305 36.9773 29.2383C35.7534 29.7461 34.4773 30 33.1492 30ZM33.1492 25C34.5294 25 35.7078 24.5117 36.6844 23.5352C37.6609 22.5586 38.1492 21.3802 38.1492 20C38.1492 18.6198 37.6609 17.4414 36.6844 16.4648C35.7078 15.4883 34.5294 15 33.1492 15C31.769 15 30.5906 15.4883 29.6141 16.4648C28.6375 17.4414 28.1492 18.6198 28.1492 20C28.1492 21.3802 28.6375 22.5586 29.6141 23.5352C30.5906 24.5117 31.769 25 33.1492 25ZM50.2828 20V30H45.2828V20C45.2828 18.6719 45.5367 17.3958 46.0445 16.1719C46.5523 14.9479 47.275 13.8672 48.2125 12.9297C49.15 11.9922 50.2307 11.2695 51.4547 10.7617C52.6786 10.2539 53.9547 10 55.2828 10V15C53.9026 15 52.7242 15.4883 51.7477 16.4648C50.7711 17.4414 50.2828 18.6198 50.2828 20ZM62.0648 22.5V30H57.0648V22.5H54.5648V17.5H57.0648V15C57.0648 13.6719 57.3187 12.3958 57.8266 11.1719C58.3344 9.94792 59.057 8.86719 59.9945 7.92969C60.932 6.99219 62.0128 6.26953 63.2367 5.76172C64.4607 5.25391 65.7367 5 67.0648 5V10C65.6846 10 64.5062 10.4883 63.5297 11.4648C62.5531 12.4414 62.0648 13.6198 62.0648 15V17.5H67.0648V22.5H62.0648ZM79.1398 30C77.8117 30 76.5357 29.7461 75.3117 29.2383C74.0878 28.7305 73.007 28.0078 72.0695 27.0703C71.132 26.1328 70.4094 25.0521 69.9016 23.8281C69.3938 22.6042 69.1398 21.3281 69.1398 20C69.1398 18.6719 69.3938 17.3958 69.9016 16.1719C70.4094 14.9479 71.132 13.8672 72.0695 12.9297C73.007 11.9922 74.0878 11.2695 75.3117 10.7617C76.5357 10.2539 77.8117 10 79.1398 10C80.468 10 81.744 10.2539 82.968 10.7617C84.1919 11.2695 85.2727 11.9922 86.2102 12.9297C87.1477 13.8672 87.8703 14.9479 88.3781 16.1719C88.8859 17.3958 89.1398 18.6719 89.1398 20C89.1398 21.3281 88.8859 22.6042 88.3781 23.8281C87.8703 25.0521 87.1477 26.1328 86.2102 27.0703C85.2727 28.0078 84.1919 28.7305 82.968 29.2383C81.744 29.7461 80.468 30 79.1398 30ZM79.1398 25C80.5201 25 81.6984 24.5117 82.675 23.5352C83.6516 22.5586 84.1398 21.3802 84.1398 20C84.1398 18.6198 83.6516 17.4414 82.675 16.4648C81.6984 15.4883 80.5201 15 79.1398 15C77.7596 15 76.5813 15.4883 75.6047 16.4648C74.6281 17.4414 74.1398 18.6198 74.1398 20C74.1398 21.3802 74.6281 22.5586 75.6047 23.5352C76.5813 24.5117 77.7596 25 79.1398 25Z" fill="url(#paint0_linear_1562_5026)"/>
<defs>
<linearGradient id="paint0_linear_1562_5026" x1="-2.13803" y1="-4.53901" x2="112.324" y2="48.1541" gradientUnits="userSpaceOnUse">
<stop stop-color="#8F3B75"/>
<stop offset="1" stop-color="#533483"/>
</linearGradient>
</defs>
</svg>
