<svg width="108" height="58" viewBox="0 0 108 58" fill="none" xmlns="http://www.w3.org/2000/svg">
<g filter="url(#filter0_d_1998_5878)">
<path d="M48.3164 21.1958C49.2573 21.1958 50.0608 20.8774 50.7266 20.2405C51.3924 19.6036 51.7253 18.8351 51.7253 17.935C51.7253 17.0348 51.3924 16.2663 50.7266 15.6294C50.0608 14.9925 49.2573 14.6741 48.3164 14.6741C47.3754 14.6741 46.572 14.9925 45.9062 15.6294C45.2403 16.2663 44.9075 17.0348 44.9075 17.935C44.9075 18.8351 45.2403 19.6036 45.9062 20.2405C46.572 20.8774 47.3754 21.1958 48.3164 21.1958ZM41.4985 17.935C41.4985 17.0688 41.6717 16.2366 42.0179 15.4383C42.3641 14.6401 42.8568 13.9353 43.4959 13.3239C44.1351 12.7125 44.8719 12.2411 45.7064 11.91C46.5409 11.5788 47.4108 11.4132 48.3164 11.4132C49.2219 11.4132 50.0918 11.5788 50.9263 11.91C51.7608 12.2411 52.4976 12.7125 53.1368 13.3239C53.776 13.9353 54.2687 14.6401 54.6149 15.4383C54.9611 16.2366 55.1342 17.0688 55.1342 17.935C55.1342 18.8011 54.9611 19.6333 54.6149 20.4316C54.2687 21.2298 53.776 21.9346 53.1368 22.546C52.4976 23.1575 51.7608 23.6288 50.9263 23.9599C50.0918 24.2911 49.2219 24.4567 48.3164 24.4567C47.4108 24.4567 46.5409 24.2911 45.7064 23.9599C45.4312 23.8495 45.1649 23.7221 44.9075 23.5778V27.7176H41.4985V17.935ZM63.2469 24.4567C62.3414 24.4567 61.4714 24.2911 60.6369 23.9599C59.8025 23.6288 59.0656 23.1575 58.4265 22.546C57.7873 21.9346 57.2946 21.2298 56.9484 20.4316C56.6021 19.6333 56.4291 18.8011 56.4291 17.935C56.4291 17.0688 56.6021 16.2366 56.9484 15.4383C57.2946 14.6401 57.7873 13.9353 58.4265 13.3239C59.0656 12.7125 59.8025 12.2411 60.6369 11.91C61.4714 11.5788 62.3414 11.4132 63.2469 11.4132C64.1524 11.4132 65.0224 11.5788 65.8568 11.91C66.6913 12.2411 67.4281 12.7125 68.0673 13.3239C68.7065 13.9353 69.1992 14.6401 69.5454 15.4383C69.8916 16.2366 70.0647 17.0688 70.0647 17.935C70.0647 18.8011 69.8916 19.6333 69.5454 20.4316C69.1992 21.2298 68.7065 21.9346 68.0673 22.546C67.4281 23.1575 66.6913 23.6288 65.8568 23.9599C65.0224 24.2911 64.1524 24.4567 63.2469 24.4567ZM63.2469 21.1958C64.1879 21.1958 64.9913 20.8774 65.6571 20.2405C66.3229 19.6036 66.6558 18.8351 66.6558 17.935C66.6558 17.0348 66.3229 16.2663 65.6571 15.6294C64.9913 14.9925 64.1879 14.6741 63.2469 14.6741C62.3059 14.6741 61.5025 14.9925 60.8367 15.6294C60.1709 16.2663 59.838 17.0348 59.838 17.935C59.838 18.8351 60.1709 19.6036 60.8367 20.2405C61.5025 20.8774 62.3059 21.1958 63.2469 21.1958ZM75.3145 17.935V24.4567H71.9056V17.935C71.9056 17.0688 72.0786 16.2366 72.4248 15.4383C72.7711 14.6401 73.2638 13.9353 73.903 13.3239C74.5421 12.7125 75.279 12.2411 76.1132 11.91C76.9479 11.5788 77.8177 11.4132 78.7233 11.4132V14.6741C77.7825 14.6741 76.9791 14.9925 76.3132 15.6294C75.6474 16.2663 75.3145 17.0348 75.3145 17.935ZM85.5412 19.5654V24.4567H82.1322V19.5654H80.4278V16.3045H82.1322V14.6741C82.1322 13.8079 82.3055 12.9757 82.6515 12.1775C82.9981 11.3792 83.4907 10.6744 84.1299 10.063C84.769 9.45158 85.5059 8.98028 86.34 8.64914C87.1746 8.31794 88.0444 8.15234 88.9501 8.15234V11.4132C88.0092 11.4132 87.2059 11.7316 86.54 12.3685C85.8741 13.0054 85.5412 13.774 85.5412 14.6741V16.3045H88.9501V19.5654H85.5412ZM97.1826 24.4567C96.277 24.4567 95.4071 24.2911 94.5725 23.9599C93.7385 23.6288 93.0016 23.1575 92.3624 22.546C91.7232 21.9346 91.2306 21.2298 90.8841 20.4316C90.5381 19.6333 90.3648 18.8011 90.3648 17.935C90.3648 17.0688 90.5381 16.2366 90.8841 15.4383C91.2306 14.6401 91.7232 13.9353 92.3624 13.3239C93.0016 12.7125 93.7385 12.2411 94.5725 11.91C95.4071 11.5788 96.277 11.4132 97.1826 11.4132C98.0883 11.4132 98.9581 11.5788 99.7927 11.91C100.627 12.2411 101.364 12.7125 102.003 13.3239C102.642 13.9353 103.135 14.6401 103.481 15.4383C103.827 16.2366 104 17.0688 104 17.935C104 18.8011 103.827 19.6333 103.481 20.4316C103.135 21.2298 102.642 21.9346 102.003 22.546C101.364 23.1575 100.627 23.6288 99.7927 23.9599C98.9581 24.2911 98.0883 24.4567 97.1826 24.4567ZM97.1826 21.1958C98.1235 21.1958 98.9268 20.8774 99.5927 20.2405C100.259 19.6036 100.592 18.8351 100.592 17.935C100.592 17.0348 100.259 16.2663 99.5927 15.6294C98.9268 14.9925 98.1235 14.6741 97.1826 14.6741C96.2418 14.6741 95.4384 14.9925 94.7725 15.6294C94.1066 16.2663 93.7737 17.0348 93.7737 17.935C93.7737 18.8351 94.1066 19.6036 94.7725 20.2405C95.4384 20.8774 96.2418 21.1958 97.1826 21.1958Z" fill="url(#paint0_linear_1998_5878)"/>
</g>
<g style="mix-blend-mode:hard-light" filter="url(#filter1_d_1998_5878)">
<path d="M26.7707 19.5496C26.7707 17.338 25.1487 15.437 22.843 14.623C22.5019 14.5031 22.1234 14.7087 22.1234 15.0172V24.0831C22.1234 24.3916 22.5019 24.5972 22.843 24.4773C25.1487 23.6633 26.7707 21.7623 26.7707 19.5507V19.5496Z" fill="white"/>
<path d="M22.1234 0.429125V13.1975C22.1234 13.3871 22.2727 13.552 22.4903 13.6067C25.5593 14.3767 27.8006 16.749 27.8006 19.5496C27.8006 22.3503 25.5593 24.7225 22.4903 25.4926C22.2727 25.5472 22.1234 25.7132 22.1234 25.9017V37.0958C22.1234 37.4749 22.6718 37.6677 22.9988 37.4021L36.2302 26.6471C36.3294 26.5668 36.3847 26.4565 36.3847 26.3408V11.9595C36.3847 11.8492 36.3332 11.7431 36.2418 11.6639L23.0104 0.13353C22.6898 -0.146 22.1234 0.0424953 22.1234 0.429125Z" fill="#A23B6F"/>
<path d="M13.8714 19.5496C13.8714 17.338 15.4935 15.437 17.7992 14.623C18.1403 14.5031 18.5188 14.7087 18.5188 15.0172V24.0831C18.5188 24.3916 18.1403 24.5972 17.7992 24.4773C15.4935 23.6633 13.8714 21.7623 13.8714 19.5507V19.5496Z" fill="#A23B6F"/>
<path d="M12.8248 19.5455C12.8248 16.7406 15.0738 14.3651 18.1506 13.5993C18.3682 13.5447 18.5188 13.3787 18.5188 13.1891V0.429279C18.5188 0.0426496 17.9511 -0.146917 17.6305 0.134755L4.39908 11.7315C4.30768 11.8108 4.25747 11.9168 4.25747 12.026V37.9377C4.25747 38.048 4.30897 38.1541 4.40037 38.2333L17.6318 49.7594C17.9524 50.0389 18.5188 49.8504 18.5188 49.4638V25.9019C18.5188 25.7123 18.3695 25.5463 18.1506 25.4917C15.0738 24.7259 12.8248 22.3504 12.8248 19.5455Z" fill="white"/>
<path d="M26.5133 19.6567C26.5133 17.4451 24.8912 15.5441 22.5855 14.7301C22.2444 14.6102 21.8659 14.8158 21.8659 15.1243V24.1902C21.8659 24.4987 22.2444 24.7043 22.5855 24.5844C24.8912 23.7704 26.5133 21.8694 26.5133 19.6578V19.6567Z" fill="white"/>
<path d="M21.8659 0.536225V13.3046C21.8659 13.4942 22.0152 13.6591 22.2328 13.7138C25.3019 14.4838 27.5432 16.8561 27.5432 19.6567C27.5432 22.4574 25.3019 24.8296 22.2328 25.5997C22.0152 25.6543 21.8659 25.8203 21.8659 26.0088V37.2029C21.8659 37.582 22.4143 37.7748 22.7413 37.5092L35.9728 26.7542C36.0719 26.6739 36.1272 26.5636 36.1272 26.4479V12.0666C36.1272 11.9563 36.0757 11.8502 35.9843 11.771L22.7529 0.24063C22.4324 -0.0389005 21.8659 0.149595 21.8659 0.536225Z" fill="#A23B6F"/>
<path d="M13.614 19.6567C13.614 17.4451 15.236 15.5441 17.5417 14.7301C17.8828 14.6102 18.2613 14.8158 18.2613 15.1243V24.1902C18.2613 24.4987 17.8828 24.7043 17.5417 24.5844C15.236 23.7704 13.614 21.8694 13.614 19.6578V19.6567Z" fill="#A23B6F"/>
<path d="M12.5674 19.6526C12.5674 16.8477 14.8164 14.4722 17.8931 13.7064C18.1107 13.6518 18.2613 13.4858 18.2613 13.2962V0.536379C18.2613 0.149749 17.6936 -0.0398171 17.373 0.241855L4.14161 11.8386C4.05021 11.9179 4 12.0239 4 12.1331V38.0448C4 38.1551 4.0515 38.2612 4.1429 38.3404L17.3743 49.8665C17.6949 50.146 18.2613 49.9575 18.2613 49.5709V26.009C18.2613 25.8194 18.112 25.6534 17.8931 25.5988C14.8164 24.833 12.5674 22.4575 12.5674 19.6526Z" fill="white"/>
</g>
<defs>
<filter id="filter0_d_1998_5878" x="37.4985" y="8.15234" width="70.502" height="27.5654" filterUnits="userSpaceOnUse" color-interpolation-filters="sRGB">
<feFlood flood-opacity="0" result="BackgroundImageFix"/>
<feColorMatrix in="SourceAlpha" type="matrix" values="0 0 0 0 0 0 0 0 0 0 0 0 0 0 0 0 0 0 127 0" result="hardAlpha"/>
<feOffset dy="4"/>
<feGaussianBlur stdDeviation="2"/>
<feComposite in2="hardAlpha" operator="out"/>
<feColorMatrix type="matrix" values="0 0 0 0 0 0 0 0 0 0 0 0 0 0 0 0 0 0 0.25 0"/>
<feBlend mode="normal" in2="BackgroundImageFix" result="effect1_dropShadow_1998_5878"/>
<feBlend mode="normal" in="SourceGraphic" in2="effect1_dropShadow_1998_5878" result="shape"/>
</filter>
<filter id="filter1_d_1998_5878" x="0" y="0" width="40.3848" height="58" filterUnits="userSpaceOnUse" color-interpolation-filters="sRGB">
<feFlood flood-opacity="0" result="BackgroundImageFix"/>
<feColorMatrix in="SourceAlpha" type="matrix" values="0 0 0 0 0 0 0 0 0 0 0 0 0 0 0 0 0 0 127 0" result="hardAlpha"/>
<feOffset dy="4"/>
<feGaussianBlur stdDeviation="2"/>
<feComposite in2="hardAlpha" operator="out"/>
<feColorMatrix type="matrix" values="0 0 0 0 0.184062 0 0 0 0 0.201016 0 0 0 0 0.3875 0 0 0 1 0"/>
<feBlend mode="normal" in2="BackgroundImageFix" result="effect1_dropShadow_1998_5878"/>
<feBlend mode="normal" in="SourceGraphic" in2="effect1_dropShadow_1998_5878" result="shape"/>
</filter>
<linearGradient id="paint0_linear_1998_5878" x1="108.825" y1="-5.43461" x2="42.8978" y2="32.0788" gradientUnits="userSpaceOnUse">
<stop stop-color="white"/>
<stop offset="0.902717" stop-color="#8C2D54"/>
</linearGradient>
</defs>
</svg>
