<svg width="117" height="54" viewBox="0 0 117 54" fill="none" xmlns="http://www.w3.org/2000/svg">
<mask id="path-1-outside-1_784_1190" maskUnits="userSpaceOnUse" x="-0.219971" y="0.5" width="117" height="53" fill="black">
<rect fill="white" x="-0.219971" y="0.5" width="117" height="53"/>
<path d="M26.7035 12.4107C26.4187 11.7642 29.4026 11.4946 30.1 11.5175C39.6385 11.8317 37.158 28.8655 32.6287 32.49C29.6648 34.8618 15.4293 34.8352 9.90727 32.3751C8.60098 31.7929 10.2187 23.246 20.8873 15.3941C20.9114 15.3767 20.936 15.3593 20.9623 15.3457C21.0509 15.2994 21.128 15.3266 21.1626 15.4235C22.5234 19.2283 28.9049 17.4103 26.7035 12.4107Z"/>
<path d="M29.9315 35.9062C21.5588 39.5166 16.1019 35.6072 12.924 39.5313C11.3765 41.4418 11.0576 43.6192 11.0655 45.1121C11.0655 45.1584 11.0414 45.2411 11.0209 45.2439C10.9701 45.2504 10.8998 45.2368 10.8641 45.2019C8.76807 43.1285 7.74915 32.73 10.248 33.426C10.8615 33.597 20.8729 36.7678 30.9268 34.1177C31.027 34.0915 31.0768 34.116 31.0794 34.1923C31.0826 34.2936 30.543 35.6426 29.9315 35.9062Z"/>
<path d="M21.3608 13.2337C21.7562 12.1749 22.4836 11.5279 23.5502 11.3302C25.0023 11.0606 26.3836 11.9756 26.7743 13.4384C27.2279 15.136 26.1476 16.8767 24.4763 17.1414C23.1989 17.344 21.9665 16.6452 21.4405 15.4176C21.1353 14.7052 21.118 13.9787 21.3608 13.2337Z"/>
<path d="M46.9246 32.459C44.3104 32.459 42.2367 31.5955 40.7035 29.8686C39.1702 28.1417 38.4035 25.7905 38.4035 22.8149C38.4035 19.8393 39.1702 17.4881 40.7035 15.7611C42.2367 14.0077 44.3104 13.1309 46.9246 13.1309C49.5387 13.1309 51.6124 14.0077 53.1456 15.7611C54.7041 17.4881 55.4832 19.8393 55.4832 22.8149C55.4832 25.7639 54.7041 28.1152 53.1456 29.8686C51.6124 31.5955 49.5387 32.459 46.9246 32.459ZM46.8115 31.5424C47.7415 31.5424 48.5584 31.1837 49.2622 30.4664C49.9911 29.7225 50.5567 28.6996 50.9588 27.3978C51.361 26.096 47.3311 27.6532 47.3311 25.9528C47.3311 24.2525 51.4893 22.1792 51.0273 18.8774C50.6503 17.5224 50.0414 15.9073 49.3376 15.1634C48.6589 14.3929 47.8043 13.4099 46.9246 13.4099C45.9945 13.4099 45.2405 14.3929 44.5115 15.1634C43.7826 15.9073 43.1131 17.4083 42.7109 18.7899C42.2489 22.0577 46.4071 24.3293 46.4071 26.0827C46.4071 28.6598 42.6263 27.6635 43.4558 29.231C44.2853 30.7719 45.4038 31.5424 46.8115 31.5424Z"/>
<path d="M73.7372 30.7454C72.8323 31.8878 71.6509 32.459 70.1931 32.459C69.2882 32.459 67.5915 32.1269 67.0636 31.7018C67.0636 31.7018 66.651 31.7325 66.274 30.6698V29.5498L66.736 26.8962V24.066C66.274 23.1226 65.35 26.8962 64.4259 26.4245C63.5019 25.9528 63.5019 25.0094 63.5019 25.0094V23.9307C63.5019 23.459 64.4259 22.9723 64.2359 22.9743C64.5375 22.9743 64.7512 22.961 64.8768 22.9344C65.8069 22.775 66.5358 22.3234 67.0636 21.5795C67.5915 20.8356 68.5841 20.0463 68.5841 18.8774C68.5841 17.4693 68.2885 15.9274 67.6601 15.1038C67.0317 14.2536 65.455 14.0874 64.4244 14.0874C63.2933 14.0874 61.1918 14.5656 60.8141 15.1634C60.8141 15.1634 59.8057 15.9211 59.8057 18.1921C59.8057 20.4631 59.8057 22.1792 61.6538 25.4811C63.5019 28.783 59.6549 27.6737 59.8057 28.3113C59.9817 28.9224 63.4315 30.6125 63.8588 31.2236L64.1605 31.7018L63.8588 32.1003H57.2983L57.0344 31.383C57.6628 31.197 58.1153 31.0243 58.3918 30.8649C58.6682 30.6789 58.8568 30.4398 58.9573 30.1476C59.0579 29.8553 59.1081 29.4037 59.1081 28.7926V18.1921C59.1081 17.2622 59.0327 16.5582 58.8819 16.08C58.7562 15.5752 58.442 15.1634 57.9393 14.8446L57.4868 14.5656L57.6377 14.0475C58.4169 13.7818 59.4098 13.5693 60.6163 13.4099C61.8479 13.2239 62.9414 13.1309 63.8965 13.1309C66.2844 13.1309 68.1696 13.6357 69.5521 14.6453C70.9346 15.6549 71.6258 17.0364 71.6258 18.7899C71.6258 20.012 71.2488 21.1013 70.4947 22.0577C69.7657 22.9876 68.8232 23.6119 67.6669 23.9307C68.5718 24.3558 69.2002 25.0731 69.5521 26.0827L70.8717 29.9882C71.0728 30.6258 71.4624 30.9446 72.0405 30.9446C72.493 30.9446 74.0024 29.9749 74.48 29.5498L73.7372 30.7454Z"/>
<path d="M73.9708 31.383C74.5992 31.197 75.0516 31.0243 75.3281 30.8649C75.6046 30.6789 75.7931 30.4398 75.8937 30.1476C75.9942 29.8553 76.0445 29.4037 76.0445 28.7926V18.7102C76.0445 17.6475 75.9691 16.8106 75.8183 16.1995C75.6675 15.5885 75.3784 14.9774 74.9511 14.3663L74.6495 13.928L74.9511 13.4896H82.8688C84.2513 13.4896 85.1813 13.3169 85.6589 12.9715L86.1114 12.6129L86.4884 12.9715V17.953L85.7343 18.2319C85.2819 16.7973 84.8294 15.8143 84.377 15.2829C83.9497 14.7516 83.3213 14.4859 82.4918 14.4859H81.2476C80.5941 14.4859 80.1667 14.6187 79.9657 14.8844C79.7646 15.1235 79.664 15.6549 79.664 16.4785V22.4562H82.341C83.3213 22.4562 83.9622 22.0577 84.2639 21.2607L84.4524 20.7027L84.9425 20.9817V25.4451L84.1131 25.7639L83.9623 24.927C83.8617 24.3425 83.6355 23.9573 83.2836 23.7713C82.9317 23.5588 82.2656 23.4525 81.2853 23.4525H79.664V26.8798C79.664 27.9159 79.7394 28.7528 79.8903 29.3904C80.0662 30.0015 80.3678 30.6125 80.7951 31.2236L81.0968 31.7018L80.7951 32.1003H74.2347L73.9708 31.383Z"/>
<path d="M88.0001 38.6887C85.386 38.6887 96.408 35.9062 90.3 29.8686C88.7667 28.1417 88.0001 25.7905 88.0001 22.8149C88.0001 19.8393 88.7667 14.6984 90.3 12.9715C91.8333 11.2181 94.9194 8.5 98.9342 8.5C101.548 8.5 104.937 10.8594 106.47 12.6129C108.028 14.3398 108.78 20.3574 108.78 23.333C108.78 26.282 106.18 34.1528 104.622 35.9062C103.089 37.6331 90.6142 38.6887 88.0001 38.6887ZM96.5965 26.8798C97.5265 26.8798 97.4497 30.586 98.1535 29.8686C98.8825 29.1247 100.153 28.6996 100.555 27.3978C100.958 26.096 101.159 24.5949 101.159 22.8946C101.159 21.1943 100.958 19.6666 100.555 18.3117C100.178 16.9567 99.6379 15.9073 98.9341 15.1634C98.2555 14.3929 97.4762 14.0077 96.5965 14.0077C95.6665 14.0077 94.837 14.3929 94.1081 15.1634C93.3791 15.9073 92.8136 16.97 92.4114 18.3515C92.0092 19.7065 91.8081 21.2607 91.8081 23.0141C91.8081 25.5912 92.2229 27.6635 93.0524 29.231C93.8819 30.7719 95.1889 26.8798 96.5965 26.8798Z"/>
</mask>
<path d="M26.7035 12.4107C26.4187 11.7642 29.4026 11.4946 30.1 11.5175C39.6385 11.8317 37.158 28.8655 32.6287 32.49C29.6648 34.8618 15.4293 34.8352 9.90727 32.3751C8.60098 31.7929 10.2187 23.246 20.8873 15.3941C20.9114 15.3767 20.936 15.3593 20.9623 15.3457C21.0509 15.2994 21.128 15.3266 21.1626 15.4235C22.5234 19.2283 28.9049 17.4103 26.7035 12.4107Z" fill="url(#paint0_radial_784_1190)"/>
<path d="M29.9315 35.9062C21.5588 39.5166 16.1019 35.6072 12.924 39.5313C11.3765 41.4418 11.0576 43.6192 11.0655 45.1121C11.0655 45.1584 11.0414 45.2411 11.0209 45.2439C10.9701 45.2504 10.8998 45.2368 10.8641 45.2019C8.76807 43.1285 7.74915 32.73 10.248 33.426C10.8615 33.597 20.8729 36.7678 30.9268 34.1177C31.027 34.0915 31.0768 34.116 31.0794 34.1923C31.0826 34.2936 30.543 35.6426 29.9315 35.9062Z" fill="url(#paint1_radial_784_1190)"/>
<path d="M21.3608 13.2337C21.7562 12.1749 22.4836 11.5279 23.5502 11.3302C25.0023 11.0606 26.3836 11.9756 26.7743 13.4384C27.2279 15.136 26.1476 16.8767 24.4763 17.1414C23.1989 17.344 21.9665 16.6452 21.4405 15.4176C21.1353 14.7052 21.118 13.9787 21.3608 13.2337Z" fill="#FF6B6B"/>
<path d="M46.9246 32.459C44.3104 32.459 42.2367 31.5955 40.7035 29.8686C39.1702 28.1417 38.4035 25.7905 38.4035 22.8149C38.4035 19.8393 39.1702 17.4881 40.7035 15.7611C42.2367 14.0077 44.3104 13.1309 46.9246 13.1309C49.5387 13.1309 51.6124 14.0077 53.1456 15.7611C54.7041 17.4881 55.4832 19.8393 55.4832 22.8149C55.4832 25.7639 54.7041 28.1152 53.1456 29.8686C51.6124 31.5955 49.5387 32.459 46.9246 32.459ZM46.8115 31.5424C47.7415 31.5424 48.5584 31.1837 49.2622 30.4664C49.9911 29.7225 50.5567 28.6996 50.9588 27.3978C51.361 26.096 47.3311 27.6532 47.3311 25.9528C47.3311 24.2525 51.4893 22.1792 51.0273 18.8774C50.6503 17.5224 50.0414 15.9073 49.3376 15.1634C48.6589 14.3929 47.8043 13.4099 46.9246 13.4099C45.9945 13.4099 45.2405 14.3929 44.5115 15.1634C43.7826 15.9073 43.1131 17.4083 42.7109 18.7899C42.2489 22.0577 46.4071 24.3293 46.4071 26.0827C46.4071 28.6598 42.6263 27.6635 43.4558 29.231C44.2853 30.7719 45.4038 31.5424 46.8115 31.5424Z" fill="url(#paint2_linear_784_1190)"/>
<path d="M73.7372 30.7454C72.8323 31.8878 71.6509 32.459 70.1931 32.459C69.2882 32.459 67.5915 32.1269 67.0636 31.7018C67.0636 31.7018 66.651 31.7325 66.274 30.6698V29.5498L66.736 26.8962V24.066C66.274 23.1226 65.35 26.8962 64.4259 26.4245C63.5019 25.9528 63.5019 25.0094 63.5019 25.0094V23.9307C63.5019 23.459 64.4259 22.9723 64.2359 22.9743C64.5375 22.9743 64.7512 22.961 64.8768 22.9344C65.8069 22.775 66.5358 22.3234 67.0636 21.5795C67.5915 20.8356 68.5841 20.0463 68.5841 18.8774C68.5841 17.4693 68.2885 15.9274 67.6601 15.1038C67.0317 14.2536 65.455 14.0874 64.4244 14.0874C63.2933 14.0874 61.1918 14.5656 60.8141 15.1634C60.8141 15.1634 59.8057 15.9211 59.8057 18.1921C59.8057 20.4631 59.8057 22.1792 61.6538 25.4811C63.5019 28.783 59.6549 27.6737 59.8057 28.3113C59.9817 28.9224 63.4315 30.6125 63.8588 31.2236L64.1605 31.7018L63.8588 32.1003H57.2983L57.0344 31.383C57.6628 31.197 58.1153 31.0243 58.3918 30.8649C58.6682 30.6789 58.8568 30.4398 58.9573 30.1476C59.0579 29.8553 59.1081 29.4037 59.1081 28.7926V18.1921C59.1081 17.2622 59.0327 16.5582 58.8819 16.08C58.7562 15.5752 58.442 15.1634 57.9393 14.8446L57.4868 14.5656L57.6377 14.0475C58.4169 13.7818 59.4098 13.5693 60.6163 13.4099C61.8479 13.2239 62.9414 13.1309 63.8965 13.1309C66.2844 13.1309 68.1696 13.6357 69.5521 14.6453C70.9346 15.6549 71.6258 17.0364 71.6258 18.7899C71.6258 20.012 71.2488 21.1013 70.4947 22.0577C69.7657 22.9876 68.8232 23.6119 67.6669 23.9307C68.5718 24.3558 69.2002 25.0731 69.5521 26.0827L70.8717 29.9882C71.0728 30.6258 71.4624 30.9446 72.0405 30.9446C72.493 30.9446 74.0024 29.9749 74.48 29.5498L73.7372 30.7454Z" fill="url(#paint3_linear_784_1190)"/>
<path d="M73.9708 31.383C74.5992 31.197 75.0516 31.0243 75.3281 30.8649C75.6046 30.6789 75.7931 30.4398 75.8937 30.1476C75.9942 29.8553 76.0445 29.4037 76.0445 28.7926V18.7102C76.0445 17.6475 75.9691 16.8106 75.8183 16.1995C75.6675 15.5885 75.3784 14.9774 74.9511 14.3663L74.6495 13.928L74.9511 13.4896H82.8688C84.2513 13.4896 85.1813 13.3169 85.6589 12.9715L86.1114 12.6129L86.4884 12.9715V17.953L85.7343 18.2319C85.2819 16.7973 84.8294 15.8143 84.377 15.2829C83.9497 14.7516 83.3213 14.4859 82.4918 14.4859H81.2476C80.5941 14.4859 80.1667 14.6187 79.9657 14.8844C79.7646 15.1235 79.664 15.6549 79.664 16.4785V22.4562H82.341C83.3213 22.4562 83.9622 22.0577 84.2639 21.2607L84.4524 20.7027L84.9425 20.9817V25.4451L84.1131 25.7639L83.9623 24.927C83.8617 24.3425 83.6355 23.9573 83.2836 23.7713C82.9317 23.5588 82.2656 23.4525 81.2853 23.4525H79.664V26.8798C79.664 27.9159 79.7394 28.7528 79.8903 29.3904C80.0662 30.0015 80.3678 30.6125 80.7951 31.2236L81.0968 31.7018L80.7951 32.1003H74.2347L73.9708 31.383Z" fill="url(#paint4_linear_784_1190)"/>
<path d="M88.0001 38.6887C85.386 38.6887 96.408 35.9062 90.3 29.8686C88.7667 28.1417 88.0001 25.7905 88.0001 22.8149C88.0001 19.8393 88.7667 14.6984 90.3 12.9715C91.8333 11.2181 94.9194 8.5 98.9342 8.5C101.548 8.5 104.937 10.8594 106.47 12.6129C108.028 14.3398 108.78 20.3574 108.78 23.333C108.78 26.282 106.18 34.1528 104.622 35.9062C103.089 37.6331 90.6142 38.6887 88.0001 38.6887ZM96.5965 26.8798C97.5265 26.8798 97.4497 30.586 98.1535 29.8686C98.8825 29.1247 100.153 28.6996 100.555 27.3978C100.958 26.096 101.159 24.5949 101.159 22.8946C101.159 21.1943 100.958 19.6666 100.555 18.3117C100.178 16.9567 99.6379 15.9073 98.9341 15.1634C98.2555 14.3929 97.4762 14.0077 96.5965 14.0077C95.6665 14.0077 94.837 14.3929 94.1081 15.1634C93.3791 15.9073 92.8136 16.97 92.4114 18.3515C92.0092 19.7065 91.8081 21.2607 91.8081 23.0141C91.8081 25.5912 92.2229 27.6635 93.0524 29.231C93.8819 30.7719 95.1889 26.8798 96.5965 26.8798Z" fill="url(#paint5_linear_784_1190)"/>
<path d="M26.7035 12.4107C26.4187 11.7642 29.4026 11.4946 30.1 11.5175C39.6385 11.8317 37.158 28.8655 32.6287 32.49C29.6648 34.8618 15.4293 34.8352 9.90727 32.3751C8.60098 31.7929 10.2187 23.246 20.8873 15.3941C20.9114 15.3767 20.936 15.3593 20.9623 15.3457C21.0509 15.2994 21.128 15.3266 21.1626 15.4235C22.5234 19.2283 28.9049 17.4103 26.7035 12.4107Z" stroke="black" stroke-width="16" mask="url(#path-1-outside-1_784_1190)"/>
<path d="M29.9315 35.9062C21.5588 39.5166 16.1019 35.6072 12.924 39.5313C11.3765 41.4418 11.0576 43.6192 11.0655 45.1121C11.0655 45.1584 11.0414 45.2411 11.0209 45.2439C10.9701 45.2504 10.8998 45.2368 10.8641 45.2019C8.76807 43.1285 7.74915 32.73 10.248 33.426C10.8615 33.597 20.8729 36.7678 30.9268 34.1177C31.027 34.0915 31.0768 34.116 31.0794 34.1923C31.0826 34.2936 30.543 35.6426 29.9315 35.9062Z" stroke="black" stroke-width="16" mask="url(#path-1-outside-1_784_1190)"/>
<path d="M21.3608 13.2337C21.7562 12.1749 22.4836 11.5279 23.5502 11.3302C25.0023 11.0606 26.3836 11.9756 26.7743 13.4384C27.2279 15.136 26.1476 16.8767 24.4763 17.1414C23.1989 17.344 21.9665 16.6452 21.4405 15.4176C21.1353 14.7052 21.118 13.9787 21.3608 13.2337Z" stroke="black" stroke-width="16" mask="url(#path-1-outside-1_784_1190)"/>
<path d="M46.9246 32.459C44.3104 32.459 42.2367 31.5955 40.7035 29.8686C39.1702 28.1417 38.4035 25.7905 38.4035 22.8149C38.4035 19.8393 39.1702 17.4881 40.7035 15.7611C42.2367 14.0077 44.3104 13.1309 46.9246 13.1309C49.5387 13.1309 51.6124 14.0077 53.1456 15.7611C54.7041 17.4881 55.4832 19.8393 55.4832 22.8149C55.4832 25.7639 54.7041 28.1152 53.1456 29.8686C51.6124 31.5955 49.5387 32.459 46.9246 32.459ZM46.8115 31.5424C47.7415 31.5424 48.5584 31.1837 49.2622 30.4664C49.9911 29.7225 50.5567 28.6996 50.9588 27.3978C51.361 26.096 47.3311 27.6532 47.3311 25.9528C47.3311 24.2525 51.4893 22.1792 51.0273 18.8774C50.6503 17.5224 50.0414 15.9073 49.3376 15.1634C48.6589 14.3929 47.8043 13.4099 46.9246 13.4099C45.9945 13.4099 45.2405 14.3929 44.5115 15.1634C43.7826 15.9073 43.1131 17.4083 42.7109 18.7899C42.2489 22.0577 46.4071 24.3293 46.4071 26.0827C46.4071 28.6598 42.6263 27.6635 43.4558 29.231C44.2853 30.7719 45.4038 31.5424 46.8115 31.5424Z" stroke="black" stroke-width="16" mask="url(#path-1-outside-1_784_1190)"/>
<path d="M73.7372 30.7454C72.8323 31.8878 71.6509 32.459 70.1931 32.459C69.2882 32.459 67.5915 32.1269 67.0636 31.7018C67.0636 31.7018 66.651 31.7325 66.274 30.6698V29.5498L66.736 26.8962V24.066C66.274 23.1226 65.35 26.8962 64.4259 26.4245C63.5019 25.9528 63.5019 25.0094 63.5019 25.0094V23.9307C63.5019 23.459 64.4259 22.9723 64.2359 22.9743C64.5375 22.9743 64.7512 22.961 64.8768 22.9344C65.8069 22.775 66.5358 22.3234 67.0636 21.5795C67.5915 20.8356 68.5841 20.0463 68.5841 18.8774C68.5841 17.4693 68.2885 15.9274 67.6601 15.1038C67.0317 14.2536 65.455 14.0874 64.4244 14.0874C63.2933 14.0874 61.1918 14.5656 60.8141 15.1634C60.8141 15.1634 59.8057 15.9211 59.8057 18.1921C59.8057 20.4631 59.8057 22.1792 61.6538 25.4811C63.5019 28.783 59.6549 27.6737 59.8057 28.3113C59.9817 28.9224 63.4315 30.6125 63.8588 31.2236L64.1605 31.7018L63.8588 32.1003H57.2983L57.0344 31.383C57.6628 31.197 58.1153 31.0243 58.3918 30.8649C58.6682 30.6789 58.8568 30.4398 58.9573 30.1476C59.0579 29.8553 59.1081 29.4037 59.1081 28.7926V18.1921C59.1081 17.2622 59.0327 16.5582 58.8819 16.08C58.7562 15.5752 58.442 15.1634 57.9393 14.8446L57.4868 14.5656L57.6377 14.0475C58.4169 13.7818 59.4098 13.5693 60.6163 13.4099C61.8479 13.2239 62.9414 13.1309 63.8965 13.1309C66.2844 13.1309 68.1696 13.6357 69.5521 14.6453C70.9346 15.6549 71.6258 17.0364 71.6258 18.7899C71.6258 20.012 71.2488 21.1013 70.4947 22.0577C69.7657 22.9876 68.8232 23.6119 67.6669 23.9307C68.5718 24.3558 69.2002 25.0731 69.5521 26.0827L70.8717 29.9882C71.0728 30.6258 71.4624 30.9446 72.0405 30.9446C72.493 30.9446 74.0024 29.9749 74.48 29.5498L73.7372 30.7454Z" stroke="black" stroke-width="16" mask="url(#path-1-outside-1_784_1190)"/>
<path d="M73.9708 31.383C74.5992 31.197 75.0516 31.0243 75.3281 30.8649C75.6046 30.6789 75.7931 30.4398 75.8937 30.1476C75.9942 29.8553 76.0445 29.4037 76.0445 28.7926V18.7102C76.0445 17.6475 75.9691 16.8106 75.8183 16.1995C75.6675 15.5885 75.3784 14.9774 74.9511 14.3663L74.6495 13.928L74.9511 13.4896H82.8688C84.2513 13.4896 85.1813 13.3169 85.6589 12.9715L86.1114 12.6129L86.4884 12.9715V17.953L85.7343 18.2319C85.2819 16.7973 84.8294 15.8143 84.377 15.2829C83.9497 14.7516 83.3213 14.4859 82.4918 14.4859H81.2476C80.5941 14.4859 80.1667 14.6187 79.9657 14.8844C79.7646 15.1235 79.664 15.6549 79.664 16.4785V22.4562H82.341C83.3213 22.4562 83.9622 22.0577 84.2639 21.2607L84.4524 20.7027L84.9425 20.9817V25.4451L84.1131 25.7639L83.9623 24.927C83.8617 24.3425 83.6355 23.9573 83.2836 23.7713C82.9317 23.5588 82.2656 23.4525 81.2853 23.4525H79.664V26.8798C79.664 27.9159 79.7394 28.7528 79.8903 29.3904C80.0662 30.0015 80.3678 30.6125 80.7951 31.2236L81.0968 31.7018L80.7951 32.1003H74.2347L73.9708 31.383Z" stroke="black" stroke-width="16" mask="url(#path-1-outside-1_784_1190)"/>
<path d="M88.0001 38.6887C85.386 38.6887 96.408 35.9062 90.3 29.8686C88.7667 28.1417 88.0001 25.7905 88.0001 22.8149C88.0001 19.8393 88.7667 14.6984 90.3 12.9715C91.8333 11.2181 94.9194 8.5 98.9342 8.5C101.548 8.5 104.937 10.8594 106.47 12.6129C108.028 14.3398 108.78 20.3574 108.78 23.333C108.78 26.282 106.18 34.1528 104.622 35.9062C103.089 37.6331 90.6142 38.6887 88.0001 38.6887ZM96.5965 26.8798C97.5265 26.8798 97.4497 30.586 98.1535 29.8686C98.8825 29.1247 100.153 28.6996 100.555 27.3978C100.958 26.096 101.159 24.5949 101.159 22.8946C101.159 21.1943 100.958 19.6666 100.555 18.3117C100.178 16.9567 99.6379 15.9073 98.9341 15.1634C98.2555 14.3929 97.4762 14.0077 96.5965 14.0077C95.6665 14.0077 94.837 14.3929 94.1081 15.1634C93.3791 15.9073 92.8136 16.97 92.4114 18.3515C92.0092 19.7065 91.8081 21.2607 91.8081 23.0141C91.8081 25.5912 92.2229 27.6635 93.0524 29.231C93.8819 30.7719 95.1889 26.8798 96.5965 26.8798Z" stroke="black" stroke-width="16" mask="url(#path-1-outside-1_784_1190)"/>
<defs>
<radialGradient id="paint0_radial_784_1190" cx="0" cy="0" r="1" gradientUnits="userSpaceOnUse" gradientTransform="translate(75.4885 9.78742) rotate(108.274) scale(34.967 87.7435)">
<stop offset="0.09375" stop-color="#C2738A"/>
<stop offset="0.476831" stop-color="#452D71"/>
<stop offset="1" stop-color="#151D78"/>
</radialGradient>
<radialGradient id="paint1_radial_784_1190" cx="0" cy="0" r="1" gradientUnits="userSpaceOnUse" gradientTransform="translate(14.4946 48.7604) rotate(-32.795) scale(49.0969 87.8677)">
<stop offset="0.09375" stop-color="#E61D56"/>
<stop offset="0.5625" stop-color="#452D71"/>
<stop offset="1" stop-color="#121534"/>
</radialGradient>
<linearGradient id="paint2_linear_784_1190" x1="30.8108" y1="22.6755" x2="104.086" y2="21.0939" gradientUnits="userSpaceOnUse">
<stop stop-color="#FF6692"/>
<stop offset="0.869792" stop-color="#9543BB"/>
</linearGradient>
<linearGradient id="paint3_linear_784_1190" x1="30.8108" y1="22.6755" x2="104.086" y2="21.0939" gradientUnits="userSpaceOnUse">
<stop stop-color="#FF6692"/>
<stop offset="0.869792" stop-color="#9543BB"/>
</linearGradient>
<linearGradient id="paint4_linear_784_1190" x1="30.8108" y1="22.6755" x2="104.086" y2="21.0939" gradientUnits="userSpaceOnUse">
<stop stop-color="#FF6692"/>
<stop offset="0.869792" stop-color="#9543BB"/>
</linearGradient>
<linearGradient id="paint5_linear_784_1190" x1="30.8108" y1="22.6755" x2="104.086" y2="21.0939" gradientUnits="userSpaceOnUse">
<stop stop-color="#FF6692"/>
<stop offset="0.869792" stop-color="#9543BB"/>
</linearGradient>
</defs>
</svg>
