<svg width="43" height="30" viewBox="0 0 43 30" fill="none" xmlns="http://www.w3.org/2000/svg">
<path d="M35.8636 14.4529H31.5939C31.7716 13.3575 31.7716 12.2406 31.5939 11.1452H35.8636C36.0098 11.1452 36.15 11.0872 36.2534 10.9838C36.3568 10.8804 36.4149 10.7402 36.4149 10.5939C36.4149 10.4477 36.3568 10.3075 36.2534 10.2041C36.15 10.1007 36.0098 10.0427 35.8636 10.0427H31.3486C30.7476 7.90113 29.463 6.01481 27.6904 4.67119C25.9178 3.32757 23.7545 2.60034 21.5303 2.60034C19.306 2.60034 17.1427 3.32757 15.3702 4.67119C13.5976 6.01481 12.3129 7.90113 11.7119 10.0427H7.19694C7.05073 10.0427 6.91051 10.1007 6.80713 10.2041C6.70374 10.3075 6.64566 10.4477 6.64566 10.5939C6.64566 10.7402 6.70374 10.8804 6.80713 10.9838C6.91051 11.0872 7.05073 11.1452 7.19694 11.1452H11.4666C11.4075 11.5104 11.3679 11.8784 11.3481 12.2478C11.3266 12.615 11.3266 12.9832 11.3481 13.3504C11.3679 13.7197 11.4075 14.0878 11.4666 14.4529H7.19694C7.05073 14.4529 6.91051 14.511 6.80713 14.6144C6.70374 14.7178 6.64566 14.858 6.64566 15.0042C6.64566 15.1504 6.70374 15.2906 6.80713 15.394C6.91051 15.4974 7.05073 15.5555 7.19694 15.5555H11.7119C12.3129 17.697 13.5976 19.5834 15.3702 20.927C17.1427 22.2706 19.306 22.9978 21.5303 22.9978C23.7545 22.9978 25.9178 22.2706 27.6904 20.927C29.463 19.5834 30.7476 17.697 31.3486 15.5555H35.8636C36.0098 15.5555 36.15 15.4974 36.2534 15.394C36.3568 15.2906 36.4149 15.1504 36.4149 15.0042C36.4149 14.858 36.3568 14.7178 36.2534 14.6144C36.15 14.511 36.0098 14.4529 35.8636 14.4529ZM21.5303 21.8952C19.7312 21.8952 17.9726 21.3618 16.4767 20.3623C14.9809 19.3628 13.815 17.9421 13.1265 16.28C12.4381 14.6179 12.2579 12.789 12.6089 11.0245C12.9599 9.26002 13.8262 7.63924 15.0983 6.36712C16.3704 5.095 17.9912 4.22867 19.7557 3.87769C21.5202 3.52672 23.3491 3.70685 25.0112 4.39532C26.6733 5.08378 28.094 6.24966 29.0935 7.74552C30.093 9.24138 30.6264 11 30.6264 12.7991C30.6241 15.2108 29.665 17.5231 27.9596 19.2284C26.2543 20.9338 23.942 21.8929 21.5303 21.8952Z" fill="white" fill-opacity="0.72"/>
<path d="M39.1711 12.7991C39.1706 12.9452 39.1124 13.0851 39.0091 13.1884C38.9058 13.2917 38.7659 13.3499 38.6198 13.3504H31.7122C31.7319 12.9831 31.7319 12.6151 31.7122 12.2478H38.6198C38.7659 12.2482 38.9058 12.3064 39.0091 12.4097C39.1124 12.513 39.1706 12.653 39.1711 12.7991ZM11.3479 13.3504H4.44029C4.29408 13.3504 4.15386 13.2923 4.05047 13.1889C3.94709 13.0855 3.88901 12.9453 3.88901 12.7991C3.88901 12.6529 3.94709 12.5127 4.05047 12.4093C4.15386 12.3059 4.29408 12.2478 4.44029 12.2478H11.3479C11.3264 12.615 11.3264 12.9832 11.3479 13.3504ZM18.7736 16.6766C18.6274 16.6766 18.4872 16.7347 18.3838 16.8381C18.2804 16.9415 18.2223 17.0817 18.2223 17.2279V18.5875C18.2223 18.7338 18.2804 18.874 18.3838 18.9774C18.4872 19.0807 18.6274 19.1388 18.7736 19.1388C18.9198 19.1388 19.0601 19.0807 19.1634 18.9774C19.2668 18.874 19.3249 18.7338 19.3249 18.5875V17.2279C19.3249 17.0817 19.2668 16.9415 19.1634 16.8381C19.06 16.7347 18.9198 16.6766 18.7736 16.6766ZM24.2864 16.6766C24.1402 16.6766 24 16.7347 23.8966 16.8381C23.7932 16.9415 23.7352 17.0817 23.7352 17.2279V18.5875C23.7352 18.7338 23.7932 18.874 23.8966 18.9774C24 19.0807 24.1402 19.1388 24.2864 19.1388C24.4326 19.1388 24.5729 19.0807 24.6763 18.9774C24.7796 18.874 24.8377 18.7338 24.8377 18.5875V17.2279C24.8377 17.0817 24.7796 16.9415 24.6762 16.8381C24.5729 16.7347 24.4326 16.6766 24.2864 16.6766Z" fill="#3897E3"/>
<path d="M22.4099 0.685519L22.8198 0.146641L22.561 0L22.298 0.603654H22.2892L22.0218 0.00413445L21.7586 0.155186L22.164 0.681385V0.68993L21.5301 0.608064V0.901346L22.1684 0.819481V0.828026L21.7586 1.35395L22.0044 1.50941L22.285 0.901346H22.2933L22.5521 1.505L22.8239 1.34981L22.4099 0.83216V0.823615L23.061 0.901346V0.608064L22.4099 0.694064V0.685519Z" fill="#3897E3"/>
<path d="M8.87393 7.26177L8.63771 7.5647L8.77939 7.65401L8.94091 7.30394H8.94587L9.09472 7.65153L9.25128 7.56222L9.01285 7.26398V7.25901L9.38773 7.30394V7.13498L9.01285 7.18459V7.17963L9.2488 6.86926L9.09996 6.78491L8.94835 7.1325H8.94339L8.78958 6.78712L8.63771 6.87422L8.87145 7.17715V7.18211L8.50623 7.13498V7.30394L8.87393 7.25681V7.26177Z" fill="#3897E3"/>
<path d="M33.6138 3.50532V3.21783L32.9751 3.30245V3.2939L33.3773 2.76522L33.1234 2.62134L32.8654 3.21342H32.8566L32.5945 2.62547L32.3362 2.77377L32.7339 3.28977V3.29831L32.1121 3.21783V3.50532L32.7381 3.42511V3.43365L32.3362 3.94965L32.5774 4.10208L32.8525 3.50532H32.8607L33.1146 4.09767L33.3811 3.94552L32.9751 3.43779V3.42924L33.6138 3.50532Z" fill="#3897E3"/>
<path d="M37.1981 8.26919L37.5449 7.813L37.326 7.68896L37.1033 8.19973H37.0959L36.8699 7.69255L36.6471 7.82045L36.9903 8.26561V8.27277L36.4536 8.20359V8.45166L36.9939 8.3822V8.38965L36.6471 8.83481L36.855 8.96629L37.0926 8.45166H37.0995L37.3186 8.96243L37.5485 8.83122L37.1981 8.39323V8.38579L37.7492 8.45166V8.20359L37.1981 8.27636V8.26919Z" fill="#3897E3"/>
<path d="M1.37821 25.8079H0.551282C0.405073 25.8079 0.264852 25.8659 0.161467 25.9693C0.0580813 26.0727 0 26.2129 0 26.3591C0 26.5054 0.0580813 26.6456 0.161467 26.749C0.264852 26.8523 0.405073 26.9104 0.551282 26.9104H1.37821C1.52441 26.9104 1.66463 26.8523 1.76802 26.749C1.87141 26.6456 1.92949 26.5054 1.92949 26.3591C1.92949 26.2129 1.87141 26.0727 1.76802 25.9693C1.66463 25.8659 1.52441 25.8079 1.37821 25.8079ZM42.4487 25.8079H41.6218C41.4756 25.8079 41.3354 25.8659 41.232 25.9693C41.1286 26.0727 41.0705 26.2129 41.0705 26.3591C41.0705 26.5054 41.1286 26.6456 41.232 26.749C41.3354 26.8523 41.4756 26.9104 41.6218 26.9104H42.4487C42.5949 26.9104 42.7351 26.8523 42.8385 26.749C42.9419 26.6456 43 26.5054 43 26.3591C43 26.2129 42.9419 26.0727 42.8385 25.9693C42.7351 25.8659 42.5949 25.8079 42.4487 25.8079Z" fill="white" fill-opacity="0.72"/>
<path d="M30.9144 26.9539H28.6245C28.4859 26.965 28.3565 27.0279 28.2622 27.13C28.1679 27.2322 28.1156 27.3661 28.1156 27.5051C28.1156 27.6442 28.1679 27.7781 28.2622 27.8803C28.3565 27.9824 28.4859 28.0453 28.6245 28.0564H30.9144C31.053 28.0453 31.1823 27.9824 31.2766 27.8803C31.3709 27.7781 31.4233 27.6442 31.4233 27.5051C31.4233 27.3661 31.3709 27.2322 31.2766 27.13C31.1823 27.0279 31.053 26.965 30.9144 26.9539ZM14.3759 26.9539H12.086C11.9474 26.965 11.8181 27.0279 11.7238 27.13C11.6295 27.2322 11.5771 27.3661 11.5771 27.5051C11.5771 27.6442 11.6295 27.7781 11.7238 27.8803C11.8181 27.9824 11.9474 28.0453 12.086 28.0564H14.3759C14.5145 28.0453 14.6439 27.9824 14.7382 27.8803C14.8325 27.7781 14.8848 27.6442 14.8848 27.5051C14.8848 27.3661 14.8325 27.2322 14.7382 27.13C14.6439 27.0279 14.5145 26.965 14.3759 26.9539ZM27.013 26.9539H15.9874C15.8412 26.9539 15.701 27.0119 15.5976 27.1153C15.4942 27.2187 15.4361 27.3589 15.4361 27.5051C15.4361 27.6513 15.4942 27.7916 15.5976 27.895C15.701 27.9983 15.8412 28.0564 15.9874 28.0564H20.3811V28.6077H18.1925C18.0463 28.6077 17.9061 28.6658 17.8027 28.7692C17.6993 28.8726 17.6412 29.0128 17.6412 29.159C17.6412 29.3052 17.6993 29.4454 17.8027 29.5488C17.9061 29.6522 18.0463 29.7103 18.1925 29.7103H25.0835C25.2297 29.7103 25.37 29.6522 25.4734 29.5488C25.5767 29.4454 25.6348 29.3052 25.6348 29.159C25.6348 29.0128 25.5767 28.8726 25.4734 28.7692C25.37 28.6658 25.2297 28.6077 25.0835 28.6077H22.6193V28.0564H27.013C27.1592 28.0564 27.2995 27.9983 27.4028 27.895C27.5062 27.7916 27.5643 27.6513 27.5643 27.5051C27.5643 27.3589 27.5062 27.2187 27.4028 27.1153C27.2995 27.0119 27.1592 26.9539 27.013 26.9539Z" fill="#3897E3"/>
<path d="M39.8911 25.8057H33.4393C33.58 25.512 33.6439 25.1873 33.6249 24.8621C33.6059 24.5369 33.5047 24.2219 33.3308 23.9465C33.1568 23.6711 32.9159 23.4443 32.6304 23.2874C32.345 23.1305 32.0244 23.0486 31.6987 23.0493H11.3012C10.9755 23.0486 10.6549 23.1305 10.3694 23.2874C10.084 23.4443 9.84302 23.6711 9.6691 23.9465C9.49517 24.2219 9.39398 24.5369 9.375 24.8621C9.35601 25.1873 9.41985 25.512 9.56054 25.8057H3.1088C3.03038 25.7955 2.95067 25.8021 2.87499 25.8251C2.79932 25.8481 2.72943 25.887 2.66999 25.9392C2.61055 25.9914 2.56293 26.0556 2.53031 26.1277C2.49768 26.1997 2.4808 26.2779 2.4808 26.357C2.4808 26.4361 2.49768 26.5143 2.53031 26.5863C2.56293 26.6584 2.61055 26.7227 2.66999 26.7748C2.72943 26.827 2.79932 26.8659 2.87499 26.8889C2.95067 26.9119 3.03038 26.9185 3.1088 26.9083H39.8911C39.9695 26.9185 40.0492 26.9119 40.1249 26.8889C40.2005 26.8659 40.2704 26.827 40.3299 26.7748C40.3893 26.7227 40.4369 26.6584 40.4696 26.5863C40.5022 26.5143 40.5191 26.4361 40.5191 26.357C40.5191 26.2779 40.5022 26.1997 40.4696 26.1277C40.4369 26.0556 40.3893 25.9914 40.3299 25.9392C40.2704 25.887 40.2005 25.8481 40.1249 25.8251C40.0492 25.8021 39.9695 25.7955 39.8911 25.8057ZM11.3012 25.8057C11.0819 25.8057 10.8716 25.7186 10.7165 25.5635C10.5614 25.4085 10.4743 25.1981 10.4743 24.9788C10.4743 24.7595 10.5614 24.5492 10.7165 24.3941C10.8716 24.239 11.0819 24.1519 11.3012 24.1519H31.6987C31.918 24.1519 32.1283 24.239 32.2834 24.3941C32.4385 24.5492 32.5256 24.7595 32.5256 24.9788C32.5256 25.1981 32.4385 25.4085 32.2834 25.5635C32.1283 25.7186 31.918 25.8057 31.6987 25.8057H11.3012Z" fill="white" fill-opacity="0.72"/>
<path d="M24.2758 8.55994L24.2754 8.5578C24.0704 7.33655 23.7122 6.5816 23.1481 6.18453C22.5205 5.74308 21.8258 5.86986 21.2674 5.97107C21.0715 6.0134 20.8723 6.0392 20.672 6.04819C20.2129 6.04703 19.7724 5.86666 19.4443 5.5455C19.3806 5.47339 19.2991 5.4192 19.208 5.38831C19.1169 5.35743 19.0193 5.35092 18.9249 5.36944C18.8305 5.38796 18.7426 5.43087 18.6699 5.49389C18.5972 5.55691 18.5423 5.63785 18.5106 5.72868C17.8929 7.49861 18.4079 8.45406 18.7766 8.87199C18.776 8.89562 18.7736 8.91854 18.7736 8.94243V9.76935C18.7736 10.5004 19.064 11.2015 19.5809 11.7184C20.0979 12.2354 20.799 12.5258 21.53 12.5258C22.261 12.5258 22.9622 12.2354 23.4791 11.7184C23.996 11.2015 24.2864 10.5004 24.2864 9.76935V8.66679C24.2864 8.64814 24.2768 8.56574 24.2758 8.55994ZM19.3601 6.82707C19.7648 7.03942 20.215 7.15049 20.672 7.15076C20.9386 7.14311 21.204 7.11135 21.4649 7.05587C21.962 6.96556 22.2806 6.92249 22.5135 7.08629C22.6747 7.19975 22.8837 7.47243 23.0557 8.1155H19.5701C19.4475 7.96153 19.2408 7.57782 19.3601 6.82707ZM21.53 11.4232C21.0915 11.4227 20.6711 11.2483 20.3611 10.9383C20.051 10.6282 19.8766 10.2078 19.8762 9.76935V9.21807H23.1838V9.76935C23.1834 10.2078 23.009 10.6282 22.6989 10.9383C22.3889 11.2483 21.9685 11.4227 21.53 11.4232Z" fill="#3897E3"/>
<path d="M25.7994 13.678L23.4595 12.6887V11.7317C23.1495 12.0369 22.7716 12.2645 22.3569 12.3958L22.357 13.5139L21.53 14.2609L20.7031 13.5139V12.3958C20.2883 12.2645 19.9106 12.0369 19.6005 11.7317V12.689L17.2373 13.6886C16.8757 13.8542 16.5688 14.1195 16.3527 14.4534C16.1366 14.7873 16.0202 15.1759 16.0172 15.5736V18.587C16.0172 18.7332 16.0753 18.8735 16.1787 18.9769C16.2821 19.0802 16.4223 19.1383 16.5685 19.1383C16.7147 19.1383 16.8549 19.0802 16.9583 18.9769C17.0617 18.8735 17.1198 18.7332 17.1198 18.587V15.5736C17.1227 15.3882 17.1777 15.2073 17.2786 15.0517C17.3794 14.8961 17.522 14.772 17.69 14.6936L19.6146 13.8798C19.6394 13.9909 19.698 14.0916 19.7824 14.168L21.1606 15.4129C21.2619 15.5043 21.3935 15.555 21.53 15.555C21.6665 15.555 21.7982 15.5043 21.8995 15.4129L23.2777 14.168C23.361 14.0924 23.4192 13.993 23.4443 13.8833L25.3466 14.683C25.5199 14.7597 25.6678 14.8842 25.773 15.0419C25.8781 15.1996 25.9361 15.384 25.9403 15.5736V18.587C25.9403 18.7332 25.9984 18.8735 26.1018 18.9769C26.2051 19.0802 26.3454 19.1383 26.4916 19.1383C26.6378 19.1383 26.778 19.0802 26.8814 18.9769C26.9848 18.8735 27.0428 18.7332 27.0428 18.587V15.5736C27.0387 15.1717 26.9193 14.7796 26.6989 14.4436C26.4784 14.1076 26.1663 13.8419 25.7994 13.678Z" fill="white" fill-opacity="0.72"/>
</svg>
