<svg width="41" height="26" viewBox="0 0 41 26" fill="none" xmlns="http://www.w3.org/2000/svg">
<path d="M39.0845 10.635C37.0986 5.47093 33.6007 1.90098 28.6807 0.0449046C28.6231 0.0224521 28.5654 0.00748434 28.5013 0.00748434C28.4885 1.71466e-07 28.4821 0 28.4757 0H6.38048C6.03454 0 5.75907 0.329304 5.75907 0.725965C5.75907 1.13011 6.03454 1.45193 6.38048 1.45193H27.8479L27.7774 9.25043C27.7774 9.36269 27.8031 9.48244 27.8479 9.57974C28.2899 10.62 29.0074 11.81 30.5642 11.81C30.6026 11.81 30.6474 11.81 30.6923 11.8025H38.335C39.2319 12.7755 39.6931 13.8008 39.7572 14.9683V19.4963C39.5586 20.7012 38.9308 21.0679 37.31 20.8883C37.0345 18.7404 35.4522 17.0864 33.5431 17.0864C31.6468 17.0864 30.0773 18.7029 29.7826 20.821H18.5972C18.3026 18.7029 16.733 17.0864 14.8432 17.0864C12.9149 17.0864 11.3261 18.7628 11.0699 20.9332C8.7508 21.3598 8.37283 20.2821 8.25111 19.7582V16.9666H9.71174C10.0513 16.9666 10.3331 16.6448 10.3331 16.2406C10.3331 15.844 10.0513 15.5147 9.71174 15.5147H2.5175C2.17156 15.5147 1.89609 15.844 1.89609 16.2406C1.89609 16.6448 2.17156 16.9666 2.5175 16.9666H7.00829V19.8555C7.00829 19.9154 7.0147 19.9752 7.02751 20.0351C7.29017 21.2176 8.05252 22.475 10.1089 22.475C10.41 22.475 10.7432 22.4375 11.0955 22.3851C11.435 24.4358 12.9853 26 14.8432 26C16.733 26 18.3026 24.3834 18.5972 22.2729H29.7826C30.0773 24.3834 31.6468 26 33.5431 26C35.4073 26 36.964 24.4208 37.2908 22.3477C37.4958 22.3702 37.72 22.3851 37.9506 22.3851C39.187 22.3851 40.654 21.9511 40.9872 19.6834C40.9936 19.6385 41 19.601 41 19.5561V14.9234C40.9103 13.2919 40.2825 11.8923 39.0845 10.635ZM30.6667 10.3506C29.8274 10.3955 29.4046 9.91652 29.0267 9.08578L29.0907 1.74381C32.9729 3.42775 35.8301 6.31664 37.5983 10.3506H30.6667ZM14.8432 24.5481C13.421 24.5481 12.2678 23.2009 12.2678 21.5469C12.2678 19.8854 13.421 18.5383 14.8432 18.5383C16.259 18.5383 17.4121 19.8854 17.4121 21.5469C17.4121 23.2009 16.259 24.5481 14.8432 24.5481ZM33.5431 24.5481C32.1209 24.5481 30.9678 23.2009 30.9678 21.5469C30.9678 19.8854 32.1209 18.5383 33.5431 18.5383C34.9589 18.5383 36.112 19.8854 36.112 21.5469C36.112 23.2009 34.9589 24.5481 33.5431 24.5481Z" fill="#B3B3B3"/>
<path d="M17.4125 21.5475C17.4125 23.2015 16.2594 24.5486 14.8436 24.5486C13.4214 24.5486 12.2683 23.2015 12.2683 21.5475C12.2683 19.886 13.4214 18.5388 14.8436 18.5388C16.2594 18.5388 17.4125 19.886 17.4125 21.5475ZM36.1124 21.5475C36.1124 23.2015 34.9593 24.5486 33.5435 24.5486C32.1213 24.5486 30.9682 23.2015 30.9682 21.5475C30.9682 19.886 32.1213 18.5388 33.5435 18.5388C34.9593 18.5388 36.1124 19.886 36.1124 21.5475Z" fill="#3897E3"/>
<path d="M37.5986 10.3514H30.667C29.8278 10.3963 29.405 9.91734 29.027 9.0866L29.0911 1.74463C32.9733 3.42857 35.8305 6.31746 37.5986 10.3514Z" fill="#3897E3"/>
<path d="M24.4527 8.89986L19.3405 3.75824C19.1098 3.52623 18.7639 3.52623 18.5333 3.75824L13.4211 8.89986C13.1584 9.16181 13.1328 9.61834 13.357 9.91771C13.5812 10.2246 13.972 10.2545 14.2282 10L14.5422 9.6857V14.4456C14.5422 14.8498 14.8176 15.1716 15.1636 15.1716H22.7102C23.0497 15.1716 23.3316 14.8498 23.3316 14.4456V9.6857L23.6391 10C23.7608 10.1123 23.9017 10.1722 24.0491 10.1722C24.222 10.1722 24.395 10.0898 24.5167 9.91771C24.7409 9.61834 24.7089 9.16181 24.4527 8.89986ZM19.6287 13.7197H18.245V11.6989H19.6287V13.7197ZM22.0887 13.7197H20.8716V10.973C20.8716 10.5688 20.5897 10.247 20.2501 10.247H17.6236C17.2776 10.247 17.0022 10.5688 17.0022 10.973V13.7197H15.785V8.43584L18.9369 5.27004L22.0887 8.43584V13.7197Z" fill="#B3B3B3"/>
<path d="M19.6287 11.6982H18.2449V13.719H19.6287V11.6982Z" fill="#3897E3"/>
<path d="M22.0887 8.43387V13.7177H20.8715V10.971C20.8715 10.5669 20.5896 10.245 20.2501 10.245H17.6235C17.2776 10.245 17.0021 10.5669 17.0021 10.971V13.7177H15.7849V8.43387L18.9368 5.26807L22.0887 8.43387Z" fill="#EA9E32"/>
<path d="M2.4536 5.36575H8.07832C8.42426 5.36575 8.69973 5.04393 8.69973 4.63978C8.69973 4.23564 8.42426 3.91382 8.07832 3.91382H2.4536C2.10767 3.91382 1.8322 4.23564 1.8322 4.63978C1.8322 5.04393 2.10767 5.36575 2.4536 5.36575ZM4.09361 8.56897C4.09361 8.97312 4.36908 9.29494 4.71502 9.29494H10.3397C10.6857 9.29494 10.9611 8.97312 10.9611 8.56897C10.9611 8.16483 10.6857 7.84301 10.3397 7.84301H4.71502C4.36908 7.85049 4.09361 8.17231 4.09361 8.56897ZM6.86753 12.5206C6.86753 12.1165 6.59206 11.7946 6.24612 11.7946H0.621409C0.27547 11.7946 0 12.124 0 12.5206C0 12.9248 0.27547 13.2466 0.621409 13.2466H6.24612C6.59206 13.2466 6.86753 12.9248 6.86753 12.5206Z" fill="#B3B3B3"/>
</svg>
