<svg width="16" height="16" viewBox="0 0 16 16" fill="none" xmlns="http://www.w3.org/2000/svg">
<path d="M12.3221 11.178C11.4109 11.3968 10.4596 11.3862 9.55347 11.1472C8.64735 10.9081 7.81466 10.4481 7.12997 9.80825C6.44528 9.16841 5.92996 8.36875 5.63015 7.48088C5.33035 6.593 5.25542 5.64464 5.41208 4.7207C5.38825 4.74371 5.3631 4.76531 5.33674 4.78537C5.15008 4.92737 4.91674 4.98004 4.45008 5.08537L4.02674 5.18137C2.38674 5.5527 1.56674 5.73804 1.37141 6.36537C1.17674 6.99204 1.73541 7.64604 2.85341 8.95337L3.14274 9.29137C3.46008 9.6627 3.61941 9.8487 3.69074 10.078C3.76208 10.308 3.73808 10.556 3.69008 11.0514L3.64608 11.5027C3.47741 13.2474 3.39274 14.1194 3.90341 14.5067C4.41408 14.8947 5.18208 14.5414 6.71674 13.834L7.11474 13.6514C7.55074 13.45 7.76874 13.35 8.00008 13.35C8.23141 13.35 8.44941 13.45 8.88608 13.6514L9.28274 13.834C10.8181 14.5407 11.5861 14.894 12.0961 14.5074C12.6074 14.1194 12.5227 13.2474 12.3541 11.5027L12.3221 11.178Z" fill="white"/>
<path opacity="0.5" d="M6.10204 3.6055L5.88338 3.9975C5.64338 4.42816 5.52338 4.6435 5.33671 4.7855C5.36338 4.7655 5.38804 4.74416 5.41204 4.72083C5.25535 5.64483 5.33027 6.59328 5.63011 7.48122C5.92995 8.36916 6.44533 9.16887 7.13011 9.80873C7.81489 10.4486 8.64768 10.9086 9.55389 11.1476C10.4601 11.3866 11.4114 11.3971 12.3227 11.1782L12.3094 11.0515C12.262 10.5562 12.238 10.3082 12.3094 10.0782C12.3807 9.84883 12.5394 9.66283 12.8574 9.2915L13.1467 8.9535C14.2647 7.64683 14.8234 6.99283 14.628 6.3655C14.4334 5.73816 13.6134 5.55216 11.9734 5.1815L11.5494 5.0855C11.0834 4.98016 10.85 4.9275 10.6627 4.7855C10.476 4.6435 10.356 4.42816 10.116 3.9975L9.89804 3.6055C9.05338 2.09083 8.63138 1.3335 8.00004 1.3335C7.36871 1.3335 6.94671 2.09083 6.10204 3.6055Z" fill="white"/>
</svg>
