<svg width="12" height="14" viewBox="0 0 12 14" fill="none" xmlns="http://www.w3.org/2000/svg">
<path d="M6.502 5.65179e-08C7.274 5.65179e-08 7.90933 0.583333 7.99133 1.33333H9.16667C9.54675 1.33329 9.91268 1.47753 10.1905 1.73691C10.4683 1.9963 10.6373 2.35147 10.6633 2.73067L10.6667 2.83333C10.6665 2.95394 10.6228 3.07044 10.5435 3.16134C10.4643 3.25225 10.3548 3.31144 10.2353 3.328L10.166 3.33333C10.0454 3.33319 9.9289 3.28945 9.83799 3.21019C9.74709 3.13092 9.6879 3.02147 9.67133 2.902L9.66667 2.83333C9.66666 2.71251 9.62291 2.59577 9.54349 2.50471C9.46407 2.41365 9.35437 2.35443 9.23467 2.338L9.16667 2.33333H7.74533C7.60838 2.53728 7.4233 2.70437 7.20646 2.81982C6.98961 2.93528 6.74767 2.99556 6.502 2.99533H4.16467C3.91906 2.99563 3.67716 2.93546 3.46032 2.82012C3.24347 2.70478 3.05837 2.53783 2.92133 2.334L1.5 2.33333C1.37917 2.33334 1.26244 2.3771 1.17138 2.45651C1.08032 2.53593 1.0211 2.64563 1.00467 2.76533L1 2.83333V11.8367C1 12.09 1.188 12.2987 1.432 12.332L1.5 12.3367H3.5C3.62073 12.3366 3.73738 12.3803 3.82842 12.4596C3.91947 12.5389 3.97875 12.6484 3.99533 12.768L4 12.836C4 12.9686 3.94732 13.0958 3.85355 13.1896C3.75979 13.2833 3.63261 13.336 3.5 13.336H1.5C1.12002 13.3361 0.754184 13.1919 0.47638 12.9327C0.198575 12.6734 0.0295096 12.3184 0.00333342 11.9393L1.13325e-08 11.8367V2.83333C-4.66812e-05 2.45325 0.144197 2.08732 0.40358 1.8095C0.662962 1.53168 1.01814 1.36268 1.39733 1.33667L1.5 1.33333H2.67533C2.71588 0.966715 2.89026 0.627945 3.16508 0.381916C3.43989 0.135887 3.79581 -0.000101211 4.16467 5.65179e-08H6.502ZM10.5 4C10.8801 3.99995 11.246 4.1442 11.5238 4.40358C11.8017 4.66296 11.9707 5.01814 11.9967 5.39733L12 5.5V11.8333C12 12.2134 11.8558 12.5793 11.5964 12.8572C11.337 13.135 10.9819 13.304 10.6027 13.33L10.5 13.3333H6.16667C5.78658 13.3334 5.42065 13.1891 5.14283 12.9298C4.86501 12.6704 4.69601 12.3152 4.67 11.936L4.66667 11.8333V5.5C4.66662 5.11992 4.81086 4.75399 5.07025 4.47616C5.32963 4.19834 5.68481 4.02935 6.064 4.00333L6.16667 4H10.5ZM6.502 1H4.16467C4.03583 1.00472 3.91384 1.05921 3.82436 1.15203C3.73488 1.24484 3.68488 1.36874 3.68488 1.49767C3.68488 1.62659 3.73488 1.75049 3.82436 1.8433C3.91384 1.93612 4.03583 1.99062 4.16467 1.99533H6.502C6.56889 1.99778 6.63558 1.98672 6.6981 1.96281C6.76061 1.93891 6.81767 1.90264 6.86586 1.85619C6.91404 1.80973 6.95237 1.75404 6.97855 1.69244C7.00473 1.63084 7.01822 1.5646 7.01822 1.49767C7.01822 1.43073 7.00473 1.36449 6.97855 1.30289C6.95237 1.24129 6.91404 1.1856 6.86586 1.13914C6.81767 1.09269 6.76061 1.05643 6.6981 1.03252C6.63558 1.00861 6.56889 0.997552 6.502 1Z" fill="black"/>
</svg>
