<svg width="86" height="85" viewBox="0 0 86 85" fill="none" xmlns="http://www.w3.org/2000/svg">
<g filter="url(#filter0_d_222_1145)">
<ellipse cx="39" cy="35" rx="35.5" ry="34" fill="url(#paint0_linear_222_1145)" shape-rendering="crispEdges"/>
<ellipse cx="39" cy="35" rx="35.5" ry="34" stroke="white" stroke-opacity="0.22" shape-rendering="crispEdges"/>
</g>
<g filter="url(#filter1_d_222_1145)">
<g filter="url(#filter2_d_222_1145)">
<path d="M48.7389 17.9032C48.4459 17.8132 48.1438 17.7315 47.8326 17.6592C47.5214 17.587 47.1998 17.523 46.8705 17.4671C45.7165 17.2709 44.4562 17.1782 43.1025 17.1782H31.683C31.4016 17.1782 31.1345 17.245 30.8959 17.3663C30.3682 17.632 29.9779 18.1552 29.882 18.797L27.4547 34.9703L27.3846 35.4418C27.5441 34.3776 28.4103 33.5927 29.4359 33.5927H33.7109C42.1067 33.5927 48.6806 30.0089 50.6009 19.6419C50.658 19.3353 50.7059 19.0382 50.75 18.7453C50.2638 18.4755 49.7374 18.2425 49.1707 18.0449C49.0294 17.9958 48.8855 17.9481 48.7389 17.9032Z" fill="url(#paint1_linear_222_1145)"/>
<path d="M46.7867 17.96L46.7869 17.9601C47.1071 18.0144 47.4188 18.0765 47.7196 18.1463L47.8326 17.6592L47.7196 18.1463C48.0192 18.2158 48.3101 18.2946 48.5922 18.3811C48.7317 18.4239 48.8697 18.4696 49.0064 18.5171C49.4302 18.6649 49.8283 18.8326 50.2011 19.0205C50.1729 19.1952 50.1427 19.3713 50.1094 19.5504L50.1093 19.5508C49.1665 24.6403 47.0953 28.0042 44.2849 30.1044C41.4666 32.2105 37.8425 33.0927 33.7109 33.0927H29.4359C28.9837 33.0927 28.5601 33.2133 28.1922 33.4252L30.3764 18.8713L30.3765 18.871C30.4488 18.3874 30.7403 18.0044 31.1208 17.8129L31.1208 17.8129L31.1225 17.812C31.2921 17.7258 31.4818 17.6782 31.683 17.6782H43.1025C44.434 17.6782 45.6657 17.7694 46.7867 17.96Z" stroke="#C5C5C5" stroke-opacity="0.1"/>
</g>
<path d="M38.9231 21.155C38.9231 24.0021 36.663 26.3101 33.875 26.3101C32.4345 26.3101 31.1349 25.6939 30.2151 24.7056C29.3548 23.7811 28.8269 22.531 28.8269 21.155C28.8269 18.308 31.087 16 33.875 16C36.663 16 38.9231 18.308 38.9231 21.155Z" fill="#191C3E"/>
<g filter="url(#filter3_d_222_1145)">
<path d="M50.4615 19.5325C48.5583 29.7221 42.043 33.2463 33.7222 33.2463H29.4853C28.4688 33.2463 27.6104 34.0178 27.4523 35.064L24.6675 53.466C24.5635 54.1518 24.5914 53.8223 24.6675 53.8223L36.5262 43.4292L36.6174 42.9121C36.7562 41.9972 37.5131 41.3221 38.4024 41.3221H39.5268C46.8055 41.3221 52.5048 38.2399 54.1702 29.3256C54.8655 25.6004 54.5056 22.4901 52.6667 20.3054C52.109 19.6437 51.4163 19.0972 50.6093 18.6511C50.5656 18.9391 50.5181 19.2311 50.4615 19.5325Z" fill="url(#paint2_linear_222_1145)"/>
<path d="M50.9822 19.4656C51.4804 19.8043 51.9157 20.1903 52.2842 20.6274L50.9822 19.4656ZM50.9822 19.4656C50.9727 19.5182 50.963 19.5711 50.953 19.6243C49.9837 24.8141 47.8259 28.3664 44.7962 30.6122C41.7749 32.8518 37.9481 33.7463 33.7222 33.7463H29.4853C28.7334 33.7463 28.0705 34.3196 27.9467 35.1387L27.9467 35.1388L25.3044 52.5992L36.0644 43.1691L36.1241 42.8308C36.3001 41.6902 37.2526 40.8221 38.4024 40.8221H39.5268C43.1007 40.8221 46.2274 40.065 48.6558 38.2651C51.0757 36.4713 52.8637 33.596 53.6787 29.2339C54.3622 25.5716 53.9824 22.6451 52.2844 20.6276L50.9822 19.4656Z" stroke="white" stroke-opacity="0.1"/>
</g>
<g filter="url(#filter4_i_222_1145)">
<ellipse cx="33.7308" cy="21.1551" rx="3.60577" ry="3.68217" fill="url(#paint3_linear_222_1145)"/>
</g>
<path d="M36.8365 21.1551C36.8365 22.9225 35.4362 24.3372 33.7308 24.3372C32.0253 24.3372 30.625 22.9225 30.625 21.1551C30.625 19.3877 32.0253 17.9729 33.7308 17.9729C35.4362 17.9729 36.8365 19.3877 36.8365 21.1551Z" stroke="black" stroke-opacity="0.17"/>
</g>
<defs>
<filter id="filter0_d_222_1145" x="0" y="0.5" width="86" height="84" filterUnits="userSpaceOnUse" color-interpolation-filters="sRGB">
<feFlood flood-opacity="0" result="BackgroundImageFix"/>
<feColorMatrix in="SourceAlpha" type="matrix" values="0 0 0 0 0 0 0 0 0 0 0 0 0 0 0 0 0 0 127 0" result="hardAlpha"/>
<feMorphology radius="2" operator="dilate" in="SourceAlpha" result="effect1_dropShadow_222_1145"/>
<feOffset dx="4" dy="8"/>
<feGaussianBlur stdDeviation="2.5"/>
<feComposite in2="hardAlpha" operator="out"/>
<feColorMatrix type="matrix" values="0 0 0 0 0 0 0 0 0 0 0 0 0 0 0 0 0 0 0.25 0"/>
<feBlend mode="normal" in2="BackgroundImageFix" result="effect1_dropShadow_222_1145"/>
<feBlend mode="normal" in="SourceGraphic" in2="effect1_dropShadow_222_1145" result="shape"/>
</filter>
<filter id="filter1_d_222_1145" x="18.5995" y="16" width="41.9005" height="53.9014" filterUnits="userSpaceOnUse" color-interpolation-filters="sRGB">
<feFlood flood-opacity="0" result="BackgroundImageFix"/>
<feColorMatrix in="SourceAlpha" type="matrix" values="0 0 0 0 0 0 0 0 0 0 0 0 0 0 0 0 0 0 127 0" result="hardAlpha"/>
<feOffset dy="10"/>
<feGaussianBlur stdDeviation="3"/>
<feComposite in2="hardAlpha" operator="out"/>
<feColorMatrix type="matrix" values="0 0 0 0 0 0 0 0 0 0 0 0 0 0 0 0 0 0 0.27 0"/>
<feBlend mode="normal" in2="BackgroundImageFix" result="effect1_dropShadow_222_1145"/>
<feBlend mode="normal" in="SourceGraphic" in2="effect1_dropShadow_222_1145" result="shape"/>
</filter>
<filter id="filter2_d_222_1145" x="26.3846" y="15.1782" width="27.3654" height="22.2637" filterUnits="userSpaceOnUse" color-interpolation-filters="sRGB">
<feFlood flood-opacity="0" result="BackgroundImageFix"/>
<feColorMatrix in="SourceAlpha" type="matrix" values="0 0 0 0 0 0 0 0 0 0 0 0 0 0 0 0 0 0 127 0" result="hardAlpha"/>
<feOffset dx="1"/>
<feGaussianBlur stdDeviation="1"/>
<feComposite in2="hardAlpha" operator="out"/>
<feColorMatrix type="matrix" values="0 0 0 0 0 0 0 0 0 0 0 0 0 0 0 0 0 0 0.33 0"/>
<feBlend mode="normal" in2="BackgroundImageFix" result="effect1_dropShadow_222_1145"/>
<feBlend mode="normal" in="SourceGraphic" in2="effect1_dropShadow_222_1145" result="shape"/>
</filter>
<filter id="filter3_d_222_1145" x="23.5995" y="17.6511" width="33.9005" height="39.2502" filterUnits="userSpaceOnUse" color-interpolation-filters="sRGB">
<feFlood flood-opacity="0" result="BackgroundImageFix"/>
<feColorMatrix in="SourceAlpha" type="matrix" values="0 0 0 0 0 0 0 0 0 0 0 0 0 0 0 0 0 0 127 0" result="hardAlpha"/>
<feOffset dx="1" dy="1"/>
<feGaussianBlur stdDeviation="1"/>
<feComposite in2="hardAlpha" operator="out"/>
<feColorMatrix type="matrix" values="0 0 0 0 0.3 0 0 0 0 0.3 0 0 0 0 0.3 0 0 0 0.22 0"/>
<feBlend mode="normal" in2="BackgroundImageFix" result="effect1_dropShadow_222_1145"/>
<feBlend mode="normal" in="SourceGraphic" in2="effect1_dropShadow_222_1145" result="shape"/>
</filter>
<filter id="filter4_i_222_1145" x="30.125" y="17.4729" width="7.21155" height="11.3643" filterUnits="userSpaceOnUse" color-interpolation-filters="sRGB">
<feFlood flood-opacity="0" result="BackgroundImageFix"/>
<feBlend mode="normal" in="SourceGraphic" in2="BackgroundImageFix" result="shape"/>
<feColorMatrix in="SourceAlpha" type="matrix" values="0 0 0 0 0 0 0 0 0 0 0 0 0 0 0 0 0 0 127 0" result="hardAlpha"/>
<feOffset dy="4"/>
<feGaussianBlur stdDeviation="2"/>
<feComposite in2="hardAlpha" operator="arithmetic" k2="-1" k3="1"/>
<feColorMatrix type="matrix" values="0 0 0 0 0 0 0 0 0 0 0 0 0 0 0 0 0 0 0.25 0"/>
<feBlend mode="normal" in2="shape" result="effect1_innerShadow_222_1145"/>
</filter>
<linearGradient id="paint0_linear_222_1145" x1="39" y1="1" x2="39" y2="69" gradientUnits="userSpaceOnUse">
<stop offset="0.00940314" stop-color="#171A3B"/>
<stop offset="1" stop-color="#222757"/>
</linearGradient>
<linearGradient id="paint1_linear_222_1145" x1="37.4808" y1="26.31" x2="42.7206" y2="40.9702" gradientUnits="userSpaceOnUse">
<stop stop-color="#C23E62"/>
<stop offset="0.742314" stop-color="#4D2D36"/>
</linearGradient>
<linearGradient id="paint2_linear_222_1145" x1="37.7692" y1="14.6744" x2="41.0772" y2="52.81" gradientUnits="userSpaceOnUse">
<stop stop-color="#1F1C24"/>
<stop offset="0.557767" stop-color="#5D329F"/>
<stop offset="1" stop-color="#8C6AC0"/>
</linearGradient>
<linearGradient id="paint3_linear_222_1145" x1="32.3078" y1="18.4212" x2="35.7838" y2="24.7427" gradientUnits="userSpaceOnUse">
<stop offset="0.213542" stop-color="#7F5DB5"/>
<stop offset="0.809628" stop-color="#D8456E"/>
</linearGradient>
</defs>
</svg>
