<svg width="73" height="29" viewBox="0 0 73 29" fill="none" xmlns="http://www.w3.org/2000/svg">
<g filter="url(#filter0_i_371_342)">
<path d="M9.59819 1L1.9998 27.5L57.1703 27.5C61.8313 26.7271 71.376 24.1875 71.376 14.5812C71.376 5.03616 62.7216 1.11042 57.9311 1L9.59819 1Z" fill="#F9AA4B" stroke="#1A355E" stroke-opacity="0.3" stroke-width="2"/>
<path d="M18.2743 17V10H20.8643C21.4243 10 21.8876 10.0933 22.2543 10.28C22.621 10.4667 22.8943 10.7233 23.0743 11.05C23.2543 11.3767 23.3443 11.7433 23.3443 12.15C23.3443 12.5367 23.2576 12.8933 23.0843 13.22C22.911 13.54 22.641 13.8 22.2743 14C21.9076 14.1933 21.4376 14.29 20.8643 14.29H19.5543V17H18.2743ZM19.5543 13.25H20.7843C21.231 13.25 21.551 13.1533 21.7443 12.96C21.9443 12.76 22.0443 12.49 22.0443 12.15C22.0443 11.8033 21.9443 11.5333 21.7443 11.34C21.551 11.14 21.231 11.04 20.7843 11.04H19.5543V13.25ZM26.4446 17.12C25.9646 17.12 25.5313 17.01 25.1446 16.79C24.7646 16.57 24.4613 16.2667 24.2346 15.88C24.0146 15.4867 23.9046 15.0333 23.9046 14.52C23.9046 14.0067 24.0179 13.5567 24.2446 13.17C24.4713 12.7767 24.7746 12.47 25.1546 12.25C25.5413 12.03 25.9746 11.92 26.4546 11.92C26.9279 11.92 27.3546 12.03 27.7346 12.25C28.1213 12.47 28.4246 12.7767 28.6446 13.17C28.8713 13.5567 28.9846 14.0067 28.9846 14.52C28.9846 15.0333 28.8713 15.4867 28.6446 15.88C28.4246 16.2667 28.1213 16.57 27.7346 16.79C27.3479 17.01 26.9179 17.12 26.4446 17.12ZM26.4446 16.01C26.7779 16.01 27.0679 15.8867 27.3146 15.64C27.5613 15.3867 27.6846 15.0133 27.6846 14.52C27.6846 14.0267 27.5613 13.6567 27.3146 13.41C27.0679 13.1567 26.7813 13.03 26.4546 13.03C26.1146 13.03 25.8213 13.1567 25.5746 13.41C25.3346 13.6567 25.2146 14.0267 25.2146 14.52C25.2146 15.0133 25.3346 15.3867 25.5746 15.64C25.8213 15.8867 26.1113 16.01 26.4446 16.01ZM30.1291 17V12.04H31.2691L31.3891 12.97C31.5691 12.65 31.8124 12.3967 32.1191 12.21C32.4324 12.0167 32.7991 11.92 33.2191 11.92V13.27H32.8591C32.5791 13.27 32.3291 13.3133 32.1091 13.4C31.8891 13.4867 31.7157 13.6367 31.5891 13.85C31.4691 14.0633 31.4091 14.36 31.4091 14.74V17H30.1291ZM36.3039 17C35.7839 17 35.3672 16.8733 35.0539 16.62C34.7406 16.3667 34.5839 15.9167 34.5839 15.27V13.11H33.7339V12.04H34.5839L34.7339 10.71H35.8639V12.04H37.2039V13.11H35.8639V15.28C35.8639 15.52 35.9139 15.6867 36.0139 15.78C36.1206 15.8667 36.3006 15.91 36.5539 15.91H37.1739V17H36.3039ZM38.5329 17V13.11H37.8529V12.04H38.5329V11.46C38.5329 10.86 38.6829 10.4333 38.9829 10.18C39.2896 9.92667 39.7029 9.8 40.2229 9.8H40.7729V10.89H40.4229C40.2029 10.89 40.0462 10.9333 39.9529 11.02C39.8596 11.1067 39.8129 11.2533 39.8129 11.46V12.04H40.8829V13.11H39.8129V17H38.5329ZM44.0813 17.12C43.6013 17.12 43.168 17.01 42.7813 16.79C42.4013 16.57 42.098 16.2667 41.8713 15.88C41.6513 15.4867 41.5413 15.0333 41.5413 14.52C41.5413 14.0067 41.6547 13.5567 41.8813 13.17C42.108 12.7767 42.4113 12.47 42.7913 12.25C43.178 12.03 43.6113 11.92 44.0913 11.92C44.5647 11.92 44.9913 12.03 45.3713 12.25C45.758 12.47 46.0613 12.7767 46.2813 13.17C46.508 13.5567 46.6213 14.0067 46.6213 14.52C46.6213 15.0333 46.508 15.4867 46.2813 15.88C46.0613 16.2667 45.758 16.57 45.3713 16.79C44.9847 17.01 44.5547 17.12 44.0813 17.12ZM44.0813 16.01C44.4147 16.01 44.7047 15.8867 44.9513 15.64C45.198 15.3867 45.3213 15.0133 45.3213 14.52C45.3213 14.0267 45.198 13.6567 44.9513 13.41C44.7047 13.1567 44.418 13.03 44.0913 13.03C43.7513 13.03 43.458 13.1567 43.2113 13.41C42.9713 13.6567 42.8513 14.0267 42.8513 14.52C42.8513 15.0133 42.9713 15.3867 43.2113 15.64C43.458 15.8867 43.748 16.01 44.0813 16.01ZM47.7658 17V9.8H49.0458V17H47.7658ZM51.0437 11.27C50.8103 11.27 50.617 11.2 50.4637 11.06C50.317 10.92 50.2437 10.7433 50.2437 10.53C50.2437 10.3167 50.317 10.1433 50.4637 10.01C50.617 9.87 50.8103 9.8 51.0437 9.8C51.277 9.8 51.467 9.87 51.6137 10.01C51.767 10.1433 51.8437 10.3167 51.8437 10.53C51.8437 10.7433 51.767 10.92 51.6137 11.06C51.467 11.2 51.277 11.27 51.0437 11.27ZM50.4037 17V12.04H51.6837V17H50.4037ZM55.3997 17.12C54.9197 17.12 54.4863 17.01 54.0997 16.79C53.7197 16.57 53.4163 16.2667 53.1897 15.88C52.9697 15.4867 52.8597 15.0333 52.8597 14.52C52.8597 14.0067 52.973 13.5567 53.1997 13.17C53.4263 12.7767 53.7297 12.47 54.1097 12.25C54.4963 12.03 54.9297 11.92 55.4097 11.92C55.883 11.92 56.3097 12.03 56.6897 12.25C57.0763 12.47 57.3797 12.7767 57.5997 13.17C57.8263 13.5567 57.9397 14.0067 57.9397 14.52C57.9397 15.0333 57.8263 15.4867 57.5997 15.88C57.3797 16.2667 57.0763 16.57 56.6897 16.79C56.303 17.01 55.873 17.12 55.3997 17.12ZM55.3997 16.01C55.733 16.01 56.023 15.8867 56.2697 15.64C56.5163 15.3867 56.6397 15.0133 56.6397 14.52C56.6397 14.0267 56.5163 13.6567 56.2697 13.41C56.023 13.1567 55.7363 13.03 55.4097 13.03C55.0697 13.03 54.7763 13.1567 54.5297 13.41C54.2897 13.6567 54.1697 14.0267 54.1697 14.52C54.1697 15.0133 54.2897 15.3867 54.5297 15.64C54.7763 15.8867 55.0663 16.01 55.3997 16.01Z" fill="white"/>
</g>
<defs>
<filter id="filter0_i_371_342" x="0.672791" y="0" width="71.7032" height="32.5" filterUnits="userSpaceOnUse" color-interpolation-filters="sRGB">
<feFlood flood-opacity="0" result="BackgroundImageFix"/>
<feBlend mode="normal" in="SourceGraphic" in2="BackgroundImageFix" result="shape"/>
<feColorMatrix in="SourceAlpha" type="matrix" values="0 0 0 0 0 0 0 0 0 0 0 0 0 0 0 0 0 0 127 0" result="hardAlpha"/>
<feOffset dy="4"/>
<feGaussianBlur stdDeviation="2"/>
<feComposite in2="hardAlpha" operator="arithmetic" k2="-1" k3="1"/>
<feColorMatrix type="matrix" values="0 0 0 0 0 0 0 0 0 0 0 0 0 0 0 0 0 0 0.25 0"/>
<feBlend mode="normal" in2="shape" result="effect1_innerShadow_371_342"/>
</filter>
</defs>
</svg>
