<svg width="30" height="30" viewBox="0 0 30 30" fill="none" xmlns="http://www.w3.org/2000/svg">
<path d="M30 15C30 23.2843 23.2843 30 15 30C6.71573 30 0 23.2843 0 15C0 6.71573 6.71573 0 15 0C23.2843 0 30 6.71573 30 15ZM5.13407 15C5.13407 20.4488 9.5512 24.8659 15 24.8659C20.4488 24.8659 24.8659 20.4488 24.8659 15C24.8659 9.5512 20.4488 5.13407 15 5.13407C9.5512 5.13407 5.13407 9.5512 5.13407 15Z" fill="#D9D9D9"/>
<path d="M15 0C18.9782 4.74401e-08 22.7936 1.58035 25.6066 4.3934L21.9763 8.02373C20.126 6.17351 17.6166 5.13407 15 5.13407V0Z" fill="#7C2DDC"/>
</svg>
