<svg width="18" height="18" viewBox="0 0 18 18" fill="none" xmlns="http://www.w3.org/2000/svg">
<g clip-path="url(#clip0_637_4082)">
<path fill-rule="evenodd" clip-rule="evenodd" d="M15.8 2.80006C16.3523 2.80006 16.8 2.35235 16.8 1.80006C16.8 1.24778 16.3523 0.80006 15.8 0.80006L2.19999 0.80006C1.6477 0.80006 1.19999 1.24778 1.19999 1.80006C1.19999 2.35235 1.6477 2.80006 2.19999 2.80006L15.8 2.80006ZM7.99999 13.7858L5.6142 11.4001C5.22368 11.0095 4.59051 11.0095 4.19999 11.4001C3.80946 11.7906 3.80946 12.4237 4.19999 12.8143L8.64643 17.2607C8.8417 17.456 9.15828 17.456 9.35354 17.2607L13.8 12.8143C14.1905 12.4237 14.1905 11.7906 13.8 11.4001C13.4095 11.0095 12.7763 11.0095 12.3858 11.4001L9.99999 13.7858L9.99999 3.60006H7.99999L7.99999 13.7858Z" fill="#533482"/>
</g>
<defs>
<clipPath id="clip0_637_4082">
<rect width="18" height="18" fill="white" transform="matrix(0 -1 -1 0 18 18.0001)"/>
</clipPath>
</defs>
</svg>
