<svg width="40" height="40" viewBox="0 0 40 40" fill="none" xmlns="http://www.w3.org/2000/svg">
<circle cx="20" cy="20" r="20" fill="#533482"/>
<path fill-rule="evenodd" clip-rule="evenodd" d="M26.6001 14C27.1524 14 27.6001 13.5523 27.6001 13C27.6001 12.4477 27.1524 12 26.6001 12L13.0001 12C12.4478 12 12.0001 12.4477 12.0001 13C12.0001 13.5523 12.4478 14 13.0001 14L26.6001 14ZM18.8001 24.9858L16.4143 22.6C16.0238 22.2095 15.3906 22.2095 15.0001 22.6C14.6096 22.9905 14.6096 23.6237 15.0001 24.0142L19.4465 28.4607C19.6418 28.6559 19.9584 28.6559 20.1537 28.4607L24.6001 24.0142C24.9906 23.6237 24.9906 22.9905 24.6001 22.6C24.2096 22.2095 23.5764 22.2095 23.1859 22.6L20.8001 24.9858V14.8H18.8001V24.9858Z" fill="#FFFCF2"/>
</svg>
