<svg width="71" height="31" viewBox="0 0 71 31" fill="none" xmlns="http://www.w3.org/2000/svg">
<g filter="url(#filter0_i_373_380)">
<path d="M8.3084 0.5L0.710007 30.5L55.8805 30.5C60.5415 29.625 70.0862 26.75 70.0862 15.875C70.0862 5.06924 61.4318 0.625 56.6413 0.5L8.3084 0.5Z" fill="#3897E3"/>
<path d="M26.1825 19.8821V12.8821H28.7525C29.3125 12.8821 29.7725 12.9787 30.1325 13.1721C30.4992 13.3587 30.7725 13.6154 30.9525 13.9421C31.1325 14.2621 31.2225 14.6187 31.2225 15.0121C31.2225 15.4387 31.1092 15.8287 30.8825 16.1821C30.6625 16.5354 30.3158 16.7921 29.8425 16.9521L31.2925 19.8821H29.8225L28.5225 17.1221H27.4625V19.8821H26.1825ZM27.4625 16.1821H28.6725C29.0992 16.1821 29.4125 16.0787 29.6125 15.8721C29.8125 15.6654 29.9125 15.3921 29.9125 15.0521C29.9125 14.7187 29.8125 14.4521 29.6125 14.2521C29.4192 14.0521 29.1025 13.9521 28.6625 13.9521H27.4625V16.1821ZM34.4902 20.0021C33.9902 20.0021 33.5469 19.8954 33.1602 19.6821C32.7736 19.4687 32.4702 19.1687 32.2502 18.7821C32.0302 18.3954 31.9202 17.9487 31.9202 17.4421C31.9202 16.9287 32.0269 16.4721 32.2402 16.0721C32.4602 15.6721 32.7602 15.3621 33.1402 15.1421C33.5269 14.9154 33.9802 14.8021 34.5002 14.8021C34.9869 14.8021 35.4169 14.9087 35.7902 15.1221C36.1636 15.3354 36.4536 15.6287 36.6602 16.0021C36.8736 16.3687 36.9802 16.7787 36.9802 17.2321C36.9802 17.3054 36.9769 17.3821 36.9702 17.4621C36.9702 17.5421 36.9669 17.6254 36.9602 17.7121H33.1902C33.2169 18.0987 33.3502 18.4021 33.5902 18.6221C33.8369 18.8421 34.1336 18.9521 34.4802 18.9521C34.7402 18.9521 34.9569 18.8954 35.1302 18.7821C35.3102 18.6621 35.4436 18.5087 35.5302 18.3221H36.8302C36.7369 18.6354 36.5802 18.9221 36.3602 19.1821C36.1469 19.4354 35.8802 19.6354 35.5602 19.7821C35.2469 19.9287 34.8902 20.0021 34.4902 20.0021ZM34.5002 15.8421C34.1869 15.8421 33.9102 15.9321 33.6702 16.1121C33.4302 16.2854 33.2769 16.5521 33.2102 16.9121H35.6802C35.6602 16.5854 35.5402 16.3254 35.3202 16.1321C35.1002 15.9387 34.8269 15.8421 34.5002 15.8421ZM40.4868 20.0021C39.9801 20.0021 39.5335 19.8921 39.1468 19.6721C38.7601 19.4521 38.4535 19.1454 38.2268 18.7521C38.0068 18.3587 37.8968 17.9087 37.8968 17.4021C37.8968 16.8954 38.0068 16.4454 38.2268 16.0521C38.4535 15.6587 38.7601 15.3521 39.1468 15.1321C39.5335 14.9121 39.9801 14.8021 40.4868 14.8021C41.1201 14.8021 41.6535 14.9687 42.0868 15.3021C42.5201 15.6287 42.7968 16.0821 42.9168 16.6621H41.5668C41.5001 16.4221 41.3668 16.2354 41.1668 16.1021C40.9735 15.9621 40.7435 15.8921 40.4768 15.8921C40.1235 15.8921 39.8235 16.0254 39.5768 16.2921C39.3301 16.5587 39.2068 16.9287 39.2068 17.4021C39.2068 17.8754 39.3301 18.2454 39.5768 18.5121C39.8235 18.7787 40.1235 18.9121 40.4768 18.9121C40.7435 18.9121 40.9735 18.8454 41.1668 18.7121C41.3668 18.5787 41.5001 18.3887 41.5668 18.1421H42.9168C42.7968 18.7021 42.5201 19.1521 42.0868 19.4921C41.6535 19.8321 41.1201 20.0021 40.4868 20.0021ZM46.4629 20.0021C45.9629 20.0021 45.5196 19.8954 45.1329 19.6821C44.7462 19.4687 44.4429 19.1687 44.2229 18.7821C44.0029 18.3954 43.8929 17.9487 43.8929 17.4421C43.8929 16.9287 43.9996 16.4721 44.2129 16.0721C44.4329 15.6721 44.7329 15.3621 45.1129 15.1421C45.4996 14.9154 45.9529 14.8021 46.4729 14.8021C46.9596 14.8021 47.3896 14.9087 47.7629 15.1221C48.1362 15.3354 48.4262 15.6287 48.6329 16.0021C48.8462 16.3687 48.9529 16.7787 48.9529 17.2321C48.9529 17.3054 48.9496 17.3821 48.9429 17.4621C48.9429 17.5421 48.9396 17.6254 48.9329 17.7121H45.1629C45.1896 18.0987 45.3229 18.4021 45.5629 18.6221C45.8096 18.8421 46.1062 18.9521 46.4529 18.9521C46.7129 18.9521 46.9296 18.8954 47.1029 18.7821C47.2829 18.6621 47.4162 18.5087 47.5029 18.3221H48.8029C48.7096 18.6354 48.5529 18.9221 48.3329 19.1821C48.1196 19.4354 47.8529 19.6354 47.5329 19.7821C47.2196 19.9287 46.8629 20.0021 46.4629 20.0021ZM46.4729 15.8421C46.1596 15.8421 45.8829 15.9321 45.6429 16.1121C45.4029 16.2854 45.2496 16.5521 45.1829 16.9121H47.6529C47.6329 16.5854 47.5129 16.3254 47.2929 16.1321C47.0729 15.9387 46.7996 15.8421 46.4729 15.8421ZM50.7194 14.1521C50.4861 14.1521 50.2928 14.0821 50.1394 13.9421C49.9928 13.8021 49.9194 13.6254 49.9194 13.4121C49.9194 13.1987 49.9928 13.0254 50.1394 12.8921C50.2928 12.7521 50.4861 12.6821 50.7194 12.6821C50.9528 12.6821 51.1428 12.7521 51.2894 12.8921C51.4428 13.0254 51.5194 13.1987 51.5194 13.4121C51.5194 13.6254 51.4428 13.8021 51.2894 13.9421C51.1428 14.0821 50.9528 14.1521 50.7194 14.1521ZM50.0794 19.8821V14.9221H51.3594V19.8821H50.0794ZM54.0355 19.8821L52.2155 14.9221H53.5555L54.8155 18.6721L56.0755 14.9221H57.4155L55.5855 19.8821H54.0355ZM60.3887 20.0021C59.8887 20.0021 59.4453 19.8954 59.0587 19.6821C58.672 19.4687 58.3687 19.1687 58.1487 18.7821C57.9287 18.3954 57.8187 17.9487 57.8187 17.4421C57.8187 16.9287 57.9253 16.4721 58.1387 16.0721C58.3587 15.6721 58.6587 15.3621 59.0387 15.1421C59.4253 14.9154 59.8787 14.8021 60.3987 14.8021C60.8853 14.8021 61.3153 14.9087 61.6887 15.1221C62.062 15.3354 62.352 15.6287 62.5587 16.0021C62.772 16.3687 62.8787 16.7787 62.8787 17.2321C62.8787 17.3054 62.8753 17.3821 62.8687 17.4621C62.8687 17.5421 62.8653 17.6254 62.8587 17.7121H59.0887C59.1153 18.0987 59.2487 18.4021 59.4887 18.6221C59.7353 18.8421 60.032 18.9521 60.3787 18.9521C60.6387 18.9521 60.8553 18.8954 61.0287 18.7821C61.2087 18.6621 61.342 18.5087 61.4287 18.3221H62.7287C62.6353 18.6354 62.4787 18.9221 62.2587 19.1821C62.0453 19.4354 61.7787 19.6354 61.4587 19.7821C61.1453 19.9287 60.7887 20.0021 60.3887 20.0021ZM60.3987 15.8421C60.0853 15.8421 59.8087 15.9321 59.5687 16.1121C59.3287 16.2854 59.1753 16.5521 59.1087 16.9121H61.5787C61.5587 16.5854 61.4387 16.3254 61.2187 16.1321C60.9987 15.9387 60.7253 15.8421 60.3987 15.8421Z" fill="white"/>
<path d="M15.2142 15.1746C15.017 15.1746 14.8279 15.0955 14.6884 14.9549C14.549 14.8142 14.4706 14.6235 14.4706 14.4246V9.17456C14.4706 8.97565 14.549 8.78488 14.6884 8.64423C14.8279 8.50358 15.017 8.42456 15.2142 8.42456C15.4114 8.42456 15.6005 8.50358 15.7399 8.64423C15.8794 8.78488 15.9577 8.97565 15.9577 9.17456V14.4246C15.9577 14.6235 15.8794 14.8142 15.7399 14.9549C15.6005 15.0955 15.4114 15.1746 15.2142 15.1746Z" fill="white"/>
<path d="M15.2142 16.6746C15.1164 16.6752 15.0194 16.6562 14.9288 16.6189C14.8382 16.5816 14.7558 16.5266 14.6863 16.4571L13.1992 14.9571C13.0774 14.8136 13.0138 14.629 13.021 14.4403C13.0282 14.2515 13.1058 14.0725 13.2382 13.9389C13.3706 13.8053 13.5482 13.7271 13.7353 13.7198C13.9224 13.7125 14.1054 13.7767 14.2476 13.8996L15.2142 14.8671L16.1734 13.8996C16.3156 13.7767 16.4986 13.7125 16.6857 13.7198C16.8729 13.7271 17.0504 13.8053 17.1828 13.9389C17.3152 14.0725 17.3928 14.2515 17.4 14.4403C17.4072 14.629 17.3436 14.8136 17.2218 14.9571L15.7347 16.4571C15.5962 16.5956 15.4093 16.6738 15.2142 16.6746Z" fill="white"/>
<path d="M15.214 23.4247C13.5251 23.4404 11.8813 22.8756 10.553 21.8234C9.22479 20.7711 8.29127 19.2941 7.90612 17.6353C7.52098 15.9766 7.70716 14.2351 8.43402 12.6973C9.16089 11.1595 10.3851 9.91717 11.9052 9.17474C11.993 9.12727 12.0893 9.09806 12.1885 9.08885C12.2876 9.07964 12.3876 9.09062 12.4825 9.12112C12.5773 9.15162 12.6651 9.20103 12.7407 9.26642C12.8163 9.33181 12.8781 9.41185 12.9224 9.50178C12.9668 9.59172 12.9927 9.68972 12.9988 9.78997C13.0049 9.89022 12.9909 9.99068 12.9578 10.0854C12.9246 10.1801 12.8729 10.2671 12.8058 10.3413C12.7387 10.4155 12.6575 10.4753 12.567 10.5172C11.3651 11.1186 10.4001 12.1121 9.82863 13.3364C9.25714 14.5608 9.11276 15.944 9.41892 17.2615C9.72509 18.5791 10.4638 19.7535 11.5152 20.5942C12.5665 21.4348 13.8687 21.8923 15.2103 21.8923C16.5519 21.8923 17.8541 21.4348 18.9054 20.5942C19.9567 19.7535 20.6955 18.5791 21.0016 17.2615C21.3078 15.944 21.1634 14.5608 20.5919 13.3364C20.0204 12.1121 19.0554 11.1186 17.8536 10.5172C17.7631 10.4753 17.6819 10.4155 17.6147 10.3413C17.5476 10.2671 17.4959 10.1801 17.4628 10.0854C17.4296 9.99068 17.4157 9.89022 17.4218 9.78997C17.4278 9.68972 17.4538 9.59172 17.4981 9.50178C17.5425 9.41185 17.6042 9.33181 17.6798 9.26642C17.7554 9.20103 17.8432 9.15162 17.9381 9.12112C18.033 9.09062 18.1329 9.07964 18.2321 9.08885C18.3312 9.09806 18.4276 9.12727 18.5153 9.17474C20.0348 9.91691 21.2587 11.1586 21.9856 12.6956C22.7126 14.2326 22.8993 15.9734 22.5151 17.6316C22.131 19.2899 21.1987 20.7669 19.8718 21.8198C18.5449 22.8727 16.9022 23.4387 15.214 23.4247Z" fill="white"/>
</g>
<defs>
<filter id="filter0_i_373_380" x="0.710022" y="0.5" width="69.3762" height="34" filterUnits="userSpaceOnUse" color-interpolation-filters="sRGB">
<feFlood flood-opacity="0" result="BackgroundImageFix"/>
<feBlend mode="normal" in="SourceGraphic" in2="BackgroundImageFix" result="shape"/>
<feColorMatrix in="SourceAlpha" type="matrix" values="0 0 0 0 0 0 0 0 0 0 0 0 0 0 0 0 0 0 127 0" result="hardAlpha"/>
<feOffset dy="4"/>
<feGaussianBlur stdDeviation="2"/>
<feComposite in2="hardAlpha" operator="arithmetic" k2="-1" k3="1"/>
<feColorMatrix type="matrix" values="0 0 0 0 0 0 0 0 0 0 0 0 0 0 0 0 0 0 0.25 0"/>
<feBlend mode="normal" in2="shape" result="effect1_innerShadow_373_380"/>
</filter>
</defs>
</svg>
