<svg width="104" height="40" viewBox="0 0 104 40" fill="none" xmlns="http://www.w3.org/2000/svg">
<path d="M11.3905 0L0 40L82.7047 40C89.6918 38.8333 104 35 104 20.5C104 6.09232 91.0264 0.166668 83.8452 0L11.3905 0Z" fill="#4845F8"/>
<path d="M36.3458 25V13.8H40.4578C41.3538 13.8 42.0898 13.9547 42.6658 14.264C43.2525 14.5627 43.6898 14.9733 43.9778 15.496C44.2658 16.008 44.4098 16.5787 44.4098 17.208C44.4098 17.8907 44.2285 18.5147 43.8658 19.08C43.5138 19.6453 42.9591 20.056 42.2018 20.312L44.5218 25H42.1698L40.0898 20.584H38.3938V25H36.3458ZM38.3938 19.08H40.3298C41.0125 19.08 41.5138 18.9147 41.8338 18.584C42.1538 18.2533 42.3138 17.816 42.3138 17.272C42.3138 16.7387 42.1538 16.312 41.8338 15.992C41.5245 15.672 41.0178 15.512 40.3138 15.512H38.3938V19.08ZM49.6382 25.192C48.8382 25.192 48.1289 25.0213 47.5102 24.68C46.8915 24.3387 46.4062 23.8587 46.0542 23.24C45.7022 22.6213 45.5262 21.9067 45.5262 21.096C45.5262 20.2747 45.6969 19.544 46.0382 18.904C46.3902 18.264 46.8702 17.768 47.4782 17.416C48.0969 17.0533 48.8222 16.872 49.6542 16.872C50.4329 16.872 51.1209 17.0427 51.7182 17.384C52.3155 17.7253 52.7795 18.1947 53.1102 18.792C53.4515 19.3787 53.6222 20.0347 53.6222 20.76C53.6222 20.8773 53.6169 21 53.6062 21.128C53.6062 21.256 53.6009 21.3893 53.5902 21.528H47.5582C47.6009 22.1467 47.8142 22.632 48.1982 22.984C48.5929 23.336 49.0675 23.512 49.6222 23.512C50.0382 23.512 50.3849 23.4213 50.6622 23.24C50.9502 23.048 51.1635 22.8027 51.3022 22.504H53.3822C53.2329 23.0053 52.9822 23.464 52.6302 23.88C52.2889 24.2853 51.8622 24.6053 51.3502 24.84C50.8489 25.0747 50.2782 25.192 49.6382 25.192ZM49.6542 18.536C49.1529 18.536 48.7102 18.68 48.3262 18.968C47.9422 19.2453 47.6969 19.672 47.5902 20.248H51.5422C51.5102 19.7253 51.3182 19.3093 50.9662 19C50.6142 18.6907 50.1769 18.536 49.6542 18.536ZM59.2327 25.192C58.422 25.192 57.7074 25.016 57.0887 24.664C56.47 24.312 55.9794 23.8213 55.6167 23.192C55.2647 22.5627 55.0887 21.8427 55.0887 21.032C55.0887 20.2213 55.2647 19.5013 55.6167 18.872C55.9794 18.2427 56.47 17.752 57.0887 17.4C57.7074 17.048 58.422 16.872 59.2327 16.872C60.246 16.872 61.0994 17.1387 61.7927 17.672C62.486 18.1947 62.9287 18.92 63.1207 19.848H60.9607C60.854 19.464 60.6407 19.1653 60.3207 18.952C60.0114 18.728 59.6434 18.616 59.2167 18.616C58.6514 18.616 58.1714 18.8293 57.7767 19.256C57.382 19.6827 57.1847 20.2747 57.1847 21.032C57.1847 21.7893 57.382 22.3813 57.7767 22.808C58.1714 23.2347 58.6514 23.448 59.2167 23.448C59.6434 23.448 60.0114 23.3413 60.3207 23.128C60.6407 22.9147 60.854 22.6107 60.9607 22.216H63.1207C62.9287 23.112 62.486 23.832 61.7927 24.376C61.0994 24.92 60.246 25.192 59.2327 25.192ZM68.7944 25.192C67.9944 25.192 67.2851 25.0213 66.6664 24.68C66.0478 24.3387 65.5624 23.8587 65.2104 23.24C64.8584 22.6213 64.6824 21.9067 64.6824 21.096C64.6824 20.2747 64.8531 19.544 65.1944 18.904C65.5464 18.264 66.0264 17.768 66.6344 17.416C67.2531 17.0533 67.9784 16.872 68.8104 16.872C69.5891 16.872 70.2771 17.0427 70.8744 17.384C71.4718 17.7253 71.9358 18.1947 72.2664 18.792C72.6078 19.3787 72.7784 20.0347 72.7784 20.76C72.7784 20.8773 72.7731 21 72.7624 21.128C72.7624 21.256 72.7571 21.3893 72.7464 21.528H66.7144C66.7571 22.1467 66.9704 22.632 67.3544 22.984C67.7491 23.336 68.2238 23.512 68.7784 23.512C69.1944 23.512 69.5411 23.4213 69.8184 23.24C70.1064 23.048 70.3198 22.8027 70.4584 22.504H72.5384C72.3891 23.0053 72.1384 23.464 71.7864 23.88C71.4451 24.2853 71.0184 24.6053 70.5064 24.84C70.0051 25.0747 69.4344 25.192 68.7944 25.192ZM68.8104 18.536C68.3091 18.536 67.8664 18.68 67.4824 18.968C67.0984 19.2453 66.8531 19.672 66.7464 20.248H70.6984C70.6664 19.7253 70.4744 19.3093 70.1224 19C69.7704 18.6907 69.3331 18.536 68.8104 18.536ZM75.6049 15.832C75.2316 15.832 74.9223 15.72 74.6769 15.496C74.4423 15.272 74.3249 14.9893 74.3249 14.648C74.3249 14.3067 74.4423 14.0293 74.6769 13.816C74.9223 13.592 75.2316 13.48 75.6049 13.48C75.9783 13.48 76.2823 13.592 76.5169 13.816C76.7623 14.0293 76.8849 14.3067 76.8849 14.648C76.8849 14.9893 76.7623 15.272 76.5169 15.496C76.2823 15.72 75.9783 15.832 75.6049 15.832ZM74.5809 25V17.064H76.6289V25H74.5809ZM80.9106 25L77.9986 17.064H80.1426L82.1586 23.064L84.1746 17.064H86.3186L83.3906 25H80.9106ZM91.0757 25.192C90.2757 25.192 89.5664 25.0213 88.9477 24.68C88.329 24.3387 87.8437 23.8587 87.4917 23.24C87.1397 22.6213 86.9637 21.9067 86.9637 21.096C86.9637 20.2747 87.1344 19.544 87.4757 18.904C87.8277 18.264 88.3077 17.768 88.9157 17.416C89.5344 17.0533 90.2597 16.872 91.0917 16.872C91.8704 16.872 92.5584 17.0427 93.1557 17.384C93.753 17.7253 94.217 18.1947 94.5477 18.792C94.889 19.3787 95.0597 20.0347 95.0597 20.76C95.0597 20.8773 95.0544 21 95.0437 21.128C95.0437 21.256 95.0384 21.3893 95.0277 21.528H88.9957C89.0384 22.1467 89.2517 22.632 89.6357 22.984C90.0304 23.336 90.505 23.512 91.0597 23.512C91.4757 23.512 91.8224 23.4213 92.0997 23.24C92.3877 23.048 92.601 22.8027 92.7397 22.504H94.8197C94.6704 23.0053 94.4197 23.464 94.0677 23.88C93.7264 24.2853 93.2997 24.6053 92.7877 24.84C92.2864 25.0747 91.7157 25.192 91.0757 25.192ZM91.0917 18.536C90.5904 18.536 90.1477 18.68 89.7637 18.968C89.3797 19.2453 89.1344 19.672 89.0277 20.248H92.9797C92.9477 19.7253 92.7557 19.3093 92.4037 19C92.0517 18.6907 91.6144 18.536 91.0917 18.536Z" fill="white"/>
<path d="M21.092 20C20.8268 20 20.5725 19.8946 20.3849 19.7071C20.1974 19.5196 20.092 19.2652 20.092 19V12C20.092 11.7348 20.1974 11.4804 20.3849 11.2929C20.5725 11.1054 20.8268 11 21.092 11C21.3573 11 21.6116 11.1054 21.7991 11.2929C21.9867 11.4804 22.092 11.7348 22.092 12V19C22.092 19.2652 21.9867 19.5196 21.7991 19.7071C21.6116 19.8946 21.3573 20 21.092 20Z" fill="white"/>
<path d="M21.0921 22C20.9605 22.0008 20.83 21.9756 20.7082 21.9258C20.5863 21.876 20.4755 21.8027 20.3821 21.71L18.3821 19.71C18.2182 19.5187 18.1326 19.2727 18.1423 19.021C18.1521 18.7693 18.2564 18.5306 18.4345 18.3525C18.6126 18.1744 18.8513 18.07 19.103 18.0603C19.3547 18.0506 19.6008 18.1362 19.7921 18.3L21.0921 19.59L22.3821 18.3C22.5734 18.1362 22.8194 18.0506 23.0711 18.0603C23.3228 18.07 23.5615 18.1744 23.7396 18.3525C23.9177 18.5306 24.022 18.7693 24.0318 19.021C24.0415 19.2727 23.9559 19.5187 23.7921 19.71L21.7921 21.71C21.6058 21.8948 21.3544 21.9989 21.0921 22Z" fill="white"/>
<path d="M21.092 30.9999C18.8206 31.0208 16.6098 30.2678 14.8234 28.8648C13.037 27.4618 11.7815 25.4924 11.2635 23.2808C10.7455 21.0691 10.9959 18.747 11.9735 16.6967C12.9511 14.6463 14.5976 12.9899 16.642 11.9999C16.76 11.9367 16.8895 11.8977 17.0229 11.8854C17.1562 11.8732 17.2907 11.8878 17.4183 11.9285C17.5459 11.9691 17.664 12.035 17.7656 12.1222C17.8673 12.2094 17.9504 12.3161 18.01 12.436C18.0696 12.5559 18.1046 12.6866 18.1127 12.8203C18.1209 12.9539 18.1021 13.0879 18.0575 13.2141C18.013 13.3404 17.9435 13.4565 17.8532 13.5554C17.7629 13.6543 17.6537 13.7341 17.532 13.7899C15.9156 14.5917 14.6177 15.9164 13.8491 17.5489C13.0805 19.1813 12.8863 21.0256 13.2981 22.7824C13.7099 24.5391 14.7034 26.105 16.1173 27.2259C17.5313 28.3467 19.2827 28.9567 21.087 28.9567C22.8913 28.9567 24.6427 28.3467 26.0566 27.2259C27.4706 26.105 28.4641 24.5391 28.8759 22.7824C29.2876 21.0256 29.0935 19.1813 28.3249 17.5489C27.5563 15.9164 26.2584 14.5917 24.642 13.7899C24.5203 13.7341 24.4111 13.6543 24.3208 13.5554C24.2305 13.4565 24.161 13.3404 24.1164 13.2141C24.0718 13.0879 24.0531 12.9539 24.0612 12.8203C24.0694 12.6866 24.1043 12.5559 24.164 12.436C24.2236 12.3161 24.3067 12.2094 24.4083 12.1222C24.51 12.035 24.6281 11.9691 24.7557 11.9285C24.8833 11.8878 25.0177 11.8732 25.1511 11.8854C25.2844 11.8977 25.414 11.9367 25.532 11.9999C27.5756 12.9895 29.2216 14.6451 30.1993 16.6944C31.177 18.7438 31.4281 21.0648 30.9114 23.2758C30.3947 25.4868 29.141 27.4562 27.3564 28.86C25.5717 30.2638 23.3625 31.0185 21.092 30.9999Z" fill="white"/>
</svg>
