<svg width="16" height="16" viewBox="0 0 16 16" fill="none" xmlns="http://www.w3.org/2000/svg">
<g clip-path="url(#clip0_1675_9967)">
<path opacity="0.5" d="M14.6665 7.99996C14.6665 11.1426 14.6665 12.714 13.6905 13.6906C12.7132 14.6666 11.1425 14.6666 7.99984 14.6666C4.85717 14.6666 3.28584 14.6666 2.30984 13.6906C1.33317 12.7133 1.33317 11.1426 1.33317 7.99996" stroke="white"/>
<path d="M14.6665 6.66667C14.6665 8.53333 14.6665 9.46667 14.3032 10.18C13.9836 10.8072 13.4737 11.3171 12.8465 11.6367C12.1332 12 11.1998 12 9.33317 12L6.6665 12C4.79984 12 3.8665 12 3.15317 11.6367C2.52599 11.3171 2.01608 10.8072 1.6965 10.18C1.33317 9.46667 1.33317 8.53333 1.33317 6.66667C1.33317 4.8 1.33317 3.86667 1.6965 3.15333C2.01608 2.52615 2.52599 2.01624 3.15317 1.69667C3.8665 1.33333 4.79984 1.33333 6.6665 1.33333L9.33317 1.33333C11.1998 1.33333 12.1332 1.33333 12.8465 1.69667C13.4737 2.01624 13.9836 2.52615 14.3032 3.15333C14.6665 3.86667 14.6665 4.8 14.6665 6.66667Z" stroke="white"/>
<path d="M7.99984 4.66663V8.66663M7.99984 8.66663L6.33317 6.99996M7.99984 8.66663L9.6665 6.99996" stroke="white" stroke-linecap="round" stroke-linejoin="round"/>
</g>
<defs>
<clipPath id="clip0_1675_9967">
<rect width="16" height="16" fill="white" transform="matrix(-1 0 0 -1 16 16)"/>
</clipPath>
</defs>
</svg>
