<svg width="20" height="20" viewBox="0 0 20 20" fill="none" xmlns="http://www.w3.org/2000/svg" transform="scale(1, -1) translate(0, -20)">
  <path d="M9.22006 6.21756L6.22006 9.21756C6.07006 9.36756 6.00006 9.55756 6.00006 9.74756C6.00006 9.93756 6.07006 10.1276 6.22006 10.2776C6.51378 10.5678 6.98634 10.5678 7.28006 10.2776L9.00006 8.55756V13.7476C9.00006 14.1576 9.34006 14.4976 9.75006 14.4976C10.1601 14.4976 10.5001 14.1576 10.5001 13.7476V8.55756L12.2201 10.2776C12.5138 10.5678 12.9863 10.5678 13.2801 10.2776C13.5701 9.98756 13.5701 9.50756 13.2801 9.21756L10.2801 6.21756C9.99006 5.92756 9.51006 5.92756 9.22006 6.21756Z" fill="#f54842"/>
</svg>