<svg width="16" height="16" viewBox="0 0 16 16" fill="none" xmlns="http://www.w3.org/2000/svg">
<path d="M6.44663 9.33418C6.81519 9.33418 7.11396 9.0354 7.11396 8.66685C7.11396 8.29829 6.81519 7.99951 6.44663 7.99951C6.07807 7.99951 5.7793 8.29829 5.7793 8.66685C5.7793 9.0354 6.07807 9.33418 6.44663 9.33418Z" fill="white"/>
<path d="M9.39323 10.2609C8.98855 10.5509 8.49702 10.6941 7.9999 10.6669C7.50309 10.6891 7.01359 10.541 6.61257 10.2469C6.57794 10.2192 6.53434 10.2053 6.49012 10.2079C6.44589 10.2104 6.40415 10.2291 6.37287 10.2605C6.34158 10.2918 6.32297 10.3336 6.32058 10.3778C6.31818 10.4221 6.33218 10.4656 6.3599 10.5002C6.83323 10.8569 7.41457 11.0395 8.00723 11.0135C8.59896 11.0395 9.18117 10.8579 9.65323 10.5002V10.5269C9.68814 10.492 9.7081 10.445 9.70884 10.3957C9.70959 10.3464 9.69107 10.2987 9.65723 10.2629C9.64003 10.2454 9.61956 10.2315 9.59698 10.2219C9.5744 10.2124 9.55016 10.2074 9.52565 10.2072C9.50113 10.207 9.47682 10.2116 9.4541 10.2208C9.43138 10.2301 9.4107 10.2437 9.39323 10.2609ZM9.53257 8.02686C9.35575 8.02686 9.18619 8.09709 9.06116 8.22212C8.93614 8.34714 8.8659 8.51671 8.8659 8.69352C8.8659 8.87033 8.93614 9.0399 9.06116 9.16493C9.18619 9.28995 9.35575 9.36019 9.53257 9.36019L9.52723 9.38619C9.5379 9.38752 9.54923 9.38619 9.56123 9.38619C9.73762 9.37891 9.90391 9.30196 10.0236 9.17224C10.1434 9.04251 10.2068 8.87059 10.1999 8.69419C10.2 8.60653 10.1828 8.51971 10.1493 8.43871C10.1158 8.3577 10.0666 8.2841 10.0046 8.22212C9.94265 8.16013 9.86905 8.11098 9.78805 8.07747C9.70704 8.04397 9.62023 8.02677 9.53257 8.02686Z" fill="white"/>
<path d="M7.99992 1.3335C4.31925 1.3335 1.33325 4.31816 1.33325 8.00016C1.33325 11.6808 4.31925 14.6668 7.99992 14.6668C11.6806 14.6668 14.6666 11.6808 14.6666 8.00016C14.6666 4.31816 11.6806 1.3335 7.99992 1.3335ZM11.9059 8.88683C11.9139 8.98416 11.9139 9.08216 11.9059 9.1795C11.9059 10.6728 10.1666 11.8875 8.01925 11.8875C5.87192 11.8875 4.13259 10.6742 4.13259 9.1795C4.12458 9.0821 4.12458 8.98422 4.13259 8.88683C3.99221 8.82243 3.86917 8.72555 3.77364 8.6042C3.67812 8.48284 3.61283 8.3405 3.5832 8.18893C3.55356 8.03736 3.56042 7.88091 3.6032 7.73251C3.64599 7.58411 3.72347 7.44803 3.82925 7.3355C3.91673 7.24232 4.02173 7.16731 4.13823 7.11476C4.25474 7.06221 4.38046 7.03316 4.50821 7.02926C4.63595 7.02536 4.76322 7.04669 4.88271 7.09203C5.0022 7.13737 5.11158 7.20583 5.20459 7.2935C5.97266 6.77281 6.8761 6.48781 7.80392 6.4735L8.29925 4.16016V4.1575C8.31152 4.10402 8.34435 4.05753 8.39064 4.02808C8.43693 3.99864 8.49295 3.98861 8.54658 4.00016L10.1793 4.32683C10.2593 4.18975 10.3856 4.08568 10.5354 4.03332C10.6853 3.98096 10.8489 3.98373 10.9969 4.04113C11.1449 4.09853 11.2675 4.20681 11.3429 4.34652C11.4183 4.48623 11.4413 4.64822 11.408 4.80342C11.3747 4.95862 11.2871 5.09685 11.161 5.19331C11.035 5.28976 10.8787 5.33812 10.7201 5.3297C10.5616 5.32127 10.4113 5.25663 10.2962 5.14736C10.181 5.03809 10.1086 4.89135 10.0919 4.7335L8.66658 4.4335L8.23392 6.5135C9.1507 6.53328 10.0421 6.81808 10.8006 7.3335C10.9361 7.20368 11.1062 7.1158 11.2905 7.08044C11.4748 7.04508 11.6654 7.06375 11.8393 7.13419C12.0132 7.20464 12.1631 7.32386 12.2708 7.4775C12.3786 7.63113 12.4396 7.81264 12.4466 8.00016C12.4533 8.3755 12.2419 8.72016 11.9059 8.88683Z" fill="white"/>
</svg>
