<svg width="23" height="23" viewBox="0 0 23 23" fill="none" xmlns="http://www.w3.org/2000/svg">
<path opacity="0.5" d="M1.5 11.5C1.5 6.786 1.5 4.429 2.964 2.964C4.43 1.5 6.786 1.5 11.5 1.5C16.214 1.5 18.571 1.5 20.035 2.964C21.5 4.43 21.5 6.786 21.5 11.5C21.5 16.214 21.5 18.571 20.035 20.035C18.572 21.5 16.214 21.5 11.5 21.5C6.786 21.5 4.429 21.5 2.964 20.035C1.5 18.572 1.5 16.214 1.5 11.5Z" stroke="white" stroke-width="1.5"/>
<path d="M8 8.5L11 11.5L8 14.5M12 8.5L15 11.5L12 14.5" stroke="white" stroke-width="1.5" stroke-linecap="round" stroke-linejoin="round"/>
</svg>
