<svg width="24" height="24" viewBox="0 0 24 24" fill="none" xmlns="http://www.w3.org/2000/svg">
<path d="M8.2882 20.7549C8.03013 20.4973 7.8849 20.1478 7.88447 19.7832C7.88404 19.4186 8.02844 19.0688 8.28591 18.8106L15.0841 11.9964L8.26982 5.19815C8.01904 4.93912 7.88004 4.59196 7.88275 4.23143C7.88545 3.87091 8.02965 3.52587 8.28429 3.27063C8.53892 3.0154 8.88362 2.87038 9.24414 2.86682C9.60465 2.86327 9.95214 3.00145 10.2118 3.25161L17.9993 11.0208C18.2574 11.2783 18.4026 11.6278 18.4031 11.9924C18.4035 12.357 18.2591 12.7069 18.0016 12.965L10.2325 20.7526C9.97491 21.0107 9.6254 21.1559 9.2608 21.1563C8.8962 21.1568 8.54636 21.0124 8.2882 20.7549Z" fill="#F8F8F8"/>
</svg>
