<svg width="14" height="14" viewBox="0 0 14 14" fill="none" xmlns="http://www.w3.org/2000/svg">
<path d="M13.3 13.3L9.8 9.8M2.8 6.88333C2.8 7.41956 2.90562 7.95054 3.11083 8.44596C3.31604 8.94137 3.61681 9.39151 3.99598 9.77068C4.37516 10.1499 4.8253 10.4506 5.32071 10.6558C5.81613 10.861 6.34711 10.9667 6.88334 10.9667C7.41957 10.9667 7.95055 10.861 8.44596 10.6558C8.94137 10.4506 9.39152 10.1499 9.77069 9.77068C10.1499 9.39151 10.4506 8.94137 10.6558 8.44596C10.8611 7.95054 10.9667 7.41956 10.9667 6.88333C10.9667 6.3471 10.8611 5.81612 10.6558 5.32071C10.4506 4.8253 10.1499 4.37515 9.77069 3.99598C9.39152 3.61681 8.94137 3.31603 8.44596 3.11082C7.95055 2.90562 7.41957 2.8 6.88334 2.8C6.34711 2.8 5.81613 2.90562 5.32071 3.11082C4.8253 3.31603 4.37516 3.61681 3.99598 3.99598C3.61681 4.37515 3.31604 4.8253 3.11083 5.32071C2.90562 5.81612 2.8 6.3471 2.8 6.88333Z" stroke="white" stroke-linecap="round" stroke-linejoin="round"/>
</svg>
