<svg width="16" height="16" viewBox="0 0 16 16" fill="none" xmlns="http://www.w3.org/2000/svg">
<path opacity="0.5" d="M1.3335 8.00004C1.3335 4.85737 1.3335 3.28604 2.3095 2.30937C3.28683 1.33337 4.8575 1.33337 8.00016 1.33337C11.1428 1.33337 12.7142 1.33337 13.6902 2.30937C14.6668 3.28671 14.6668 4.85737 14.6668 8.00004" stroke="white"/>
<path d="M1.3335 9.33333C1.3335 7.46667 1.3335 6.53333 1.69683 5.82C2.0164 5.19282 2.52632 4.68291 3.1535 4.36333C3.86683 4 4.80016 4 6.66683 4H9.3335C11.2002 4 12.1335 4 12.8468 4.36333C13.474 4.68291 13.9839 5.19282 14.3035 5.82C14.6668 6.53333 14.6668 7.46667 14.6668 9.33333C14.6668 11.2 14.6668 12.1333 14.3035 12.8467C13.9839 13.4738 13.474 13.9838 12.8468 14.3033C12.1335 14.6667 11.2002 14.6667 9.3335 14.6667H6.66683C4.80016 14.6667 3.86683 14.6667 3.1535 14.3033C2.52632 13.9838 2.0164 13.4738 1.69683 12.8467C1.3335 12.1333 1.3335 11.2 1.3335 9.33333Z" stroke="white"/>
<path d="M8.00016 11.3334V7.33337M8.00016 7.33337L9.66683 9.00004M8.00016 7.33337L6.3335 9.00004" stroke="white" stroke-linecap="round" stroke-linejoin="round"/>
</svg>
