<svg width="39" height="37" viewBox="0 0 39 37" fill="none" xmlns="http://www.w3.org/2000/svg">
<rect x="1" y="1.52588e-05" width="37" height="37" rx="4" fill="#FFFCF2"/>
<path fill-rule="evenodd" clip-rule="evenodd" d="M24.3898 15.7012L24.4849 22.2357C24.4929 22.7887 24.9565 23.2287 25.5163 23.2144L26.9936 23.1769C27.5448 23.1629 27.9822 22.7133 27.9743 22.1686L27.8006 10.2301C27.7966 9.95354 27.5648 9.73358 27.2849 9.74069L15.2014 10.0476C14.6502 10.0616 14.2128 10.5113 14.2207 11.0559L14.2315 11.7965L14.242 12.5155C14.25 13.0686 14.7136 13.5085 15.2734 13.4943L21.8872 13.3263L9.5029 26.0597L12.0055 28.4346L24.3898 15.7012Z" fill="#BE406A"/>
</svg>
