<svg width="40" height="40" viewBox="0 0 40 40" fill="none" xmlns="http://www.w3.org/2000/svg">
<circle cx="20" cy="20" r="20" fill="#BE406A"/>
<path fill-rule="evenodd" clip-rule="evenodd" d="M13.2 25.2C12.6477 25.2 12.2 25.6477 12.2 26.2C12.2 26.7523 12.6477 27.2 13.2 27.2L26.8 27.2C27.3522 27.2 27.8 26.7523 27.8 26.2C27.8 25.6477 27.3522 25.2 26.8 25.2H13.2ZM21 14.2142L23.3857 16.6C23.7763 16.9905 24.4094 16.9905 24.8 16.6C25.1905 16.2095 25.1905 15.5763 24.8 15.1858L20.3535 10.7393C20.1582 10.5441 19.8417 10.5441 19.6464 10.7393L15.2 15.1858C14.8094 15.5763 14.8094 16.2095 15.2 16.6C15.5905 16.9905 16.2236 16.9905 16.6142 16.6L19 14.2142L19 24.4H21V14.2142Z" fill="#FFFCF2"/>
</svg>
