<svg width="18" height="18" viewBox="0 0 18 18" fill="none" xmlns="http://www.w3.org/2000/svg">
<g clip-path="url(#clip0_637_4080)">
<path fill-rule="evenodd" clip-rule="evenodd" d="M2.20001 15.2C1.64773 15.2 1.20001 15.6477 1.20001 16.2C1.20001 16.7523 1.64773 17.2 2.20001 17.2L15.8 17.2C16.3523 17.2 16.8 16.7523 16.8 16.2C16.8 15.6477 16.3523 15.2 15.8 15.2L2.20001 15.2ZM10 4.21421L12.3858 6.6C12.7763 6.99053 13.4095 6.99053 13.8 6.6C14.1905 6.20948 14.1905 5.57631 13.8 5.18579L9.35357 0.739341C9.1583 0.544079 8.84172 0.544079 8.64646 0.739341L4.20001 5.18579C3.80949 5.57631 3.80949 6.20948 4.20001 6.6C4.59054 6.99053 5.2237 6.99053 5.61423 6.6L8.00001 4.21421L8.00001 14.4H10L10 4.21421Z" fill="#B13F60"/>
</g>
<defs>
<clipPath id="clip0_637_4080">
<rect width="18" height="18" fill="white" transform="matrix(0 1 1 0 0 0)"/>
</clipPath>
</defs>
</svg>
