<svg width="92" height="50" viewBox="0 0 92 40" fill="none" xmlns="http://www.w3.org/2000/svg">
<path d="M79.5091 40L91.0091 0H18.5005C12.5005 1.16667 -0.390901 5.6 0.00909862 20C0.409099 34.4 12.8424 39.8333 19.0091 40H79.5091Z" fill="#1C416D"/>
<path d="M18.912 25.192C18.0907 25.192 17.3653 25.0533 16.736 24.776C16.1067 24.488 15.6107 24.0827 15.248 23.56C14.8853 23.0267 14.6987 22.3813 14.688 21.624H16.848C16.8693 22.1467 17.056 22.5893 17.408 22.952C17.7707 23.304 18.2667 23.48 18.896 23.48C19.44 23.48 19.872 23.352 20.192 23.096C20.512 22.8293 20.672 22.4773 20.672 22.04C20.672 21.5813 20.528 21.224 20.24 20.968C19.9627 20.712 19.5893 20.504 19.12 20.344C18.6507 20.184 18.1493 20.0133 17.616 19.832C16.752 19.5333 16.0907 19.1493 15.632 18.68C15.184 18.2107 14.96 17.5867 14.96 16.808C14.9493 16.1467 15.104 15.5813 15.424 15.112C15.7547 14.632 16.2027 14.264 16.768 14.008C17.3333 13.7413 17.984 13.608 18.72 13.608C19.4667 13.608 20.1227 13.7413 20.688 14.008C21.264 14.2747 21.712 14.648 22.032 15.128C22.3627 15.608 22.5387 16.1787 22.56 16.84H20.368C20.3573 16.4453 20.2027 16.0987 19.904 15.8C19.616 15.4907 19.2107 15.336 18.688 15.336C18.24 15.3253 17.8613 15.4373 17.552 15.672C17.2533 15.896 17.104 16.2267 17.104 16.664C17.104 17.0373 17.2213 17.336 17.456 17.56C17.6907 17.7733 18.0107 17.9547 18.416 18.104C18.8213 18.2533 19.2853 18.4133 19.808 18.584C20.3627 18.776 20.8693 19 21.328 19.256C21.7867 19.512 22.1547 19.8533 22.432 20.28C22.7093 20.696 22.848 21.2347 22.848 21.896C22.848 22.4827 22.6987 23.0267 22.4 23.528C22.1013 24.0293 21.6587 24.4347 21.072 24.744C20.4853 25.0427 19.7653 25.192 18.912 25.192ZM28.4429 25.192C27.6429 25.192 26.9335 25.0213 26.3149 24.68C25.6962 24.3387 25.2109 23.8587 24.8589 23.24C24.5069 22.6213 24.3309 21.9067 24.3309 21.096C24.3309 20.2747 24.5015 19.544 24.8429 18.904C25.1949 18.264 25.6749 17.768 26.2829 17.416C26.9015 17.0533 27.6269 16.872 28.4589 16.872C29.2375 16.872 29.9255 17.0427 30.5229 17.384C31.1202 17.7253 31.5842 18.1947 31.9149 18.792C32.2562 19.3787 32.4269 20.0347 32.4269 20.76C32.4269 20.8773 32.4215 21 32.4109 21.128C32.4109 21.256 32.4055 21.3893 32.3949 21.528H26.3629C26.4055 22.1467 26.6189 22.632 27.0029 22.984C27.3975 23.336 27.8722 23.512 28.4269 23.512C28.8429 23.512 29.1895 23.4213 29.4669 23.24C29.7549 23.048 29.9682 22.8027 30.1069 22.504H32.1869C32.0375 23.0053 31.7869 23.464 31.4349 23.88C31.0935 24.2853 30.6669 24.6053 30.1549 24.84C29.6535 25.0747 29.0829 25.192 28.4429 25.192ZM28.4589 18.536C27.9575 18.536 27.5149 18.68 27.1309 18.968C26.7469 19.2453 26.5015 19.672 26.3949 20.248H30.3469C30.3149 19.7253 30.1229 19.3093 29.7709 19C29.4189 18.6907 28.9815 18.536 28.4589 18.536ZM34.1494 25V17.064H35.9574L36.1174 18.408C36.3627 17.9387 36.7147 17.5653 37.1734 17.288C37.6427 17.0107 38.192 16.872 38.8214 16.872C39.8027 16.872 40.5654 17.1813 41.1094 17.8C41.6534 18.4187 41.9254 19.3253 41.9254 20.52V25H39.8774V20.712C39.8774 20.0293 39.7387 19.5067 39.4614 19.144C39.184 18.7813 38.752 18.6 38.1654 18.6C37.5894 18.6 37.1147 18.8027 36.7414 19.208C36.3787 19.6133 36.1974 20.1787 36.1974 20.904V25H34.1494ZM47.5318 25.192C46.7851 25.192 46.1184 25.0107 45.5318 24.648C44.9451 24.2853 44.4811 23.7893 44.1398 23.16C43.7984 22.5307 43.6278 21.816 43.6278 21.016C43.6278 20.216 43.7984 19.5067 44.1398 18.888C44.4811 18.2587 44.9451 17.768 45.5318 17.416C46.1184 17.0533 46.7851 16.872 47.5318 16.872C48.1291 16.872 48.6518 16.984 49.0998 17.208C49.5478 17.432 49.9104 17.7467 50.1878 18.152V13.48H52.2358V25H50.4118L50.1878 23.864C49.9318 24.216 49.5904 24.5253 49.1638 24.792C48.7478 25.0587 48.2038 25.192 47.5318 25.192ZM47.9638 23.4C48.6251 23.4 49.1638 23.1813 49.5798 22.744C50.0064 22.296 50.2198 21.7253 50.2198 21.032C50.2198 20.3387 50.0064 19.7733 49.5798 19.336C49.1638 18.888 48.6251 18.664 47.9638 18.664C47.3131 18.664 46.7744 18.8827 46.3478 19.32C45.9211 19.7573 45.7078 20.3227 45.7078 21.016C45.7078 21.7093 45.9211 22.28 46.3478 22.728C46.7744 23.176 47.3131 23.4 47.9638 23.4Z" fill="white"/>
<path d="M68.0818 21.0004C68.347 21.0004 68.6014 21.1057 68.7889 21.2933C68.9764 21.4808 69.0818 21.7351 69.0818 22.0004V29.0004C69.0818 29.2656 68.9764 29.5199 68.7889 29.7075C68.6014 29.895 68.347 30.0004 68.0818 30.0004C67.8166 30.0004 67.5622 29.895 67.3747 29.7075C67.1871 29.5199 67.0818 29.2656 67.0818 29.0004V22.0004C67.0818 21.7351 67.1871 21.4808 67.3747 21.2933C67.5622 21.1057 67.8166 21.0004 68.0818 21.0004Z" fill="white"/>
<path d="M68.0818 19.0003C68.2134 18.9996 68.3438 19.0248 68.4657 19.0746C68.5875 19.1243 68.6983 19.1977 68.7918 19.2903L70.7918 21.2903C70.9556 21.4816 71.0412 21.7277 71.0315 21.9794C71.0218 22.2311 70.9174 22.4698 70.7393 22.6479C70.5612 22.826 70.3225 22.9303 70.0708 22.9401C69.8191 22.9498 69.5731 22.8642 69.3818 22.7003L68.0818 21.4103L66.7918 22.7003C66.6005 22.8642 66.3544 22.9498 66.1027 22.9401C65.851 22.9303 65.6123 22.826 65.4342 22.6479C65.2561 22.4698 65.1518 22.2311 65.1421 21.9794C65.1323 21.7277 65.2179 21.4816 65.3818 21.2903L67.3818 19.2903C67.568 19.1056 67.8194 19.0014 68.0818 19.0003Z" fill="white"/>
<path d="M68.0818 10.0004C70.3532 9.97953 72.5641 10.7326 74.3504 12.1356C76.1368 13.5386 77.3923 15.508 77.9103 17.7196C78.4283 19.9312 78.1779 22.2533 77.2003 24.3037C76.2228 26.354 74.5763 28.0105 72.5318 29.0004C72.4138 29.0637 72.2843 29.1026 72.1509 29.1149C72.0176 29.1272 71.8831 29.1126 71.7555 29.0719C71.628 29.0312 71.5098 28.9654 71.4082 28.8782C71.3065 28.791 71.2234 28.6843 71.1638 28.5644C71.1042 28.4444 71.0693 28.3138 71.0611 28.1801C71.0529 28.0464 71.0717 27.9125 71.1163 27.7862C71.1609 27.6599 71.2304 27.5439 71.3206 27.445C71.4109 27.3461 71.5202 27.2663 71.6418 27.2104C73.2582 26.4086 74.5561 25.0839 75.3247 23.4515C76.0933 21.8191 76.2875 19.9747 75.8757 18.218C75.464 16.4613 74.4704 14.8954 73.0565 13.7745C71.6425 12.6536 69.8912 12.0437 68.0868 12.0437C66.2825 12.0437 64.5312 12.6536 63.1172 13.7745C61.7032 14.8954 60.7097 16.4613 60.2979 18.218C59.8862 19.9747 60.0804 21.8191 60.849 23.4515C61.6176 25.0839 62.9155 26.4086 64.5318 27.2104C64.6535 27.2663 64.7628 27.3461 64.853 27.445C64.9433 27.5439 65.0128 27.6599 65.0574 27.7862C65.102 27.9125 65.1207 28.0464 65.1126 28.1801C65.1044 28.3138 65.0695 28.4444 65.0099 28.5644C64.9502 28.6843 64.8671 28.791 64.7655 28.8782C64.6639 28.9654 64.5457 29.0312 64.4181 29.0719C64.2906 29.1126 64.1561 29.1272 64.0227 29.1149C63.8894 29.1026 63.7599 29.0637 63.6418 29.0004C61.5982 28.0108 59.9522 26.3553 58.9746 24.3059C57.9969 22.2566 57.7457 19.9356 58.2624 17.7245C58.7791 15.5135 60.0328 13.5442 61.8175 12.1403C63.6021 10.7365 65.8113 9.98185 68.0818 10.0004Z" fill="white"/>
</svg>
