<svg width="63" height="33" viewBox="0 0 63 33" fill="none" xmlns="http://www.w3.org/2000/svg">
<g filter="url(#filter0_i_373_372)">
<path d="M54.0388 31.5L61.7102 1.5H13.3413C9.33881 2.375 0.739238 5.7 1.00607 16.5C1.2729 27.3 9.56691 31.375 13.6806 31.5H54.0388Z" fill="#ED8E00" stroke="#1A355E" stroke-opacity="0.3" stroke-width="2"/>
<path d="M13.4091 19.87C12.8958 19.87 12.4424 19.7833 12.0491 19.61C11.6558 19.43 11.3458 19.1767 11.1191 18.85C10.8924 18.5167 10.7758 18.1133 10.7691 17.64H12.1191C12.1324 17.9667 12.2491 18.2433 12.4691 18.47C12.6958 18.69 13.0058 18.8 13.3991 18.8C13.7391 18.8 14.0091 18.72 14.2091 18.56C14.4091 18.3933 14.5091 18.1733 14.5091 17.9C14.5091 17.6133 14.4191 17.39 14.2391 17.23C14.0658 17.07 13.8324 16.94 13.5391 16.84C13.2458 16.74 12.9324 16.6333 12.5991 16.52C12.0591 16.3333 11.6458 16.0933 11.3591 15.8C11.0791 15.5067 10.9391 15.1167 10.9391 14.63C10.9324 14.2167 11.0291 13.8633 11.2291 13.57C11.4358 13.27 11.7158 13.04 12.0691 12.88C12.4224 12.7133 12.8291 12.63 13.2891 12.63C13.7558 12.63 14.1658 12.7133 14.5191 12.88C14.8791 13.0467 15.1591 13.28 15.3591 13.58C15.5658 13.88 15.6758 14.2367 15.6891 14.65H14.3191C14.3124 14.4033 14.2158 14.1867 14.0291 14C13.8491 13.8067 13.5958 13.71 13.2691 13.71C12.9891 13.7033 12.7524 13.7733 12.5591 13.92C12.3724 14.06 12.2791 14.2667 12.2791 14.54C12.2791 14.7733 12.3524 14.96 12.4991 15.1C12.6458 15.2333 12.8458 15.3467 13.0991 15.44C13.3524 15.5333 13.6424 15.6333 13.9691 15.74C14.3158 15.86 14.6324 16 14.9191 16.16C15.2058 16.32 15.4358 16.5333 15.6091 16.8C15.7824 17.06 15.8691 17.3967 15.8691 17.81C15.8691 18.1767 15.7758 18.5167 15.5891 18.83C15.4024 19.1433 15.1258 19.3967 14.7591 19.59C14.3924 19.7767 13.9424 19.87 13.4091 19.87ZM19.3659 19.87C18.8659 19.87 18.4226 19.7633 18.0359 19.55C17.6492 19.3367 17.3459 19.0367 17.1259 18.65C16.9059 18.2633 16.7959 17.8167 16.7959 17.31C16.7959 16.7967 16.9026 16.34 17.1159 15.94C17.3359 15.54 17.6359 15.23 18.0159 15.01C18.4026 14.7833 18.8559 14.67 19.3759 14.67C19.8626 14.67 20.2926 14.7767 20.6659 14.99C21.0392 15.2033 21.3292 15.4967 21.5359 15.87C21.7492 16.2367 21.8559 16.6467 21.8559 17.1C21.8559 17.1733 21.8526 17.25 21.8459 17.33C21.8459 17.41 21.8426 17.4933 21.8359 17.58H18.0659C18.0926 17.9667 18.2259 18.27 18.4659 18.49C18.7126 18.71 19.0092 18.82 19.3559 18.82C19.6159 18.82 19.8326 18.7633 20.0059 18.65C20.1859 18.53 20.3192 18.3767 20.4059 18.19H21.7059C21.6126 18.5033 21.4559 18.79 21.2359 19.05C21.0226 19.3033 20.7559 19.5033 20.4359 19.65C20.1226 19.7967 19.7659 19.87 19.3659 19.87ZM19.3759 15.71C19.0626 15.71 18.7859 15.8 18.5459 15.98C18.3059 16.1533 18.1526 16.42 18.0859 16.78H20.5559C20.5359 16.4533 20.4159 16.1933 20.1959 16C19.9759 15.8067 19.7026 15.71 19.3759 15.71ZM22.9325 19.75V14.79H24.0625L24.1625 15.63C24.3158 15.3367 24.5358 15.1033 24.8225 14.93C25.1158 14.7567 25.4591 14.67 25.8525 14.67C26.4658 14.67 26.9425 14.8633 27.2825 15.25C27.6225 15.6367 27.7925 16.2033 27.7925 16.95V19.75H26.5125V17.07C26.5125 16.6433 26.4258 16.3167 26.2525 16.09C26.0791 15.8633 25.8091 15.75 25.4425 15.75C25.0825 15.75 24.7858 15.8767 24.5525 16.13C24.3258 16.3833 24.2125 16.7367 24.2125 17.19V19.75H22.9325ZM31.2965 19.87C30.8298 19.87 30.4131 19.7567 30.0465 19.53C29.6798 19.3033 29.3898 18.9933 29.1765 18.6C28.9631 18.2067 28.8565 17.76 28.8565 17.26C28.8565 16.76 28.9631 16.3167 29.1765 15.93C29.3898 15.5367 29.6798 15.23 30.0465 15.01C30.4131 14.7833 30.8298 14.67 31.2965 14.67C31.6698 14.67 31.9965 14.74 32.2765 14.88C32.5565 15.02 32.7831 15.2167 32.9565 15.47V12.55H34.2365V19.75H33.0965L32.9565 19.04C32.7965 19.26 32.5831 19.4533 32.3165 19.62C32.0565 19.7867 31.7165 19.87 31.2965 19.87ZM31.5665 18.75C31.9798 18.75 32.3165 18.6133 32.5765 18.34C32.8431 18.06 32.9765 17.7033 32.9765 17.27C32.9765 16.8367 32.8431 16.4833 32.5765 16.21C32.3165 15.93 31.9798 15.79 31.5665 15.79C31.1598 15.79 30.8231 15.9267 30.5565 16.2C30.2898 16.4733 30.1565 16.8267 30.1565 17.26C30.1565 17.6933 30.2898 18.05 30.5565 18.33C30.8231 18.61 31.1598 18.75 31.5665 18.75Z" fill="white"/>
<path d="M46.4262 16.5427C46.627 16.5427 46.8195 16.6217 46.9614 16.7624C47.1034 16.903 47.1831 17.0938 47.1831 17.2927V22.5427C47.1831 22.7416 47.1034 22.9324 46.9614 23.0731C46.8195 23.2137 46.627 23.2927 46.4262 23.2927C46.2255 23.2927 46.033 23.2137 45.891 23.0731C45.7491 22.9324 45.6694 22.7416 45.6694 22.5427V17.2927C45.6694 17.0938 45.7491 16.903 45.891 16.7624C46.033 16.6217 46.2255 16.5427 46.4262 16.5427Z" fill="white"/>
<path d="M46.4264 15.0429C46.5261 15.0424 46.6248 15.0613 46.717 15.0986C46.8092 15.1359 46.8931 15.1909 46.9638 15.2604L48.4776 16.7604C48.6016 16.9039 48.6664 17.0885 48.659 17.2772C48.6517 17.466 48.5727 17.645 48.4379 17.7786C48.3031 17.9122 48.1224 17.9904 47.9319 17.9977C47.7414 18.005 47.5552 17.9408 47.4104 17.8179L46.4264 16.8504L45.4501 17.8179C45.3053 17.9408 45.119 18.005 44.9285 17.9977C44.7381 17.9904 44.5574 17.9122 44.4226 17.7786C44.2878 17.645 44.2088 17.466 44.2014 17.2772C44.1941 17.0885 44.2589 16.9039 44.3829 16.7604L45.8966 15.2604C46.0376 15.1219 46.2279 15.0438 46.4264 15.0429Z" fill="white"/>
<path d="M46.2916 8.29287C47.9805 8.27678 49.6243 8.85643 50.9526 9.9364C52.2808 11.0164 53.2144 12.5323 53.5995 14.2347C53.9846 15.9371 53.7985 17.7246 53.0716 19.3028C52.3447 20.8811 51.1205 22.1561 49.6004 22.9181C49.5126 22.9669 49.4163 22.9968 49.3172 23.0063C49.218 23.0157 49.118 23.0045 49.0232 22.9732C48.9283 22.9419 48.8405 22.8911 48.7649 22.824C48.6893 22.7569 48.6275 22.6748 48.5832 22.5825C48.5389 22.4902 48.5129 22.3896 48.5068 22.2867C48.5008 22.1838 48.5147 22.0807 48.5479 21.9835C48.581 21.8863 48.6327 21.797 48.6998 21.7208C48.7669 21.6447 48.8481 21.5833 48.9386 21.5403C50.1405 20.9231 51.1055 19.9034 51.677 18.6469C52.2485 17.3903 52.3929 15.9706 52.0867 14.6184C51.7805 13.2661 51.0418 12.0608 49.9905 11.198C48.9391 10.3352 47.6369 9.86568 46.2953 9.86568C44.9538 9.86568 43.6516 10.3352 42.6002 11.198C41.5489 12.0608 40.8102 13.2661 40.504 14.6184C40.1978 15.9706 40.3422 17.3903 40.9137 18.6469C41.4852 19.9034 42.4502 20.9231 43.6521 21.5403C43.7425 21.5833 43.8238 21.6447 43.8909 21.7208C43.958 21.797 44.0097 21.8863 44.0428 21.9835C44.076 22.0807 44.0899 22.1838 44.0839 22.2867C44.0778 22.3896 44.0518 22.4902 44.0075 22.5825C43.9632 22.6748 43.9014 22.7569 43.8258 22.824C43.7502 22.8911 43.6624 22.9419 43.5675 22.9732C43.4727 23.0045 43.3727 23.0157 43.2735 23.0063C43.1744 22.9968 43.0781 22.9669 42.9903 22.9181C41.4708 22.1564 40.2469 20.882 39.52 19.3046C38.793 17.7271 38.6063 15.9405 38.9905 14.2385C39.3747 12.5366 40.3069 11.0207 41.6338 9.94008C42.9607 8.85949 44.6034 8.27857 46.2916 8.29287Z" fill="white"/>
</g>
<defs>
<filter id="filter0_i_373_372" x="0" y="0.5" width="62.9981" height="36" filterUnits="userSpaceOnUse" color-interpolation-filters="sRGB">
<feFlood flood-opacity="0" result="BackgroundImageFix"/>
<feBlend mode="normal" in="SourceGraphic" in2="BackgroundImageFix" result="shape"/>
<feColorMatrix in="SourceAlpha" type="matrix" values="0 0 0 0 0 0 0 0 0 0 0 0 0 0 0 0 0 0 127 0" result="hardAlpha"/>
<feOffset dy="4"/>
<feGaussianBlur stdDeviation="2"/>
<feComposite in2="hardAlpha" operator="arithmetic" k2="-1" k3="1"/>
<feColorMatrix type="matrix" values="0 0 0 0 0 0 0 0 0 0 0 0 0 0 0 0 0 0 0.25 0"/>
<feBlend mode="normal" in2="shape" result="effect1_innerShadow_373_372"/>
</filter>
</defs>
</svg>
