<svg width="20" height="20" viewBox="0 0 20 20" fill="none" xmlns="http://www.w3.org/2000/svg">
<path fill-rule="evenodd" clip-rule="evenodd" d="M11.5026 4.4444C11.5026 2.91028 12.7519 1.66663 14.293 1.66663C15.8341 1.66663 17.0834 2.91028 17.0834 4.4444C17.0834 5.97853 15.8341 7.22218 14.293 7.22218C13.5148 7.22218 12.8116 6.90493 12.306 6.39452L8.44316 9.02454C8.47883 9.20204 8.49758 9.38538 8.49758 9.57263C8.49758 9.94346 8.42425 10.298 8.29141 10.622L12.527 13.4048C13.0077 13.0134 13.6228 12.7777 14.293 12.7777C15.8341 12.7777 17.0834 14.0214 17.0834 15.5555C17.0834 17.0896 15.8341 18.3333 14.293 18.3333C12.7519 18.3333 11.5026 17.0896 11.5026 15.5555C11.5026 15.1537 11.5886 14.7712 11.7432 14.4259L7.54181 11.6655C7.05171 12.0915 6.40975 12.3504 5.70715 12.3504C4.16606 12.3504 2.91675 11.1067 2.91675 9.57263C2.91675 8.03848 4.16606 6.79483 5.70715 6.79483C6.59333 6.79483 7.38219 7.206 7.89296 7.84594L11.6367 5.29698C11.5496 5.02795 11.5026 4.74129 11.5026 4.4444Z" fill="black"/>
</svg>
