<svg width="36" height="32" viewBox="0 0 36 32" fill="none" xmlns="http://www.w3.org/2000/svg">
<path fill-rule="evenodd" clip-rule="evenodd" d="M18.0003 10.1665C18.155 10.1665 18.3034 10.228 18.4128 10.3374L21.5631 13.4877C21.7909 13.7155 21.7909 14.0848 21.5631 14.3126C21.3353 14.5404 20.966 14.5404 20.7382 14.3126L18.5838 12.1582V18.3332C18.5838 18.6553 18.3226 18.9165 18.0004 18.9165C17.6782 18.9165 17.4171 18.6553 17.4171 18.3332V12.158L15.2625 14.3126C15.0347 14.5404 14.6653 14.5404 14.4375 14.3126C14.2097 14.0848 14.2097 13.7155 14.4375 13.4877L17.5878 10.3374C17.6972 10.228 17.8456 10.1665 18.0003 10.1665ZM12.7498 17.7498C13.072 17.7498 13.3332 18.011 13.3332 18.3332V20.0832C13.3332 20.4053 13.5943 20.6665 13.9165 20.6665H22.0842C22.4064 20.6665 22.6676 20.4053 22.6676 20.0832V18.3332C22.6676 18.011 22.9288 17.7498 23.2509 17.7498C23.5731 17.7498 23.8342 18.011 23.8342 18.3332V20.0832C23.8342 21.0497 23.0507 21.8332 22.0842 21.8332H13.9165C12.95 21.8332 12.1665 21.0497 12.1665 20.0832V18.3332C12.1665 18.011 12.4277 17.7498 12.7498 17.7498Z" fill="white"/>
<rect x="0.5" y="0.5" width="35" height="31" rx="7.5" stroke="#CFD6E4"/>
</svg>
