<svg width="54" height="54" viewBox="0 0 54 54" fill="none" xmlns="http://www.w3.org/2000/svg">
<g filter="url(#filter0_d_218_980)">
<path fill-rule="evenodd" clip-rule="evenodd" d="M45.6875 11.5C45.6875 7.53322 42.4668 4.3125 38.5 4.3125H15.5C11.5332 4.3125 8.3125 7.53322 8.3125 11.5V34.5C8.3125 38.4668 11.5332 41.6875 15.5 41.6875H38.5C42.4668 41.6875 45.6875 38.4668 45.6875 34.5V11.5Z" fill="#1C416D"/>
<path fill-rule="evenodd" clip-rule="evenodd" d="M34.9062 18.6875V27.3125C34.9062 28.106 35.5502 28.7499 36.3438 28.7499C37.1372 28.7499 37.7812 28.106 37.7812 27.3125V18.6875C37.7812 17.894 37.1372 17.2502 36.3438 17.2502C35.5502 17.2502 34.9062 17.894 34.9062 18.6875Z" fill="white"/>
<path fill-rule="evenodd" clip-rule="evenodd" d="M36.3437 20.7201L33.7663 23.2976C33.2057 23.8589 32.2943 23.8589 31.7337 23.2976C31.1723 22.7369 31.1723 21.8256 31.7337 21.2649L35.3274 17.6712C35.8888 17.1098 36.7987 17.1098 37.3601 17.6712L40.9538 21.2649C41.5152 21.8256 41.5152 22.7369 40.9538 23.2976C40.3932 23.8589 39.4818 23.8589 38.9212 23.2976L36.3437 20.7201Z" fill="white"/>
<path fill-rule="evenodd" clip-rule="evenodd" d="M15.5004 24.4375H27.0004C27.7939 24.4375 28.438 23.7935 28.438 23C28.438 22.2065 27.7939 21.5625 27.0004 21.5625H15.5004C14.7069 21.5625 14.0629 22.2065 14.0629 23C14.0629 23.7935 14.7069 24.4375 15.5004 24.4375Z" fill="#F7F7F7"/>
<path fill-rule="evenodd" clip-rule="evenodd" d="M15.4988 33.0625H31.3112C32.1046 33.0625 32.7484 32.4185 32.7484 31.625C32.7484 30.8315 32.1046 30.1875 31.3112 30.1875H15.4988C14.7053 30.1875 14.0615 30.8315 14.0615 31.625C14.0615 32.4185 14.7053 33.0625 15.4988 33.0625Z" fill="#F7F7F7"/>
<path fill-rule="evenodd" clip-rule="evenodd" d="M15.4992 15.8125H22.6866C23.4801 15.8125 24.1241 15.1685 24.1241 14.375C24.1241 13.5815 23.4801 12.9375 22.6866 12.9375H15.4992C14.7057 12.9375 14.0617 13.5815 14.0617 14.375C14.0617 15.1685 14.7057 15.8125 15.4992 15.8125Z" fill="#F7F7F7"/>
</g>
<defs>
<filter id="filter0_d_218_980" x="0" y="0" width="54" height="54" filterUnits="userSpaceOnUse" color-interpolation-filters="sRGB">
<feFlood flood-opacity="0" result="BackgroundImageFix"/>
<feColorMatrix in="SourceAlpha" type="matrix" values="0 0 0 0 0 0 0 0 0 0 0 0 0 0 0 0 0 0 127 0" result="hardAlpha"/>
<feOffset dy="4"/>
<feGaussianBlur stdDeviation="2"/>
<feComposite in2="hardAlpha" operator="out"/>
<feColorMatrix type="matrix" values="0 0 0 0 0 0 0 0 0 0 0 0 0 0 0 0 0 0 0.25 0"/>
<feBlend mode="normal" in2="BackgroundImageFix" result="effect1_dropShadow_218_980"/>
<feBlend mode="normal" in="SourceGraphic" in2="effect1_dropShadow_218_980" result="shape"/>
</filter>
</defs>
</svg>
