<svg width="35" height="35" viewBox="0 0 35 35" fill="none" xmlns="http://www.w3.org/2000/svg">
<path d="M35 17.4987C35 27.1638 27.1665 35.0001 17.5014 35.0001C7.8363 35.0001 0 27.1638 0 17.4987C0 7.83355 7.8363 0 17.5014 0C27.1665 0 35 7.83355 35 17.4987Z" fill="#2C4F84"/>
<path d="M30.7458 17.4997C30.7458 17.5792 30.7458 17.6609 30.7435 17.7404C30.6155 24.9483 24.7366 30.7455 17.4999 30.7455C11.0404 30.7455 5.66254 26.125 4.49251 20.0054C2.91825 11.869 9.16284 4.25391 17.4999 4.25391C24.816 4.25391 30.7458 10.1858 30.7458 17.4997Z" fill="#113E83"/>
<path d="M12.0405 28.0872H9.47676C9.26527 28.0872 9.09384 27.9159 9.09384 27.7044C9.09384 27.4929 9.26527 27.3216 9.47676 27.3216H12.0405C12.3596 27.3216 12.6189 27.062 12.6189 26.7431V18.3301C12.6189 18.1186 12.7903 17.9473 13.0018 17.9473C13.2133 17.9473 13.3847 18.1186 13.3847 18.3301V26.7431C13.3847 27.4842 12.7818 28.0872 12.0405 28.0872Z" fill="white"/>
<path d="M10.9055 27.7008C10.9055 28.537 10.2275 29.2093 9.39699 29.2093C8.56649 29.2093 7.88853 28.537 7.88855 27.7008C7.88857 26.8703 8.56657 26.198 9.39708 26.198C10.2276 26.198 10.9055 26.8703 10.9055 27.7008Z" fill="#FFB750"/>
<path d="M10.6876 28.4777C10.4251 28.9152 9.94547 29.2078 9.39636 29.2078C8.56671 29.2079 7.88792 28.5351 7.88794 27.6994C7.88796 27.1564 8.1806 26.6797 8.61503 26.4172C7.79818 27.7491 9.3691 29.3041 10.6876 28.4777Z" fill="#EA9E32"/>
<path d="M25.523 28.4072H22.9595C22.2182 28.4072 21.615 27.8043 21.615 27.0631V20.1399C21.615 19.9284 21.7865 19.7571 21.9979 19.7571C22.2094 19.7571 22.3809 19.9284 22.3809 20.1399V27.0631C22.3809 27.3821 22.6404 27.6416 22.9595 27.6416H25.523C25.7345 27.6416 25.9059 27.8129 25.9059 28.0244C25.9059 28.2359 25.7345 28.4072 25.523 28.4072Z" fill="white"/>
<path d="M27.1125 28.0277C27.1125 27.1916 26.4346 26.5193 25.6041 26.5193C24.7736 26.5193 24.0956 27.1916 24.0956 28.0277C24.0956 28.8583 24.7736 29.5306 25.6041 29.5306C26.4345 29.5306 27.1125 28.8583 27.1125 28.0277Z" fill="#4FA4E8"/>
<path d="M26.8938 28.8007C26.6313 29.2382 26.1516 29.5278 25.6025 29.5278C24.7729 29.5278 24.0941 28.858 24.0941 28.0254C24.0941 27.4763 24.3868 26.9966 24.8242 26.7341C24.01 28.0618 25.559 29.6193 26.8938 28.8007Z" fill="#358CD1"/>
<path d="M17.4171 29.9848C17.2056 29.9848 17.0342 29.8135 17.0342 29.602V16.2177C17.0342 16.0063 17.2056 15.835 17.4171 15.835C17.6286 15.835 17.8 16.0063 17.8 16.2177V29.602C17.8 29.8135 17.6286 29.9848 17.4171 29.9848Z" fill="white"/>
<path d="M18.9258 29.8126C18.9258 30.6488 18.2478 31.3211 17.4173 31.3211C16.5869 31.3211 15.9089 30.6488 15.9089 29.8127C15.9089 28.9821 16.5869 28.3098 17.4174 28.3098C18.2478 28.3098 18.9258 28.9821 18.9258 29.8126Z" fill="#FCB754"/>
<path d="M18.7076 30.5913C18.4451 31.0288 17.9655 31.3214 17.4164 31.3214C16.5867 31.3214 15.9079 30.6486 15.9079 29.813C15.9079 29.2699 16.1975 28.7963 16.632 28.5308C16.4962 28.757 16.4178 29.0195 16.4178 29.3031C16.4178 30.5042 17.746 31.1939 18.7076 30.5913Z" fill="#F1AA44"/>
<path d="M31.8501 15.9154C31.8501 18.792 29.5204 21.1217 26.6439 21.1217H8.0966C5.36497 21.1217 3.15283 18.9068 3.15283 16.1779C3.15283 13.9138 4.67316 12.0052 6.75675 11.4201C7.5826 8.87212 10.1921 7.25516 12.9227 7.76422C14.1696 5.23219 16.7755 3.49316 19.7861 3.49316C23.8904 3.49316 27.2372 6.71971 27.4286 10.772C29.9333 11.1494 31.8501 13.3095 31.8501 15.9154Z" fill="#3897E3"/>
<path d="M24.1672 4.87094C20.498 3.37345 16.2086 4.92939 14.4148 8.57818C11.6669 8.06454 9.06773 9.70117 8.24822 12.2338C4.36414 13.3266 3.36785 18.3615 6.51151 20.8597C4.5562 20.2009 3.15039 18.3548 3.15039 16.1779C3.15039 13.9128 4.67458 12.003 6.75442 11.4201C7.5821 8.87321 10.1959 7.25029 12.921 7.76447C15.0171 3.51099 20.3715 2.21681 24.1672 4.87094Z" fill="#2CA1FF"/>
<g opacity="0.3">
<path d="M20.9518 6.22403C20.5727 6.13497 20.1807 6.08984 19.7865 6.08984C19.5601 6.08984 19.3764 5.90626 19.3764 5.67969C19.3764 5.45311 19.5601 5.26953 19.7865 5.26953C20.2437 5.26953 20.699 5.322 21.1393 5.42534C21.3599 5.47715 21.4966 5.69798 21.4448 5.91841C21.3935 6.13732 21.1745 6.27591 20.9518 6.22403Z" fill="white"/>
</g>
<path d="M18.5233 15.213C18.3575 15.3815 18.2854 15.6167 18.3362 15.8467C18.3422 15.8743 18.8154 18.0291 18.7853 17.8921C18.8388 18.1354 18.6543 18.368 18.403 18.368H16.2854C16.0368 18.368 15.8496 18.1354 15.9031 17.8921C15.9091 17.8645 16.3823 15.7069 16.3523 15.844C16.4031 15.6221 16.3389 15.3868 16.1785 15.2237C15.243 14.2749 15.7615 12.6931 17.018 12.451C18.6421 12.137 19.6193 14.0853 18.5233 15.213Z" fill="#0D2B59"/>
<path d="M16.9245 15.2241C17.085 15.3871 17.1491 15.6224 17.101 15.8444L16.6491 17.8924C16.5957 18.1357 16.7828 18.3683 17.0315 18.3683H16.2855C16.0369 18.3683 15.8497 18.1357 15.9032 17.8924L16.3524 15.8444C16.4032 15.6224 16.339 15.3871 16.1786 15.2241C15.8176 14.8604 15.6251 14.331 15.7267 13.7615C15.8874 12.8704 16.7796 12.2438 17.7106 12.4621C16.472 12.7467 16.0132 14.306 16.9245 15.2241Z" fill="#003A4D"/>
<path d="M25.0343 11.552C23.3766 11.4861 21.9336 12.4567 21.3035 13.8695C21.1282 14.2626 20.749 14.5246 20.3186 14.5246H15.733C15.8105 14.792 15.9549 15.03 16.1447 15.2225C16.3051 15.3856 16.3693 15.6209 16.3185 15.8428L16.1982 16.3962H20.32C20.746 16.3962 21.1265 16.6513 21.2992 17.0407C21.9069 18.4117 23.2811 19.3694 24.8756 19.3694C27.097 19.3694 28.8923 17.5056 28.7795 15.2599C28.6792 13.2656 27.0296 11.6312 25.0343 11.552ZM24.8756 17.4978C23.7499 17.4978 22.8355 16.5834 22.8355 15.4604C22.8355 14.3348 23.7499 13.4204 24.8756 13.4204C25.9985 13.4204 26.9129 14.3348 26.9129 15.4604C26.9129 16.5834 25.9985 17.4978 24.8756 17.4978Z" fill="#FFB750"/>
<g opacity="0.3">
<path d="M27.3253 14.2691C27.084 13.8304 26.7446 13.4396 26.3438 13.1388C26.2255 13.0503 26.2015 12.8826 26.2903 12.7646C26.3788 12.6463 26.5464 12.6228 26.6645 12.7111C27.1258 13.0571 27.5164 13.5067 27.7937 14.0117C27.865 14.1409 27.8177 14.3036 27.6882 14.3746C27.5591 14.4458 27.3963 14.3986 27.3253 14.2691ZM25.7336 12.7711C25.6169 12.7158 25.4955 12.6664 25.3728 12.6247C25.2331 12.5771 25.1584 12.4252 25.2062 12.2852C25.2537 12.1455 25.4059 12.0703 25.5456 12.1186C25.6874 12.167 25.8276 12.2239 25.9629 12.2881C26.0963 12.3513 26.1532 12.5108 26.0898 12.6443C26.0271 12.7763 25.8687 12.8349 25.7336 12.7711Z" fill="white"/>
</g>
<g opacity="0.3">
<path d="M25.1393 10.4608H25.1399C25.3979 10.4608 25.5947 10.2246 25.5444 9.97151C25.2089 8.28301 24.1536 6.83213 22.6085 5.98765C22.3894 5.86825 22.1086 5.969 22.0229 6.21613C21.9554 6.41079 22.0596 6.6215 22.2398 6.72129C23.5571 7.45056 24.4543 8.69506 24.7396 10.1411C24.7767 10.3291 24.9477 10.4608 25.1393 10.4608Z" fill="white"/>
</g>
</svg>
