<svg width="576" height="570" viewBox="0 0 576 570" fill="none" xmlns="http://www.w3.org/2000/svg">
<path d="M521.038 205.732C523.628 213.404 494.209 274.066 494.301 282.163C494.393 290.26 525.183 350.238 522.768 357.967C520.354 365.696 460.897 397.481 456.212 404.085C451.528 410.69 441.182 477.311 434.686 482.144C428.19 486.978 361.406 477.745 353.734 480.335C346.061 482.924 298.533 530.741 290.436 530.833C282.34 530.925 233.737 484.2 226.008 481.786C218.279 479.371 151.722 490.119 145.118 485.435C138.513 480.75 126.657 414.381 121.823 407.885C116.99 401.389 56.8262 370.963 54.2366 363.291C51.6471 355.619 81.0657 294.956 80.9737 286.859C80.8817 278.763 50.0923 218.784 52.5068 211.055C54.9214 203.327 114.378 171.542 119.063 164.937C123.747 158.333 134.093 91.7115 140.589 86.8779C147.085 82.0443 213.87 91.2774 221.542 88.6879C229.214 86.0983 276.742 38.2815 284.839 38.1895C292.935 38.0975 341.538 84.822 349.267 87.2366C356.996 89.6511 423.553 78.9029 430.158 83.5877C436.762 88.2724 448.618 154.641 453.452 161.137C458.285 167.634 518.449 198.06 521.038 205.732Z" fill="#3897E3"/>
<path d="M442.618 286.705C442.618 327.635 426.359 366.889 397.416 395.832C368.474 424.774 329.22 441.034 288.29 441.034C268.023 441.034 247.954 437.042 229.23 429.286C210.506 421.53 193.493 410.163 179.163 395.832C164.832 381.501 153.464 364.488 145.708 345.764C137.953 327.04 133.961 306.972 133.961 286.705C133.961 245.774 150.22 206.52 179.163 177.578C208.105 148.636 247.359 132.376 288.29 132.376C329.22 132.376 368.474 148.636 397.416 177.578C426.359 206.52 442.618 245.774 442.618 286.705Z" fill="#0D2B59"/>
<path d="M350.155 202.415C340.186 202.705 330.721 206.862 323.762 214.006L266.943 270.825L252.203 257.155C248.505 253.722 244.167 251.051 239.437 249.295C234.707 247.538 229.678 246.73 224.636 246.917C214.453 247.296 204.837 251.703 197.903 259.171C194.47 262.869 191.799 267.206 190.043 271.936C188.286 276.666 187.478 281.696 187.666 286.738C188.044 296.921 192.451 306.537 199.919 313.47L241.809 352.273C249.087 359.043 258.707 362.727 268.645 362.551C278.584 362.375 288.067 358.352 295.1 351.328L378.061 268.305C383.598 262.909 387.376 255.967 388.903 248.388C390.43 240.809 389.634 232.945 386.619 225.826C383.604 218.707 378.51 212.664 372.004 208.487C365.499 204.31 357.884 202.194 350.155 202.415Z" fill="#3897E3"/>
</svg>
