<svg width="27" height="28" viewBox="0 0 27 28" fill="none" xmlns="http://www.w3.org/2000/svg">
<path fill-rule="evenodd" clip-rule="evenodd" d="M13.5001 28C20.9356 28 27 21.7109 27 14.0001C27 6.28905 20.9356 0 13.5001 0C6.06444 0 0 6.28905 0 14.0001C0 21.7109 6.06444 28 13.5001 28Z" fill="#3897E3"/>
<path fill-rule="evenodd" clip-rule="evenodd" d="M24.049 3.13689C20.5327 3.13689 17.1742 1.58194 13.5 3.13689V17.0234H24.049V3.13689Z" fill="white"/>
<path fill-rule="evenodd" clip-rule="evenodd" d="M2.95093 3.13686C6.46721 3.13686 11.5487 1.60889 13.5 3.13686V17.0233H2.95093V3.13686Z" fill="white"/>
<path fill-rule="evenodd" clip-rule="evenodd" d="M13.0064 19.2036L14.1763 19.1982C14.3519 19.1974 14.496 19.3456 14.4966 19.5273L14.5147 25.2057C14.5154 25.3875 14.3726 25.5371 14.1974 25.5378L13.0274 25.5432C12.8522 25.5438 12.7078 25.3959 12.7071 25.214L12.689 19.5355C12.6884 19.3537 12.831 19.2043 13.0063 19.2036H13.0064Z" fill="#FFBB5B"/>
<path fill-rule="evenodd" clip-rule="evenodd" d="M16.2297 9.9051C18.1149 11.4685 18.421 14.3206 16.9134 16.2758C15.406 18.2308 12.6555 18.5484 10.7703 16.9848C8.88509 15.4214 8.57899 12.5693 10.0866 10.6143C11.5941 8.65928 14.3444 8.34184 16.2297 9.9051Z" fill="#ECEFF1"/>
<path fill-rule="evenodd" clip-rule="evenodd" d="M13.2173 13.7165L13.0869 11.6987C13.0632 11.3058 13.0508 11.0224 13.0508 10.8509C13.0508 10.6178 13.1092 10.4364 13.227 10.3054C13.345 10.1745 13.4991 10.1096 13.6905 10.1096C13.9237 10.1096 14.0792 10.1931 14.1569 10.3601C14.2361 10.527 14.2748 10.7689 14.2748 11.0827C14.2748 11.2684 14.265 11.457 14.2471 11.6484L14.0721 13.7251C14.0528 13.9727 14.0125 14.1628 13.95 14.2952C13.889 14.4262 13.7862 14.4924 13.642 14.4924C13.4962 14.4924 13.3949 14.4292 13.3379 14.3009C13.2825 14.1728 13.2408 13.9786 13.2172 13.7165H13.2173ZM13.667 16.4915C13.5018 16.4915 13.3576 16.4354 13.2353 16.3245C13.1118 16.2136 13.0508 16.0583 13.0508 15.8583C13.0508 15.684 13.1092 15.5358 13.227 15.4135C13.345 15.2911 13.4879 15.2307 13.6586 15.2307C13.8293 15.2307 13.9737 15.2911 14.0944 15.4135C14.2153 15.5358 14.2749 15.684 14.2749 15.8583C14.2749 16.0554 14.2139 16.2109 14.0932 16.3231C13.971 16.4354 13.8294 16.4915 13.667 16.4915Z" fill="white"/>
<path fill-rule="evenodd" clip-rule="evenodd" d="M9.69964 12.8251C9.77378 11.9779 10.1241 11.1521 10.7509 10.505C11.3732 9.86252 12.1643 9.50319 12.9752 9.42673C13.0609 9.41856 13.1374 9.44524 13.2008 9.5052C13.2642 9.56516 13.2971 9.64161 13.2973 9.73069V9.76699C13.2977 9.92607 13.1819 10.058 13.0292 10.0727C12.3593 10.1368 11.706 10.4337 11.192 10.9643C10.6743 11.4988 10.3843 12.181 10.3224 12.8807C10.3083 13.039 10.1811 13.159 10.0279 13.1589H9.99288C9.90712 13.1586 9.83326 13.1246 9.77544 13.059C9.71762 12.9932 9.69176 12.9139 9.6995 12.8252L9.69964 12.8251ZM10.1513 13.5115C10.2764 13.6419 10.276 13.8527 10.1503 13.9825C10.0244 14.1125 9.82109 14.1119 9.6959 13.9815C9.57072 13.851 9.57114 13.6401 9.69687 13.5103C9.82261 13.3804 10.0261 13.3809 10.1513 13.5113V13.5115Z" fill="white"/>
</svg>
