<svg width="57" height="57" viewBox="0 0 57 57" fill="none" xmlns="http://www.w3.org/2000/svg">
<mask id="mask0_1828_7620" style="mask-type:alpha" maskUnits="userSpaceOnUse" x="0" y="0" width="57" height="57">
<rect x="0.5" y="0.5" width="56" height="56" fill="#D9D9D9"/>
</mask>
<g mask="url(#mask0_1828_7620)">
<path d="M33.5 44.8332L42.8333 35.4998L39.5667 32.2332L35.8333 35.8498V26.1665H31.1667V35.8498L27.4333 32.2332L24.1667 35.4998L33.5 44.8332ZM21.8333 30.8332H26.5V21.1498L30.2333 24.7665L33.5 21.4998L24.1667 12.1665L14.8333 21.4998L18.1 24.7665L21.8333 21.1498V30.8332ZM28.8333 51.8332C25.6056 51.8332 22.5722 51.2207 19.7333 49.9957C16.8944 48.7707 14.425 47.1082 12.325 45.0082C10.225 42.9082 8.5625 40.4387 7.3375 37.5998C6.1125 34.761 5.5 31.7276 5.5 28.4998C5.5 25.2721 6.1125 22.2387 7.3375 19.3998C8.5625 16.5609 10.225 14.0915 12.325 11.9915C14.425 9.8915 16.8944 8.229 19.7333 7.004C22.5722 5.779 25.6056 5.1665 28.8333 5.1665C32.0611 5.1665 35.0944 5.779 37.9333 7.004C40.7722 8.229 43.2417 9.8915 45.3417 11.9915C47.4417 14.0915 49.1042 16.5609 50.3292 19.3998C51.5542 22.2387 52.1667 25.2721 52.1667 28.4998C52.1667 31.7276 51.5542 34.761 50.3292 37.5998C49.1042 40.4387 47.4417 42.9082 45.3417 45.0082C43.2417 47.1082 40.7722 48.7707 37.9333 49.9957C35.0944 51.2207 32.0611 51.8332 28.8333 51.8332ZM28.8333 47.1665C34.0444 47.1665 38.4583 45.3582 42.075 41.7415C45.6917 38.1248 47.5 33.711 47.5 28.4998C47.5 23.2887 45.6917 18.8748 42.075 15.2582C38.4583 11.6415 34.0444 9.83317 28.8333 9.83317C23.6222 9.83317 19.2083 11.6415 15.5917 15.2582C11.975 18.8748 10.1667 23.2887 10.1667 28.4998C10.1667 33.711 11.975 38.1248 15.5917 41.7415C19.2083 45.3582 23.6222 47.1665 28.8333 47.1665Z" fill="#B5B2C1"/>
</g>
</svg>
