<svg width="15" height="15" viewBox="0 0 15 15" fill="none" xmlns="http://www.w3.org/2000/svg">
<path opacity="0.5" d="M1 7.49992C1 4.35725 1 2.78592 1.976 1.80925C2.95333 0.833252 4.524 0.833252 7.66667 0.833252C10.8093 0.833252 12.3807 0.833252 13.3567 1.80925C14.3333 2.78659 14.3333 4.35725 14.3333 7.49992C14.3333 10.6426 14.3333 12.2139 13.3567 13.1899C12.3813 14.1666 10.8093 14.1666 7.66667 14.1666C4.524 14.1666 2.95267 14.1666 1.976 13.1899C1 12.2146 1 10.6426 1 7.49992Z" stroke="white"/>
<path d="M6.33337 4.1665V10.8332L4.33337 8.54117M9.00004 10.8332V4.1665L11 6.4585" stroke="white" stroke-linecap="round" stroke-linejoin="round"/>
</svg>
