<svg width="57" height="56" viewBox="0 0 57 56" fill="none" xmlns="http://www.w3.org/2000/svg">
<path d="M52.6566 13.1424L26.2484 39.107C26.0615 39.2922 25.839 39.4392 25.5939 39.5395C25.3488 39.6399 25.0859 39.6915 24.8204 39.6915C24.5549 39.6915 24.292 39.6399 24.0469 39.5395C23.8018 39.4392 23.5794 39.2922 23.3924 39.107L11.3247 27.251L14.1807 24.4451L24.8204 34.9179L50.2632 9.92149C45.4964 4.3827 38.7278 0.877381 31.3828 0.143692C24.0379 -0.589997 16.6897 1.5052 10.8858 5.98808C5.08181 10.471 1.275 16.9917 0.266993 24.177C-0.741017 31.3624 1.12844 38.6517 5.48168 44.51C9.83492 50.3682 16.3322 54.3382 23.6053 55.5839C30.8785 56.8296 38.3598 55.2538 44.474 51.1884C50.5882 47.1229 54.858 40.8851 56.3842 33.7885C57.9105 26.6919 56.5742 19.2903 52.6566 13.1424Z" fill="#422E66"/>
</svg>
