<svg xmlns="http://www.w3.org/2000/svg" viewBox="0 0 32 32" id="Lock"><g data-name="Layer 5" fill="#ffffff" class="color000000 svgShape"><path d="M9,28H23a3,3,0,0,0,3-3V17a3,3,0,0,0-3-3H12V10a4,4,0,0,1,8,0,1,1,0,0,0,2,0,6,6,0,0,0-12,0v4H9a3,3,0,0,0-3,3v8A3,3,0,0,0,9,28ZM8,17a1,1,0,0,1,1-1H23a1,1,0,0,1,1,1v8a1,1,0,0,1-1,1H9a1,1,0,0,1-1-1Z" fill="#ffffff" class="color000000 svgShape"></path><path d="M15,21.72V23a1,1,0,0,0,2,0V21.72A2,2,0,0,0,18,20a2,2,0,0,0-4,0A2,2,0,0,0,15,21.72Z" fill="#ffffff" class="color000000 svgShape"></path></g></svg>