<svg width="71" height="24" viewBox="0 0 71 24" fill="none" xmlns="http://www.w3.org/2000/svg">
<path d="M8.202 15.904C9.29954 15.904 10.2366 15.5157 11.0132 14.7392C11.7897 13.9626 12.178 13.0255 12.178 11.928C12.178 10.8305 11.7897 9.8934 11.0132 9.11681C10.2366 8.3403 9.29954 7.952 8.202 7.952C7.10446 7.952 6.16741 8.3403 5.39084 9.11681C4.61428 9.8934 4.226 10.8305 4.226 11.928C4.226 13.0255 4.61428 13.9626 5.39084 14.7392C6.16741 15.5157 7.10446 15.904 8.202 15.904ZM0.25 11.928C0.25 10.8719 0.451909 9.85714 0.85572 8.8839C1.25953 7.91057 1.83419 7.0512 2.57969 6.3057C3.32519 5.5602 4.18459 4.98551 5.15788 4.5817C6.13117 4.1779 7.14588 3.976 8.202 3.976C9.25811 3.976 10.2729 4.1779 11.2461 4.5817C12.2194 4.98551 13.0788 5.5602 13.8243 6.3057C14.5698 7.0512 15.1445 7.91057 15.5483 8.8839C15.9521 9.85714 16.154 10.8719 16.154 11.928C16.154 12.9841 15.9521 13.9989 15.5483 14.9721C15.1445 15.9454 14.5698 16.8048 13.8243 17.5503C13.0788 18.2958 12.2194 18.8705 11.2461 19.2743C10.2729 19.6781 9.25811 19.88 8.202 19.88C7.14588 19.88 6.13117 19.6781 5.15788 19.2743C4.8369 19.1397 4.52627 18.9844 4.226 18.8083V23.856H0.25V11.928ZM25.6163 19.88C24.5601 19.88 23.5455 19.6781 22.5721 19.2743C21.5988 18.8705 20.7394 18.2958 19.9939 17.5503C19.2484 16.8048 18.6738 15.9454 18.27 14.9721C17.8662 13.9989 17.6643 12.9841 17.6643 11.928C17.6643 10.8719 17.8662 9.85714 18.27 8.8839C18.6738 7.91057 19.2484 7.0512 19.9939 6.3057C20.7394 5.5602 21.5988 4.98551 22.5721 4.5817C23.5455 4.1779 24.5601 3.976 25.6163 3.976C26.6724 3.976 27.6871 4.1779 28.6604 4.5817C29.6337 4.98551 30.4931 5.5602 31.2386 6.3057C31.9841 7.0512 32.5588 7.91057 32.9626 8.8839C33.3664 9.85714 33.5683 10.8719 33.5683 11.928C33.5683 12.9841 33.3664 13.9989 32.9626 14.9721C32.5588 15.9454 31.9841 16.8048 31.2386 17.5503C30.4931 18.2958 29.6337 18.8705 28.6604 19.2743C27.6871 19.6781 26.6724 19.88 25.6163 19.88ZM25.6163 15.904C26.7138 15.904 27.6509 15.5157 28.4274 14.7392C29.204 13.9626 29.5923 13.0255 29.5923 11.928C29.5923 10.8305 29.204 9.8934 28.4274 9.11681C27.6509 8.3403 26.7138 7.952 25.6163 7.952C24.5187 7.952 23.5817 8.3403 22.8051 9.11681C22.0285 9.8934 21.6403 10.8305 21.6403 11.928C21.6403 13.0255 22.0285 13.9626 22.8051 14.7392C23.5817 15.5157 24.5187 15.904 25.6163 15.904ZM39.2409 11.928V19.88H35.2649V11.928C35.2649 10.8719 35.4668 9.85714 35.8706 8.8839C36.2744 7.91057 36.8491 7.0512 37.5946 6.3057C38.3401 5.5602 39.1995 4.98551 40.1728 4.5817C41.146 4.1779 42.1608 3.976 43.2169 3.976V7.952C42.1194 7.952 41.1823 8.3403 40.4058 9.11681C39.6292 9.8934 39.2409 10.8305 39.2409 11.928ZM48.61 13.916V19.88H44.6339V13.916H42.6459V9.94H44.6339V7.952C44.6339 6.8959 44.8358 5.88114 45.2397 4.9079C45.6435 3.93459 46.2181 3.07519 46.9636 2.32969C47.7091 1.58419 48.5686 1.00953 49.5418 0.60572C50.5152 0.201909 51.5298 0 52.5859 0V3.976C51.4884 3.976 50.5514 4.3643 49.7748 5.14081C48.9982 5.9174 48.61 6.85447 48.61 7.952V9.94H52.5859V13.916H48.61ZM62.188 19.88C61.1319 19.88 60.1172 19.6781 59.1439 19.2743C58.1706 18.8705 57.3112 18.2958 56.5657 17.5503C55.8202 16.8048 55.2456 15.9454 54.8418 14.9721C54.438 13.9989 54.236 12.9841 54.236 11.928C54.236 10.8719 54.438 9.85714 54.8418 8.8839C55.2456 7.91057 55.8202 7.0512 56.5657 6.3057C57.3112 5.5602 58.1706 4.98551 59.1439 4.5817C60.1172 4.1779 61.1319 3.976 62.188 3.976C63.2442 3.976 64.2589 4.1779 65.2322 4.5817C66.2054 4.98551 67.0649 5.5602 67.8104 6.3057C68.5559 7.0512 69.1305 7.91057 69.5343 8.8839C69.9381 9.85714 70.14 10.8719 70.14 11.928C70.14 12.9841 69.9381 13.9989 69.5343 14.9721C69.1305 15.9454 68.5559 16.8048 67.8104 17.5503C67.0649 18.2958 66.2054 18.8705 65.2322 19.2743C64.2589 19.6781 63.2442 19.88 62.188 19.88ZM62.188 15.904C63.2856 15.904 64.2226 15.5157 64.9992 14.7392C65.7758 13.9626 66.164 13.0255 66.164 11.928C66.164 10.8305 65.7758 9.8934 64.9992 9.11681C64.2226 8.3403 63.2856 7.952 62.188 7.952C61.0905 7.952 60.1535 8.3403 59.3769 9.11681C58.6003 9.8934 58.212 10.8305 58.212 11.928C58.212 13.0255 58.6003 13.9626 59.3769 14.7392C60.1535 15.5157 61.0905 15.904 62.188 15.904Z" fill="url(#paint0_linear_2002_5880)"/>
<defs>
<linearGradient id="paint0_linear_2002_5880" x1="11.184" y1="-1.988" x2="42.992" y2="27.832" gradientUnits="userSpaceOnUse">
<stop stop-color="#FF4D00"/>
<stop offset="1" stop-color="#533483"/>
</linearGradient>
</defs>
</svg>
