<svg width="16" height="16" viewBox="0 0 16 16" fill="none" xmlns="http://www.w3.org/2000/svg">
<path d="M3.26123 6.40965C3.26123 6.14165 3.47657 5.92432 3.74257 5.92432H6.31323C6.5799 5.92432 6.79523 6.14165 6.79523 6.40965C6.7955 6.47321 6.78324 6.5362 6.75916 6.59502C6.73508 6.65384 6.69965 6.70735 6.65489 6.75248C6.61013 6.79761 6.55692 6.83348 6.4983 6.85804C6.43968 6.88261 6.37679 6.89539 6.31323 6.89565H3.74257C3.61432 6.89494 3.49159 6.84337 3.40134 6.75224C3.31109 6.66112 3.2607 6.5379 3.26123 6.40965Z" fill="white"/>
<path fill-rule="evenodd" clip-rule="evenodd" d="M14.1253 6.66966C14.0839 6.66699 14.0386 6.66699 13.9919 6.66699H12.1433C10.6293 6.66699 9.33325 7.82433 9.33325 9.33366C9.33325 10.843 10.6293 12.0003 12.1433 12.0003H13.9919C14.0386 12.0003 14.0839 12.0003 14.1253 11.9977C14.7406 11.9603 15.2846 11.493 15.3306 10.8397C15.3333 10.797 15.3333 10.751 15.3333 10.7083V7.95899C15.3333 7.91633 15.3333 7.87033 15.3306 7.82766C15.2846 7.17433 14.7406 6.70766 14.1253 6.66966ZM11.9806 10.045C12.3699 10.045 12.6859 9.72633 12.6859 9.33366C12.6859 8.94033 12.3699 8.62233 11.9806 8.62233C11.5906 8.62233 11.2739 8.94099 11.2739 9.33366C11.2739 9.72699 11.5906 10.045 11.9806 10.045Z" fill="white"/>
<path opacity="0.5" d="M14.0933 6.66816C14.0933 5.88083 14.0639 5.03616 13.5613 4.4315C13.5121 4.37226 13.4603 4.31531 13.4059 4.26083C12.9066 3.76216 12.2739 3.54083 11.4926 3.4355C10.7326 3.3335 9.76258 3.3335 8.53725 3.3335H7.12925C5.90392 3.3335 4.93325 3.3335 4.17325 3.4355C3.39192 3.54083 2.75925 3.76216 2.25992 4.26083C1.76125 4.76016 1.53992 5.39283 1.43459 6.17416C1.33325 6.93416 1.33325 7.90416 1.33325 9.1295V9.20416C1.33325 10.4295 1.33325 11.4002 1.43525 12.1595C1.54059 12.9408 1.76192 13.5735 2.26059 14.0728C2.75992 14.5715 3.39259 14.7928 4.17392 14.8982C4.93392 15.0002 5.90392 15.0002 7.12925 15.0002H8.53725C9.76258 15.0002 10.7333 15.0002 11.4926 14.8982C12.2739 14.7928 12.9066 14.5715 13.4059 14.0728C13.5387 13.9396 13.6564 13.792 13.7566 13.6328C14.0566 13.1528 14.0926 12.5648 14.0926 11.9995L13.9926 12.0002H12.1433C10.6293 12.0002 9.33325 10.8428 9.33325 9.3335C9.33325 7.82416 10.6293 6.66683 12.1433 6.66683L13.9919 6.66683C14.0266 6.66683 14.0613 6.66683 14.0933 6.66816Z" fill="white"/>
<path d="M6.73398 1.71488L5.33331 2.66155L4.17798 3.43488C4.93665 3.33355 5.90598 3.33355 7.12864 3.33355L8.53731 3.33355C9.76264 3.33355 10.7333 3.33355 11.4926 3.43555C11.646 3.45555 11.7926 3.48088 11.934 3.51155L10.6666 2.66688L9.25798 1.71488C8.88408 1.46618 8.44503 1.3335 7.99598 1.3335C7.54692 1.3335 7.10788 1.46618 6.73398 1.71488Z" fill="white"/>
</svg>
