<svg width="16" height="16" viewBox="0 0 16 16" fill="none" xmlns="http://www.w3.org/2000/svg">
<path opacity="0.5" d="M13.3334 7.99984C13.3334 9.41433 12.7715 10.7709 11.7713 11.7711C10.7711 12.7713 9.41457 13.3332 8.00008 13.3332C6.58559 13.3332 5.22904 12.7713 4.22885 11.7711C3.22865 10.7709 2.66675 9.41433 2.66675 7.99984C2.66675 6.58535 3.22865 5.2288 4.22885 4.2286C5.22904 3.22841 6.58559 2.6665 8.00008 2.6665C9.41457 2.6665 10.7711 3.22841 11.7713 4.2286C12.7715 5.2288 13.3334 6.58535 13.3334 7.99984Z" fill="white"/>
<path d="M12.6727 4.52254C12.8048 4.51034 12.9266 4.44617 13.0114 4.34415C13.0961 4.24213 13.1369 4.11061 13.1247 3.97854C13.1125 3.84646 13.0483 3.72464 12.9463 3.63987C12.8443 3.5551 12.7128 3.51434 12.5807 3.52654C12.2981 3.5532 11.9981 3.5972 11.6841 3.65987C11.5563 3.68483 11.4434 3.75876 11.3694 3.86587L12.1141 4.5972C12.3114 4.56387 12.4981 4.53854 12.6727 4.52254Z" fill="white"/>
<path fill-rule="evenodd" clip-rule="evenodd" d="M13.9581 3.58657C13.8936 3.56943 13.8262 3.5654 13.7601 3.5747C13.694 3.58401 13.6304 3.60647 13.5731 3.64077C13.5158 3.67506 13.4659 3.72048 13.4264 3.77436C13.387 3.82823 13.3587 3.88947 13.3433 3.95445C13.3279 4.01943 13.3256 4.08684 13.3367 4.1527C13.3478 4.21856 13.3719 4.28154 13.4077 4.33791C13.4435 4.39428 13.4903 4.44291 13.5452 4.48093C13.6001 4.51894 13.6621 4.54557 13.7274 4.55924C13.9901 4.62124 14.0914 4.7139 14.1288 4.7739C14.1708 4.8419 14.2174 5.0179 14.0241 5.4059C13.9649 5.52463 13.9552 5.66203 13.9973 5.78786C14.0394 5.9137 14.1297 6.01767 14.2484 6.0769C14.3672 6.13614 14.5046 6.14578 14.6304 6.10371C14.7562 6.06163 14.8602 5.9713 14.9194 5.85257C15.1714 5.34657 15.2948 4.75257 14.9768 4.2439C14.7474 3.87724 14.3614 3.68257 13.9581 3.58657ZM13.8081 7.30724C13.8544 7.26062 13.891 7.20534 13.9159 7.14456C13.9408 7.08379 13.9535 7.0187 13.9533 6.95302C13.953 6.88734 13.9398 6.82235 13.9145 6.76176C13.8891 6.70117 13.8521 6.64617 13.8054 6.5999C13.7588 6.55363 13.7035 6.517 13.6428 6.49209C13.582 6.46719 13.5169 6.4545 13.4512 6.45474C13.3855 6.45499 13.3205 6.46817 13.26 6.49354C13.1994 6.5189 13.1444 6.55595 13.0981 6.60257C12.6408 7.0639 12.0534 7.5559 11.3594 8.0499C11.2514 8.12682 11.1784 8.24349 11.1563 8.37427C11.1343 8.50504 11.1652 8.63921 11.2421 8.74724C11.319 8.85527 11.4357 8.92832 11.5665 8.95033C11.6972 8.97233 11.8314 8.94148 11.9394 8.86457C12.6694 8.34457 13.3021 7.81657 13.8081 7.30724ZM2.39144 9.96457C2.52544 9.79657 2.68277 9.62057 2.86211 9.4379L2.70344 8.55124C2.61708 8.52561 2.5254 8.52379 2.4381 8.54597C2.35079 8.56815 2.2711 8.6135 2.20744 8.67724C1.98477 8.90124 1.78411 9.12324 1.61011 9.34057C1.56909 9.39187 1.53858 9.45075 1.52032 9.51385C1.50206 9.57694 1.4964 9.64301 1.50368 9.70829C1.51095 9.77357 1.53101 9.83678 1.56271 9.89431C1.59441 9.95183 1.63714 10.0026 1.68844 10.0436C1.73974 10.0846 1.79862 10.1151 1.86172 10.1334C1.92481 10.1516 1.99088 10.1573 2.05616 10.15C2.12144 10.1427 2.18465 10.1227 2.24218 10.091C2.2997 10.0593 2.35042 10.0165 2.39144 9.96524V9.96457ZM10.5001 9.80257C10.5577 9.7695 10.6081 9.72529 10.6485 9.67251C10.6888 9.61974 10.7182 9.55945 10.735 9.49519C10.7517 9.43092 10.7555 9.36395 10.7461 9.2982C10.7367 9.23245 10.7143 9.16923 10.6802 9.11223C10.6461 9.05524 10.601 9.00561 10.5475 8.96624C10.494 8.92687 10.4332 8.89855 10.3687 8.88295C10.3041 8.86734 10.2371 8.86475 10.1715 8.87533C10.106 8.88591 10.0431 8.90945 9.98677 8.94457C9.31835 9.34421 8.63038 9.71022 7.92544 10.0412C7.80894 10.0997 7.71989 10.2014 7.67728 10.3246C7.63467 10.4478 7.64186 10.5828 7.69733 10.7008C7.7528 10.8188 7.85215 10.9104 7.97422 10.9562C8.09628 11.002 8.2314 10.9983 8.35077 10.9459C9.08563 10.6005 9.80295 10.2189 10.5001 9.80257ZM1.87677 10.8332C1.917 10.7068 1.90535 10.5696 1.8444 10.4518C1.78346 10.3339 1.67819 10.2451 1.55177 10.2049C1.42535 10.1647 1.28813 10.1763 1.1703 10.2373C1.05246 10.2982 0.963664 10.4035 0.923439 10.5299C0.796106 10.9306 0.782773 11.3712 1.02344 11.7566C1.32544 12.2392 1.89477 12.4272 2.45944 12.4812C2.52532 12.4885 2.59201 12.4827 2.6556 12.464C2.7192 12.4453 2.77844 12.4141 2.82988 12.3723C2.88133 12.3305 2.92394 12.2789 2.95525 12.2204C2.98656 12.162 3.00594 12.0979 3.01226 12.032C3.01858 11.966 3.01172 11.8994 2.99207 11.8361C2.97242 11.7728 2.94038 11.714 2.8978 11.6632C2.85523 11.6124 2.80298 11.5705 2.74409 11.5401C2.6852 11.5097 2.62085 11.4912 2.55477 11.4859C2.09211 11.4419 1.92277 11.3079 1.87144 11.2259C1.83811 11.1726 1.80344 11.0632 1.87677 10.8332ZM6.72211 11.6352C6.84348 11.5867 6.94099 11.4925 6.99376 11.3729C7.04653 11.2532 7.05035 11.1177 7.00441 10.9953C6.95847 10.8729 6.86642 10.7734 6.74798 10.7181C6.62954 10.6627 6.49413 10.656 6.37077 10.6992C5.55411 11.0059 4.79411 11.2266 4.12944 11.3586C4.00222 11.3871 3.89119 11.4643 3.82003 11.5735C3.74888 11.6828 3.72321 11.8155 3.74852 11.9434C3.77382 12.0714 3.84809 12.1843 3.95549 12.2583C4.06289 12.3322 4.19492 12.3613 4.32344 12.3392C5.05211 12.1952 5.86544 11.9566 6.72211 11.6352Z" fill="white"/>
</svg>
