<svg width="48" height="46" viewBox="0 0 48 46" fill="none" xmlns="http://www.w3.org/2000/svg">
<path d="M43.98 12.4629C43.9633 11.6462 43.8945 10.8312 43.774 10.0224C43.6303 9.30306 43.3862 8.60522 43.048 7.94749C42.3077 6.55652 41.121 5.4263 39.66 4.72086C38.9734 4.40051 38.245 4.16876 37.494 4.03176C36.6378 3.91465 35.7748 3.8479 34.91 3.83188C34.544 3.81855 34.07 3.81284 33.85 3.81284L14.154 3.80713C13.934 3.80713 13.46 3.81284 13.094 3.82617C12.2359 3.8419 11.3797 3.90738 10.53 4.02224C9.7742 4.15899 9.04103 4.39139 8.35 4.71325C6.88869 5.41797 5.70126 6.5475 4.96 7.93797C4.62351 8.59151 4.38004 9.28482 4.236 9.99959C4.11241 10.8145 4.04161 11.6359 4.024 12.4591C4.012 12.8074 4.004 13.2586 4.004 13.468L4 32.2148C4 32.4242 4.006 32.8753 4.02 33.2237C4.03653 34.0404 4.10533 34.8554 4.226 35.6641C4.3697 36.3835 4.61387 37.0813 4.952 37.7391C5.6924 39.1299 6.87912 40.2601 8.34 40.9657C9.02665 41.2859 9.75505 41.5176 10.506 41.6548C11.3622 41.7719 12.2252 41.8387 13.09 41.8547C13.456 41.868 13.93 41.8737 14.15 41.8737L33.846 41.8775C34.066 41.8775 34.54 41.8718 34.906 41.8585C35.7641 41.8427 36.6203 41.7772 37.47 41.6624C38.2258 41.5256 38.9589 41.2932 39.65 40.9714C41.1121 40.267 42.3002 39.1374 43.042 37.7467C43.3785 37.0931 43.622 36.3998 43.766 35.6851C43.8897 34.8701 43.9605 34.0488 43.978 33.2256C43.99 32.8772 43.998 32.4261 43.998 32.2167L44 13.4718C44 13.2624 43.994 12.8112 43.98 12.4629ZM24.434 36.0867H24.428C22.0473 36.0863 19.7047 35.5182 17.614 34.4344L10.054 36.3209L12.078 29.2908C10.5109 26.7025 9.88474 23.6944 10.2966 20.7329C10.7085 17.7714 12.1353 15.0219 14.3559 12.9108C16.5766 10.7997 19.4669 9.44491 22.5789 9.05643C25.6908 8.66795 28.8505 9.26751 31.568 10.7622C34.2855 12.2568 36.409 14.563 37.6093 17.3233C38.8096 20.0835 39.0196 23.1436 38.2068 26.029C37.394 28.9144 35.6037 31.464 33.1136 33.2824C30.6235 35.1009 27.5726 36.0866 24.434 36.0867Z" fill="#3897E3"/>
<path d="M24.44 11.2333C22.3222 11.2328 20.2428 11.7722 18.4182 12.7956C16.5937 13.819 15.0905 15.289 14.0649 17.0527C13.0394 18.8164 12.5291 20.8093 12.5869 22.8243C12.6448 24.8394 13.2688 26.8028 14.394 28.5105L14.676 28.937L13.478 33.0983L17.964 31.9789L18.396 32.2226C20.2222 33.252 22.3056 33.7951 24.428 33.795H24.434C27.5776 33.7955 30.5927 32.6074 32.8159 30.492C35.0391 28.3766 36.2884 25.5072 36.289 22.5151C36.2895 19.523 35.0412 16.6532 32.8187 14.5371C30.5962 12.421 27.5816 11.232 24.438 11.2314L24.44 11.2333ZM31.408 27.357C31.1458 27.769 30.7969 28.125 30.3832 28.4025C29.9695 28.68 29.4999 28.873 29.004 28.9693C28.2553 29.0915 27.4869 29.0459 26.76 28.8361C26.0706 28.6316 25.393 28.3927 24.73 28.1203C22.2694 26.945 20.1722 25.181 18.644 23.0015C17.8103 21.9925 17.3043 20.7738 17.188 19.495C17.1784 18.9672 17.2844 18.4432 17.4993 17.9565C17.7141 17.4698 18.0331 17.0311 18.436 16.6682C18.555 16.5389 18.7009 16.4345 18.8644 16.3614C19.0279 16.2884 19.2054 16.2483 19.386 16.2437C19.622 16.2437 19.86 16.2437 20.068 16.2551C20.288 16.2646 20.58 16.1751 20.868 16.8376C21.168 17.5153 21.88 19.1847 21.968 19.3542C22.0245 19.443 22.0568 19.5438 22.062 19.6475C22.0673 19.7512 22.0453 19.8545 21.998 19.9481C21.9083 20.1517 21.7884 20.3421 21.642 20.5135C21.462 20.7114 21.268 20.9551 21.108 21.1074C20.928 21.2768 20.744 21.4596 20.95 21.7984C21.485 22.6704 22.153 23.462 22.932 24.1475C23.7772 24.8627 24.7471 25.4322 25.798 25.8303C26.154 26.0016 26.362 25.9711 26.57 25.7446C26.778 25.5181 27.46 24.7547 27.698 24.4159C27.936 24.077 28.172 24.1341 28.498 24.2465C28.824 24.3588 30.578 25.1792 30.934 25.3506C31.29 25.5219 31.528 25.6037 31.616 25.7446C31.7135 26.2899 31.6412 26.8504 31.408 27.357Z" fill="#3897E3"/>
</svg>
