<svg width="50" height="50" viewBox="0 0 50 50" fill="none" xmlns="http://www.w3.org/2000/svg">
<circle cx="25" cy="25" r="24.5" stroke="#484747"/>
<path d="M33.2249 16.7283C32.1553 15.6479 30.8813 14.7913 29.4772 14.2084C28.073 13.6255 26.5669 13.328 25.0466 13.3333C18.6766 13.3333 13.4849 18.525 13.4849 24.895C13.4849 26.9367 14.0216 28.92 15.0249 30.67L13.3916 36.6667L19.5166 35.0567C21.2083 35.9783 23.1099 36.4683 25.0466 36.4683C31.4166 36.4683 36.6083 31.2767 36.6083 24.9067C36.6083 21.815 35.4066 18.91 33.2249 16.7283ZM25.0466 34.5083C23.3199 34.5083 21.6283 34.0417 20.1466 33.1667L19.7966 32.9567L16.1566 33.9133L17.1249 30.3667L16.8916 30.005C15.9323 28.4731 15.4229 26.7024 15.4216 24.895C15.4216 19.5983 19.7383 15.2817 25.0349 15.2817C27.6016 15.2817 30.0166 16.285 31.8249 18.105C32.7203 18.9963 33.4299 20.0564 33.9126 21.224C34.3952 22.3915 34.6413 23.6433 34.6366 24.9067C34.6599 30.2033 30.3433 34.5083 25.0466 34.5083ZM30.3199 27.3217C30.0283 27.1817 28.6049 26.4817 28.3483 26.3767C28.0799 26.2833 27.8933 26.2367 27.6949 26.5167C27.4966 26.8083 26.9483 27.4617 26.7849 27.6483C26.6216 27.8467 26.4466 27.87 26.1549 27.7183C25.8633 27.5783 24.9299 27.2633 23.8333 26.2833C22.9699 25.5133 22.3983 24.5683 22.2233 24.2767C22.0599 23.985 22.1999 23.8333 22.3516 23.6817C22.4799 23.5533 22.6433 23.3433 22.7833 23.18C22.9233 23.0167 22.9816 22.8883 23.0749 22.7017C23.1683 22.5033 23.1216 22.34 23.0516 22.2C22.9816 22.06 22.3983 20.6367 22.1649 20.0533C21.9316 19.4933 21.6866 19.5633 21.5116 19.5517H20.9516C20.7533 19.5517 20.4499 19.6217 20.1816 19.9133C19.9249 20.205 19.1783 20.905 19.1783 22.3283C19.1783 23.7517 20.2166 25.1283 20.3566 25.315C20.4966 25.5133 22.3983 28.43 25.2916 29.6783C25.9799 29.9817 26.5166 30.1567 26.9366 30.285C27.6249 30.5067 28.2549 30.4717 28.7566 30.4017C29.3166 30.32 30.4716 29.7017 30.7049 29.025C30.9499 28.3483 30.9499 27.7767 30.8683 27.6483C30.7866 27.52 30.6116 27.4617 30.3199 27.3217Z" fill="#828282"/>
</svg>
