<svg width="16" height="16" viewBox="0 0 16 16" fill="none" xmlns="http://www.w3.org/2000/svg">
<path opacity="0.5" d="M2 6.66683C2 4.15283 2 2.8955 2.78133 2.11483C3.562 1.3335 4.81933 1.3335 7.33333 1.3335H8.66667C11.1807 1.3335 12.438 1.3335 13.2187 2.11483C14 2.8955 14 4.15283 14 6.66683V9.3335C14 11.8475 14 13.1048 13.2187 13.8855C12.438 14.6668 11.1807 14.6668 8.66667 14.6668H7.33333C4.81933 14.6668 3.562 14.6668 2.78133 13.8855C2 13.1048 2 11.8475 2 9.3335L2 6.66683Z" fill="white"/>
<path d="M11.0126 11.0006C11.1293 10.91 11.2353 10.804 11.4466 10.5926L14.0846 7.95396C14.1486 7.89063 14.1193 7.78063 14.0346 7.75063C13.6218 7.60676 13.247 7.37106 12.9386 7.06129C12.6288 6.75284 12.3931 6.37809 12.2493 5.96529C12.2193 5.88063 12.1093 5.85129 12.0459 5.91529L9.40659 8.55329C9.19526 8.76463 9.08926 8.87063 8.99859 8.98729C8.89126 9.12529 8.79859 9.27396 8.72392 9.43129C8.66059 9.56463 8.61326 9.70729 8.51859 9.99129L8.39592 10.358L8.20126 10.9413L8.01926 11.488C7.99656 11.5565 7.99336 11.63 8.01001 11.7002C8.02666 11.7704 8.06251 11.8346 8.11354 11.8857C8.16458 11.9367 8.2288 11.9726 8.29903 11.9892C8.36926 12.0059 8.44274 12.0027 8.51126 11.98L9.05792 11.798L9.64126 11.6033L10.0079 11.4806C10.2919 11.386 10.4346 11.3393 10.5679 11.2753C10.7253 11.2 10.8753 11.1086 11.0126 11.0006ZM14.9106 7.12796C15.0483 6.99494 15.1581 6.83585 15.2336 6.65995C15.3092 6.48405 15.3489 6.29487 15.3506 6.10344C15.3522 5.91202 15.3158 5.72218 15.2433 5.54499C15.1708 5.36781 15.0638 5.20683 14.9284 5.07144C14.7931 4.93606 14.6322 4.82898 14.455 4.75644C14.2778 4.68391 14.088 4.64738 13.8966 4.64898C13.7052 4.65058 13.516 4.69027 13.34 4.76576C13.1641 4.84124 13.005 4.951 12.8719 5.08863L12.7873 5.17396C12.7469 5.21375 12.7168 5.26277 12.6996 5.31677C12.6824 5.37078 12.6787 5.42816 12.6886 5.48396C12.7019 5.55529 12.7253 5.66063 12.7686 5.78529C12.8553 6.03529 13.0193 6.36329 13.3279 6.67196C13.5772 6.92325 13.8804 7.11452 14.2146 7.23129C14.3399 7.27463 14.4446 7.29796 14.5159 7.31129C14.5717 7.32117 14.6291 7.31735 14.6831 7.30017C14.7371 7.28298 14.7861 7.25294 14.8259 7.21263L14.9106 7.12796Z" fill="white"/>
<path fill-rule="evenodd" clip-rule="evenodd" d="M4.83325 6C4.83325 5.86739 4.88593 5.74022 4.9797 5.64645C5.07347 5.55268 5.20064 5.5 5.33325 5.5H9.66659C9.79919 5.5 9.92637 5.55268 10.0201 5.64645C10.1139 5.74022 10.1666 5.86739 10.1666 6C10.1666 6.13261 10.1139 6.25978 10.0201 6.35355C9.92637 6.44732 9.79919 6.5 9.66659 6.5H5.33325C5.20064 6.5 5.07347 6.44732 4.9797 6.35355C4.88593 6.25978 4.83325 6.13261 4.83325 6ZM4.83325 8.66667C4.83325 8.53406 4.88593 8.40688 4.9797 8.31311C5.07347 8.21935 5.20064 8.16667 5.33325 8.16667H7.33325C7.46586 8.16667 7.59304 8.21935 7.68681 8.31311C7.78057 8.40688 7.83325 8.53406 7.83325 8.66667C7.83325 8.79927 7.78057 8.92645 7.68681 9.02022C7.59304 9.11399 7.46586 9.16667 7.33325 9.16667H5.33325C5.20064 9.16667 5.07347 9.11399 4.9797 9.02022C4.88593 8.92645 4.83325 8.79927 4.83325 8.66667ZM4.83325 11.3333C4.83325 11.2007 4.88593 11.0735 4.9797 10.9798C5.07347 10.886 5.20064 10.8333 5.33325 10.8333H6.33325C6.46586 10.8333 6.59304 10.886 6.68681 10.9798C6.78057 11.0735 6.83325 11.2007 6.83325 11.3333C6.83325 11.4659 6.78057 11.5931 6.68681 11.6869C6.59304 11.7807 6.46586 11.8333 6.33325 11.8333H5.33325C5.20064 11.8333 5.07347 11.7807 4.9797 11.6869C4.88593 11.5931 4.83325 11.4659 4.83325 11.3333Z" fill="white"/>
</svg>
